<?xml version="1.0" standalone="no"?>
<!DOCTYPE svg PUBLIC "-//W3C//DTD SVG 1.1//EN" "http://www.w3.org/Graphics/SVG/1.1/DTD/svg11.dtd" >
<svg xmlns="http://www.w3.org/2000/svg" xmlns:xlink="http://www.w3.org/1999/xlink" version="1.1">
<metadata>
Created by Christoph Koeberlin (http://christoph.koe.berlin)
Copyright (c) 2016 Swiss Typefaces Sa`rl. All rights reserved.
</metadata>
<defs>
<font id="Font" horiz-adv-x="0" >
  <font-face 
    font-family="Font"
    font-weight="900"
    font-stretch="normal"
    units-per-em="1000"
    panose-1="2 11 10 4 0 0 0 0 0 0"
    ascent="800"
    descent="-200"
    x-height="538"
    cap-height="725"
    bbox="-241 -714 2813 1171"
    underline-thickness="100"
    underline-position="-110"
    unicode-range="U+0020-FEFC"
  />
<missing-glyph horiz-adv-x="500" 
d="M0 725h500v-725h-500v725zM19 696v-667l220 333zM481 29v667l-221 -334zM33 19h433l-216 327zM250 378l216 328h-433z" />
    <glyph glyph-name="uni0407_uni0407.liga" unicode="&#x407;&#x407;" horiz-adv-x="655" 
d="M274 0h-209v725h209v-725zM590 0h-209v725h209v-725zM709 886v-113h-171v113h171zM413 886v-113h-171v113h171zM118 886v-113h-171v113h171z" />
    <glyph glyph-name="uni0457_uni0457.liga" unicode="&#x457;&#x457;" horiz-adv-x="651" 
d="M591 538v-538h-200v538h200zM260 538v-538h-200v538h200zM133 725v-116h-166v116h166zM684 725v-116h-166v116h166zM408 725v-116h-166v116h166z" />
    <glyph glyph-name="uniFEFB" unicode="&#xfedf;&#xfe8e;" horiz-adv-x="618" arabic-form="isolated" 
d="M534 775v-175q0 -58 -17.5 -108t-46.5 -94l-10 -16l51 -47q43 -41 65 -79.5t22 -79.5q0 -80 -51 -128t-145 -48h-315l-82 190q96 43 162 86q65 42 106 88l-260 226l4 10h210l115 -107q12 48 12 107v175h180zM332 254q-37 -28 -73 -49q-14 -8 -26 -15h145q34 0 34 27
q0 14 -19 37q-10 12 -27 28q-17 -15 -34 -28z" />
    <glyph glyph-name="uniFEFC" unicode="&#xfee0;&#xfe8e;" horiz-adv-x="688" arabic-form="final" 
d="M617 725l1 -441q0 -50 16.5 -72t52.5 -22q10 0 10 -10l1 -169q0 -11 -10 -11q-126 0 -188 54q-14 -6 -31 -12q-34 -12 -73.5 -21.5t-78.5 -15t-66 -5.5q-52 0 -116 7t-125 27v185q31 -9 64.5 -14.5t65.5 -9.5q18 -2 35 -3q-1 2 -1 4q-2 33 -7 62q-7 43 -26 129t-49 213
h180q27 -123 44 -205t22 -127q3 -23 2 -58v-15l33 4q34 5 65 10v7l-1 509h180z" />
    <glyph glyph-name="uniFEF7" unicode="&#xfedf;&#xfe84;" horiz-adv-x="618" arabic-form="isolated" 
d="M534 775v-175q0 -58 -17.5 -108t-46.5 -94l-10 -16l51 -47q43 -41 65 -79.5t22 -79.5q0 -80 -51 -128t-145 -48h-315l-82 190q96 43 162 86q65 42 106 88l-260 226l4 10h210l115 -107q12 48 12 107v175h180zM332 254q-37 -28 -73 -49q-14 -8 -26 -15h145q34 0 34 27
q0 14 -19 37q-10 12 -27 28q-17 -15 -34 -28zM252 741l-20 -90h-167q-17 0 -33 -2t-42 -10v88q25 9 40 11q5 1 11 2l-6 6q-16 16 -16 42q0 39 28.5 65.5t72.5 26.5q27 0 52.5 -6t41.5 -14v-85q-38 15 -63 15q-15 0 -24.5 -6t-9.5 -17q0 -16 18 -21t38 -5h79z" />
    <glyph glyph-name="uniFEF8" unicode="&#xfee0;&#xfe84;" horiz-adv-x="688" arabic-form="final" 
d="M617 725l1 -441q0 -50 16.5 -72t52.5 -22q10 0 10 -10l1 -169q0 -11 -10 -11q-126 0 -188 54q-14 -6 -31 -12q-34 -12 -73.5 -21.5t-78.5 -15t-66 -5.5q-52 0 -116 7t-125 27v185q31 -9 64.5 -14.5t65.5 -9.5q18 -2 35 -3q-1 2 -1 4q-2 33 -7 62q-7 43 -26 129t-49 213
h180q27 -123 44 -205t22 -127q3 -23 2 -58v-15l33 4q34 5 65 10v7l-1 509h180zM309 744l-20 -90h-167q-17 0 -33 -2t-42 -10v88q25 9 39 11q5 1 11 2l-6 6q-15 16 -15 42q0 39 28.5 65.5t72.5 26.5q27 0 52.5 -6t41.5 -14v-85q-38 15 -63 15q-15 0 -24.5 -6t-9.5 -17
q0 -16 18 -21q14 -4 29 -5h88z" />
    <glyph glyph-name="uniFEF9" unicode="&#xfedf;&#xfe88;" horiz-adv-x="618" arabic-form="isolated" 
d="M534 775v-175q0 -58 -17.5 -108t-46.5 -94l-10 -16l51 -47q43 -41 65 -79.5t22 -79.5q0 -80 -51 -128t-145 -48h-315l-82 190q96 43 162 86q65 42 106 88l-260 226l4 10h210l115 -107q12 48 12 107v175h180zM332 254q-37 -28 -73 -49q-14 -8 -26 -15h145q34 0 34 27
q0 14 -19 37q-10 12 -27 28q-17 -15 -34 -28zM464 -170l-20 -90h-167q-17 0 -33 -2t-42 -10v88q25 9 40 12q5 1 11 2q-4 2 -6 5q-16 16 -16 42q0 39 28.5 65.5t72.5 26.5q27 0 52.5 -6t41.5 -14v-85q-38 15 -63 15q-15 0 -24.5 -6t-9.5 -17q0 -16 18 -21q14 -4 30 -5h87z
" />
    <glyph glyph-name="uniFEFA" unicode="&#xfee0;&#xfe88;" horiz-adv-x="688" arabic-form="final" 
d="M617 725l1 -441q0 -50 16.5 -72t52.5 -22q10 0 10 -10l1 -169q0 -11 -10 -11q-126 0 -188 54q-14 -6 -31 -12q-34 -12 -73.5 -21.5t-78.5 -15t-66 -5.5q-52 0 -116 7t-125 27v185q31 -9 64.5 -14.5t65.5 -9.5q18 -2 35 -3q-1 2 -1 4q-2 33 -7 62q-7 43 -26 129t-49 213
h180q27 -123 44 -205t22 -127q3 -23 2 -58v-15l33 4q34 5 65 10v7l-1 509h180zM464 -170l-20 -90h-167q-17 0 -33 -2t-42 -10v88q25 9 39 12q5 1 11 2q-3 2 -6 5q-15 16 -15 42q0 39 28.5 65.5t72.5 26.5q27 0 52.5 -6t41.5 -14v-85q-38 15 -63 15q-15 0 -24.5 -6t-9.5 -17
q0 -16 18 -21t38 -5h79z" />
    <glyph glyph-name="uniFEF5" unicode="&#xfedf;&#xfe82;" horiz-adv-x="618" arabic-form="isolated" 
d="M534 775v-175q0 -58 -17.5 -108t-46.5 -94l-10 -16l51 -47q43 -41 65 -79.5t22 -79.5q0 -80 -51 -128t-145 -48h-315l-82 190q96 43 162 86q65 42 106 88l-260 226l4 10h210l115 -107q12 48 12 107v175h180zM332 254q-37 -28 -73 -49q-14 -8 -26 -15h145q34 0 34 27
q0 14 -19 37q-10 12 -27 28q-17 -15 -34 -28zM73 788q16 0 32.5 -6t32.5 -12.5t32 -12.5t33 -6q15 0 39 6.5t41 19.5l-1 -106q-15 -11 -35 -18t-42 -7q-17 0 -32.5 6t-30 12.5t-28.5 12.5t-29 6q-21 0 -34.5 -10t-16.5 -29h-80q0 72 32.5 108t86.5 36z" />
    <glyph glyph-name="uniFEF6" unicode="&#xfee0;&#xfe82;" horiz-adv-x="688" arabic-form="final" 
d="M617 725l1 -441q0 -50 16.5 -72t52.5 -22q10 0 10 -10l1 -169q0 -11 -10 -11q-126 0 -188 54q-14 -6 -31 -12q-34 -12 -73.5 -21.5t-78.5 -15t-66 -5.5q-52 0 -116 7t-125 27v185q31 -9 64.5 -14.5t65.5 -9.5q18 -2 35 -3q-1 2 -1 4q-2 33 -7 62q-7 43 -26 129t-49 213
h180q27 -123 44 -205t22 -127q3 -23 2 -58v-15l33 4q34 5 65 10v7l-1 509h180zM135 791q16 0 32.5 -6t32.5 -12.5t32 -12.5t33 -6q15 0 39 6.5t41 19.5l-1 -106q-15 -11 -35 -18t-42 -7q-17 0 -32.5 6t-30 12.5t-28.5 12.5t-29 6q-21 0 -34.5 -10t-16.5 -29h-80
q0 72 32.5 108t86.5 36z" />
    <glyph glyph-name="uniFEDF_uniFB51.rlig" unicode="&#xfedf;&#xfb51;" horiz-adv-x="618" 
d="M534 775v-175q0 -58 -17.5 -108t-46.5 -94l-10 -16l51 -47q43 -41 65 -79.5t22 -79.5q0 -80 -51 -128t-145 -48h-315l-82 190q96 43 162 86q65 42 106 88l-260 226l4 10h210l115 -107q12 48 12 107v175h180zM332 254q-37 -28 -73 -49q-14 -8 -26 -15h145q34 0 34 27
q0 14 -19 37q-10 12 -27 28q-17 -15 -34 -28zM194 841q20 0 38.5 -7.5t32 -20.5t21.5 -30.5t8 -36.5q0 -49 -43 -76t-116 -27q-36 0 -76 8t-76 22l23 74q23 -8 43 -13q15 20 29 36q22 25 41.5 40.5t37.5 23t37 7.5zM138 723q61 0 61 22q0 8 -7 13t-15 5t-16.5 -3.5
t-20.5 -12t-28 -23.5q14 -1 26 -1z" />
    <glyph glyph-name="uniFEE0_uniFB51.rlig" unicode="&#xfee0;&#xfb51;" horiz-adv-x="688" 
d="M617 725l1 -441q0 -50 16.5 -72t52.5 -22q10 0 10 -10l1 -169q0 -11 -10 -11q-126 0 -188 54q-14 -6 -31 -12q-34 -12 -73.5 -21.5t-78.5 -15t-66 -5.5q-52 0 -116 7t-125 27v185q31 -9 64.5 -14.5t65.5 -9.5q18 -2 35 -3q-1 2 -1 4q-2 33 -7 62q-7 43 -26 129t-49 213
h180q27 -123 44 -205t22 -127q3 -23 2 -58v-15l33 4q34 5 65 10v7l-1 509h180zM227 844q20 0 38.5 -7.5t32 -20.5t21.5 -30.5t8 -36.5q0 -49 -43 -76t-116 -27q-36 0 -76 8t-76 22l23 74q22 -8 42 -13q16 20 30 36q22 25 41.5 40.5t37.5 23t37 7.5zM171 726q61 0 61 22
q0 8 -7 13t-15 5t-16.5 -3.5t-20.5 -12t-28 -23.5q14 -1 26 -1z" />
    <glyph glyph-name="uniFC43" unicode="&#xfedf;&#xfef0;" horiz-adv-x="921" arabic-form="isolated" 
d="M851 725v-509q0 -175 -164 -208q-28 -52 -58 -91q-37 -47 -81.5 -76t-98.5 -42.5t-123 -13.5q-144 0 -225 70t-81 200q0 53 10 107t33 123h160q-21 -54 -30.5 -95.5t-9.5 -80.5q0 -66 37.5 -100t122.5 -34q74 0 136 22q21 7 39 17q-18 6 -38 14q-25 10 -57 24v180
q100 -42 180 -42q36 0 52 22t16 72v441h180z" />
    <glyph glyph-name="uniFC86" unicode="&#xfee0;&#xfef0;" horiz-adv-x="932" arabic-form="final" 
d="M861 725l1 -441q0 -50 16.5 -72t52.5 -22q10 0 10 -10l1 -169q0 -11 -10 -11q-135 0 -197 62q-20 -18 -38 -31h2q-33 -67 -70 -114t-81.5 -76t-98.5 -42.5t-123 -13.5q-144 0 -225 70t-81 200q0 53 10 107t33 123h160q-21 -54 -30.5 -95.5t-9.5 -80.5q0 -66 37.5 -100
t122.5 -34q74 0 136 22q21 7 39 17q-18 6 -38 14q-25 10 -57 24v180q100 -42 180 -42q26 0 53 10q14 6 26 13v3l-1 509h180z" />
    <glyph glyph-name="uniFE8E" unicode="&#x627;" horiz-adv-x="321" arabic-form="final" 
d="M250 725l1 -441q0 -50 16.5 -72t52.5 -22q10 0 10 -10l1 -169q0 -11 -10 -11q-250 0 -250 216l-1 509h180z" />
    <glyph glyph-name="uniFE84" unicode="&#x623;" horiz-adv-x="321" arabic-form="final" 
d="M250 600l1 -316q0 -50 17 -72t53 -22q10 0 10 -10v-169q0 -11 -10 -11q-250 0 -250 216l-1 384h180zM280 745l-20 -90h-167q-17 0 -33 -2t-42 -10v88q25 9 40 11q5 1 11 2l-6 6q-16 16 -16 42q0 39 28.5 65.5t72.5 26.5q27 0 52.5 -6t41.5 -14v-85q-38 15 -63 15
q-15 0 -24.5 -6t-9.5 -17q0 -16 18 -21t38 -5h79z" />
    <glyph glyph-name="uniFE88" unicode="&#x625;" horiz-adv-x="321" arabic-form="final" 
d="M250 725l1 -441q0 -50 16.5 -72t52.5 -22q10 0 10 -10l1 -169q0 -11 -10 -11q-250 0 -250 216l-1 509h180zM290 -174l-20 -90h-167q-17 0 -33 -2t-42 -10v88q25 9 40 12q5 1 11 2q-4 2 -6 5q-16 16 -16 42q0 39 28.5 65.5t72.5 26.5q27 0 52.5 -6t41.5 -14v-85
q-38 15 -63 15q-15 0 -24.5 -6t-9.5 -17q0 -16 18 -21q14 -4 30 -5h87z" />
    <glyph glyph-name="uniFE82" unicode="&#x622;" horiz-adv-x="321" arabic-form="final" 
d="M250 600l1 -316q0 -50 17 -72t53 -22q10 0 10 -10v-169q0 -11 -10 -11q-250 0 -250 216l-1 384h180zM96 779q16 0 32.5 -6t32.5 -12.5t32 -12.5t33 -6q15 0 39 6.5t41 19.5l-1 -106q-15 -11 -35 -18t-42 -7q-17 0 -32.5 6t-30 12.5t-28.5 12.5t-29 6q-21 0 -34.5 -10
t-16.5 -29h-80q0 72 32.5 108t86.5 36z" />
    <glyph glyph-name="uniFB51" unicode="&#x671;" horiz-adv-x="321" arabic-form="final" 
d="M250 600l1 -316q0 -50 17 -72t53 -22q10 0 10 -10v-169q0 -11 -10 -11q-250 0 -250 216l-1 384h180zM203 823q20 0 38.5 -7.5t32 -20.5t21.5 -30.5t8 -36.5q0 -49 -43 -76t-116 -27q-36 0 -76 8t-76 22l23 74q23 -8 43 -13q15 20 29 36q22 25 41.5 40.5t37.5 23t37 7.5z
M147 705q61 0 61 22q0 8 -7 13t-15 5t-16.5 -3.5t-20.5 -12t-28 -23.5q14 -1 26 -1z" />
    <glyph glyph-name="uni066E.init" unicode="&#x66e;" horiz-adv-x="290" 
d="M221 485q15 -95 22 -158t7 -111q0 -216 -250 -216q-10 0 -10 11l2 169q0 10 10 10q36 0 52.5 22t16.5 72q0 24 -7 69.5t-23 131.5h180z" />
    <glyph glyph-name="uni066E.medi" unicode="&#x66e;" horiz-adv-x="350" 
d="M260 370q0 -68 -8 -127q-1 -13 -4 -26q17 -9 35 -16q33 -11 67 -11q10 0 10 -10v-169q0 -11 -10 -11q-59 0 -111 34q-27 18 -50 43q-19 -23 -44 -40q-53 -37 -145 -37q-10 0 -10 11v169q0 10 10 10q55 0 76 36q13 22 16 57.5t3 86.5h165z" />
    <glyph glyph-name="uni066E.fina" unicode="&#x66e;" horiz-adv-x="861" 
d="M771 370q0 -68 -8 -127q-1 -13 -4 -26q17 -9 35 -16q33 -11 67 -11q10 0 10 -10v-169q0 -11 -10 -11q-59 0 -111 34q-27 18 -50 43q-19 -23 -44 -40q-45 -32 -119 -37h-4h-22h-3h-234q-131 0 -192.5 60.5t-61.5 182.5q0 81 24 197h160q-8 -42 -12.5 -79t-4.5 -64
q0 -54 29.5 -80.5t102.5 -26.5h200q48 2 68 36q13 22 16 57.5t3 86.5h165z" />
    <glyph glyph-name="uniFE90" unicode="&#x628;" horiz-adv-x="861" arabic-form="final" 
d="M771 370q0 -68 -8 -127q-1 -13 -4 -26q17 -9 35 -16q33 -11 67 -11q10 0 10 -10v-169q0 -11 -10 -11q-59 0 -111 34q-27 18 -50 43q-19 -23 -44 -40q-45 -32 -119 -37h-4h-259q-131 0 -192.5 60.5t-61.5 182.5q0 81 24 197h160q-8 -42 -12.5 -79t-4.5 -64
q0 -54 29.5 -80.5t102.5 -26.5h200q48 2 68 36q13 22 16 57.5t3 86.5h165zM421 -45l112 -111l-111 -111l-112 111z" />
    <glyph glyph-name="uniFE92" unicode="&#x628;" horiz-adv-x="350" arabic-form="medial" 
d="M260 370q0 -68 -8 -127q-1 -13 -4 -26q17 -9 35 -16q33 -11 67 -11q10 0 10 -10v-169q0 -11 -10 -11q-59 0 -111 34q-27 18 -50 43q-19 -23 -44 -40q-53 -37 -145 -37q-10 0 -10 11v169q0 10 10 10q55 0 76 36q13 22 16 57.5t3 86.5h165zM174 -47l112 -111l-111 -111
l-112 111z" />
    <glyph glyph-name="uniFE91" unicode="&#x628;" horiz-adv-x="290" arabic-form="initial" 
d="M221 485q15 -95 22 -158t7 -111q0 -216 -250 -216q-10 0 -10 11l2 169q0 10 10 10q36 0 52.5 22t16.5 72q0 24 -7 69.5t-23 131.5h180zM124 -47l112 -111l-111 -111l-112 111z" />
    <glyph glyph-name="uniFB57" unicode="&#x67e;" horiz-adv-x="861" arabic-form="final" 
d="M771 370q0 -68 -8 -127q-1 -13 -4 -26q17 -9 35 -16q33 -11 67 -11q10 0 10 -10v-169q0 -11 -10 -11q-59 0 -111 34q-27 18 -50 43q-19 -23 -44 -40q-45 -31 -119 -37h-4h-5h-4h-13h-3h-234q-131 0 -192.5 60.5t-61.5 182.5q0 81 24 197h160q-8 -42 -12.5 -79t-4.5 -64
q0 -54 29.5 -80.5t102.5 -26.5h200q48 2 68 36q13 22 16 57.5t3 86.5h165zM375 -47l77 -75l77 75l112 -111l-110 -111l-78 76l-76 -76l-112 111zM452 -225l71 -70l-70 -70l-69 70z" />
    <glyph glyph-name="uniFB59" unicode="&#x67e;" horiz-adv-x="390" arabic-form="medial" 
d="M285 370q0 -72 -9 -134q-1 -5 -2 -9q23 -16 49 -26q33 -11 67 -11q10 0 10 -10v-169q0 -11 -10 -11q-59 0 -111 34q-32 22 -60 54q-26 -33 -65 -55q-58 -33 -154 -33q-10 0 -10 11v169q0 10 10 10q66 0 92 33q17 21 22.5 57t5.5 90h165zM118 -49l78 -75l76 75l112 -111
l-110 -111l-78 76l-76 -76l-112 111zM195 -227l71 -70l-70 -70l-69 70z" />
    <glyph glyph-name="uniFB58" unicode="&#x67e;" horiz-adv-x="377" arabic-form="initial" 
d="M308 485q15 -95 22 -158t7 -111q0 -216 -250 -216h-87q-10 0 -10 11l2 169q0 10 10 10h87q36 0 52.5 22t16.5 72q0 24 -7 69.5t-23 131.5h180zM83 -49l78 -75l76 75l112 -111l-110 -111l-78 76l-76 -76l-112 111zM160 -227l71 -70l-70 -70l-69 70z" />
    <glyph glyph-name="uniFE96" unicode="&#x62a;" horiz-adv-x="861" arabic-form="final" 
d="M771 370q0 -68 -8 -127q-1 -13 -4 -26q17 -9 35 -16q33 -11 67 -11q10 0 10 -10v-169q0 -11 -10 -11q-59 0 -111 34q-27 18 -50 43q-19 -23 -44 -40q-45 -31 -119 -37h-4h-5h-4h-16h-1h-233q-131 0 -192.5 60.5t-61.5 182.5q0 81 24 197h160q-8 -42 -12.5 -79t-4.5 -64
q0 -54 29.5 -80.5t102.5 -26.5h189h3h12q45 3 64 36q13 22 16 57.5t3 86.5h165zM373 672l77 -76l77 76l112 -111l-110 -111l-78 75l-76 -75l-112 111z" />
    <glyph glyph-name="uniFE98" unicode="&#x62a;" horiz-adv-x="390" arabic-form="medial" 
d="M285 370q0 -72 -9 -134q-1 -5 -2 -9q23 -16 49 -26q33 -11 67 -11q10 0 10 -10v-169q0 -11 -10 -11q-59 0 -111 34q-32 22 -60 54q-26 -33 -65 -55q-58 -33 -154 -33q-10 0 -10 11v169q0 10 10 10q66 0 92 33q17 21 22.5 57t5.5 90h165zM124 672l78 -76l76 76l112 -111
l-110 -111l-78 75l-76 -75l-112 111z" />
    <glyph glyph-name="uniFE97" unicode="&#x62a;" horiz-adv-x="409" arabic-form="initial" 
d="M308 485q15 -95 22 -158t7 -111q0 -216 -250 -216h-87q-10 0 -10 11l2 169q0 10 10 10h87q36 0 52.5 22t16.5 72q0 24 -7 69.5t-23 131.5h180zM128 775l78 -76l76 76l112 -111l-110 -111l-78 75l-76 -75l-112 111z" />
    <glyph glyph-name="uniFE9A" unicode="&#x62b;" horiz-adv-x="861" arabic-form="final" 
d="M771 370q0 -68 -8 -127q-1 -13 -4 -26q17 -9 35 -16q33 -11 67 -11q10 0 10 -10v-169q0 -11 -10 -11q-59 0 -111 34q-27 18 -50 43q-19 -23 -44 -40q-45 -32 -119 -37h-4h-259q-131 0 -192.5 60.5t-61.5 182.5q0 81 24 197h160q-8 -42 -12.5 -79t-4.5 -64
q0 -54 29.5 -80.5t102.5 -26.5h200q48 2 68 36q13 22 16 57.5t3 86.5h165zM363 662l77 -76l77 76l112 -111l-110 -111l-78 75l-76 -75l-112 111zM441 769l71 -70l-70 -70l-69 70z" />
    <glyph glyph-name="uniFE9C" unicode="&#x62b;" horiz-adv-x="390" arabic-form="medial" 
d="M285 370q0 -72 -9 -134q-1 -5 -2 -9q23 -16 49 -26q33 -11 67 -11q10 0 10 -10v-169q0 -11 -10 -11q-59 0 -111 34q-32 22 -60 54q-26 -33 -65 -55q-58 -33 -154 -33q-10 0 -10 11v169q0 10 10 10q66 0 92 33q17 21 22.5 57t5.5 90h165zM119 672l78 -76l76 76l112 -111
l-110 -111l-78 75l-76 -75l-112 111zM197 779l71 -70l-70 -70l-69 70z" />
    <glyph glyph-name="uniFE9B" unicode="&#x62b;" horiz-adv-x="408" arabic-form="initial" 
d="M308 485q15 -95 22 -158t7 -111q0 -216 -250 -216h-87q-10 0 -10 11l2 169q0 10 10 10h87q36 0 52.5 22t16.5 72q0 24 -7 69.5t-23 131.5h180zM127 773l78 -76l76 76l112 -111l-110 -111l-78 75l-76 -75l-112 111zM205 880l71 -70l-70 -70l-69 70z" />
    <glyph glyph-name="uniFB67" unicode="&#x679;" horiz-adv-x="861" arabic-form="final" 
d="M771 370q0 -68 -8 -127q-1 -13 -4 -26q17 -9 35 -16q33 -11 67 -11q10 0 10 -10v-169q0 -11 -10 -11q-59 0 -111 34q-27 18 -50 43q-19 -23 -44 -40q-45 -32 -119 -37h-263q-131 0 -192.5 60.5t-61.5 182.5q0 81 24 197h160q-8 -42 -12.5 -79t-4.5 -64q0 -54 29.5 -80.5
t102.5 -26.5h200q48 2 68 36q13 22 16 57.5t3 86.5h165zM427 670v-58l-8 -35q16 18 30 30q38 31 73 31q20 0 38.5 -7.5t32 -20.5t21.5 -30.5t8 -36.5q0 -49 -43 -76t-116 -27h-126l-36 80h56v150h70zM466 520q61 0 61 22q0 8 -7 13t-15 5t-16.5 -3.5t-20.5 -12t-29 -24.5h27
z" />
    <glyph glyph-name="uniFB69" unicode="&#x679;" horiz-adv-x="390" arabic-form="medial" 
d="M285 370q0 -72 -9 -134q-1 -5 -2 -9q23 -16 49 -26q33 -11 67 -11q10 0 10 -10v-169q0 -11 -10 -11q-59 0 -111 34q-32 22 -60 54q-26 -33 -65 -55q-58 -33 -154 -33q-10 0 -10 11v169q0 10 10 10q66 0 92 33q17 21 22.5 57t5.5 90h165zM169 671v-58l-7 -35q15 18 30 30
q37 31 72 31q20 0 38.5 -7.5t32 -20.5t21.5 -30.5t8 -36.5q0 -49 -43 -76t-116 -27h-126l-36 80h56v150h70zM208 521q61 0 61 22q0 8 -7 13t-15 5t-16.5 -3.5t-20.5 -12t-28 -24.5h26z" />
    <glyph glyph-name="uniFB68" unicode="&#x679;" horiz-adv-x="381" arabic-form="initial" 
d="M308 485q15 -95 22 -158t7 -111q0 -216 -250 -216h-87q-10 0 -10 11l2 169q0 10 10 10h87q36 0 52.5 22t16.5 72q0 24 -7 69.5t-23 131.5h180zM171 768v-58l-7 -35q15 18 30 30q37 31 72 31q20 0 38.5 -7.5t32 -20.5t21.5 -30.5t8 -36.5q0 -49 -43 -76t-116 -27h-126
l-36 80h56v150h70zM210 618q61 0 61 22q0 8 -7 13t-15 5t-16.5 -3.5t-20.5 -12t-28 -24.5h26z" />
    <glyph glyph-name="uniFE9E" unicode="&#x62c;" horiz-adv-x="651" arabic-form="final" 
d="M199 539q52 0 95 -20.5t87.5 -48t96 -56t122.5 -44.5l-45 -156q13 -11 35 -17q24 -7 61 -7q10 0 10 -10v-169q0 -11 -10 -11q-96 0 -139 49q-40 45 -43 126q-21 -3 -43 -7q-62 -12 -114 -34.5t-86 -56t-34 -75.5q0 -44 32.5 -68t104.5 -24q33 0 87 7t135 31v-176
q-75 -25 -130.5 -36t-105.5 -11q-142 0 -218.5 62t-76.5 176q0 69 29 126.5t84.5 101.5t135.5 73q41 14 88 25l-2 1q-39 17 -69.5 32t-58 25t-61.5 10q-22 0 -46 -6t-56 -20v160q38 24 70.5 36t64.5 12zM358 138l112 -111l-111 -111l-112 111z" />
    <glyph glyph-name="uniFEA0" unicode="&#x62c;" horiz-adv-x="631" arabic-form="medial" 
d="M190 515q50 0 91 -19t84 -44.5t93.5 -52.5t121.5 -43l-41 -146q12 -8 30 -13q24 -7 62 -7q10 0 10 -10v-169q0 -11 -10 -11q-41 0 -74.5 12.5t-57.5 36.5t-37 59q-7 19 -11 41l-18 -6q-40 -15 -74.5 -33.5t-67.5 -38t-73.5 -35.5t-92.5 -26t-124 -10q-11 0 -11 11v169
q0 10 11 10q64 0 109.5 3.5t80 10t61.5 15t54 19t57 21.5l8 2q-19 7 -35 13q-37 16 -65.5 29t-54.5 21.5t-60 8.5q-41 0 -102 -26v160q40 26 72 37t64 11zM247 -47l112 -111l-111 -111l-112 111z" />
    <glyph glyph-name="uniFE9F" unicode="&#x62c;" horiz-adv-x="590" arabic-form="initial" 
d="M190 515q50 0 91 -19t84 -44.5t93.5 -52.5t121.5 -43l-53 -190q-54 -8 -94 -23t-74.5 -33.5t-67.5 -38t-73.5 -35.5t-92.5 -26t-124 -10q-11 0 -11 11v169q0 10 11 10q64 0 109.5 3.5t80 10t61.5 15t54 19t57 21.5l8 2q-19 7 -35 13q-37 16 -65.5 29t-54.5 21.5t-60 8.5
q-41 0 -102 -26v160q40 26 72 37t64 11zM237 -47l112 -111l-111 -111l-112 111z" />
    <glyph glyph-name="uniFB7B" unicode="&#x686;" horiz-adv-x="651" arabic-form="final" 
d="M199 539q52 0 95 -20.5t87.5 -48t96 -56t122.5 -44.5l-45 -156q13 -11 35 -17q24 -7 61 -7q10 0 10 -10v-169q0 -11 -10 -11q-191 0 -192 175q-34 -4 -63 -12q-66 -16 -112 -44.5t-70.5 -67t-24.5 -81.5q0 -38 17 -77t47 -79l-150 -56q-44 62 -63.5 110t-19.5 95
q0 69 29 126.5t84.5 101.5t135.5 73q41 14 88 25l-2 1q-39 17 -69.5 32t-58 25t-61.5 10q-22 0 -46 -6t-56 -20v160q38 24 70.5 36t64.5 12zM386 -47l77 -75l77 75l112 -111l-110 -111l-78 76l-76 -76l-112 111zM463 -225l71 -70l-70 -70l-69 70z" />
    <glyph glyph-name="uniFB7D" unicode="&#x686;" horiz-adv-x="631" arabic-form="medial" 
d="M190 515q50 0 91 -19t84 -44.5t93.5 -52.5t121.5 -43l-41 -146q12 -8 30 -13q24 -7 62 -7q10 0 10 -10v-169q0 -11 -10 -11q-41 0 -74.5 12.5t-57.5 36.5t-37 59q-7 19 -11 41l-18 -6q-40 -15 -74.5 -33.5t-67.5 -38t-73.5 -35.5t-92.5 -26t-124 -10q-11 0 -11 11v169
q0 10 11 10q64 0 109.5 3.5t80 10t61.5 15t54 19t57 21.5l8 2q-19 7 -35 13q-37 16 -65.5 29t-54.5 21.5t-60 8.5q-41 0 -102 -26v160q40 26 72 37t64 11zM213 -47l77 -75l77 75l112 -111l-110 -111l-78 76l-76 -76l-112 111zM290 -225l71 -70l-70 -70l-69 70z" />
    <glyph glyph-name="uniFB7C" unicode="&#x686;" horiz-adv-x="590" arabic-form="initial" 
d="M190 515q50 0 91 -19t84 -44.5t93.5 -52.5t121.5 -43l-53 -190q-54 -8 -94 -23t-74.5 -33.5t-67.5 -38t-73.5 -35.5t-92.5 -26t-124 -10q-11 0 -11 11v169q0 10 11 10q64 0 109.5 3.5t80 10t61.5 15t54 19t57 21.5l8 2q-19 7 -35 13q-37 16 -65.5 29t-54.5 21.5t-60 8.5
q-41 0 -102 -26v160q40 26 72 37t64 11zM213 -47l78 -75l76 75l112 -111l-110 -111l-78 76l-76 -76l-112 111zM290 -225l71 -70l-70 -70l-69 70z" />
    <glyph glyph-name="uniFEA2" unicode="&#x62d;" horiz-adv-x="651" arabic-form="final" 
d="M199 539q52 0 95 -20.5t87.5 -48t96 -56t122.5 -44.5l-45 -156q13 -11 35 -17q24 -7 61 -7q10 0 10 -10v-169q0 -11 -10 -11q-96 0 -139 49q-40 45 -43 126q-21 -3 -43 -7q-62 -12 -114 -34.5t-86 -56t-34 -75.5q0 -44 32.5 -68t104.5 -24q33 0 87 7t135 31v-176
q-75 -25 -130.5 -36t-105.5 -11q-142 0 -218.5 62t-76.5 176q0 69 29 126.5t84.5 101.5t135.5 73q41 14 88 25l-2 1q-39 17 -69.5 32t-58 25t-61.5 10q-22 0 -46 -6t-56 -20v160q38 24 70.5 36t64.5 12z" />
    <glyph glyph-name="uniFEA4" unicode="&#x62d;" horiz-adv-x="631" arabic-form="medial" 
d="M190 515q50 0 91 -19t84 -44.5t93.5 -52.5t121.5 -43l-41 -146q12 -8 30 -13q24 -7 62 -7q10 0 10 -10v-169q0 -11 -10 -11q-41 0 -74.5 12.5t-57.5 36.5t-37 59q-7 19 -11 41l-18 -6q-40 -15 -74.5 -33.5t-67.5 -38t-73.5 -35.5t-92.5 -26t-124 -10q-11 0 -11 11v169
q0 10 11 10q64 0 109.5 3.5t80 10t61.5 15t54 19t57 21.5l8 2q-19 7 -35 13q-37 16 -65.5 29t-54.5 21.5t-60 8.5q-41 0 -102 -26v160q40 26 72 37t64 11z" />
    <glyph glyph-name="uniFEA3" unicode="&#x62d;" horiz-adv-x="590" arabic-form="initial" 
d="M190 515q50 0 91 -19t84 -44.5t93.5 -52.5t121.5 -43l-53 -190q-54 -8 -94 -23t-74.5 -33.5t-67.5 -38t-73.5 -35.5t-92.5 -26t-124 -10q-11 0 -11 11v169q0 10 11 10q64 0 109.5 3.5t80 10t61.5 15t54 19t57 21.5l8 2q-19 7 -35 13q-37 16 -65.5 29t-54.5 21.5t-60 8.5
q-41 0 -102 -26v160q40 26 72 37t64 11z" />
    <glyph glyph-name="uniFEA6" unicode="&#x62e;" horiz-adv-x="651" arabic-form="final" 
d="M199 539q52 0 95 -20.5t87.5 -48t96 -56t122.5 -44.5l-45 -156q13 -11 35 -17q24 -7 61 -7q10 0 10 -10v-169q0 -11 -10 -11q-96 0 -139 49q-40 45 -43 126q-21 -3 -43 -7q-62 -12 -114 -34.5t-86 -56t-34 -75.5q0 -44 32.5 -68t104.5 -24q33 0 87 7t135 31v-176
q-75 -25 -130.5 -36t-105.5 -11q-142 0 -218.5 62t-76.5 176q0 69 29 126.5t84.5 101.5t135.5 73q41 14 88 25l-2 1q-39 17 -69.5 32t-58 25t-61.5 10q-22 0 -46 -6t-56 -20v160q38 24 70.5 36t64.5 12zM425 768l112 -111l-111 -111l-112 111z" />
    <glyph glyph-name="uniFEA8" unicode="&#x62e;" horiz-adv-x="631" arabic-form="medial" 
d="M190 515q50 0 91 -19t84 -44.5t93.5 -52.5t121.5 -43l-41 -146q12 -8 30 -13q24 -7 62 -7q10 0 10 -10v-169q0 -11 -10 -11q-41 0 -74.5 12.5t-57.5 36.5t-37 59q-7 19 -11 41l-18 -6q-40 -15 -74.5 -33.5t-67.5 -38t-73.5 -35.5t-92.5 -26t-124 -10q-11 0 -11 11v169
q0 10 11 10q64 0 109.5 3.5t80 10t61.5 15t54 19t57 21.5l8 2q-19 7 -35 13q-37 16 -65.5 29t-54.5 21.5t-60 8.5q-41 0 -102 -26v160q40 26 72 37t64 11zM275 804l112 -111l-111 -111l-112 111z" />
    <glyph glyph-name="uniFEA7" unicode="&#x62e;" horiz-adv-x="590" arabic-form="initial" 
d="M190 515q50 0 91 -19t84 -44.5t93.5 -52.5t121.5 -43l-53 -190q-54 -8 -94 -23t-74.5 -33.5t-67.5 -38t-73.5 -35.5t-92.5 -26t-124 -10q-11 0 -11 11v169q0 10 11 10q64 0 109.5 3.5t80 10t61.5 15t54 19t57 21.5l8 2q-19 7 -35 13q-37 16 -65.5 29t-54.5 21.5t-60 8.5
q-41 0 -102 -26v160q40 26 72 37t64 11zM275 804l112 -111l-111 -111l-112 111z" />
    <glyph glyph-name="uniFEAA" unicode="&#x62f;" horiz-adv-x="493" arabic-form="final" 
d="M0 219q31 -9 55.5 -14.5t45.5 -9t40 -4.5t40 -1q38 0 72 5l7 1q-15 49 -30 114q-19 81 -36 175h180q6 -42 10.5 -72t8.5 -52.5t8.5 -40.5t9.5 -37q12 -45 33.5 -69t48.5 -24q10 0 10 -10v-169q0 -11 -10 -11q-79 0 -138 45q-9 6 -17 14q-11 -7 -21 -13q-28 -16 -53.5 -26
t-51 -14.5t-54.5 -4.5q-22 0 -40.5 2t-37 6t-38 10.5t-42.5 14.5v185z" />
    <glyph glyph-name="uniFEAC" unicode="&#x630;" horiz-adv-x="493" arabic-form="final" 
d="M0 219q31 -9 55.5 -14.5t45.5 -9t40 -4.5t40 -1q38 0 72 5l7 1q-15 49 -30 114q-19 81 -36 175h180q6 -42 10.5 -72t8.5 -52.5t8.5 -40.5t9.5 -37q12 -45 33.5 -69t48.5 -24q10 0 10 -10v-169q0 -11 -10 -11q-79 0 -138 45q-9 6 -17 14q-11 -7 -21 -13q-28 -16 -53.5 -26
t-51 -14.5t-54.5 -4.5q-22 0 -40.5 2t-37 6t-38 10.5t-42.5 14.5v185zM283 774l112 -111l-111 -111l-112 111z" />
    <glyph glyph-name="uniFB89" unicode="&#x688;" horiz-adv-x="493" arabic-form="final" 
d="M0 219q31 -9 55.5 -14.5t45.5 -9t40 -4.5t40 -1q38 0 72 5l7 1q-15 49 -30 114q-19 81 -36 175h180q6 -42 10.5 -72t8.5 -52.5t8.5 -40.5t9.5 -37q12 -45 33.5 -69t48.5 -24q10 0 10 -10v-169q0 -11 -10 -11q-79 0 -138 45q-9 6 -17 14q-11 -7 -21 -13q-28 -16 -53.5 -26
t-51 -14.5t-54.5 -4.5q-22 0 -40.5 2t-37 6t-38 10.5t-42.5 14.5v185zM223 768v-58l-7 -35q15 18 30 30q37 31 72 31q20 0 38.5 -7.5t32 -20.5t21.5 -30.5t8 -36.5q0 -49 -43 -76t-116 -27h-126l-36 80h56v150h70zM262 618q61 0 61 22q0 8 -7 13t-15 5t-16.5 -3.5t-20.5 -12
t-28 -24.5h26z" />
    <glyph glyph-name="uniFEAE" unicode="&#x631;" horiz-adv-x="381" arabic-form="final" 
d="M258 440q12 -97 22 -187q3 -18 14 -30q12 -13 27 -20.5t31.5 -10t28.5 -2.5q10 0 10 -10v-169q0 -11 -10 -11q-23 0 -44.5 8.5t-37.5 21.5l-6 5v-13q0 -65 -18 -110.5t-54 -73.5t-91 -40.5t-130 -12.5v145q22 0 43.5 5t38 17t26.5 31t10 47q0 91 -13 191.5t-27 218.5h180
z" />
    <glyph glyph-name="uniFEB0" unicode="&#x632;" horiz-adv-x="381" arabic-form="final" 
d="M258 440q12 -97 22 -187q3 -18 14 -30q12 -13 27 -20.5t31.5 -10t28.5 -2.5q10 0 10 -10v-169q0 -11 -10 -11q-23 0 -44.5 8.5t-37.5 21.5l-6 5v-13q0 -65 -18 -110.5t-54 -73.5t-91 -40.5t-130 -12.5v145q22 0 43.5 5t38 17t26.5 31t10 47q0 91 -13 191.5t-27 218.5h180
zM163 735l112 -111l-111 -111l-112 111z" />
    <glyph glyph-name="uniFB8D" unicode="&#x691;" horiz-adv-x="381" arabic-form="final" 
d="M258 440q13 -98 22 -187q4 -18 14 -30q12 -13 27 -20.5t31.5 -10t28.5 -2.5q10 0 10 -10v-169q0 -11 -10 -11q-23 0 -44.5 8.5t-37.5 21.5l-6 5v-13q0 -65 -18 -110.5t-54 -73.5t-91 -40.5t-130 -12.5v145q22 0 43.5 5t38 17t26.5 31t10 47q0 91 -13 191.5t-27 218.5h180
zM129 725v-58l-8 -35q16 18 30 30q38 31 73 31q20 0 38.5 -7.5t32 -20.5t21.5 -30.5t8 -36.5q0 -49 -43 -76t-116 -27h-126l-36 80h56v150h70zM168 575q61 0 61 22q0 8 -7 13t-15 5t-16.5 -3.5t-20.5 -12t-29 -24.5h27z" />
    <glyph glyph-name="uniFB8B" unicode="&#x698;" horiz-adv-x="381" arabic-form="final" 
d="M258 440q13 -98 22 -187q4 -18 14 -30q12 -13 27 -20.5t31.5 -10t28.5 -2.5q10 0 10 -10v-169q0 -11 -10 -11q-23 0 -44.5 8.5t-37.5 21.5l-6 5v-13q0 -65 -18 -110.5t-54 -73.5t-91 -40.5t-130 -12.5v145q22 0 43.5 5t38 17t26.5 31t10 47q0 91 -13 191.5t-27 218.5h180
zM79 737l77 -76l77 76l112 -111l-110 -111l-78 75l-76 -75l-112 111zM157 844l71 -70l-70 -70l-69 70z" />
    <glyph glyph-name="uniFEB2" unicode="&#x633;" horiz-adv-x="1351" arabic-form="final" 
d="M597 440q10 -72 16.5 -123t10.5 -90l2 -16q15 -8 30 -13q26 -8 58 -8q55 0 76 36q13 22 16 57.5t3 86.5h165q0 -68 -8 -127q-3 -24 -8 -47q23 -6 52 -6q55 0 76 36q13 22 16 57.5t3 86.5v70h165v-70q0 -68 -8 -127q-2 -15 -5 -30q13 -7 27 -12q33 -11 67 -11q10 0 10 -10
v-169q0 -11 -10 -11q-59 0 -111 34q-24 16 -45 37q-14 -17 -31 -32q-45 -39 -114 -39q-32 0 -58.5 8.5t-53.5 23.5q-23 13 -46 30q-12 -12 -24 -23q-45 -39 -114 -39q-32 0 -58.5 8.5t-53.5 23.5q-6 3 -13 7q-25 -254 -313 -254q-142 0 -219 70t-77 200q0 53 10 107t33 123
h160q-21 -54 -30.5 -95.5t-9.5 -80.5q0 -64 33.5 -99t96.5 -35q141 0 141 143q0 30 -2 61t-6 68.5t-12 83.5l-17 109h180z" />
    <glyph glyph-name="uniFEB4" unicode="&#x633;" horiz-adv-x="930" arabic-form="medial" 
d="M241 370q0 -68 -9 -126q-4 -22 -8 -42q6 -2 11 -4q26 -8 58 -8q55 0 76 36q13 22 16 57.5t3 86.5h165q0 -68 -8 -127q-3 -24 -8 -47q23 -6 52 -6q55 0 76 36q13 22 16 57.5t3 86.5v70h165v-70q0 -68 -8 -127q-2 -15 -5 -30q13 -7 27 -12q33 -11 67 -11q10 0 10 -10v-169
q0 -11 -10 -11q-59 0 -111 34q-24 16 -45 37q-14 -17 -31 -32q-45 -39 -114 -39q-32 0 -58.5 8.5t-53.5 23.5q-23 13 -46 30q-12 -12 -24 -23q-45 -39 -114 -39q-32 0 -58.5 8.5t-53 23.5t-53.5 36h-1q-15 -17 -33 -31q-50 -37 -134 -37q-10 0 -10 11v169q0 10 10 10
q40 0 57 36q11 22 15 57.5t4 86.5h165z" />
    <glyph glyph-name="uniFEB3" unicode="&#x633;" horiz-adv-x="893" arabic-form="initial" 
d="M241 370q0 -68 -9 -126q-4 -22 -8 -42q6 -2 11 -4q26 -8 58 -8q55 0 76 36q13 22 16 57.5t3 86.5h165q0 -68 -8 -127q-3 -23 -8 -44q3 -1 5 -2q28 -7 63 -7q38 0 53.5 21t15.5 73q0 24 -7 69.5t-23 131.5h180q15 -95 22 -158t7 -111q0 -102 -51.5 -158.5t-147.5 -56.5
q-24 0 -52.5 5t-59.5 16.5t-63 30.5q-5 3 -11 7q-10 -11 -21 -21q-45 -39 -114 -39q-32 0 -58.5 8.5t-53 23.5t-53.5 36h-1q-15 -17 -33 -31q-50 -37 -134 -37q-10 0 -10 11v169q0 10 10 10q40 0 57 36q11 22 15 57.5t4 86.5h165z" />
    <glyph glyph-name="uniFEB6" unicode="&#x634;" horiz-adv-x="1351" arabic-form="final" 
d="M597 440q10 -72 16.5 -123t10.5 -90l2 -16q15 -8 30 -13q26 -8 58 -8q55 0 76 36q13 22 16 57.5t3 86.5h165q0 -68 -8 -127q-3 -24 -8 -47q23 -6 52 -6q55 0 76 36q13 22 16 57.5t3 86.5v70h165v-70q0 -68 -8 -127q-2 -15 -5 -30q13 -7 27 -12q33 -11 67 -11q10 0 10 -10
v-169q0 -11 -10 -11q-59 0 -111 34q-24 16 -45 37q-14 -17 -31 -32q-45 -39 -114 -39q-32 0 -58.5 8.5t-53.5 23.5q-23 13 -46 30q-12 -12 -24 -23q-45 -39 -114 -39q-32 0 -58.5 8.5t-53.5 23.5q-6 3 -13 7q-25 -254 -313 -254q-142 0 -219 70t-77 200q0 53 10 107t33 123
h160q-21 -54 -30.5 -95.5t-9.5 -80.5q0 -64 33.5 -99t96.5 -35q141 0 141 143q0 30 -2 61t-6 68.5t-12 83.5l-17 109h180zM812 683l77 -76l77 76l112 -111l-110 -111l-78 75l-76 -75l-112 111zM890 790l71 -70l-70 -70l-69 70z" />
    <glyph glyph-name="uniFEB8" unicode="&#x634;" horiz-adv-x="930" arabic-form="medial" 
d="M241 370q0 -68 -9 -126q-4 -22 -8 -42q6 -2 11 -4q26 -8 58 -8q55 0 76 36q13 22 16 57.5t3 86.5h165q0 -68 -8 -127q-3 -24 -8 -47q23 -6 52 -6q55 0 76 36q13 22 16 57.5t3 86.5v70h165v-70q0 -68 -8 -127q-2 -15 -5 -30q13 -7 27 -12q33 -11 67 -11q10 0 10 -10v-169
q0 -11 -10 -11q-59 0 -111 34q-24 16 -45 37q-14 -17 -31 -32q-45 -39 -114 -39q-32 0 -58.5 8.5t-53.5 23.5q-23 13 -46 30q-12 -12 -24 -23q-45 -39 -114 -39q-32 0 -58.5 8.5t-53 23.5t-53.5 36h-1q-15 -17 -33 -31q-50 -37 -134 -37q-10 0 -10 11v169q0 10 10 10
q40 0 57 36q11 22 15 57.5t4 86.5h165zM391 683l77 -76l77 76l112 -111l-110 -111l-78 75l-76 -75l-112 111zM469 790l71 -70l-70 -70l-69 70z" />
    <glyph glyph-name="uniFEB7" unicode="&#x634;" horiz-adv-x="893" arabic-form="initial" 
d="M241 370q0 -68 -9 -126q-4 -22 -8 -42q6 -2 11 -4q26 -8 58 -8q55 0 76 36q13 22 16 57.5t3 86.5h165q0 -68 -8 -127q-3 -23 -8 -44q3 -1 5 -2q28 -7 63 -7q38 0 53.5 21t15.5 73q0 24 -7 69.5t-23 131.5h180q15 -95 22 -158t7 -111q0 -102 -51.5 -158.5t-147.5 -56.5
q-24 0 -52.5 5t-59.5 16.5t-63 30.5q-5 3 -11 7q-10 -11 -21 -21q-45 -39 -114 -39q-32 0 -58.5 8.5t-53 23.5t-53.5 36h-1q-15 -17 -33 -31q-50 -37 -134 -37q-10 0 -10 11v169q0 10 10 10q40 0 57 36q11 22 15 57.5t4 86.5h165zM402 684l78 -76l76 76l112 -111l-110 -111
l-78 75l-76 -75l-112 111zM480 791l71 -70l-70 -70l-69 70z" />
    <glyph glyph-name="uniFEBA" unicode="&#x635;" horiz-adv-x="1340" arabic-form="final" 
d="M597 440q10 -72 16 -123l2 -18q34 32 67 61q67 59 127.5 100t116.5 62.5t108 21.5q54 0 97 -18.5t73.5 -51.5t47 -77t16.5 -95t-14 -93q9 -4 19 -8q33 -11 67 -11q10 0 10 -10v-169q0 -11 -10 -11q-59 0 -111 34q-32 21 -59 53q-5 -4 -10 -7q-52 -39 -129.5 -59.5
t-177.5 -20.5q-40 0 -80 4t-78 10q-35 5 -67 12q-32 -241 -312 -241q-142 0 -219 70t-77 200q0 53 10 107t33 123h160q-21 -54 -30.5 -95.5t-9.5 -80.5q0 -64 33.5 -99t96.5 -35q141 0 141 143q0 30 -2 61t-6 68.5t-12 83.5l-17 109h180zM696 199q62 -9 152 -9q55 0 99 7
t75 19.5t48 29t17 35.5q0 35 -24 57t-70 22q-37 0 -77.5 -15t-89.5 -45.5t-108 -76.5q-14 -11 -30 -23q4 0 8 -1z" />
    <glyph glyph-name="uniFEBC" unicode="&#x635;" horiz-adv-x="996" arabic-form="medial" 
d="M270 370q-4 -38 -8 -68q-4 -25 -7 -47q42 43 79 79q72 71 133.5 117.5t115.5 69.5t111 23q54 0 97 -18.5t73.5 -51.5t47 -77t16.5 -95q0 -71 -27.5 -127t-80 -95t-130 -59.5t-177.5 -20.5q-112 0 -216 23q-65 15 -127 35q-11 -10 -24 -18q-59 -40 -146 -40q-10 0 -10 11
v169q0 10 10 10q45 0 67 17.5t29 52.5q5 26 8 51t6 59h160zM507 190q55 0 99 7t75 19.5t48 29t17 35.5q0 35 -25 57t-69 22q-33 0 -67 -12t-79 -43t-106 -84q-13 -11 -27 -23q64 -8 134 -8zM871 235q26 -22 58.5 -33.5t66.5 -11.5q10 0 10 -10v-169q0 -11 -10 -11
q-59 0 -111 34.5t-90 98.5z" />
    <glyph glyph-name="uniFEBB" unicode="&#x635;" horiz-adv-x="958" arabic-form="initial" 
d="M270 370q-4 -38 -8 -68q-4 -25 -7 -47q42 43 79 79q72 71 133.5 117.5t115.5 69.5t111 23q54 0 97 -18.5t73.5 -51.5t47 -77t16.5 -95q0 -71 -27.5 -127t-80 -95t-130 -59.5t-177.5 -20.5q-112 0 -216 23q-65 15 -127 35q-11 -10 -24 -18q-59 -40 -146 -40q-10 0 -10 11
v169q0 10 10 10q45 0 67 17.5t29 52.5q5 26 8 51t6 59h160zM507 190q55 0 99 7t75 19.5t48 29t17 35.5q0 35 -25 57t-69 22q-33 0 -67 -12t-79 -43t-106 -84q-13 -11 -27 -23q64 -8 134 -8z" />
    <glyph glyph-name="uniFEBE" unicode="&#x636;" horiz-adv-x="1340" arabic-form="final" 
d="M597 440q10 -72 16 -123l2 -18q34 32 67 61q67 59 127.5 100t116.5 62.5t108 21.5q54 0 97 -18.5t73.5 -51.5t47 -77t16.5 -95t-14 -93q9 -4 19 -8q33 -11 67 -11q10 0 10 -10v-169q0 -11 -10 -11q-59 0 -111 34q-32 21 -59 53q-5 -4 -10 -7q-52 -39 -129.5 -59.5
t-177.5 -20.5q-40 0 -80 4t-78 10q-35 5 -67 12q-32 -241 -312 -241q-142 0 -219 70t-77 200q0 53 10 107t33 123h160q-21 -54 -30.5 -95.5t-9.5 -80.5q0 -64 33.5 -99t96.5 -35q141 0 141 143q0 30 -2 61t-6 68.5t-12 83.5l-17 109h180zM696 199q62 -9 152 -9q55 0 99 7
t75 19.5t48 29t17 35.5q0 35 -24 57t-70 22q-37 0 -77.5 -15t-89.5 -45.5t-108 -76.5q-14 -11 -30 -23q4 0 8 -1zM714 732l112 -111l-111 -111l-112 111z" />
    <glyph glyph-name="uniFEC0" unicode="&#x636;" horiz-adv-x="996" arabic-form="medial" 
d="M270 370q-4 -38 -8 -68q-4 -25 -7 -47q42 43 79 79q72 71 133.5 117.5t115.5 69.5t111 23q54 0 97 -18.5t73.5 -51.5t47 -77t16.5 -95q0 -71 -27.5 -127t-80 -95t-130 -59.5t-177.5 -20.5q-112 0 -216 23q-65 15 -127 35q-11 -10 -24 -18q-59 -40 -146 -40q-10 0 -10 11
v169q0 10 10 10q45 0 67 17.5t29 52.5q5 26 8 51t6 59h160zM507 190q55 0 99 7t75 19.5t48 29t17 35.5q0 35 -25 57t-69 22q-33 0 -67 -12t-79 -43t-106 -84q-13 -11 -27 -23q64 -8 134 -8zM871 235q26 -22 58.5 -33.5t66.5 -11.5q10 0 10 -10v-169q0 -11 -10 -11
q-59 0 -111 34.5t-90 98.5zM371 733l112 -111l-111 -111l-112 111z" />
    <glyph glyph-name="uniFEBF" unicode="&#x636;" horiz-adv-x="958" arabic-form="initial" 
d="M270 370q-4 -38 -8 -68q-4 -25 -7 -47q42 43 79 79q72 71 133.5 117.5t115.5 69.5t111 23q54 0 97 -18.5t73.5 -51.5t47 -77t16.5 -95q0 -71 -27.5 -127t-80 -95t-130 -59.5t-177.5 -20.5q-112 0 -216 23q-65 15 -127 35q-11 -10 -24 -18q-59 -40 -146 -40q-10 0 -10 11
v169q0 10 10 10q45 0 67 17.5t29 52.5q5 26 8 51t6 59h160zM507 190q55 0 99 7t75 19.5t48 29t17 35.5q0 35 -25 57t-69 22q-33 0 -67 -12t-79 -43t-106 -84q-13 -11 -27 -23q64 -8 134 -8zM371 733l112 -111l-111 -111l-112 111z" />
    <glyph glyph-name="uniFEC2" unicode="&#x637;" horiz-adv-x="875" arabic-form="final" 
d="M311 725v-168q0 -27 -6 -64.5t-17 -80.5l-8 -32q31 29 59 54q62 53 117.5 81.5t112.5 28.5q54 0 97 -18.5t73.5 -51.5t47 -77t16.5 -95q0 -71 -27.5 -127t-80 -95t-130 -59.5t-177.5 -20.5q-113 0 -206.5 12t-181.5 32v190q48 -9 94 -17q13 -2 25 -5l12 12v501h180z
M283 193q48 -3 100 -3q55 0 99 7t75 19.5t48 29t17 35.5q0 35 -25 57t-69 22q-33 0 -67.5 -14.5t-79 -49t-103.5 -92.5l-10 -10zM750 235q26 -22 58.5 -33.5t66.5 -11.5q10 0 10 -10v-169q0 -11 -10 -11q-59 0 -111 34.5t-90 98.5z" />
    <glyph glyph-name="uniFEC4" unicode="&#x637;" horiz-adv-x="819" arabic-form="medial" 
d="M268 725v-168q0 -27 -6 -64.5t-17 -80.5q-3 -16 -8 -31q33 31 63 57q61 52 115 79t111 27q54 0 97 -18.5t73.5 -51.5t47 -77t16.5 -95q0 -71 -27.5 -127t-80 -95t-130 -59.5t-177.5 -20.5h-345q-10 0 -10 11v169q0 10 10 10h56l32 34v501h180zM340 190q55 0 99 7t75 19.5
t48 29t17 35.5q0 35 -25 57t-69 22q-33 0 -66 -13t-76.5 -46.5t-103.5 -91.5l-19 -19h120zM694 235q26 -22 58.5 -33.5t66.5 -11.5q10 0 10 -10v-169q0 -11 -10 -11q-59 0 -111 34.5t-90 98.5z" />
    <glyph glyph-name="uniFEC3" unicode="&#x637;" horiz-adv-x="790" arabic-form="initial" 
d="M268 725v-168q0 -27 -6 -64.5t-17 -80.5q-3 -16 -8 -31q33 31 63 57q61 52 115 79t111 27q54 0 97 -18.5t73.5 -51.5t47 -77t16.5 -95q0 -71 -27.5 -127t-80 -95t-130 -59.5t-177.5 -20.5h-345q-10 0 -10 11v169q0 10 10 10h56l32 34v501h180zM340 190q55 0 99 7t75 19.5
t48 29t17 35.5q0 35 -25 57t-69 22q-33 0 -66 -13t-76.5 -46.5t-103.5 -91.5l-19 -19h120z" />
    <glyph glyph-name="uniFEC6" unicode="&#x638;" horiz-adv-x="875" arabic-form="final" 
d="M311 725v-168q0 -27 -6 -64.5t-17 -80.5l-8 -32q31 29 59 54q62 53 117.5 81.5t112.5 28.5q54 0 97 -18.5t73.5 -51.5t47 -77t16.5 -95q0 -71 -27.5 -127t-80 -95t-130 -59.5t-177.5 -20.5q-113 0 -206.5 12t-181.5 32v190q48 -9 94 -17q13 -2 25 -5l12 12v501h180z
M283 193q48 -3 100 -3q55 0 99 7t75 19.5t48 29t17 35.5q0 35 -25 57t-69 22q-33 0 -67.5 -14.5t-79 -49t-103.5 -92.5l-10 -10zM750 235q26 -22 58.5 -33.5t66.5 -11.5q10 0 10 -10v-169q0 -11 -10 -11q-59 0 -111 34.5t-90 98.5zM501 834l112 -111l-111 -111l-112 111z
" />
    <glyph glyph-name="uniFEC8" unicode="&#x638;" horiz-adv-x="819" arabic-form="medial" 
d="M268 725v-168q0 -27 -6 -64.5t-17 -80.5q-3 -16 -8 -31q33 31 63 57q61 52 115 79t111 27q54 0 97 -18.5t73.5 -51.5t47 -77t16.5 -95q0 -71 -27.5 -127t-80 -95t-130 -59.5t-177.5 -20.5h-345q-10 0 -10 11v169q0 10 10 10h56l32 34v501h180zM340 190q55 0 99 7t75 19.5
t48 29t17 35.5q0 35 -25 57t-69 22q-33 0 -66 -13t-76.5 -46.5t-103.5 -91.5l-19 -19h120zM694 235q26 -22 58.5 -33.5t66.5 -11.5q10 0 10 -10v-169q0 -11 -10 -11q-59 0 -111 34.5t-90 98.5zM449 834l112 -111l-111 -111l-112 111z" />
    <glyph glyph-name="uniFEC7" unicode="&#x638;" horiz-adv-x="790" arabic-form="initial" 
d="M268 725v-168q0 -27 -6 -64.5t-17 -80.5q-3 -16 -8 -31q33 31 63 57q61 52 115 79t111 27q54 0 97 -18.5t73.5 -51.5t47 -77t16.5 -95q0 -71 -27.5 -127t-80 -95t-130 -59.5t-177.5 -20.5h-345q-10 0 -10 11v169q0 10 10 10h56l32 34v501h180zM340 190q55 0 99 7t75 19.5
t48 29t17 35.5q0 35 -25 57t-69 22q-33 0 -66 -13t-76.5 -46.5t-103.5 -91.5l-19 -19h120zM449 834l112 -111l-111 -111l-112 111z" />
    <glyph glyph-name="uniFECA" unicode="&#x639;" horiz-adv-x="593" arabic-form="final" 
d="M330 538q55 0 98 -13.5t72.5 -38t45 -58t15.5 -73.5q0 -37 -14 -68.5t-37 -59.5q-14 -16 -30 -31h5q24 -3 49.5 -4.5t58.5 -1.5q10 0 10 -10v-169q0 -11 -10 -11q-52 0 -92.5 7.5t-73.5 21.5t-62 34q-19 13 -38 29l-8 -4q-37 -20 -66.5 -39.5t-48 -38.5t-18.5 -39
q0 -33 37.5 -49.5t105.5 -16.5q50 0 102 8.5t120 28.5v-175q-71 -24 -126.5 -33t-109.5 -9q-68 0 -123 15t-93 43.5t-58.5 70t-20.5 94.5q0 39 19 70.5t50 58.5t69 50l34 20q-13 22 -24 41q-20 35 -38.5 63t-38.5 52l-1 1q-26 -11 -50 -24v160q81 47 156.5 72.5t133.5 25.5z
M351 236q24 16 38 32t14 34q0 29 -25 45t-71 16q-24 0 -56 -7q-14 -3 -29 -6q16 -21 30 -42q17 -26 34 -55q11 -20 24 -43q23 13 41 26z" />
    <glyph glyph-name="uniFECC" unicode="&#x639;" horiz-adv-x="597" arabic-form="medial" 
d="M329 538q55 0 98 -13.5t72.5 -38t45 -58t15.5 -73.5q0 -27 -9.5 -59t-30.5 -64q-13 -19 -30 -37q21 -2 43 -4q26 -1 59 -1q10 0 10 -10v-169q0 -11 -10 -11q-52 0 -90 6.5t-70 19.5t-62 33q-14 9 -29 19q-28 -14 -52 -25q-40 -19 -82 -31t-91 -17t-116 -5q-10 2 -10 11
v169q0 10 10 10q36 0 65 1t55 3q21 1 42 4q-18 29 -34 53q-18 28 -38 52l-1 1q-26 -11 -50 -24v160q81 47 156.5 72.5t133.5 25.5zM371 233q31 32 31 69q0 29 -25 45t-71 16q-24 0 -56 -7q-14 -3 -29 -6q16 -21 30 -42q17 -26 34 -55q14 -25 31 -55q35 15 55 35z" />
    <glyph glyph-name="uniFECB" unicode="&#x639;" horiz-adv-x="543" arabic-form="initial" 
d="M495 41q-50 -9 -102.5 -17t-111.5 -13t-128 -8t-153 -3q-10 0 -10 11v169q0 10 10 10h83l-4 5q-45 55 -45 124q0 41 16.5 77t47 62.5t73.5 42t96 15.5q32 0 75.5 -8t103.5 -31v-160q-46 11 -82.5 17.5t-67.5 6.5q-45 0 -72.5 -17.5t-27.5 -46.5q0 -23 14.5 -38
t36.5 -23.5t47.5 -11t47.5 0.5l-1 -1l62 8q61 8 130 20z" />
    <glyph glyph-name="uniFECE" unicode="&#x63a;" horiz-adv-x="593" arabic-form="final" 
d="M330 538q55 0 98 -13.5t72.5 -38t45 -58t15.5 -73.5q0 -37 -14 -68.5t-37 -59.5q-14 -16 -30 -31h5q24 -3 49.5 -4.5t58.5 -1.5q10 0 10 -10v-169q0 -11 -10 -11q-52 0 -92.5 7.5t-73.5 21.5t-62 34q-19 13 -38 29l-8 -4q-37 -20 -66.5 -39.5t-48 -38.5t-18.5 -39
q0 -33 37.5 -49.5t105.5 -16.5q50 0 102 8.5t120 28.5v-175q-71 -24 -126.5 -33t-109.5 -9q-68 0 -123 15t-93 43.5t-58.5 70t-20.5 94.5q0 39 19 70.5t50 58.5t69 50l34 20q-13 22 -24 41q-20 35 -38.5 63t-38.5 52l-1 1q-26 -11 -50 -24v160q81 47 156.5 72.5t133.5 25.5z
M351 236q24 16 38 32t14 34q0 29 -25 45t-71 16q-24 0 -56 -7q-14 -3 -29 -6q16 -21 30 -42q17 -26 34 -55q11 -20 24 -43q23 13 41 26zM314 810l112 -111l-111 -111l-112 111z" />
    <glyph glyph-name="uniFED0" unicode="&#x63a;" horiz-adv-x="597" arabic-form="medial" 
d="M329 538q55 0 98 -13.5t72.5 -38t45 -58t15.5 -73.5q0 -27 -9.5 -59t-30.5 -64q-13 -19 -30 -37q21 -2 43 -4q26 -1 59 -1q10 0 10 -10v-169q0 -11 -10 -11q-52 0 -90 6.5t-70 19.5t-62 33q-14 9 -29 19q-28 -14 -52 -25q-40 -19 -82 -31t-91 -17t-116 -5q-10 2 -10 11
v169q0 10 10 10q36 0 65 1t55 3q21 1 42 4q-18 29 -34 53q-18 28 -38 52l-1 1q-26 -11 -50 -24v160q81 47 156.5 72.5t133.5 25.5zM371 233q31 32 31 69q0 29 -25 45t-71 16q-24 0 -56 -7q-14 -3 -29 -6q16 -21 30 -42q17 -26 34 -55q14 -25 31 -55q35 15 55 35zM295 804
l112 -111l-111 -111l-112 111z" />
    <glyph glyph-name="uniFECF" unicode="&#x63a;" horiz-adv-x="543" arabic-form="initial" 
d="M495 41q-50 -9 -102.5 -17t-111.5 -13t-128 -8t-153 -3q-10 0 -10 11v169q0 10 10 10h83l-4 5q-45 55 -45 124q0 41 16.5 77t47 62.5t73.5 42t96 15.5q32 0 75.5 -8t103.5 -31v-160q-46 11 -82.5 17.5t-67.5 6.5q-45 0 -72.5 -17.5t-27.5 -46.5q0 -23 14.5 -38
t36.5 -23.5t47.5 -11t47.5 0.5l-1 -1l62 8q61 8 130 20zM254 787l112 -111l-111 -111l-112 111z" />
    <glyph glyph-name="uniFED2" unicode="&#x641;" horiz-adv-x="939" arabic-form="final" 
d="M667 525q52 0 95 -18t73.5 -48t47 -69.5t16.5 -82.5q0 -36 -15 -70q-9 -22 -23 -42q35 -5 78 -5q10 0 10 -10v-169q0 -11 -10 -11q-66 0 -151 21q-52 13 -107 33q-51 -23 -109 -36q-82 -18 -172 -18q-10 2 -10 11v169q0 10 10 10q38 0 74 3q-13 21 -22 44q-12 34 -12 72
q0 45 15.5 84.5t45 68.5t71.5 46t95 17zM707 230q20 25 20 54q0 16 -6.5 29t-16.5 22t-23 14t-25 5q-33 0 -50.5 -21.5t-17.5 -48.5q0 -28 19 -55q18 -23 49 -36q33 15 51 37zM200 388q-7 -26 -11 -50.5t-4 -40.5q0 -54 29.5 -80.5t102.5 -26.5h94q10 0 10 -10v-169
q0 -11 -10 -11h-139q-130 0 -190.5 60.5t-60.5 182.5q0 37 5 70t14 75h160zM660 798l112 -111l-111 -111l-112 111z" />
    <glyph glyph-name="uniFED4" unicode="&#x641;" horiz-adv-x="539" arabic-form="medial" 
d="M267 525q52 0 95 -18t73.5 -48t47 -69.5t16.5 -82.5q0 -36 -15 -70q-9 -22 -23 -42q35 -5 78 -5q10 0 10 -10v-169q0 -11 -10 -11q-66 0 -151 21q-52 13 -107 33q-51 -23 -109 -36q-82 -18 -172 -18q-10 2 -10 11v169q0 10 10 10q38 0 74 3q-13 21 -22 44q-12 34 -12 72
q0 45 15.5 84.5t45 68.5t71.5 46t95 17zM307 230q20 25 20 54q0 16 -6.5 29t-16.5 22t-23 14t-25 5q-33 0 -50.5 -21.5t-17.5 -48.5q0 -28 19 -55q18 -23 49 -36q33 15 51 37zM261 798l112 -111l-111 -111l-112 111z" />
    <glyph glyph-name="uniFED3" unicode="&#x641;" horiz-adv-x="546" arabic-form="initial" 
d="M262 525q55 0 101.5 -18.5t80.5 -51.5t53 -78t19 -98q0 -63 -20.5 -114.5t-58 -88t-91 -56.5t-119.5 -20h-227q-10 0 -10 11v169q0 10 10 10h65q-12 21 -21 42q-13 35 -13 65q0 49 17.5 90.5t48.5 72t73 48t92 17.5zM226 190q53 0 81.5 25t28.5 66q0 32 -21.5 53
t-53.5 21q-33 0 -54 -23t-21 -58q0 -18 9 -39q8 -19 26 -45h5zM261 798l112 -111l-111 -111l-112 111z" />
    <glyph glyph-name="uniFB6B" unicode="&#x6a4;" horiz-adv-x="939" arabic-form="final" 
d="M667 525q52 0 95 -18t73.5 -48t47 -69.5t16.5 -82.5q0 -36 -15 -70q-9 -22 -23 -42q35 -5 78 -5q10 0 10 -10v-169q0 -11 -10 -11q-66 0 -151 21q-52 13 -107 33q-51 -23 -109 -36q-82 -18 -172 -18q-10 2 -10 11v169q0 10 10 10q38 0 74 3q-13 21 -22 44q-12 34 -12 72
q0 45 15.5 84.5t45 68.5t71.5 46t95 17zM707 230q20 25 20 54q0 16 -6.5 29t-16.5 22t-23 14t-25 5q-33 0 -50.5 -21.5t-17.5 -48.5q0 -28 19 -55q18 -23 49 -36q33 15 51 37zM200 388q-7 -26 -11 -50.5t-4 -40.5q0 -54 29.5 -80.5t102.5 -26.5h94q10 0 10 -10v-169
q0 -11 -10 -11h-139q-130 0 -190.5 60.5t-60.5 182.5q0 37 5 70t14 75h160zM586 777l78 -76l76 76l112 -111l-110 -111l-78 75l-76 -75l-112 111zM664 884l71 -70l-70 -70l-69 70z" />
    <glyph glyph-name="uniFB6D" unicode="&#x6a4;" horiz-adv-x="539" arabic-form="medial" 
d="M267 525q52 0 95 -18t73.5 -48t47 -69.5t16.5 -82.5q0 -36 -15 -70q-9 -22 -23 -42q35 -5 78 -5q10 0 10 -10v-169q0 -11 -10 -11q-66 0 -151 21q-52 13 -107 33q-51 -23 -109 -36q-82 -18 -172 -18q-10 2 -10 11v169q0 10 10 10q38 0 74 3q-13 21 -22 44q-12 34 -12 72
q0 45 15.5 84.5t45 68.5t71.5 46t95 17zM307 230q20 25 20 54q0 16 -6.5 29t-16.5 22t-23 14t-25 5q-33 0 -50.5 -21.5t-17.5 -48.5q0 -28 19 -55q18 -23 49 -36q33 15 51 37zM180 777l78 -76l76 76l112 -111l-110 -111l-78 75l-76 -75l-112 111zM258 884l71 -70l-70 -70
l-69 70z" />
    <glyph glyph-name="uniFB6C" unicode="&#x6a4;" horiz-adv-x="546" arabic-form="initial" 
d="M262 525q55 0 101.5 -18.5t80.5 -51.5t53 -78t19 -98q0 -63 -20.5 -114.5t-58 -88t-91 -56.5t-119.5 -20h-227q-10 0 -10 11v169q0 10 10 10h65q-12 21 -21 42q-13 35 -13 65q0 49 17.5 90.5t48.5 72t73 48t92 17.5zM226 190q53 0 81.5 25t28.5 66q0 32 -21.5 53
t-53.5 21q-33 0 -54 -23t-21 -58q0 -18 9 -39q8 -19 26 -45h5zM189 777l78 -76l76 76l112 -111l-110 -111l-78 75l-76 -75l-112 111zM267 884l71 -70l-70 -70l-69 70z" />
    <glyph glyph-name="uni06A1.init" unicode="&#x6a1;" horiz-adv-x="546" 
d="M262 525q55 0 101.5 -18.5t80.5 -51.5t53 -78t19 -98q0 -63 -20.5 -114.5t-58 -88t-91 -56.5t-119.5 -20h-227q-10 0 -10 11v169q0 10 10 10h65q-12 21 -21 42q-13 35 -13 65q0 49 17.5 90.5t48.5 72t73 48t92 17.5zM226 190q53 0 81.5 25t28.5 66q0 32 -21.5 53
t-53.5 21q-33 0 -54 -23t-21 -58q0 -18 9 -39q8 -19 26 -45h5z" />
    <glyph glyph-name="uni06A1.medi" unicode="&#x6a1;" horiz-adv-x="539" 
d="M267 525q52 0 95 -18t73.5 -48t47 -69.5t16.5 -82.5q0 -36 -15 -70q-9 -22 -23 -42q35 -5 78 -5q10 0 10 -10v-169q0 -11 -10 -11q-66 0 -151 21q-52 13 -107 33q-51 -23 -109 -36q-82 -18 -172 -18q-10 2 -10 11v169q0 10 10 10q38 0 74 3q-13 21 -22 44q-12 34 -12 72
q0 45 15.5 84.5t45 68.5t71.5 46t95 17zM307 230q20 25 20 54q0 16 -6.5 29t-16.5 22t-23 14t-25 5q-33 0 -50.5 -21.5t-17.5 -48.5q0 -28 19 -55q18 -23 49 -36q33 15 51 37z" />
    <glyph glyph-name="uni06A1.fina" unicode="&#x6a1;" horiz-adv-x="939" 
d="M667 525q52 0 95 -18t73.5 -48t47 -69.5t16.5 -82.5q0 -36 -15 -70q-9 -22 -23 -42q35 -5 78 -5q10 0 10 -10v-169q0 -11 -10 -11q-66 0 -151 21q-52 13 -107 33q-51 -23 -109 -36q-82 -18 -172 -18q-10 2 -10 11v169q0 10 10 10q38 0 74 3q-13 21 -22 44q-12 34 -12 72
q0 45 15.5 84.5t45 68.5t71.5 46t95 17zM707 230q20 25 20 54q0 16 -6.5 29t-16.5 22t-23 14t-25 5q-33 0 -50.5 -21.5t-17.5 -48.5q0 -28 19 -55q18 -23 49 -36q33 15 51 37zM200 388q-7 -26 -11 -50.5t-4 -40.5q0 -54 29.5 -80.5t102.5 -26.5h94q10 0 10 -10v-169
q0 -11 -10 -11h-139q-130 0 -190.5 60.5t-60.5 182.5q0 37 5 70t14 75h160z" />
    <glyph glyph-name="uni066F.aalt" unicode="&#x66f;" horiz-adv-x="816" 
d="M525 515q104 0 167.5 -68t70.5 -190q1 -31 3 -67h50q10 0 10 -10v-169q0 -11 -10 -11h-53q-5 -26 -13 -49q-20 -54 -67 -90.5t-123.5 -56t-187.5 -19.5q-171 0 -261.5 70t-90.5 200q0 53 10 107t33 123h160q-21 -54 -30.5 -95.5t-9.5 -80.5q0 -169 210 -169q46 0 84 9
t65 24q22 12 36 27h-51q-56 0 -102 17t-78.5 49.5t-50 79.5t-17.5 107q0 56 19 104t52 83t78 55t97 20zM589 245q-3 43 -24.5 66t-55.5 23q-29 0 -49.5 -21.5t-20.5 -53.5q0 -41 28.5 -60.5t74.5 -19.5q26 0 51 2q-2 33 -4 64z" />
    <glyph glyph-name="uniFED6" unicode="&#x642;" horiz-adv-x="816" arabic-form="final" 
d="M525 515q104 0 167.5 -68t70.5 -190q1 -31 3 -67h50q10 0 10 -10v-169q0 -11 -10 -11h-53q-5 -26 -13 -49q-20 -54 -67 -90.5t-123.5 -56t-187.5 -19.5q-171 0 -261.5 70t-90.5 200q0 53 10 107t33 123h160q-21 -54 -30.5 -95.5t-9.5 -80.5q0 -169 210 -169q46 0 84 9
t65 24q22 12 36 27h-51q-56 0 -102 17t-78.5 49.5t-50 79.5t-17.5 107q0 56 19 104t52 83t78 55t97 20zM589 245q-3 43 -24.5 66t-55.5 23q-29 0 -49.5 -21.5t-20.5 -53.5q0 -41 28.5 -60.5t74.5 -19.5q26 0 51 2q-2 33 -4 64zM442 790l78 -76l76 76l112 -111l-110 -111
l-78 75l-76 -75l-112 111z" />
    <glyph glyph-name="uniFED8" unicode="&#x642;" horiz-adv-x="539" arabic-form="medial" 
d="M267 525q52 0 95 -18t73.5 -48t47 -69.5t16.5 -82.5q0 -36 -15 -70q-9 -22 -23 -42q35 -5 78 -5q10 0 10 -10v-169q0 -11 -10 -11q-66 0 -151 21q-52 13 -107 33q-51 -23 -109 -36q-82 -18 -172 -18q-10 2 -10 11v169q0 10 10 10q38 0 74 3q-13 21 -22 44q-12 34 -12 72
q0 45 15.5 84.5t45 68.5t71.5 46t95 17zM307 230q20 25 20 54q0 16 -6.5 29t-16.5 22t-23 14t-25 5q-33 0 -50.5 -21.5t-17.5 -48.5q0 -28 19 -55q18 -23 49 -36q33 15 51 37zM186 790l78 -76l76 76l112 -111l-110 -111l-78 75l-76 -75l-112 111z" />
    <glyph glyph-name="uniFED7" unicode="&#x642;" horiz-adv-x="546" arabic-form="initial" 
d="M262 525q55 0 101.5 -18.5t80.5 -51.5t53 -78t19 -98q0 -63 -20.5 -114.5t-58 -88t-91 -56.5t-119.5 -20h-227q-10 0 -10 11v169q0 10 10 10h65q-12 21 -21 42q-13 35 -13 65q0 49 17.5 90.5t48.5 72t73 48t92 17.5zM226 190q53 0 81.5 25t28.5 66q0 32 -21.5 53
t-53.5 21q-33 0 -54 -23t-21 -58q0 -18 9 -39q8 -19 26 -45h5zM186 790l78 -76l76 76l112 -111l-110 -111l-78 75l-76 -75l-112 111z" />
    <glyph glyph-name="uniFEDA" unicode="&#x643;" horiz-adv-x="888" arabic-form="final" 
d="M199 388q-7 -26 -11 -50.5t-4 -40.5q0 -54 29.5 -80.5t102.5 -26.5h96q97 0 157 13q38 8 69 21l-1 501h180l1 -441q0 -50 16.5 -72t52.5 -22q10 0 10 -10l1 -169q0 -11 -10 -11q-149 0 -210 77q-47 -31 -101 -51q-71 -26 -165 -26h-141q-130 0 -190.5 60.5t-60.5 182.5
q0 37 5 70t14 75h160zM553 443l-35 -110h-124q-25 0 -47.5 -3t-58.5 -14v107q18 6 31 10q12 3 23 6l-1 1q-20 18 -20 52q0 24 9 43.5t24.5 33.5t36 21.5t44.5 7.5q34 0 78 -21v-95q-23 8 -38.5 11t-28.5 3q-40 0 -40 -28q0 -16 15 -20.5t43 -4.5h89z" />
    <glyph glyph-name="uniFEDC" unicode="&#x643;" horiz-adv-x="672" arabic-form="medial" 
d="M581 795v-6l-335 -270l160 -66q88 -36 127 -89t39 -136q0 -109 -68 -168.5t-193 -59.5h-311q-10 0 -10 11v169q0 10 10 10h319q31 0 51.5 10.5t20.5 30.5q0 19 -18.5 33.5t-52.5 29.5l-265 117v124l271 260h255zM547 235q26 -22 58.5 -33.5t66.5 -11.5q10 0 10 -10v-169
q0 -11 -10 -11q-59 0 -111 34.5t-90 98.5z" />
    <glyph glyph-name="uniFEDB" unicode="&#x643;" horiz-adv-x="592" arabic-form="initial" 
d="M581 795v-6l-335 -270l160 -66q88 -36 127 -89t39 -136q0 -109 -68 -168.5t-193 -59.5h-311q-10 0 -10 11v169q0 10 10 10h319q31 0 51.5 10.5t20.5 30.5q0 19 -18.5 33.5t-52.5 29.5l-265 117v124l271 260h255z" />
    <glyph glyph-name="uniFB8F" unicode="&#x6a9;" horiz-adv-x="1037" arabic-form="final" 
d="M205 440q-8 -42 -12.5 -79t-4.5 -64q0 -54 29.5 -80.5t102.5 -26.5h214q10 0 10 -10v-169q0 -11 -10 -11h-259q-131 0 -192.5 60.5t-61.5 182.5q0 81 24 197h160zM923 795v-6l-335 -270l160 -66q88 -36 127 -89t39 -136q0 -109 -68 -168.5t-193 -59.5h-311q-10 0 -10 11
v169q0 10 10 10h319q31 0 51.5 10.5t20.5 30.5q0 19 -18.5 33.5t-52.5 29.5l-265 117v124l271 260h255zM912 235q26 -22 58.5 -33.5t66.5 -11.5q10 0 10 -10v-169q0 -11 -10 -11q-59 0 -111 34.5t-90 98.5z" />
    <glyph glyph-name="uniFB91" unicode="&#x6a9;" horiz-adv-x="672" arabic-form="medial" 
d="M581 795v-6l-335 -270l160 -66q88 -36 127 -89t39 -136q0 -109 -68 -168.5t-193 -59.5h-311q-10 0 -10 11v169q0 10 10 10h319q31 0 51.5 10.5t20.5 30.5q0 19 -18.5 33.5t-52.5 29.5l-265 117v124l271 260h255zM547 235q26 -22 58.5 -33.5t66.5 -11.5q10 0 10 -10v-169
q0 -11 -10 -11q-59 0 -111 34.5t-90 98.5z" />
    <glyph glyph-name="uniFB90" unicode="&#x6a9;" horiz-adv-x="592" arabic-form="initial" 
d="M581 795v-6l-335 -270l160 -66q88 -36 127 -89t39 -136q0 -109 -68 -168.5t-193 -59.5h-311q-10 0 -10 11v169q0 10 10 10h319q31 0 51.5 10.5t20.5 30.5q0 19 -18.5 33.5t-52.5 29.5l-265 117v124l271 260h255z" />
    <glyph glyph-name="uniFB93" unicode="&#x6af;" horiz-adv-x="1037" arabic-form="final" 
d="M205 440q-8 -42 -12.5 -79t-4.5 -64q0 -54 29.5 -80.5t102.5 -26.5h214q10 0 10 -10v-169q0 -11 -10 -11h-259q-131 0 -192.5 60.5t-61.5 182.5q0 81 24 197h160zM923 795v-6l-335 -270l160 -66q88 -36 127 -89t39 -136q0 -109 -68 -168.5t-193 -59.5h-311q-10 0 -10 11
v169q0 10 10 10h319q31 0 51.5 10.5t20.5 30.5q0 19 -18.5 33.5t-52.5 29.5l-265 117v124l271 260h255zM912 235q26 -22 58.5 -33.5t66.5 -11.5q10 0 10 -10v-169q0 -11 -10 -11q-59 0 -111 34.5t-90 98.5zM543 791l-207 -198l-53 53l140 149h120v-4z" />
    <glyph glyph-name="uniFB95" unicode="&#x6af;" horiz-adv-x="842" arabic-form="medial" 
d="M751 795v-6l-335 -270l160 -66q88 -36 127 -89t39 -136q0 -109 -68 -168.5t-193 -59.5h-311q-10 0 -10 11v169q0 10 10 10h319q31 0 51.5 10.5t20.5 30.5q0 19 -18.5 33.5t-52.5 29.5l-265 117v124l271 260h255zM717 235q26 -22 58.5 -33.5t66.5 -11.5q10 0 10 -10v-169
q0 -11 -10 -11q-59 0 -111 34.5t-90 98.5zM355 791l-207 -198l-53 53l140 149h120v-4zM194 190q10 0 10 -10v-169q0 -11 -10 -11h-194q-10 0 -10 11v169q0 10 10 10h194z" />
    <glyph glyph-name="uniFB94" unicode="&#x6af;" horiz-adv-x="742" arabic-form="initial" 
d="M731 795v-6l-335 -270l160 -66q88 -36 127 -89t39 -136q0 -109 -68 -168.5t-193 -59.5h-311q-10 0 -10 11v169q0 10 10 10h319q31 0 51.5 10.5t20.5 30.5q0 19 -18.5 33.5t-52.5 29.5l-265 117v124l271 260h255zM335 791l-207 -198l-53 53l140 149h120v-4zM194 190
q10 0 10 -10v-169q0 -11 -10 -11h-194q-10 0 -10 11v169q0 10 10 10h194z" />
    <glyph glyph-name="uniFEDE" unicode="&#x644;" horiz-adv-x="727" arabic-form="final" 
d="M634 725v-465q0 -70 93 -70q10 0 10 -10v-169q0 -11 -10 -11q-37 0 -65 15q-17 10 -31 25q-13 -113 -77 -176q-79 -79 -238 -79q-142 0 -219 70t-77 200q0 53 10 107t33 123h160q-21 -54 -30.5 -95.5t-9.5 -80.5q0 -64 33.5 -99t96.5 -35q141 0 141 143v607h180z" />
    <glyph glyph-name="uniFEE0" unicode="&#x644;" horiz-adv-x="331" arabic-form="medial" 
d="M260 725l1 -441q0 -50 16.5 -72t52.5 -22q10 0 10 -10l1 -169q0 -11 -10 -11q-135 0 -197 62q-29 -27 -54 -41q-36 -21 -80 -21q-10 0 -10 11v169q0 10 10 10q35 0 59 10q11 5 22 12v4l-1 509h180z" />
    <glyph glyph-name="uniFEDF" unicode="&#x644;" horiz-adv-x="321" arabic-form="initial" 
d="M70.9961 725l-1 -441q0 -50 -16.499 -72t-52.4971 -22q-9.99902 0 -9.99902 -10l-1 -169q0 -11 9.99902 -11q249.984 0 249.984 216l1 509h-179.988z" />
    <glyph glyph-name="uniFEE2" unicode="&#x645;" horiz-adv-x="686" arabic-form="final" 
d="M411 495q66 0 105 -37t67 -111l28 -75q15 -42 30.5 -62t44.5 -20q10 0 10 -10v-169q0 -11 -10 -11q-45 0 -79.5 12.5t-59.5 33.5q-13 10 -24 22l-16 -68q-81 0 -145.5 12.5t-109.5 37.5q-15 8 -27 17q-4 -5 -8 -11q-17 -28 -17 -91q0 -47 7 -103.5t23 -136.5h-180
q-9 57 -15 98.5t-9.5 72t-4.5 51.5t-1 36q0 128 61 194q36 39 90 56l1 4q7 34 20 69.5t33.5 69.5t47.5 60.5t61.5 42.5t76.5 16zM424 306q-12 18 -31 18q-20 0 -44 -24.5t-43 -75.5q60 -35 165 -44l-20 66q-14 43 -27 60z" />
    <glyph glyph-name="uniFEE4" unicode="&#x645;" horiz-adv-x="568" arabic-form="medial" 
d="M293 495q66 0 105 -37t67 -111l28 -75q15 -42 30.5 -62t44.5 -20q10 0 10 -10v-169q0 -11 -10 -11q-45 0 -79.5 12.5t-59.5 33.5q-13 10 -24 22l-16 -68q-81 0 -145.5 12.5t-109.5 37.5l-9 5q-12 -10 -25 -19q-23 -16 -48.5 -26t-51.5 -10q-10 0 -10 11v169q0 10 10 10
q26 0 48 5q2 19 6 42q7 34 20 69.5t33.5 69.5t47.5 60.5t61.5 42.5t76.5 16zM306 306q-12 18 -31 18q-20 0 -44 -24.5t-43 -75.5q60 -35 165 -44l-20 66q-14 43 -27 60z" />
    <glyph glyph-name="uniFEE3" unicode="&#x645;" horiz-adv-x="548" arabic-form="initial" 
d="M300 495q41 0 77 -16.5t65.5 -55t51.5 -100.5t34 -153l-105 -183q-100 0 -194 20q-63 14 -122 39q-1 -2 -2 -3q-20 -23 -45.5 -33t-59.5 -10q-10 2 -10 11v169q0 10 10 10q23 0 44.5 32t52.5 105q38 89 88.5 128.5t114.5 39.5zM262 190q58 -12 110 -12q-4 38 -12 65
q-8 31 -18.5 49t-23.5 25.5t-26 7.5q-15 0 -28 -6.5t-25 -22t-25 -40.5q-10 -19 -21 -46q35 -12 69 -20z" />
    <glyph glyph-name="uniFEE6" unicode="&#x646;" horiz-adv-x="722" arabic-form="final" 
d="M597 440q10 -72 16 -123q4 -33 7 -61q4 -20 15 -33q12 -13 27 -20.5t31.5 -10t28.5 -2.5q10 0 10 -10v-169q0 -11 -10 -11q-23 0 -44.5 8.5t-37.5 21.5q-6 5 -11 10q-25 -255 -313 -255q-142 0 -219 70t-77 200q0 53 10 107t33 123h160q-21 -54 -30.5 -95.5t-9.5 -80.5
q0 -64 33.5 -99t96.5 -35q141 0 141 143q0 30 -2 61t-6 68.5t-12 83.5l-17 109h180zM297 619l112 -111l-111 -111l-112 111z" />
    <glyph glyph-name="uniFEE8" unicode="&#x646;" horiz-adv-x="350" arabic-form="medial" 
d="M260 370q0 -68 -8 -127q-1 -13 -4 -26q17 -9 35 -16q33 -11 67 -11q10 0 10 -10v-169q0 -11 -10 -11q-59 0 -111 34q-27 18 -50 43q-19 -23 -44 -40q-53 -37 -145 -37q-10 0 -10 11v169q0 10 10 10q55 0 76 36q13 22 16 57.5t3 86.5h165zM171 669l112 -111l-111 -111
l-112 111z" />
    <glyph glyph-name="uniFEE7" unicode="&#x646;" horiz-adv-x="290" arabic-form="initial" 
d="M221 485q15 -95 22 -158t7 -111q0 -216 -250 -216q-10 0 -10 11l2 169q0 10 10 10q36 0 52.5 22t16.5 72q0 24 -7 69.5t-23 131.5h180zM124 774l112 -111l-111 -111l-112 111z" />
    <glyph glyph-name="uniFB9F" unicode="&#x6ba;" horiz-adv-x="722" arabic-form="final" 
d="M597 440q10 -72 16 -123q4 -33 7 -61q4 -20 15 -33q12 -13 27 -20.5t31.5 -10t28.5 -2.5q10 0 10 -10v-169q0 -11 -10 -11q-23 0 -44.5 8.5t-37.5 21.5q-6 5 -11 10q-25 -255 -313 -255q-142 0 -219 70t-77 200q0 53 10 107t33 123h160q-21 -54 -30.5 -95.5t-9.5 -80.5
q0 -64 33.5 -99t96.5 -35q141 0 141 143q0 30 -2 61t-6 68.5t-12 83.5l-17 109h180z" />
    <glyph glyph-name="uniFEE9" unicode="&#x647;" horiz-adv-x="819" arabic-form="isolated" 
d="M281 725q257 0 382.5 -103.5t125.5 -302.5q0 -20 -2 -42.5t-6 -45.5t-9 -45t-11 -39l-159 -160q-68 -2 -149 23q-58 18 -116 48q-49 -25 -92 -39q-55 -18 -99 -18q-32 0 -68 5.5t-68 16.5v185q32 -8 65 -13q24 -4 45 -5q-15 22 -24 47q-12 34 -12 72q0 45 15.5 84.5
t45 68.5t71.5 46t95 17q52 0 95 -18t73.5 -48t47 -69.5t16.5 -82.5q0 -36 -15 -70q-11 -27 -29 -51h2q44 -10 93 -10q12 35 18.5 71.5t6.5 65.5q0 40 -17 84.5t-56.5 81.5t-104 61.5t-159.5 24.5zM351 230q20 25 20 54q0 16 -6.5 29t-16.5 22t-23 14t-25 5
q-33 0 -50.5 -21.5t-17.5 -48.5q0 -28 19 -55q18 -23 49 -36q33 15 51 37z" />
    <glyph glyph-name="uniFEEA" unicode="&#x647;" horiz-adv-x="543" arabic-form="final" 
d="M501 538v-303q0 -24 11.5 -34.5t30.5 -10.5q10 0 10 -10v-169q0 -11 -10 -11q-105 0 -159 42q-32 -17 -56 -26q-42 -16 -82 -16q-111 0 -168.5 55.5t-57.5 157.5q0 57 27 106t76 86.5t117 61.5q38 13 81 22v49h180zM243 320q-56 -35 -56 -83q0 -24 16.5 -40.5t45.5 -16.5
q36 0 72 12v160q-47 -12 -78 -32z" />
    <glyph glyph-name="uniFEEC" unicode="&#x647;" horiz-adv-x="544" arabic-form="medial" 
d="M394 580q56 -57 91 -129t35 -142q0 -64 -33 -116q28 -3 57 -3q10 0 10 -11v-169q0 -10 -10 -10q-11 0 -19.5 0.5t-17.5 2.5t-19 6q-2 1 -5 1q20 -36 20 -78q0 -32 -13.5 -58.5t-36.5 -46.5t-55 -31t-69 -11q-64 0 -111.5 15t-81.5 41t-56 59.5t-35 71.5q-5 14 -9 28h-36
q-10 0 -10 11v169q0 10 10 10h28q4 28 11 57q16 63 44 122.5t68 113t90 97.5h153zM284 226q36 17 46 38t10 42q0 40 -19 75q-13 24 -32 54q-25 -33 -43 -66q-25 -46 -40 -89t-21 -80q65 10 99 26zM207 24q6 -10 12 -19q18 -23 40 -36t45 -13t37.5 13.5t14.5 34.5
q0 23 -14 41q-6 9 -17 19q-54 -24 -118 -40z" />
    <glyph glyph-name="uniFEEB" unicode="&#x647;" horiz-adv-x="775" arabic-form="initial" 
d="M237 725q257 0 382.5 -103.5t125.5 -302.5q0 -20 -2 -42.5t-6 -45.5t-9 -45t-11 -39l-159 -160q-68 -2 -149 23q-59 18 -118 49q-55 -26 -119 -41q-82 -18 -172 -18q-10 2 -10 11v169q0 10 10 10q38 0 74 3q-13 21 -22 44q-12 34 -12 72q0 45 15.5 84.5t45 68.5t71.5 46
t95 17q52 0 95 -18t73.5 -48t47 -69.5t16.5 -82.5q0 -36 -15 -70q-11 -27 -29 -51h2q44 -10 93 -10q12 35 18.5 71.5t6.5 65.5q0 40 -17 84.5t-56.5 81.5t-104 61.5t-159.5 24.5zM307 230q20 25 20 54q0 16 -6.5 29t-16.5 22t-23 14t-25 5q-33 0 -50.5 -21.5t-17.5 -48.5
q0 -28 19 -55q18 -23 49 -36q33 15 51 37z" />
    <glyph glyph-name="uniFBA7" unicode="&#x6c1;" horiz-adv-x="632" arabic-form="final" 
d="M315 460q60 0 104.5 -30t83.5 -98q15 -25 28.5 -50.5t28.5 -45.5t32.5 -33t39.5 -13q10 0 10 -10v-169q0 -11 -10 -11q-40 0 -70.5 7t-55 24t-45 45.5t-41.5 70.5q-16 33 -29 55.5t-25.5 36.5t-25.5 20t-28 6q-14 0 -27 -5.5t-25 -19t-25 -35t-27 -54.5l-37 -84l-151 68
l37 84q28 65 56 111t58.5 75t65.5 42t78 13z" />
    <glyph glyph-name="uniFBA9" unicode="&#x6c1;" horiz-adv-x="775" arabic-form="medial" 
d="M269 370v-316q0 -39 6.5 -64.5t22.5 -39.5t41 -19q16 -4 37 -5v39q0 112 61.5 168.5t174.5 56.5h163q10 0 10 -11v-169q0 -10 -10 -10h-143q-96 0 -96 -84v-71l-113 -120q-90 0 -155 18t-107 56.5t-62 97.5q-18 54 -20 127q-37 -24 -79 -24q-10 0 -10 11v169q0 10 10 10
q21 0 35.5 3.5t24.5 12.5t14.5 25t4.5 41v98h190zM749 -45l-39 -87h58l-23 -143h-163v140l42 90h125z" />
    <glyph glyph-name="uniFBA8" unicode="&#x6c1;" horiz-adv-x="274" arabic-form="initial" 
d="M191 -45l-39 -87h58l-23 -143h-163v140l42 90h125zM221 485q15 -95 22 -158t7 -111q0 -216 -250 -216q-10 0 -10 11l2 169q0 10 10 10q36 0 52.5 22t16.5 72q0 24 -7 69.5t-23 131.5h180z" />
    <glyph glyph-name="uni06C2.aalt" unicode="&#x6c2;" horiz-adv-x="543" 
d="M501 538v-303q0 -24 11.5 -34.5t30.5 -10.5q10 0 10 -10v-169q0 -11 -10 -11q-105 0 -159 42q-32 -17 -56 -26q-42 -16 -82 -16q-111 0 -168.5 55.5t-57.5 157.5q0 57 27 106t76 86.5t117 61.5q38 13 81 22v49h180zM243 320q-56 -35 -56 -83q0 -24 16.5 -40.5t45.5 -16.5
q36 0 72 12v160q-47 -12 -78 -32zM528 691l-20 -90h-167q-17 0 -33 -2t-42 -10v88q25 9 40 11q5 1 11 2l-6 6q-16 16 -16 42q0 39 28.5 65.5t72.5 26.5q27 0 52.5 -6t41.5 -14v-85q-38 15 -63 15q-15 0 -24.5 -6t-9.5 -17q0 -16 18 -21t38 -5h79z" />
    <glyph glyph-name="uniFBAB" unicode="&#x6be;" horiz-adv-x="626" arabic-form="final" 
d="M466 590q31 -29 56 -63t43 -71t27.5 -74.5t9.5 -72.5q0 -61 -42 -115q33 -4 66 -4q10 0 10 -11v-169q0 -10 -10 -10q-11 0 -19.5 0.5t-17.5 2.5t-19 6q-2 1 -5 1q20 -36 20 -78q0 -32 -13.5 -58.5t-36.5 -46.5t-55 -31t-69 -11q-64 0 -111.5 15t-81.5 41t-56 60
q-7 9 -12 19q-25 -19 -53 -41l-97 128q57 44 107 78q-1 19 -1 36q0 63 14 126t40 123.5t64.5 116.5t88.5 103h153zM293 190q63 27 96 54.5t33 61.5q0 41 -21 80q-15 28 -38 61q-26 -34 -43 -69q-24 -48 -37 -93t-17 -84q-2 -13 -3 -24q15 7 30 13zM343 39q-26 -12 -49 -24
q4 -5 7 -10q18 -23 40 -36t45 -13t37.5 13.5t14.5 34.5q0 23 -14 41q-8 11 -22 24q-28 -15 -59 -30z" />
    <glyph glyph-name="uniFBAD" unicode="&#x6be;" horiz-adv-x="544" arabic-form="medial" 
d="M394 580q56 -57 91 -129t35 -142q0 -64 -33 -116q28 -3 57 -3q10 0 10 -11v-169q0 -10 -10 -10q-11 0 -19.5 0.5t-17.5 2.5t-19 6q-2 1 -5 1q20 -36 20 -78q0 -32 -13.5 -58.5t-36.5 -46.5t-55 -31t-69 -11q-64 0 -111.5 15t-81.5 41t-56 59.5t-35 71.5q-5 14 -9 28h-36
q-10 0 -10 11v169q0 10 10 10h28q4 28 11 57q16 63 44 122.5t68 113t90 97.5h153zM284 226q36 17 46 38t10 42q0 40 -19 75q-13 24 -32 54q-25 -33 -43 -66q-25 -46 -40 -89t-21 -80q65 10 99 26zM207 24q6 -10 12 -19q18 -23 40 -36t45 -13t37.5 13.5t14.5 34.5
q0 23 -14 41q-6 9 -17 19q-54 -24 -118 -40z" />
    <glyph glyph-name="uniFBAC" unicode="&#x6be;" horiz-adv-x="775" arabic-form="initial" 
d="M237 725q257 0 382.5 -103.5t125.5 -302.5q0 -20 -2 -42.5t-6 -45.5t-9 -45t-11 -39l-159 -160q-68 -2 -149 23q-59 18 -118 49q-55 -26 -119 -41q-82 -18 -172 -18q-10 2 -10 11v169q0 10 10 10q38 0 74 3q-13 21 -22 44q-12 34 -12 72q0 45 15.5 84.5t45 68.5t71.5 46
t95 17q52 0 95 -18t73.5 -48t47 -69.5t16.5 -82.5q0 -36 -15 -70q-11 -27 -29 -51h2q44 -10 93 -10q12 35 18.5 71.5t6.5 65.5q0 40 -17 84.5t-56.5 81.5t-104 61.5t-159.5 24.5zM307 230q20 25 20 54q0 16 -6.5 29t-16.5 22t-23 14t-25 5q-33 0 -50.5 -21.5t-17.5 -48.5
q0 -28 19 -55q18 -23 49 -36q33 15 51 37z" />
    <glyph glyph-name="uniFE94" unicode="&#x629;" horiz-adv-x="543" arabic-form="final" 
d="M501 538v-303q0 -24 11.5 -34.5t30.5 -10.5q10 0 10 -10v-169q0 -11 -10 -11q-105 0 -159 42q-32 -17 -56 -26q-42 -16 -82 -16q-111 0 -168.5 55.5t-57.5 157.5q0 57 27 106t76 86.5t117 61.5q38 13 81 22v49h180zM243 320q-56 -35 -56 -83q0 -24 16.5 -40.5t45.5 -16.5
q36 0 72 12v160q-47 -12 -78 -32zM324 830l78 -76l76 76l112 -111l-110 -111l-78 75l-76 -75l-112 111z" />
    <glyph glyph-name="uni06C3.aalt" unicode="&#x6c3;" horiz-adv-x="632" 
d="M315 460q60 0 104.5 -30t83.5 -98q15 -25 28.5 -50.5t28.5 -45.5t32.5 -33t39.5 -13q10 0 10 -10v-169q0 -11 -10 -11q-40 0 -70.5 7t-55 24t-45 45.5t-41.5 70.5q-16 33 -29 55.5t-25.5 36.5t-25.5 20t-28 6q-14 0 -27 -5.5t-25 -19t-25 -35t-27 -54.5l-37 -84l-151 68
l37 84q28 65 56 111t58.5 75t65.5 42t78 13zM224 746l78 -76l76 76l112 -111l-110 -111l-78 75l-76 -75l-112 111z" />
    <glyph glyph-name="uniFEEE" unicode="&#x648;" horiz-adv-x="567" arabic-form="final" 
d="M276 515q104 0 167.5 -68t70.5 -190q1 -30 2 -67h51q10 0 10 -10v-169q0 -11 -10 -11h-52q-4 -29 -14 -54q-21 -53 -69 -88.5t-125 -54t-188 -18.5v145q50 0 92 4.5t72 18t47 37.5l6 10h-58q-56 0 -102 17t-78.5 49.5t-50 79.5t-17.5 107q0 56 19 104t52 83t78 55t97 20z
M340 245q-3 43 -24.5 66t-55.5 23q-29 0 -49.5 -21.5t-20.5 -53.5q0 -41 28.5 -60.5t74.5 -19.5q26 0 51 2z" />
    <glyph glyph-name="uniFE86" unicode="&#x624;" horiz-adv-x="567" arabic-form="final" 
d="M276 515q104 0 167.5 -68t70.5 -190q1 -30 2 -67h51q10 0 10 -10v-169q0 -11 -10 -11h-52q-4 -29 -14 -54q-21 -53 -69 -88.5t-125 -54t-188 -18.5v145q50 0 92 4.5t72 18t47 37.5l6 10h-58q-56 0 -102 17t-78.5 49.5t-50 79.5t-17.5 107q0 56 19 104t52 83t78 55t97 20z
M340 245q-3 43 -24.5 66t-55.5 23q-29 0 -49.5 -21.5t-20.5 -53.5q0 -41 28.5 -60.5t74.5 -19.5q26 0 51 2zM408 689l-35 -110h-124q-25 0 -47.5 -3t-58.5 -14v107q18 6 31 10l24 6l-1 1q-21 18 -21 52q0 24 9 43.5t24.5 33.5t36 21.5t44.5 7.5q34 0 78 -21v-95
q-23 8 -38.5 11t-28.5 3q-40 0 -40 -28q0 -16 15 -20.5t43 -4.5h89z" />
    <glyph glyph-name="uniFEF0" unicode="&#x649;" horiz-adv-x="689" arabic-form="final" 
d="M455 242q42 -17 75.5 -27t61.5 -15t50.5 -7t43.5 -2q10 0 10 -10v-149l3 -1q-2 -3 -3 -7v-13q0 -11 -10 -11h-3q-26 -47 -54 -83q-37 -47 -81.5 -76t-98.5 -42.5t-123 -13.5q-144 0 -225 70t-81 200q0 53 10 107t33 123h160q-21 -54 -30.5 -95.5t-9.5 -80.5
q0 -66 37.5 -100t122.5 -34q74 0 136 22q34 12 61 31q-41 14 -85 34v180z" />
    <glyph glyph-name="uniFEF2" unicode="&#x64a;" horiz-adv-x="689" arabic-form="final" 
d="M455 242q42 -17 75.5 -27t61.5 -15t50.5 -7t43.5 -2q10 0 10 -10v-149l3 -1q-2 -3 -3 -7v-13q0 -11 -10 -11h-3q-26 -47 -54 -83q-37 -47 -81.5 -76t-98.5 -42.5t-123 -13.5q-144 0 -225 70t-81 200q0 53 10 107t33 123h160q-21 -54 -30.5 -95.5t-9.5 -80.5
q0 -66 37.5 -100t122.5 -34q74 0 136 22q34 12 61 31q-41 14 -85 34v180zM356 -250l68 -66l66 66l113 -111l-111 -111l-68 66l-66 -66l-113 111z" />
    <glyph glyph-name="uniFEF4" unicode="&#x64a;" horiz-adv-x="390" arabic-form="medial" 
d="M285 370q0 -72 -9 -134q-1 -5 -2 -9q23 -16 49 -26q33 -11 67 -11q10 0 10 -10v-169q0 -11 -10 -11q-59 0 -111 34q-32 22 -60 54q-26 -33 -65 -55q-58 -33 -154 -33q-10 0 -10 11v169q0 10 10 10q66 0 92 33q17 21 22.5 57t5.5 90h165zM119 -44l68 -66l66 66l113 -111
l-111 -111l-68 66l-66 -66l-113 111z" />
    <glyph glyph-name="uniFEF3" unicode="&#x64a;" horiz-adv-x="377" arabic-form="initial" 
d="M308 485q15 -95 22 -158t7 -111q0 -216 -250 -216h-87q-10 0 -10 11l2 169q0 10 10 10h87q36 0 52.5 22t16.5 72q0 24 -7 69.5t-23 131.5h180zM99 -44l68 -66l66 66l113 -111l-111 -111l-68 66l-66 -66l-113 111z" />
    <glyph glyph-name="uniFE8A" unicode="&#x626;" horiz-adv-x="689" arabic-form="final" 
d="M455 242q42 -17 75.5 -27t61.5 -15t50.5 -7t43.5 -2q10 0 10 -10v-149l3 -1q-2 -3 -3 -7v-13q0 -11 -10 -11h-3q-26 -47 -54 -83q-37 -47 -81.5 -76t-98.5 -42.5t-123 -13.5q-144 0 -225 70t-81 200q0 53 10 107t33 123h160q-21 -54 -30.5 -95.5t-9.5 -80.5
q0 -66 37.5 -100t122.5 -34q74 0 136 22q34 12 61 31q-41 14 -85 34v180zM632 429l-35 -110h-124q-25 0 -47.5 -3t-58.5 -14v107q18 6 31 10l24 6l-1 1q-21 18 -21 52q0 24 9 43.5t24.5 33.5t36 21.5t44.5 7.5q34 0 78 -21v-95q-23 8 -38.5 11t-28.5 3q-40 0 -40 -28
q0 -16 15 -20.5t43 -4.5h89z" />
    <glyph glyph-name="uniFE8C" unicode="&#x626;" horiz-adv-x="390" arabic-form="medial" 
d="M285 370q0 -72 -9 -134q-1 -5 -2 -9q23 -16 49 -26q33 -11 67 -11q10 0 10 -10v-169q0 -11 -10 -11q-59 0 -111 34q-32 22 -60 54q-26 -33 -65 -55q-58 -33 -154 -33q-10 0 -10 11v169q0 10 10 10q66 0 92 33q17 21 22.5 57t5.5 90h165zM348 551l-35 -110h-124
q-25 0 -47.5 -3t-58.5 -14v107q18 6 31 10l24 6l-1 1q-21 18 -21 52q0 24 9 43.5t24.5 33.5t36 21.5t44.5 7.5q34 0 78 -21v-95q-23 8 -38.5 11t-28.5 3q-40 0 -40 -28q0 -16 15 -20.5t43 -4.5h89z" />
    <glyph glyph-name="uniFE8B" unicode="&#x626;" horiz-adv-x="377" arabic-form="initial" 
d="M308 485q15 -95 22 -158t7 -111q0 -216 -250 -216h-87q-10 0 -10 11l2 169q0 10 10 10h87q36 0 52.5 22t16.5 72q0 24 -7 69.5t-23 131.5h180zM358 649l-35 -110h-124q-25 0 -47.5 -3t-58.5 -14v107q18 6 31 10l24 6l-1 1q-21 18 -21 52q0 24 9 43.5t24.5 33.5t36 21.5
t44.5 7.5q34 0 78 -21v-95q-23 8 -38.5 11t-28.5 3q-40 0 -40 -28q0 -16 15 -20.5t43 -4.5h89z" />
    <glyph glyph-name="uniFBFD" unicode="&#x6cc;" horiz-adv-x="689" arabic-form="final" 
d="M455 242q42 -17 75.5 -27t61.5 -15t50.5 -7t43.5 -2q10 0 10 -10v-149l3 -1q-2 -3 -3 -7v-13q0 -11 -10 -11h-3q-26 -47 -54 -83q-37 -47 -81.5 -76t-98.5 -42.5t-123 -13.5q-144 0 -225 70t-81 200q0 53 10 107t33 123h160q-21 -54 -30.5 -95.5t-9.5 -80.5
q0 -66 37.5 -100t122.5 -34q74 0 136 22q34 12 61 31q-41 14 -85 34v180z" />
    <glyph glyph-name="uniFBFF" unicode="&#x6cc;" horiz-adv-x="390" arabic-form="medial" 
d="M285 370q0 -72 -9 -134q-1 -5 -2 -9q23 -16 49 -26q33 -11 67 -11q10 0 10 -10v-169q0 -11 -10 -11q-59 0 -111 34q-32 22 -60 54q-26 -33 -65 -55q-58 -33 -154 -33q-10 0 -10 11v169q0 10 10 10q66 0 92 33q17 21 22.5 57t5.5 90h165zM119 -44l68 -66l66 66l113 -111
l-111 -111l-68 66l-66 -66l-113 111z" />
    <glyph glyph-name="uniFBFE" unicode="&#x6cc;" horiz-adv-x="377" arabic-form="initial" 
d="M308 485q15 -95 22 -158t7 -111q0 -216 -250 -216h-87q-10 0 -10 11l2 169q0 10 10 10h87q36 0 52.5 22t16.5 72q0 24 -7 69.5t-23 131.5h180zM99 -44l68 -66l66 66l113 -111l-111 -111l-68 66l-66 -66l-113 111z" />
    <glyph glyph-name="uniFBAF" unicode="&#x6d2;" horiz-adv-x="750" arabic-form="final" 
d="M750 200q10 0 10 -10v-179q0 -11 -10 -11h-473q-30 0 -43.5 -5.5t-13.5 -18.5q0 -26 59 -26h380l-68 -165h-287q-133 0 -203.5 49.5t-70.5 149.5q0 103 67.5 159.5t201.5 56.5h451z" />
    <glyph glyph-name="uniFBB1" unicode="&#x6d3;" horiz-adv-x="750" arabic-form="final" 
d="M750 200q10 0 10 -10v-179q0 -11 -10 -11h-473q-30 0 -43.5 -5.5t-13.5 -18.5q0 -26 59 -26h380l-68 -165h-287q-133 0 -203.5 49.5t-70.5 149.5q0 103 67.5 159.5t201.5 56.5h451zM468 371l-35 -110h-124q-25 0 -47.5 -3t-58.5 -14v107q18 6 31 10l24 6l-1 1
q-21 18 -21 52q0 24 9 43.5t24.5 33.5t36 21.5t44.5 7.5q34 0 78 -21v-95q-23 8 -38.5 11t-28.5 3q-40 0 -40 -28q0 -16 15 -20.5t43 -4.5h89z" />
    <glyph glyph-name="uniFC6A" unicode="&#xfc6a;" horiz-adv-x="647" arabic-form="final" 
d="M598 389q-12 -39 -18 -66.5t-5 -56.5q1 -33 19 -54.5t53 -21.5q10 0 10 -10v-169q0 -11 -10 -11q-121 0 -175 45t-54 145q0 22 0.5 36t1.5 26t2 23l1 4q-4 -2 -8 -5q-17 -9 -38 -18t-48 -18q-20 -6 -47 -14q5 -46 7 -90q4 -57 4 -112q0 -65 -18 -110.5t-54 -73.5
t-91 -40.5t-130 -12.5v145q22 0 43.5 5t38 17t26.5 31t10 47t-1.5 57.5t-5 67.5t-9 87t-13.5 116l10 12q97 9 191 34t175 65zM426 -47l112 -111l-111 -111l-112 111z" />
    <glyph glyph-name="uniFC6B" unicode="&#xfc6b;" horiz-adv-x="647" arabic-form="final" 
d="M598 389q-12 -39 -18 -66.5t-5 -56.5q1 -33 19 -54.5t53 -21.5q10 0 10 -10v-169q0 -11 -10 -11q-121 0 -175 45t-54 145q0 22 0.5 36t1.5 26t2 23l1 4q-4 -2 -8 -5q-17 -9 -38 -18t-48 -18q-20 -6 -47 -14q5 -46 7 -90q4 -57 4 -112q0 -65 -18 -110.5t-54 -73.5
t-91 -40.5t-130 -12.5v145q22 0 43.5 5t38 17t26.5 31t10 47t-1.5 57.5t-5 67.5t-9 87t-13.5 116l10 12q97 9 191 34t175 65zM133 685l112 -111l-111 -111l-112 111zM426 -47l112 -111l-111 -111l-112 111z" />
    <glyph glyph-name="uniFC08" unicode="&#xfc08;" horiz-adv-x="607" arabic-form="isolated" 
d="M397 532l117 -102q-16 -20 -26.5 -36t-17 -30t-9 -27t-2.5 -27q0 -38 27.5 -73.5t100.5 -81.5l-92 -164q-28 5 -57 15.5t-54.5 24t-47.5 28.5q-13 10 -23 20q-24 6 -43 6q-35 0 -52.5 -28.5t-17.5 -91.5q0 -47 7 -103.5t23 -136.5h-180q-9 57 -15 98.5t-9.5 72t-4.5 51.5
t-1 36q0 64 15.5 116t45.5 89t74.5 57t102.5 20q17 0 28 -1h12q-18 38 -18 80q0 48 28 97t79 91h10zM384 -47l112 -111l-111 -111l-112 111z" />
    <glyph glyph-name="uniFC6D" unicode="&#xfc6d;" horiz-adv-x="991" arabic-form="final" 
d="M942 389q-12 -39 -18 -66.5t-5 -56.5q1 -33 19 -54.5t53 -21.5q10 0 10 -10v-169q0 -11 -10 -11q-63 0 -106.5 10t-71 32.5t-39.5 58.5t-12 89q0 22 0.5 36t1.5 26t2 23q0 1 1 3q-3 -2 -7 -4q-15 -9 -35.5 -18t-48.5 -18q-22 -6 -51 -14q1 -10 1 -19q2 -20 3.5 -38.5
t2 -36.5t0.5 -38q0 -156 -78.5 -231.5t-237.5 -75.5q-142 0 -219 70t-77 200q0 53 10 107t33 123h160q-21 -54 -30.5 -95.5t-9.5 -80.5q0 -64 33.5 -99t96.5 -35q141 0 141 143q0 25 -1 50t-4 53t-7.5 61.5t-10.5 75.5l10 12q97 9 192 34t176 65zM754 -47l112 -111
l-111 -111l-112 111zM317 619l112 -111l-111 -111l-112 111z" />
    <glyph glyph-name="uniFC09" unicode="&#xfc09;" horiz-adv-x="913" arabic-form="isolated" 
d="M832 485q15 -95 22 -158t7 -111q0 -181 -175 -210q-27 -51 -57 -89q-37 -47 -81.5 -76t-98.5 -42.5t-123 -13.5q-144 0 -225 70t-81 200q0 53 10 107t33 123h160q-21 -54 -30.5 -95.5t-9.5 -80.5q0 -66 37.5 -100t122.5 -34q74 0 136 22q21 7 40 18q-41 12 -96 37v180
q51 -21 98.5 -31.5t91.5 -10.5q36 0 52.5 22t16.5 72q0 24 -7 69.5t-23 131.5h180zM761 -47l112 -111l-111 -111l-112 111z" />
    <glyph glyph-name="uniFC6E" unicode="&#xfc6e;" horiz-adv-x="935" arabic-form="final" 
d="M873 413q-10 -45 -14.5 -76.5t-4.5 -56.5q0 -44 18 -67t63 -23q10 0 10 -10v-169q0 -11 -10 -11q-125 0 -191.5 56t-66.5 168q0 30 3 64q3 30 7 60q-58 -4 -95 -15q-40 -12 -61 -27.5t-27.5 -31.5t-6.5 -26q0 -15 12.5 -29.5t35.5 -31.5l28 -22q40 -31 66.5 -68t26.5 -88
t-22.5 -92t-66 -70.5t-106.5 -45.5t-145 -16q-144 0 -225 70t-81 200q0 53 10 107t33 123h160q-21 -54 -30.5 -95.5t-9.5 -80.5q0 -71 42.5 -102.5t137.5 -31.5q66 0 96 12t30 31q0 11 -14.5 28t-33.5 32l-56 45q-63 51 -63 125q0 35 18.5 77t61 80.5t111 68.5t168.5 41z
M798 -47l112 -111l-111 -111l-112 111z" />
    <glyph glyph-name="uniFC0A" unicode="&#xfc0a;" horiz-adv-x="913" arabic-form="isolated" 
d="M832 485q15 -95 22 -158t7 -111q0 -181 -175 -210q-27 -51 -57 -89q-37 -47 -81.5 -76t-98.5 -42.5t-123 -13.5q-144 0 -225 70t-81 200q0 53 10 107t33 123h160q-21 -54 -30.5 -95.5t-9.5 -80.5q0 -66 37.5 -100t122.5 -34q74 0 136 22q21 7 40 18q-41 12 -96 37v180
q51 -21 98.5 -31.5t91.5 -10.5q36 0 52.5 22t16.5 72q0 24 -7 69.5t-23 131.5h180zM761 -47l112 -111l-111 -111l-112 111zM340 -269l68 -66l66 66l113 -111l-111 -111l-68 66l-66 -66l-113 111z" />
    <glyph glyph-name="uniFC6F" unicode="&#xfc6f;" horiz-adv-x="935" arabic-form="final" 
d="M873 413q-10 -45 -14.5 -76.5t-4.5 -56.5q0 -44 18 -67t63 -23q10 0 10 -10v-169q0 -11 -10 -11q-125 0 -191.5 56t-66.5 168q0 30 3 64q3 30 7 60q-58 -4 -95 -15q-40 -12 -61 -27.5t-27.5 -31.5t-6.5 -26q0 -15 12.5 -29.5t35.5 -31.5l28 -22q40 -31 66.5 -68t26.5 -88
t-22.5 -92t-66 -70.5t-106.5 -45.5t-145 -16q-144 0 -225 70t-81 200q0 53 10 107t33 123h160q-21 -54 -30.5 -95.5t-9.5 -80.5q0 -71 42.5 -102.5t137.5 -31.5q66 0 96 12t30 31q0 11 -14.5 28t-33.5 32l-56 45q-63 51 -63 125q0 35 18.5 77t61 80.5t111 68.5t168.5 41z
M798 -47l112 -111l-111 -111l-112 111zM340 -269l68 -66l66 66l113 -111l-111 -111l-68 66l-66 -66l-113 111z" />
    <glyph glyph-name="uniFC70" unicode="&#xfc70;" horiz-adv-x="647" arabic-form="final" 
d="M598 389q-12 -39 -18 -66.5t-5 -56.5q1 -33 19 -54.5t53 -21.5q10 0 10 -10v-169q0 -11 -10 -11q-121 0 -175 45t-54 145q0 22 0.5 36t1.5 26t2 23l1 4q-4 -2 -8 -5q-17 -9 -38 -18t-48 -18q-20 -6 -47 -14q5 -46 7 -90q4 -57 4 -112q0 -65 -18 -110.5t-54 -73.5
t-91 -40.5t-130 -12.5v145q22 0 43.5 5t38 17t26.5 31t10 47t-1.5 57.5t-5 67.5t-9 87t-13.5 116l10 12q97 9 191 34t175 65zM372 769l78 -76l76 76l112 -111l-110 -111l-78 75l-76 -75l-112 111z" />
    <glyph glyph-name="uniFC71" unicode="&#xfc71;" horiz-adv-x="647" arabic-form="final" 
d="M598 389q-12 -39 -18 -66.5t-5 -56.5q1 -33 19 -54.5t53 -21.5q10 0 10 -10v-169q0 -11 -10 -11q-121 0 -175 45t-54 145q0 22 0.5 36t1.5 26t2 23l1 4q-4 -2 -8 -5q-17 -9 -38 -18t-48 -18q-20 -6 -47 -14q5 -46 7 -90q4 -57 4 -112q0 -65 -18 -110.5t-54 -73.5
t-91 -40.5t-130 -12.5v145q22 0 43.5 5t38 17t26.5 31t10 47t-1.5 57.5t-5 67.5t-9 87t-13.5 116l10 12q97 9 191 34t175 65zM133 685l112 -111l-111 -111l-112 111zM382 769l78 -76l76 76l112 -111l-110 -111l-78 75l-76 -75l-112 111z" />
    <glyph glyph-name="uniFC0E" unicode="&#xfc0e;" horiz-adv-x="607" arabic-form="isolated" 
d="M397 532l117 -102q-16 -20 -26.5 -36t-17 -30t-9 -27t-2.5 -27q0 -38 27.5 -73.5t100.5 -81.5l-92 -164q-28 5 -57 15.5t-54.5 24t-47.5 28.5q-13 10 -23 20q-24 6 -43 6q-35 0 -52.5 -28.5t-17.5 -91.5q0 -47 7 -103.5t23 -136.5h-180q-9 57 -15 98.5t-9.5 72t-4.5 51.5
t-1 36q0 64 15.5 116t45.5 89t74.5 57t102.5 20q17 0 28 -1h12q-18 38 -18 80q0 48 28 97t79 91h10zM312 796l78 -76l76 76l112 -111l-110 -111l-78 75l-76 -75l-112 111z" />
    <glyph glyph-name="uniFC73" unicode="&#xfc73;" horiz-adv-x="991" arabic-form="final" 
d="M942 389q-12 -39 -18 -66.5t-5 -56.5q1 -33 19 -54.5t53 -21.5q10 0 10 -10v-169q0 -11 -10 -11q-63 0 -106.5 10t-71 32.5t-39.5 58.5t-12 89q0 22 0.5 36t1.5 26t2 23q0 1 1 3q-3 -2 -7 -4q-15 -9 -35.5 -18t-48.5 -18q-22 -6 -51 -14q1 -10 1 -19q2 -20 3.5 -38.5
t2 -36.5t0.5 -38q0 -156 -78.5 -231.5t-237.5 -75.5q-142 0 -219 70t-77 200q0 53 10 107t33 123h160q-21 -54 -30.5 -95.5t-9.5 -80.5q0 -64 33.5 -99t96.5 -35q141 0 141 143q0 25 -1 50t-4 53t-7.5 61.5t-10.5 75.5l10 12q97 9 192 34t176 65zM723 770l77 -76l77 76
l112 -111l-110 -111l-78 75l-76 -75l-112 111zM317 619l112 -111l-111 -111l-112 111z" />
    <glyph glyph-name="uniFC0F" unicode="&#xfc0f;" horiz-adv-x="947" arabic-form="isolated" 
d="M832 485q15 -95 22 -158t7 -111q0 -181 -175 -210q-27 -51 -57 -89q-37 -47 -81.5 -76t-98.5 -42.5t-123 -13.5q-144 0 -225 70t-81 200q0 53 10 107t33 123h160q-21 -54 -30.5 -95.5t-9.5 -80.5q0 -66 37.5 -100t122.5 -34q74 0 136 22q21 7 40 18q-41 12 -96 37v180
q51 -21 98.5 -31.5t91.5 -10.5q36 0 52.5 22t16.5 72q0 24 -7 69.5t-23 131.5h180zM666 780l78 -76l76 76l112 -111l-110 -111l-78 75l-76 -75l-112 111z" />
    <glyph glyph-name="uniFC74" unicode="&#xfc74;" horiz-adv-x="935" arabic-form="final" 
d="M873 413q-10 -45 -14.5 -76.5t-4.5 -56.5q0 -44 18 -67t63 -23q10 0 10 -10v-169q0 -11 -10 -11q-125 0 -191.5 56t-66.5 168q0 30 3 64q3 30 7 60q-58 -4 -95 -15q-40 -12 -61 -27.5t-27.5 -31.5t-6.5 -26q0 -15 12.5 -29.5t35.5 -31.5l28 -22q40 -31 66.5 -68t26.5 -88
t-22.5 -92t-66 -70.5t-106.5 -45.5t-145 -16q-144 0 -225 70t-81 200q0 53 10 107t33 123h160q-21 -54 -30.5 -95.5t-9.5 -80.5q0 -71 42.5 -102.5t137.5 -31.5q66 0 96 12t30 31q0 11 -14.5 28t-33.5 32l-56 45q-63 51 -63 125q0 35 18.5 77t61 80.5t111 68.5t168.5 41z
M584 779l78 -76l76 76l112 -111l-110 -111l-78 75l-76 -75l-112 111z" />
    <glyph glyph-name="uniFC10" unicode="&#xfc10;" horiz-adv-x="947" arabic-form="isolated" 
d="M832 485q15 -95 22 -158t7 -111q0 -181 -175 -210q-27 -51 -57 -89q-37 -47 -81.5 -76t-98.5 -42.5t-123 -13.5q-144 0 -225 70t-81 200q0 53 10 107t33 123h160q-21 -54 -30.5 -95.5t-9.5 -80.5q0 -66 37.5 -100t122.5 -34q74 0 136 22q21 7 40 18q-41 12 -96 37v180
q51 -21 98.5 -31.5t91.5 -10.5q36 0 52.5 22t16.5 72q0 24 -7 69.5t-23 131.5h180zM666 780l78 -76l76 76l112 -111l-110 -111l-78 75l-76 -75l-112 111zM340 -269l68 -66l66 66l113 -111l-111 -111l-68 66l-66 -66l-113 111z" />
    <glyph glyph-name="uniFC75" unicode="&#xfc75;" horiz-adv-x="935" arabic-form="final" 
d="M873 413q-10 -45 -14.5 -76.5t-4.5 -56.5q0 -44 18 -67t63 -23q10 0 10 -10v-169q0 -11 -10 -11q-125 0 -191.5 56t-66.5 168q0 30 3 64q3 30 7 60q-58 -4 -95 -15q-40 -12 -61 -27.5t-27.5 -31.5t-6.5 -26q0 -15 12.5 -29.5t35.5 -31.5l28 -22q40 -31 66.5 -68t26.5 -88
t-22.5 -92t-66 -70.5t-106.5 -45.5t-145 -16q-144 0 -225 70t-81 200q0 53 10 107t33 123h160q-21 -54 -30.5 -95.5t-9.5 -80.5q0 -71 42.5 -102.5t137.5 -31.5q66 0 96 12t30 31q0 11 -14.5 28t-33.5 32l-56 45q-63 51 -63 125q0 35 18.5 77t61 80.5t111 68.5t168.5 41z
M584 779l78 -76l76 76l112 -111l-110 -111l-78 75l-76 -75l-112 111zM341 -269l68 -66l66 66l113 -111l-111 -111l-68 66l-66 -66l-113 111z" />
    <glyph glyph-name="uniFC76" unicode="&#xfc76;" horiz-adv-x="647" arabic-form="final" 
d="M598 389q-12 -39 -18 -66.5t-5 -56.5q1 -33 19 -54.5t53 -21.5q10 0 10 -10v-169q0 -11 -10 -11q-121 0 -175 45t-54 145q0 22 0.5 36t1.5 26t2 23l1 4q-4 -2 -8 -5q-17 -9 -38 -18t-48 -18q-20 -6 -47 -14q5 -46 7 -90q4 -57 4 -112q0 -65 -18 -110.5t-54 -73.5
t-91 -40.5t-130 -12.5v145q22 0 43.5 5t38 17t26.5 31t10 47t-1.5 57.5t-5 67.5t-9 87t-13.5 116l10 12q97 9 191 34t175 65zM382 758l78 -76l76 76l112 -111l-110 -111l-78 75l-76 -75l-112 111zM460 865l71 -70l-70 -70l-69 70z" />
    <glyph glyph-name="uniFC77" unicode="&#xfc77;" horiz-adv-x="647" arabic-form="final" 
d="M598 389q-12 -39 -18 -66.5t-5 -56.5q1 -33 19 -54.5t53 -21.5q10 0 10 -10v-169q0 -11 -10 -11q-121 0 -175 45t-54 145q0 22 0.5 36t1.5 26t2 23l1 4q-4 -2 -8 -5q-17 -9 -38 -18t-48 -18q-20 -6 -47 -14q5 -46 7 -90q4 -57 4 -112q0 -65 -18 -110.5t-54 -73.5
t-91 -40.5t-130 -12.5v145q22 0 43.5 5t38 17t26.5 31t10 47t-1.5 57.5t-5 67.5t-9 87t-13.5 116l10 12q97 9 191 34t175 65zM133 685l112 -111l-111 -111l-112 111zM422 758l78 -76l76 76l112 -111l-110 -111l-78 75l-76 -75l-112 111zM500 865l71 -70l-70 -70l-69 70z" />
    <glyph glyph-name="uniFC12" unicode="&#xfc12;" horiz-adv-x="607" arabic-form="isolated" 
d="M397 532l117 -102q-16 -20 -26.5 -36t-17 -30t-9 -27t-2.5 -27q0 -38 27.5 -73.5t100.5 -81.5l-92 -164q-28 5 -57 15.5t-54.5 24t-47.5 28.5q-13 10 -23 20q-24 6 -43 6q-35 0 -52.5 -28.5t-17.5 -91.5q0 -47 7 -103.5t23 -136.5h-180q-9 57 -15 98.5t-9.5 72t-4.5 51.5
t-1 36q0 64 15.5 116t45.5 89t74.5 57t102.5 20q17 0 28 -1h12q-18 38 -18 80q0 48 28 97t79 91h10zM322 798l78 -76l76 76l112 -111l-110 -111l-78 75l-76 -75l-112 111zM400 905l71 -70l-70 -70l-69 70z" />
    <glyph glyph-name="uniFC79" unicode="&#xfc79;" horiz-adv-x="991" arabic-form="final" 
d="M942 389q-12 -39 -18 -66.5t-5 -56.5q1 -33 19 -54.5t53 -21.5q10 0 10 -10v-169q0 -11 -10 -11q-63 0 -106.5 10t-71 32.5t-39.5 58.5t-12 89q0 22 0.5 36t1.5 26t2 23q0 1 1 3q-3 -2 -7 -4q-15 -9 -35.5 -18t-48.5 -18q-22 -6 -51 -14q1 -10 1 -19q2 -20 3.5 -38.5
t2 -36.5t0.5 -38q0 -156 -78.5 -231.5t-237.5 -75.5q-142 0 -219 70t-77 200q0 53 10 107t33 123h160q-21 -54 -30.5 -95.5t-9.5 -80.5q0 -64 33.5 -99t96.5 -35q141 0 141 143q0 25 -1 50t-4 53t-7.5 61.5t-10.5 75.5l10 12q97 9 192 34t176 65zM724 759l77 -76l77 76
l112 -111l-110 -111l-78 75l-76 -75l-112 111zM317 619l112 -111l-111 -111l-112 111zM802 866l71 -70l-70 -70l-69 70z" />
    <glyph glyph-name="uniFC13" unicode="&#xfc13;" horiz-adv-x="947" arabic-form="isolated" 
d="M832 485q15 -95 22 -158t7 -111q0 -181 -175 -210q-27 -51 -57 -89q-37 -47 -81.5 -76t-98.5 -42.5t-123 -13.5q-144 0 -225 70t-81 200q0 53 10 107t33 123h160q-21 -54 -30.5 -95.5t-9.5 -80.5q0 -66 37.5 -100t122.5 -34q74 0 136 22q21 7 40 18q-41 12 -96 37v180
q51 -21 98.5 -31.5t91.5 -10.5q36 0 52.5 22t16.5 72q0 24 -7 69.5t-23 131.5h180zM666 760l78 -76l76 76l112 -111l-110 -111l-78 75l-76 -75l-112 111zM744 867l71 -70l-70 -70l-69 70z" />
    <glyph glyph-name="uniFC7A" unicode="&#xfc7a;" horiz-adv-x="935" arabic-form="final" 
d="M873 413q-10 -45 -14.5 -76.5t-4.5 -56.5q0 -44 18 -67t63 -23q10 0 10 -10v-169q0 -11 -10 -11q-125 0 -191.5 56t-66.5 168q0 30 3 64q3 30 7 60q-58 -4 -95 -15q-40 -12 -61 -27.5t-27.5 -31.5t-6.5 -26q0 -15 12.5 -29.5t35.5 -31.5l28 -22q40 -31 66.5 -68t26.5 -88
t-22.5 -92t-66 -70.5t-106.5 -45.5t-145 -16q-144 0 -225 70t-81 200q0 53 10 107t33 123h160q-21 -54 -30.5 -95.5t-9.5 -80.5q0 -71 42.5 -102.5t137.5 -31.5q66 0 96 12t30 31q0 11 -14.5 28t-33.5 32l-56 45q-63 51 -63 125q0 35 18.5 77t61 80.5t111 68.5t168.5 41z
M585 777l78 -76l76 76l112 -111l-110 -111l-78 75l-76 -75l-112 111zM663 884l71 -70l-70 -70l-69 70z" />
    <glyph glyph-name="uniFC14" unicode="&#xfc14;" horiz-adv-x="947" arabic-form="isolated" 
d="M832 485q15 -95 22 -158t7 -111q0 -181 -175 -210q-27 -51 -57 -89q-37 -47 -81.5 -76t-98.5 -42.5t-123 -13.5q-144 0 -225 70t-81 200q0 53 10 107t33 123h160q-21 -54 -30.5 -95.5t-9.5 -80.5q0 -66 37.5 -100t122.5 -34q74 0 136 22q21 7 40 18q-41 12 -96 37v180
q51 -21 98.5 -31.5t91.5 -10.5q36 0 52.5 22t16.5 72q0 24 -7 69.5t-23 131.5h180zM666 760l78 -76l76 76l112 -111l-110 -111l-78 75l-76 -75l-112 111zM744 867l71 -70l-70 -70l-69 70zM340 -269l68 -66l66 66l113 -111l-111 -111l-68 66l-66 -66l-113 111z" />
    <glyph glyph-name="uniFC7B" unicode="&#xfc7b;" horiz-adv-x="935" arabic-form="final" 
d="M873 413q-10 -45 -14.5 -76.5t-4.5 -56.5q0 -44 18 -67t63 -23q10 0 10 -10v-169q0 -11 -10 -11q-125 0 -191.5 56t-66.5 168q0 30 3 64q3 30 7 60q-58 -4 -95 -15q-40 -12 -61 -27.5t-27.5 -31.5t-6.5 -26q0 -15 12.5 -29.5t35.5 -31.5l28 -22q40 -31 66.5 -68t26.5 -88
t-22.5 -92t-66 -70.5t-106.5 -45.5t-145 -16q-144 0 -225 70t-81 200q0 53 10 107t33 123h160q-21 -54 -30.5 -95.5t-9.5 -80.5q0 -71 42.5 -102.5t137.5 -31.5q66 0 96 12t30 31q0 11 -14.5 28t-33.5 32l-56 45q-63 51 -63 125q0 35 18.5 77t61 80.5t111 68.5t168.5 41z
M585 777l78 -76l76 76l112 -111l-110 -111l-78 75l-76 -75l-112 111zM663 884l71 -70l-70 -70l-69 70zM340 -269l68 -66l66 66l113 -111l-111 -111l-68 66l-66 -66l-113 111z" />
    <glyph glyph-name="uniFD0E" unicode="&#xfd0e;" horiz-adv-x="1251" arabic-form="isolated" 
d="M601 495q-13 -50 -21 -84t-12.5 -58t-6.5 -41t-2 -32q0 -44 21 -67t66 -23q60 0 81 36q13 22 16 57.5t3 86.5h165q0 -68 -8 -127q-3 -23 -8 -44q3 -1 5 -2q28 -7 63 -7q38 0 53.5 21t15.5 73q0 24 -7 69.5t-23 131.5h180q15 -95 22 -158t7 -111q0 -102 -51.5 -158.5
t-147.5 -56.5q-24 0 -52.5 5t-59.5 16.5t-63 30.5q-9 5 -17 11q-17 -14 -37 -25q-32 -18 -70 -28.5t-78 -10.5q-125 0 -189 56t-64 168q0 32 3 68q-17 -5 -32 -9q-24 -7 -46 -15q-15 -5 -29 -11q3 -27 5 -50q4 -32 6 -61.5t3 -59t1 -64.5q0 -65 -18 -110.5t-54 -73.5
t-91 -40.5t-130 -12.5v145q22 0 43.5 5t38 17t26.5 31t10 47q0 33 -2 64.5t-5.5 64t-8 67.5t-9.5 75l121 113q72 17 133 27q32 5 64 9q5 22 10 45h180z" />
    <glyph glyph-name="uniFD2A" unicode="&#xfd2a;" horiz-adv-x="1283" arabic-form="final" 
d="M601 495q-13 -50 -21 -84t-12.5 -58t-6.5 -41t-2 -32q0 -44 21 -67t66 -23q55 0 76 36q13 22 16 57.5t3 86.5h165q0 -68 -8 -127q-3 -24 -8 -47q23 -6 52 -6q55 0 76 36q13 22 16 57.5t3 86.5v70h165v-70q0 -68 -8 -127q-2 -15 -5 -30q13 -7 27 -12q33 -11 67 -11
q10 0 10 -10v-169q0 -11 -10 -11q-59 0 -111 34q-24 16 -45 37q-14 -17 -31 -32q-45 -39 -114 -39q-32 0 -58.5 8.5t-53.5 23.5q-26 14 -52 35q-19 -16 -41 -28q-31 -18 -67 -28.5t-70 -10.5q-62 0 -110 16t-81 45.5t-50 71t-17 91.5q0 32 3 68q-17 -5 -32 -9
q-24 -7 -46 -15q-15 -5 -29 -11q3 -27 5 -50q4 -32 6 -61.5t3 -59t1 -64.5q0 -65 -18 -110.5t-54 -73.5t-91 -40.5t-130 -12.5v145q22 0 43.5 5t38 17t26.5 31t10 47q0 33 -2 64.5t-5.5 64t-8 67.5t-9.5 75l121 113q72 17 133 27q32 5 64 9q5 22 10 45h180z" />
    <glyph glyph-name="uniFCFB" unicode="&#xfcfb;" horiz-adv-x="1546" arabic-form="isolated" 
d="M1477 485q15 -95 22 -158t7 -111q0 -102 -51.5 -158.5t-147.5 -56.5q-24 0 -52.5 5t-59.5 16.5t-63 30.5q-9 6 -18 11q-17 -14 -38 -25q-32 -18 -69.5 -28.5t-76.5 -10.5q-121 0 -187 56t-66 168q0 30 3 64q3 30 7 60q-58 -4 -95 -15q-40 -12 -61 -27.5t-27.5 -31.5
t-6.5 -26q0 -15 12.5 -29.5t35.5 -31.5l28 -22q40 -31 66.5 -68t26.5 -88t-22.5 -92t-66 -70.5t-106.5 -45.5t-145 -16q-144 0 -225 70t-81 200q0 53 10 107t33 123h160q-21 -54 -30.5 -95.5t-9.5 -80.5q0 -71 42.5 -102.5t137.5 -31.5q66 0 96 12t30 31q0 11 -14.5 28
t-33.5 32l-56 45q-63 51 -63 125q0 35 18.5 77t61 80.5t111 68.5t168.5 41l192 -102q-10 -45 -14.5 -76.5t-4.5 -56.5q0 -44 21 -67t66 -23q60 0 81 36q13 22 16 57.5t3 86.5h165q0 -68 -8 -127q-3 -23 -8 -44q3 -1 5 -2q28 -7 63 -7q38 0 53.5 21t15.5 73q0 24 -7 69.5
t-23 131.5h180z" />
    <glyph glyph-name="uniFD17" unicode="&#xfd17;" horiz-adv-x="1578" arabic-form="final" 
d="M1497 440v-70q0 -68 -8 -127q-2 -15 -5 -30q13 -7 27 -12q33 -11 67 -11q10 0 10 -10v-169q0 -11 -10 -11q-59 0 -111 34q-24 16 -45 37q-14 -17 -31 -32q-45 -39 -114 -39q-32 0 -58.5 8.5t-53.5 23.5q-26 14 -52 35q-19 -16 -41 -28q-31 -18 -67 -28.5t-70 -10.5
q-62 0 -110 16t-81 45.5t-50 71t-17 91.5q0 30 3 64q3 30 7 60q-58 -4 -95 -15q-40 -12 -61 -27.5t-27.5 -31.5t-6.5 -26q0 -15 12.5 -29.5t35.5 -31.5l28 -22q40 -31 66.5 -68t26.5 -88t-22.5 -92t-66 -70.5t-106.5 -45.5t-145 -16q-144 0 -225 70t-81 200q0 53 10 107
t33 123h160q-21 -54 -30.5 -95.5t-9.5 -80.5q0 -71 42.5 -102.5t137.5 -31.5q66 0 96 12t30 31q0 11 -14.5 28t-33.5 32l-56 45q-63 51 -63 125q0 35 18.5 77t61 80.5t111 68.5t168.5 41l192 -102q-3 -14 -6.5 -33.5t-6 -39t-4.5 -36t-2 -24.5q0 -44 21 -67t66 -23
q55 0 76 36q13 22 16 57.5t3 86.5h165q0 -68 -8 -127q-3 -24 -8 -47q23 -6 52 -6q55 0 76 36q13 22 16 57.5t3 86.5v70h165z" />
    <glyph glyph-name="uniFCFC" unicode="&#xfcfc;" horiz-adv-x="1546" arabic-form="isolated" 
d="M1477 485q15 -95 22 -158t7 -111q0 -102 -51.5 -158.5t-147.5 -56.5q-24 0 -52.5 5t-59.5 16.5t-63 30.5q-9 6 -18 11q-17 -14 -38 -25q-32 -18 -69.5 -28.5t-76.5 -10.5q-121 0 -187 56t-66 168q0 30 3 64q3 30 7 60q-58 -4 -95 -15q-40 -12 -61 -27.5t-27.5 -31.5
t-6.5 -26q0 -15 12.5 -29.5t35.5 -31.5l28 -22q40 -31 66.5 -68t26.5 -88t-22.5 -92t-66 -70.5t-106.5 -45.5t-145 -16q-144 0 -225 70t-81 200q0 53 10 107t33 123h160q-21 -54 -30.5 -95.5t-9.5 -80.5q0 -71 42.5 -102.5t137.5 -31.5q66 0 96 12t30 31q0 11 -14.5 28
t-33.5 32l-56 45q-63 51 -63 125q0 35 18.5 77t61 80.5t111 68.5t168.5 41l192 -102q-10 -45 -14.5 -76.5t-4.5 -56.5q0 -44 21 -67t66 -23q60 0 81 36q13 22 16 57.5t3 86.5h165q0 -68 -8 -127q-3 -23 -8 -44q3 -1 5 -2q28 -7 63 -7q38 0 53.5 21t15.5 73q0 24 -7 69.5
t-23 131.5h180zM340 -269l68 -66l66 66l113 -111l-111 -111l-68 66l-66 -66l-113 111z" />
    <glyph glyph-name="uniFD18" unicode="&#xfd18;" horiz-adv-x="1578" arabic-form="final" 
d="M1497 440v-70q0 -68 -8 -127q-2 -15 -5 -30q13 -7 27 -12q33 -11 67 -11q10 0 10 -10v-169q0 -11 -10 -11q-59 0 -111 34q-24 16 -45 37q-14 -17 -31 -32q-45 -39 -114 -39q-32 0 -58.5 8.5t-53.5 23.5q-26 14 -52 35q-19 -16 -41 -28q-31 -18 -67 -28.5t-70 -10.5
q-62 0 -110 16t-81 45.5t-50 71t-17 91.5q0 30 3 64q3 30 7 60q-58 -4 -95 -15q-40 -12 -61 -27.5t-27.5 -31.5t-6.5 -26q0 -15 12.5 -29.5t35.5 -31.5l28 -22q40 -31 66.5 -68t26.5 -88t-22.5 -92t-66 -70.5t-106.5 -45.5t-145 -16q-144 0 -225 70t-81 200q0 53 10 107
t33 123h160q-21 -54 -30.5 -95.5t-9.5 -80.5q0 -71 42.5 -102.5t137.5 -31.5q66 0 96 12t30 31q0 11 -14.5 28t-33.5 32l-56 45q-63 51 -63 125q0 35 18.5 77t61 80.5t111 68.5t168.5 41l192 -102q-3 -14 -6.5 -33.5t-6 -39t-4.5 -36t-2 -24.5q0 -44 21 -67t66 -23
q55 0 76 36q13 22 16 57.5t3 86.5h165q0 -68 -8 -127q-3 -24 -8 -47q23 -6 52 -6q55 0 76 36q13 22 16 57.5t3 86.5v70h165zM340 -270l67 -66l67 66l113 -111l-111 -111l-68 66l-66 -66l-113 111z" />
    <glyph glyph-name="uniFD0D" unicode="&#xfd0d;" horiz-adv-x="1251" arabic-form="isolated" 
d="M601 495q-13 -50 -21 -84t-12.5 -58t-6.5 -41t-2 -32q0 -44 21 -67t66 -23q60 0 81 36q13 22 16 57.5t3 86.5h165q0 -68 -8 -127q-3 -23 -8 -44q3 -1 5 -2q28 -7 63 -7q38 0 53.5 21t15.5 73q0 24 -7 69.5t-23 131.5h180q15 -95 22 -158t7 -111q0 -102 -51.5 -158.5
t-147.5 -56.5q-24 0 -52.5 5t-59.5 16.5t-63 30.5q-9 5 -17 11q-17 -14 -37 -25q-32 -18 -70 -28.5t-78 -10.5q-125 0 -189 56t-64 168q0 32 3 68q-17 -5 -32 -9q-24 -7 -46 -15q-15 -5 -29 -11q3 -27 5 -50q4 -32 6 -61.5t3 -59t1 -64.5q0 -65 -18 -110.5t-54 -73.5
t-91 -40.5t-130 -12.5v145q22 0 43.5 5t38 17t26.5 31t10 47q0 33 -2 64.5t-5.5 64t-8 67.5t-9.5 75l121 113q72 17 133 27q32 5 64 9q5 22 10 45h180zM751 679l78 -76l76 76l112 -111l-110 -111l-78 75l-76 -75l-112 111zM829 786l71 -70l-70 -70l-69 70z" />
    <glyph glyph-name="uniFD29" unicode="&#xfd29;" horiz-adv-x="1283" arabic-form="final" 
d="M601 495q-13 -50 -21 -84t-12.5 -58t-6.5 -41t-2 -32q0 -44 21 -67t66 -23q55 0 76 36q13 22 16 57.5t3 86.5h165q0 -68 -8 -127q-3 -24 -8 -47q23 -6 52 -6q55 0 76 36q13 22 16 57.5t3 86.5v70h165v-70q0 -68 -8 -127q-2 -15 -5 -30q13 -7 27 -12q33 -11 67 -11
q10 0 10 -10v-169q0 -11 -10 -11q-59 0 -111 34q-24 16 -45 37q-14 -17 -31 -32q-45 -39 -114 -39q-32 0 -58.5 8.5t-53.5 23.5q-26 14 -52 35q-19 -16 -41 -28q-31 -18 -67 -28.5t-70 -10.5q-62 0 -110 16t-81 45.5t-50 71t-17 91.5q0 32 3 68q-17 -5 -32 -9
q-24 -7 -46 -15q-15 -5 -29 -11q3 -27 5 -50q4 -32 6 -61.5t3 -59t1 -64.5q0 -65 -18 -110.5t-54 -73.5t-91 -40.5t-130 -12.5v145q22 0 43.5 5t38 17t26.5 31t10 47q0 33 -2 64.5t-5.5 64t-8 67.5t-9.5 75l121 113q72 17 133 27q32 5 64 9q5 22 10 45h180zM741 678l77 -76
l77 76l112 -111l-110 -111l-78 75l-76 -75l-112 111zM819 785l71 -70l-70 -70l-69 70z" />
    <glyph glyph-name="uniFCFD" unicode="&#xfcfd;" horiz-adv-x="1546" arabic-form="isolated" 
d="M1477 485q15 -95 22 -158t7 -111q0 -102 -51.5 -158.5t-147.5 -56.5q-24 0 -52.5 5t-59.5 16.5t-63 30.5q-9 6 -18 11q-17 -14 -38 -25q-32 -18 -69.5 -28.5t-76.5 -10.5q-121 0 -187 56t-66 168q0 30 3 64q3 30 7 60q-58 -4 -95 -15q-40 -12 -61 -27.5t-27.5 -31.5
t-6.5 -26q0 -15 12.5 -29.5t35.5 -31.5l28 -22q40 -31 66.5 -68t26.5 -88t-22.5 -92t-66 -70.5t-106.5 -45.5t-145 -16q-144 0 -225 70t-81 200q0 53 10 107t33 123h160q-21 -54 -30.5 -95.5t-9.5 -80.5q0 -71 42.5 -102.5t137.5 -31.5q66 0 96 12t30 31q0 11 -14.5 28
t-33.5 32l-56 45q-63 51 -63 125q0 35 18.5 77t61 80.5t111 68.5t168.5 41l192 -102q-10 -45 -14.5 -76.5t-4.5 -56.5q0 -44 21 -67t66 -23q60 0 81 36q13 22 16 57.5t3 86.5h165q0 -68 -8 -127q-3 -23 -8 -44q3 -1 5 -2q28 -7 63 -7q38 0 53.5 21t15.5 73q0 24 -7 69.5
t-23 131.5h180zM1045 684l78 -76l76 76l112 -111l-110 -111l-78 75l-76 -75l-112 111zM1123 791l71 -70l-70 -70l-69 70z" />
    <glyph glyph-name="uniFD19" unicode="&#xfd19;" horiz-adv-x="1578" arabic-form="final" 
d="M1497 440v-70q0 -68 -8 -127q-2 -15 -5 -30q13 -7 27 -12q33 -11 67 -11q10 0 10 -10v-169q0 -11 -10 -11q-59 0 -111 34q-24 16 -45 37q-14 -17 -31 -32q-45 -39 -114 -39q-32 0 -58.5 8.5t-53.5 23.5q-26 14 -52 35q-19 -16 -41 -28q-31 -18 -67 -28.5t-70 -10.5
q-62 0 -110 16t-81 45.5t-50 71t-17 91.5q0 30 3 64q3 30 7 60q-58 -4 -95 -15q-40 -12 -61 -27.5t-27.5 -31.5t-6.5 -26q0 -15 12.5 -29.5t35.5 -31.5l28 -22q40 -31 66.5 -68t26.5 -88t-22.5 -92t-66 -70.5t-106.5 -45.5t-145 -16q-144 0 -225 70t-81 200q0 53 10 107
t33 123h160q-21 -54 -30.5 -95.5t-9.5 -80.5q0 -71 42.5 -102.5t137.5 -31.5q66 0 96 12t30 31q0 11 -14.5 28t-33.5 32l-56 45q-63 51 -63 125q0 35 18.5 77t61 80.5t111 68.5t168.5 41l192 -102q-3 -14 -6.5 -33.5t-6 -39t-4.5 -36t-2 -24.5q0 -44 21 -67t66 -23
q55 0 76 36q13 22 16 57.5t3 86.5h165q0 -68 -8 -127q-3 -24 -8 -47q23 -6 52 -6q55 0 76 36q13 22 16 57.5t3 86.5v70h165zM1045 683l77 -76l77 76l112 -111l-110 -111l-78 75l-76 -75l-112 111zM1123 790l71 -70l-70 -70l-69 70z" />
    <glyph glyph-name="uniFCFE" unicode="&#xfcfe;" horiz-adv-x="1546" arabic-form="isolated" 
d="M1477 485q15 -95 22 -158t7 -111q0 -102 -51.5 -158.5t-147.5 -56.5q-24 0 -52.5 5t-59.5 16.5t-63 30.5q-9 6 -18 11q-17 -14 -38 -25q-32 -18 -69.5 -28.5t-76.5 -10.5q-121 0 -187 56t-66 168q0 30 3 64q3 30 7 60q-58 -4 -95 -15q-40 -12 -61 -27.5t-27.5 -31.5
t-6.5 -26q0 -15 12.5 -29.5t35.5 -31.5l28 -22q40 -31 66.5 -68t26.5 -88t-22.5 -92t-66 -70.5t-106.5 -45.5t-145 -16q-144 0 -225 70t-81 200q0 53 10 107t33 123h160q-21 -54 -30.5 -95.5t-9.5 -80.5q0 -71 42.5 -102.5t137.5 -31.5q66 0 96 12t30 31q0 11 -14.5 28
t-33.5 32l-56 45q-63 51 -63 125q0 35 18.5 77t61 80.5t111 68.5t168.5 41l192 -102q-10 -45 -14.5 -76.5t-4.5 -56.5q0 -44 21 -67t66 -23q60 0 81 36q13 22 16 57.5t3 86.5h165q0 -68 -8 -127q-3 -23 -8 -44q3 -1 5 -2q28 -7 63 -7q38 0 53.5 21t15.5 73q0 24 -7 69.5
t-23 131.5h180zM340 -269l68 -66l66 66l113 -111l-111 -111l-68 66l-66 -66l-113 111zM1045 684l78 -76l76 76l112 -111l-110 -111l-78 75l-76 -75l-112 111zM1123 791l71 -70l-70 -70l-69 70z" />
    <glyph glyph-name="uniFD1A" unicode="&#xfd1a;" horiz-adv-x="1578" arabic-form="final" 
d="M1497 440v-70q0 -68 -8 -127q-2 -15 -5 -30q13 -7 27 -12q33 -11 67 -11q10 0 10 -10v-169q0 -11 -10 -11q-59 0 -111 34q-24 16 -45 37q-14 -17 -31 -32q-45 -39 -114 -39q-32 0 -58.5 8.5t-53.5 23.5q-26 14 -52 35q-19 -16 -41 -28q-31 -18 -67 -28.5t-70 -10.5
q-62 0 -110 16t-81 45.5t-50 71t-17 91.5q0 30 3 64q3 30 7 60q-58 -4 -95 -15q-40 -12 -61 -27.5t-27.5 -31.5t-6.5 -26q0 -15 12.5 -29.5t35.5 -31.5l28 -22q40 -31 66.5 -68t26.5 -88t-22.5 -92t-66 -70.5t-106.5 -45.5t-145 -16q-144 0 -225 70t-81 200q0 53 10 107
t33 123h160q-21 -54 -30.5 -95.5t-9.5 -80.5q0 -71 42.5 -102.5t137.5 -31.5q66 0 96 12t30 31q0 11 -14.5 28t-33.5 32l-56 45q-63 51 -63 125q0 35 18.5 77t61 80.5t111 68.5t168.5 41l192 -102q-3 -14 -6.5 -33.5t-6 -39t-4.5 -36t-2 -24.5q0 -44 21 -67t66 -23
q55 0 76 36q13 22 16 57.5t3 86.5h165q0 -68 -8 -127q-3 -24 -8 -47q23 -6 52 -6q55 0 76 36q13 22 16 57.5t3 86.5v70h165zM1035 683l77 -76l77 76l112 -111l-110 -111l-78 75l-76 -75l-112 111zM340 -270l67 -66l67 66l113 -111l-111 -111l-68 66l-66 -66l-113 111z
M1113 790l71 -70l-70 -70l-69 70z" />
    <glyph glyph-name="uniFD0F" unicode="&#xfd0f;" horiz-adv-x="1277" arabic-form="isolated" 
d="M1013 544q54 0 97 -18.5t73.5 -51.5t47 -77t16.5 -95q0 -71 -27.5 -127t-80 -95t-130 -59.5t-177.5 -20.5h-152q-146 0 -222 55.5t-76 168.5q0 32 3 68q-17 -5 -32 -9q-24 -7 -46 -15q-15 -5 -29 -11q3 -27 5 -50q4 -32 6 -61.5t3 -59t1 -64.5q0 -65 -18 -110.5
t-54 -73.5t-91 -40.5t-130 -12.5v145q22 0 43.5 5t38 17t26.5 31t10 47q0 33 -2 64.5t-5.5 64t-8 67.5t-9.5 75l121 113q72 17 133 27q32 5 64 9q5 22 10 45h180q-13 -50 -21 -84t-12.5 -58t-6.5 -41t-2 -32q0 -22 10 -39q2 -3 4 -7q48 50 88 91q71 73 130.5 121.5t112 73
t109.5 24.5zM826 190q55 0 99 7t75 19.5t48 29t17 35.5q0 35 -25 57t-69 22q-33 0 -65.5 -13.5t-75.5 -46.5t-103 -88q-11 -10 -24 -22h123z" />
    <glyph glyph-name="uniFD2B" unicode="&#xfd2b;" horiz-adv-x="1312" arabic-form="final" 
d="M1013 544q54 0 97 -18.5t73.5 -51.5t47 -77t16.5 -95q0 -71 -27.5 -127t-80 -95t-130 -59.5t-177.5 -20.5h-152q-146 0 -222 55.5t-76 168.5q0 32 3 68q-17 -5 -32 -9q-24 -7 -46 -15q-15 -5 -29 -11q3 -27 5 -50q4 -32 6 -61.5t3 -59t1 -64.5q0 -65 -18 -110.5
t-54 -73.5t-91 -40.5t-130 -12.5v145q22 0 43.5 5t38 17t26.5 31t10 47q0 33 -2 64.5t-5.5 64t-8 67.5t-9.5 75l121 113q72 17 133 27q32 5 64 9q5 22 10 45h180q-13 -50 -21 -84t-12.5 -58t-6.5 -41t-2 -32q0 -22 10 -39q2 -3 4 -7q48 50 88 91q71 73 130.5 121.5t112 73
t109.5 24.5zM826 190q55 0 99 7t75 19.5t48 29t17 35.5q0 35 -25 57t-69 22q-33 0 -65.5 -13.5t-75.5 -46.5t-103 -88q-11 -10 -24 -22h123zM1187 235q26 -22 58.5 -33.5t66.5 -11.5q10 0 10 -10v-169q0 -11 -10 -11q-59 0 -111 34.5t-90 98.5z" />
    <glyph glyph-name="uniFD05" unicode="&#xfd05;" horiz-adv-x="1572" arabic-form="isolated" 
d="M1308 544q54 0 97 -18.5t73.5 -51.5t47 -77t16.5 -95q0 -71 -27.5 -127t-80 -95t-130 -59.5t-177.5 -20.5h-152q-146 0 -222 55.5t-76 168.5q0 30 3 64q3 30 7 60q-58 -4 -95 -15q-40 -12 -61 -27.5t-27.5 -31.5t-6.5 -26q0 -15 12.5 -29.5t35.5 -31.5l28 -22
q40 -31 66.5 -68t26.5 -88t-22.5 -92t-66 -70.5t-106.5 -45.5t-145 -16q-144 0 -225 70t-81 200q0 53 10 107t33 123h160q-21 -54 -30.5 -95.5t-9.5 -80.5q0 -71 42.5 -102.5t137.5 -31.5q66 0 96 12t30 31q0 11 -14.5 28t-33.5 32l-56 45q-63 51 -63 125q0 35 18.5 77
t61 80.5t111 68.5t168.5 41l192 -102q-6 -26 -9.5 -44.5t-5.5 -32t-3 -23.5t-1 -19q0 -38 13 -61q48 50 89 92q71 73 130.5 121.5t112 73t109.5 24.5zM1121 190q55 0 99 7t75 19.5t48 29t17 35.5q0 35 -25 57t-69 22q-33 0 -65.5 -13.5t-75.5 -46.5t-103 -88
q-11 -10 -24 -22h123z" />
    <glyph glyph-name="uniFD21" unicode="&#xfd21;" horiz-adv-x="1649" arabic-form="final" 
d="M1308 544q54 0 97 -18.5t73.5 -51.5t47 -77t16.5 -95q0 -71 -27.5 -127t-80 -95t-130 -59.5t-177.5 -20.5h-152q-146 0 -222 55.5t-76 168.5q0 30 3 64q3 30 7 60q-58 -4 -95 -15q-40 -12 -61 -27.5t-27.5 -31.5t-6.5 -26q0 -15 12.5 -29.5t35.5 -31.5l28 -22
q40 -31 66.5 -68t26.5 -88t-22.5 -92t-66 -70.5t-106.5 -45.5t-145 -16q-144 0 -225 70t-81 200q0 53 10 107t33 123h160q-21 -54 -30.5 -95.5t-9.5 -80.5q0 -71 42.5 -102.5t137.5 -31.5q66 0 96 12t30 31q0 11 -14.5 28t-33.5 32l-56 45q-63 51 -63 125q0 35 18.5 77
t61 80.5t111 68.5t168.5 41l192 -102q-6 -26 -9.5 -44.5t-5.5 -32t-3 -23.5t-1 -19q0 -38 13 -61q48 50 89 92q71 73 130.5 121.5t112 73t109.5 24.5zM1121 190q55 0 99 7t75 19.5t48 29t17 35.5q0 35 -25 57t-69 22q-33 0 -65.5 -13.5t-75.5 -46.5t-103 -88
q-11 -10 -24 -22h123zM1524 235q26 -22 58.5 -33.5t66.5 -11.5q10 0 10 -10v-169q0 -11 -10 -11q-59 0 -111 34.5t-90 98.5z" />
    <glyph glyph-name="uniFD06" unicode="&#xfd06;" horiz-adv-x="1572" arabic-form="isolated" 
d="M1308 544q54 0 97 -18.5t73.5 -51.5t47 -77t16.5 -95q0 -71 -27.5 -127t-80 -95t-130 -59.5t-177.5 -20.5h-152q-146 0 -222 55.5t-76 168.5q0 30 3 64q3 30 7 60q-58 -4 -95 -15q-40 -12 -61 -27.5t-27.5 -31.5t-6.5 -26q0 -15 12.5 -29.5t35.5 -31.5l28 -22
q40 -31 66.5 -68t26.5 -88t-22.5 -92t-66 -70.5t-106.5 -45.5t-145 -16q-144 0 -225 70t-81 200q0 53 10 107t33 123h160q-21 -54 -30.5 -95.5t-9.5 -80.5q0 -71 42.5 -102.5t137.5 -31.5q66 0 96 12t30 31q0 11 -14.5 28t-33.5 32l-56 45q-63 51 -63 125q0 35 18.5 77
t61 80.5t111 68.5t168.5 41l192 -102q-6 -26 -9.5 -44.5t-5.5 -32t-3 -23.5t-1 -19q0 -38 13 -61q48 50 89 92q71 73 130.5 121.5t112 73t109.5 24.5zM1121 190q55 0 99 7t75 19.5t48 29t17 35.5q0 35 -25 57t-69 22q-33 0 -65.5 -13.5t-75.5 -46.5t-103 -88
q-11 -10 -24 -22h123zM340 -269l68 -66l66 66l113 -111l-111 -111l-68 66l-66 -66l-113 111z" />
    <glyph glyph-name="uniFD22" unicode="&#xfd22;" horiz-adv-x="1649" arabic-form="final" 
d="M1308 544q54 0 97 -18.5t73.5 -51.5t47 -77t16.5 -95q0 -71 -27.5 -127t-80 -95t-130 -59.5t-177.5 -20.5h-152q-146 0 -222 55.5t-76 168.5q0 30 3 64q3 30 7 60q-58 -4 -95 -15q-40 -12 -61 -27.5t-27.5 -31.5t-6.5 -26q0 -15 12.5 -29.5t35.5 -31.5l28 -22
q40 -31 66.5 -68t26.5 -88t-22.5 -92t-66 -70.5t-106.5 -45.5t-145 -16q-144 0 -225 70t-81 200q0 53 10 107t33 123h160q-21 -54 -30.5 -95.5t-9.5 -80.5q0 -71 42.5 -102.5t137.5 -31.5q66 0 96 12t30 31q0 11 -14.5 28t-33.5 32l-56 45q-63 51 -63 125q0 35 18.5 77
t61 80.5t111 68.5t168.5 41l192 -102q-6 -26 -9.5 -44.5t-5.5 -32t-3 -23.5t-1 -19q0 -38 13 -61q48 50 89 92q71 73 130.5 121.5t112 73t109.5 24.5zM1121 190q55 0 99 7t75 19.5t48 29t17 35.5q0 35 -25 57t-69 22q-33 0 -65.5 -13.5t-75.5 -46.5t-103 -88
q-11 -10 -24 -22h123zM1524 235q26 -22 58.5 -33.5t66.5 -11.5q10 0 10 -10v-169q0 -11 -10 -11q-59 0 -111 34.5t-90 98.5zM340 -269l68 -66l66 66l113 -111l-111 -111l-68 66l-66 -66l-113 111z" />
    <glyph glyph-name="uniFD10" unicode="&#xfd10;" horiz-adv-x="1277" arabic-form="isolated" 
d="M1013 544q54 0 97 -18.5t73.5 -51.5t47 -77t16.5 -95q0 -71 -27.5 -127t-80 -95t-130 -59.5t-177.5 -20.5h-152q-146 0 -222 55.5t-76 168.5q0 32 3 68q-17 -5 -32 -9q-24 -7 -46 -15q-15 -5 -29 -11q3 -27 5 -50q4 -32 6 -61.5t3 -59t1 -64.5q0 -65 -18 -110.5
t-54 -73.5t-91 -40.5t-130 -12.5v145q22 0 43.5 5t38 17t26.5 31t10 47q0 33 -2 64.5t-5.5 64t-8 67.5t-9.5 75l121 113q72 17 133 27q32 5 64 9q5 22 10 45h180q-13 -50 -21 -84t-12.5 -58t-6.5 -41t-2 -32q0 -22 10 -39q2 -3 4 -7q48 50 88 91q71 73 130.5 121.5t112 73
t109.5 24.5zM826 190q55 0 99 7t75 19.5t48 29t17 35.5q0 35 -25 57t-69 22q-33 0 -65.5 -13.5t-75.5 -46.5t-103 -88q-11 -10 -24 -22h123zM724 733l112 -111l-111 -111l-112 111z" />
    <glyph glyph-name="uniFD2C" unicode="&#xfd2c;" horiz-adv-x="1312" arabic-form="final" 
d="M1013 544q54 0 97 -18.5t73.5 -51.5t47 -77t16.5 -95q0 -71 -27.5 -127t-80 -95t-130 -59.5t-177.5 -20.5h-152q-146 0 -222 55.5t-76 168.5q0 32 3 68q-17 -5 -32 -9q-24 -7 -46 -15q-15 -5 -29 -11q3 -27 5 -50q4 -32 6 -61.5t3 -59t1 -64.5q0 -65 -18 -110.5
t-54 -73.5t-91 -40.5t-130 -12.5v145q22 0 43.5 5t38 17t26.5 31t10 47q0 33 -2 64.5t-5.5 64t-8 67.5t-9.5 75l121 113q72 17 133 27q32 5 64 9q5 22 10 45h180q-13 -50 -21 -84t-12.5 -58t-6.5 -41t-2 -32q0 -22 10 -39q2 -3 4 -7q48 50 88 91q71 73 130.5 121.5t112 73
t109.5 24.5zM826 190q55 0 99 7t75 19.5t48 29t17 35.5q0 35 -25 57t-69 22q-33 0 -65.5 -13.5t-75.5 -46.5t-103 -88q-11 -10 -24 -22h123zM1187 235q26 -22 58.5 -33.5t66.5 -11.5q10 0 10 -10v-169q0 -11 -10 -11q-59 0 -111 34.5t-90 98.5zM724 733l112 -111l-111 -111
l-112 111z" />
    <glyph glyph-name="uniFD07" unicode="&#xfd07;" horiz-adv-x="1572" arabic-form="isolated" 
d="M1308 544q54 0 97 -18.5t73.5 -51.5t47 -77t16.5 -95q0 -71 -27.5 -127t-80 -95t-130 -59.5t-177.5 -20.5h-152q-146 0 -222 55.5t-76 168.5q0 30 3 64q3 30 7 60q-58 -4 -95 -15q-40 -12 -61 -27.5t-27.5 -31.5t-6.5 -26q0 -15 12.5 -29.5t35.5 -31.5l28 -22
q40 -31 66.5 -68t26.5 -88t-22.5 -92t-66 -70.5t-106.5 -45.5t-145 -16q-144 0 -225 70t-81 200q0 53 10 107t33 123h160q-21 -54 -30.5 -95.5t-9.5 -80.5q0 -71 42.5 -102.5t137.5 -31.5q66 0 96 12t30 31q0 11 -14.5 28t-33.5 32l-56 45q-63 51 -63 125q0 35 18.5 77
t61 80.5t111 68.5t168.5 41l192 -102q-6 -26 -9.5 -44.5t-5.5 -32t-3 -23.5t-1 -19q0 -38 13 -61q48 50 89 92q71 73 130.5 121.5t112 73t109.5 24.5zM1121 190q55 0 99 7t75 19.5t48 29t17 35.5q0 35 -25 57t-69 22q-33 0 -65.5 -13.5t-75.5 -46.5t-103 -88
q-11 -10 -24 -22h123zM1031 733l112 -111l-111 -111l-112 111z" />
    <glyph glyph-name="uniFD23" unicode="&#xfd23;" horiz-adv-x="1649" arabic-form="final" 
d="M1308 544q54 0 97 -18.5t73.5 -51.5t47 -77t16.5 -95q0 -71 -27.5 -127t-80 -95t-130 -59.5t-177.5 -20.5h-152q-146 0 -222 55.5t-76 168.5q0 30 3 64q3 30 7 60q-58 -4 -95 -15q-40 -12 -61 -27.5t-27.5 -31.5t-6.5 -26q0 -15 12.5 -29.5t35.5 -31.5l28 -22
q40 -31 66.5 -68t26.5 -88t-22.5 -92t-66 -70.5t-106.5 -45.5t-145 -16q-144 0 -225 70t-81 200q0 53 10 107t33 123h160q-21 -54 -30.5 -95.5t-9.5 -80.5q0 -71 42.5 -102.5t137.5 -31.5q66 0 96 12t30 31q0 11 -14.5 28t-33.5 32l-56 45q-63 51 -63 125q0 35 18.5 77
t61 80.5t111 68.5t168.5 41l192 -102q-6 -26 -9.5 -44.5t-5.5 -32t-3 -23.5t-1 -19q0 -38 13 -61q48 50 89 92q71 73 130.5 121.5t112 73t109.5 24.5zM1121 190q55 0 99 7t75 19.5t48 29t17 35.5q0 35 -25 57t-69 22q-33 0 -65.5 -13.5t-75.5 -46.5t-103 -88
q-11 -10 -24 -22h123zM1524 235q26 -22 58.5 -33.5t66.5 -11.5q10 0 10 -10v-169q0 -11 -10 -11q-59 0 -111 34.5t-90 98.5zM1031 733l112 -111l-111 -111l-112 111z" />
    <glyph glyph-name="uniFD08" unicode="&#xfd08;" horiz-adv-x="1572" arabic-form="isolated" 
d="M1308 544q54 0 97 -18.5t73.5 -51.5t47 -77t16.5 -95q0 -71 -27.5 -127t-80 -95t-130 -59.5t-177.5 -20.5h-152q-146 0 -222 55.5t-76 168.5q0 30 3 64q3 30 7 60q-58 -4 -95 -15q-40 -12 -61 -27.5t-27.5 -31.5t-6.5 -26q0 -15 12.5 -29.5t35.5 -31.5l28 -22
q40 -31 66.5 -68t26.5 -88t-22.5 -92t-66 -70.5t-106.5 -45.5t-145 -16q-144 0 -225 70t-81 200q0 53 10 107t33 123h160q-21 -54 -30.5 -95.5t-9.5 -80.5q0 -71 42.5 -102.5t137.5 -31.5q66 0 96 12t30 31q0 11 -14.5 28t-33.5 32l-56 45q-63 51 -63 125q0 35 18.5 77
t61 80.5t111 68.5t168.5 41l192 -102q-6 -26 -9.5 -44.5t-5.5 -32t-3 -23.5t-1 -19q0 -38 13 -61q48 50 89 92q71 73 130.5 121.5t112 73t109.5 24.5zM1121 190q55 0 99 7t75 19.5t48 29t17 35.5q0 35 -25 57t-69 22q-33 0 -65.5 -13.5t-75.5 -46.5t-103 -88
q-11 -10 -24 -22h123zM340 -269l68 -66l66 66l113 -111l-111 -111l-68 66l-66 -66l-113 111zM1031 733l112 -111l-111 -111l-112 111z" />
    <glyph glyph-name="uniFD24" unicode="&#xfd24;" horiz-adv-x="1649" arabic-form="final" 
d="M1308 544q54 0 97 -18.5t73.5 -51.5t47 -77t16.5 -95q0 -71 -27.5 -127t-80 -95t-130 -59.5t-177.5 -20.5h-152q-146 0 -222 55.5t-76 168.5q0 30 3 64q3 30 7 60q-58 -4 -95 -15q-40 -12 -61 -27.5t-27.5 -31.5t-6.5 -26q0 -15 12.5 -29.5t35.5 -31.5l28 -22
q40 -31 66.5 -68t26.5 -88t-22.5 -92t-66 -70.5t-106.5 -45.5t-145 -16q-144 0 -225 70t-81 200q0 53 10 107t33 123h160q-21 -54 -30.5 -95.5t-9.5 -80.5q0 -71 42.5 -102.5t137.5 -31.5q66 0 96 12t30 31q0 11 -14.5 28t-33.5 32l-56 45q-63 51 -63 125q0 35 18.5 77
t61 80.5t111 68.5t168.5 41l192 -102q-6 -26 -9.5 -44.5t-5.5 -32t-3 -23.5t-1 -19q0 -38 13 -61q48 50 89 92q71 73 130.5 121.5t112 73t109.5 24.5zM1121 190q55 0 99 7t75 19.5t48 29t17 35.5q0 35 -25 57t-69 22q-33 0 -65.5 -13.5t-75.5 -46.5t-103 -88
q-11 -10 -24 -22h123zM1524 235q26 -22 58.5 -33.5t66.5 -11.5q10 0 10 -10v-169q0 -11 -10 -11q-59 0 -111 34.5t-90 98.5zM340 -269l68 -66l66 66l113 -111l-111 -111l-68 66l-66 -66l-113 111zM1031 733l112 -111l-111 -111l-112 111z" />
    <glyph glyph-name="uniFC31" unicode="&#xfc31;" horiz-adv-x="907" arabic-form="isolated" 
d="M633 626q50 0 92.5 -15t74 -44t50.5 -73t22 -102q1 -19 2 -42t2 -46.5t1 -46.5t-1 -41q-1 -35 -11 -68t-31.5 -61t-57.5 -49t-89 -31q-32 -60 -68 -102.5t-79 -69t-95.5 -38.5t-118.5 -12q-144 0 -225 70t-81 200q0 53 10 107t33 123h160q-21 -54 -30.5 -95.5t-9.5 -80.5
q0 -66 37.5 -100t122.5 -34q45 0 90.5 9.5t84.5 28.5q-44 13 -105 40v135q51 -21 100.5 -32t89.5 -11q17 0 34 2t31 8.5t24 18.5t12 31q-23 -9 -43.5 -12.5t-45.5 -3.5q-47 0 -85.5 15.5t-65.5 43t-42 65.5t-15 82q0 52 16.5 95t46.5 73t71.5 46.5t91.5 16.5zM627 451
q-27 0 -45 -15t-20 -43q-2 -29 17 -49t48 -20q20 0 36.5 2t34.5 8q-1 11 -2 23t-2 23q-3 33 -20.5 52t-46.5 19zM626 882l112 -111l-111 -111l-112 111z" />
    <glyph glyph-name="uniFC32" unicode="&#xfc32;" horiz-adv-x="907" arabic-form="isolated" 
d="M633 626q50 0 92.5 -15t74 -44t50.5 -73t22 -102q1 -19 2 -42t2 -46.5t1 -46.5t-1 -41q-1 -35 -11 -68t-31.5 -61t-57.5 -49t-89 -31q-32 -60 -68 -102.5t-79 -69t-95.5 -38.5t-118.5 -12q-144 0 -225 70t-81 200q0 53 10 107t33 123h160q-21 -54 -30.5 -95.5t-9.5 -80.5
q0 -66 37.5 -100t122.5 -34q45 0 90.5 9.5t84.5 28.5q-44 13 -105 40v135q51 -21 100.5 -32t89.5 -11q17 0 34 2t31 8.5t24 18.5t12 31q-23 -9 -43.5 -12.5t-45.5 -3.5q-47 0 -85.5 15.5t-65.5 43t-42 65.5t-15 82q0 52 16.5 95t46.5 73t71.5 46.5t91.5 16.5zM627 451
q-27 0 -45 -15t-20 -43q-2 -29 17 -49t48 -20q20 0 36.5 2t34.5 8q-1 11 -2 23t-2 23q-3 33 -20.5 52t-46.5 19zM626 882l112 -111l-111 -111l-112 111zM320 -269l68 -66l66 66l113 -111l-111 -111l-68 66l-66 -66l-113 111z" />
    <glyph glyph-name="uniFC35" unicode="&#xfc35;" horiz-adv-x="907" arabic-form="isolated" 
d="M633 626q50 0 92.5 -15t74 -44t50.5 -73t22 -102q1 -19 2 -42t2 -46.5t1 -46.5t-1 -41q-1 -35 -11 -68t-31.5 -61t-57.5 -49t-89 -31q-32 -60 -68 -102.5t-79 -69t-95.5 -38.5t-118.5 -12q-144 0 -225 70t-81 200q0 53 10 107t33 123h160q-21 -54 -30.5 -95.5t-9.5 -80.5
q0 -66 37.5 -100t122.5 -34q45 0 90.5 9.5t84.5 28.5q-44 13 -105 40v135q51 -21 100.5 -32t89.5 -11q17 0 34 2t31 8.5t24 18.5t12 31q-23 -9 -43.5 -12.5t-45.5 -3.5q-47 0 -85.5 15.5t-65.5 43t-42 65.5t-15 82q0 52 16.5 95t46.5 73t71.5 46.5t91.5 16.5zM627 451
q-27 0 -45 -15t-20 -43q-2 -29 17 -49t48 -20q20 0 36.5 2t34.5 8q-1 11 -2 23t-2 23q-3 33 -20.5 52t-46.5 19zM559 884l78 -76l76 76l112 -111l-110 -111l-78 75l-76 -75l-112 111z" />
    <glyph glyph-name="uniFC36" unicode="&#xfc36;" horiz-adv-x="907" arabic-form="isolated" 
d="M633 626q50 0 92.5 -15t74 -44t50.5 -73t22 -102q1 -19 2 -42t2 -46.5t1 -46.5t-1 -41q-1 -35 -11 -68t-31.5 -61t-57.5 -49t-89 -31q-32 -60 -68 -102.5t-79 -69t-95.5 -38.5t-118.5 -12q-144 0 -225 70t-81 200q0 53 10 107t33 123h160q-21 -54 -30.5 -95.5t-9.5 -80.5
q0 -66 37.5 -100t122.5 -34q45 0 90.5 9.5t84.5 28.5q-44 13 -105 40v135q51 -21 100.5 -32t89.5 -11q17 0 34 2t31 8.5t24 18.5t12 31q-23 -9 -43.5 -12.5t-45.5 -3.5q-47 0 -85.5 15.5t-65.5 43t-42 65.5t-15 82q0 52 16.5 95t46.5 73t71.5 46.5t91.5 16.5zM627 451
q-27 0 -45 -15t-20 -43q-2 -29 17 -49t48 -20q20 0 36.5 2t34.5 8q-1 11 -2 23t-2 23q-3 33 -20.5 52t-46.5 19zM559 884l78 -76l76 76l112 -111l-110 -111l-78 75l-76 -75l-112 111zM330 -269l68 -66l66 66l113 -111l-111 -111l-68 66l-66 -66l-113 111z" />
    <glyph glyph-name="uniFC3D" unicode="&#xfc3d;" horiz-adv-x="1490" arabic-form="isolated" 
d="M1479 795v-6l-338 -270l159 -66q88 -36 127 -89t39 -136q0 -109 -68 -168.5t-193 -59.5h-273q-123 0 -189 56t-66 168q0 30 3 64q3 30 7 60q-58 -4 -95 -15q-40 -12 -61 -27.5t-27.5 -31.5t-6.5 -26q0 -15 12.5 -29.5t35.5 -31.5l28 -22q40 -31 66.5 -68t26.5 -88
t-22.5 -92t-66 -70.5t-106.5 -45.5t-145 -16q-144 0 -225 70t-81 200q0 53 10 107t33 123h160q-21 -54 -30.5 -95.5t-9.5 -80.5q0 -71 42.5 -102.5t137.5 -31.5q66 0 96 12t30 31q0 11 -14.5 28t-33.5 32l-56 45q-63 51 -63 125q0 35 18.5 77t61 80.5t111 68.5t168.5 41
l191 -109q-10 -45 -14 -73t-4 -53q0 -44 21 -67t60 -23h278q31 0 51.5 10.5t20.5 30.5q0 19 -18.5 33.5t-52.5 29.5l-265 117v124l275 260h255z" />
    <glyph glyph-name="uniFC83" unicode="&#xfc83;" horiz-adv-x="1575" arabic-form="final" 
d="M1479 795v-6l-338 -270l159 -66q88 -36 127 -89t39 -136q0 -109 -68 -168.5t-193 -59.5h-273q-123 0 -189 56t-66 168q0 30 3 64q3 30 7 60q-58 -4 -95 -15q-40 -12 -61 -27.5t-27.5 -31.5t-6.5 -26q0 -15 12.5 -29.5t35.5 -31.5l28 -22q40 -31 66.5 -68t26.5 -88
t-22.5 -92t-66 -70.5t-106.5 -45.5t-145 -16q-144 0 -225 70t-81 200q0 53 10 107t33 123h160q-21 -54 -30.5 -95.5t-9.5 -80.5q0 -71 42.5 -102.5t137.5 -31.5q66 0 96 12t30 31q0 11 -14.5 28t-33.5 32l-56 45q-63 51 -63 125q0 35 18.5 77t61 80.5t111 68.5t168.5 41
l191 -109q-10 -45 -14 -73t-4 -53q0 -44 21 -67t60 -23h278q31 0 51.5 10.5t20.5 30.5q0 19 -18.5 33.5t-52.5 29.5l-265 117v124l275 260h255zM1450 235q26 -22 58.5 -33.5t66.5 -11.5q10 0 10 -10v-169q0 -11 -10 -11q-59 0 -111 34.5t-90 98.5z" />
    <glyph glyph-name="uniFC3E" unicode="&#xfc3e;" horiz-adv-x="1490" arabic-form="isolated" 
d="M1479 795v-6l-338 -270l159 -66q88 -36 127 -89t39 -136q0 -109 -68 -168.5t-193 -59.5h-273q-123 0 -189 56t-66 168q0 30 3 64q3 30 7 60q-58 -4 -95 -15q-40 -12 -61 -27.5t-27.5 -31.5t-6.5 -26q0 -15 12.5 -29.5t35.5 -31.5l28 -22q40 -31 66.5 -68t26.5 -88
t-22.5 -92t-66 -70.5t-106.5 -45.5t-145 -16q-144 0 -225 70t-81 200q0 53 10 107t33 123h160q-21 -54 -30.5 -95.5t-9.5 -80.5q0 -71 42.5 -102.5t137.5 -31.5q66 0 96 12t30 31q0 11 -14.5 28t-33.5 32l-56 45q-63 51 -63 125q0 35 18.5 77t61 80.5t111 68.5t168.5 41
l191 -109q-10 -45 -14 -73t-4 -53q0 -44 21 -67t60 -23h278q31 0 51.5 10.5t20.5 30.5q0 19 -18.5 33.5t-52.5 29.5l-265 117v124l275 260h255zM340 -269l68 -66l66 66l113 -111l-111 -111l-68 66l-66 -66l-113 111z" />
    <glyph glyph-name="uniFC84" unicode="&#xfc84;" horiz-adv-x="1575" arabic-form="final" 
d="M1479 795v-6l-338 -270l159 -66q88 -36 127 -89t39 -136q0 -109 -68 -168.5t-193 -59.5h-273q-123 0 -189 56t-66 168q0 30 3 64q3 30 7 60q-58 -4 -95 -15q-40 -12 -61 -27.5t-27.5 -31.5t-6.5 -26q0 -15 12.5 -29.5t35.5 -31.5l28 -22q40 -31 66.5 -68t26.5 -88
t-22.5 -92t-66 -70.5t-106.5 -45.5t-145 -16q-144 0 -225 70t-81 200q0 53 10 107t33 123h160q-21 -54 -30.5 -95.5t-9.5 -80.5q0 -71 42.5 -102.5t137.5 -31.5q66 0 96 12t30 31q0 11 -14.5 28t-33.5 32l-56 45q-63 51 -63 125q0 35 18.5 77t61 80.5t111 68.5t168.5 41
l191 -109q-10 -45 -14 -73t-4 -53q0 -44 21 -67t60 -23h278q31 0 51.5 10.5t20.5 30.5q0 19 -18.5 33.5t-52.5 29.5l-265 117v124l275 260h255zM1450 235q26 -22 58.5 -33.5t66.5 -11.5q10 0 10 -10v-169q0 -11 -10 -11q-59 0 -111 34.5t-90 98.5zM340 -269l68 -66l66 66
l113 -111l-111 -111l-68 66l-66 -66l-113 111z" />
    <glyph glyph-name="uniFC42" unicode="&#xfc42;" horiz-adv-x="557" arabic-form="isolated" 
d="M455 725v-486q9 -6 19 -12q23 -14 50 -32t63 -40l-92 -164q-28 5 -57 15.5t-54.5 24t-47.5 28.5q-13 10 -23 20q-24 6 -43 6q-35 0 -52.5 -28.5t-17.5 -91.5q0 -47 7 -103.5t23 -136.5h-180q-9 57 -15 98.5t-9.5 72t-4.5 51.5t-1 36q0 64 15.5 116t45.5 89t74.5 57
t102.5 20q15 0 25 -1q-3 25 -6 49q-2 27 -2 49v363h180z" />
    <glyph glyph-name="uniFCCC" unicode="&#xfccc;" horiz-adv-x="359" arabic-form="initial" 
d="M0 190q34 0 66 -3q11 -1 22 -3q-4 25 -7 49q-2 27 -2 49v443h180v-574q13 -6 26 -13q51 -27 104 -75l-92 -164q-28 5 -57 15.5t-54.5 24t-47.5 29.5q-12 9 -22 19h-3q-21 5 -41.5 8t-39 4t-32.5 1q-10 0 -10 10v169q0 11 10 11z" />
    <glyph glyph-name="uniFC44" unicode="&#xfc44;" horiz-adv-x="921" arabic-form="isolated" 
d="M851 725v-509q0 -175 -164 -208q-28 -52 -58 -91q-37 -47 -81.5 -76t-98.5 -42.5t-123 -13.5q-144 0 -225 70t-81 200q0 53 10 107t33 123h160q-21 -54 -30.5 -95.5t-9.5 -80.5q0 -66 37.5 -100t122.5 -34q74 0 136 22q21 7 39 17q-18 6 -38 14q-25 10 -57 24v180
q100 -42 180 -42q36 0 52 22t16 72v441h180zM273 -249l68 -66l66 66l113 -111l-111 -111l-68 66l-66 -66l-113 111z" />
    <glyph glyph-name="uniFC87" unicode="&#xfc87;" horiz-adv-x="932" arabic-form="final" 
d="M861 725l1 -441q0 -50 16.5 -72t52.5 -22q10 0 10 -10l1 -169q0 -11 -10 -11q-135 0 -197 62q-20 -18 -38 -31h2q-33 -67 -70 -114t-81.5 -76t-98.5 -42.5t-123 -13.5q-144 0 -225 70t-81 200q0 53 10 107t33 123h160q-21 -54 -30.5 -95.5t-9.5 -80.5q0 -66 37.5 -100
t122.5 -34q74 0 136 22q21 7 39 17q-18 6 -38 14q-25 10 -57 24v180q100 -42 180 -42q26 0 53 10q14 6 26 13v3l-1 509h180zM356 -250l68 -66l66 66l113 -111l-111 -111l-68 66l-66 -66l-113 111z" />
    <glyph glyph-name="uniFC8A" unicode="&#xfc8a;" horiz-adv-x="647" arabic-form="final" 
d="M598 389q-12 -39 -18 -66.5t-5 -56.5q1 -33 19 -54.5t53 -21.5q10 0 10 -10v-169q0 -11 -10 -11q-121 0 -175 45t-54 145q0 22 0.5 36t1.5 26t2 23l1 4q-4 -2 -8 -5q-17 -9 -38 -18t-48 -18q-20 -6 -47 -14q5 -46 7 -90q4 -57 4 -112q0 -65 -18 -110.5t-54 -73.5
t-91 -40.5t-130 -12.5v145q22 0 43.5 5t38 17t26.5 31t10 47t-1.5 57.5t-5 67.5t-9 87t-13.5 116l10 12q97 9 191 34t175 65zM467 760l112 -111l-111 -111l-112 111z" />
    <glyph glyph-name="uniFC8B" unicode="&#xfc8b;" horiz-adv-x="647" arabic-form="final" 
d="M598 389q-12 -39 -18 -66.5t-5 -56.5q1 -33 19 -54.5t53 -21.5q10 0 10 -10v-169q0 -11 -10 -11q-121 0 -175 45t-54 145q0 22 0.5 36t1.5 26t2 23l1 4q-4 -2 -8 -5q-17 -9 -38 -18t-48 -18q-20 -6 -47 -14q5 -46 7 -90q4 -57 4 -112q0 -65 -18 -110.5t-54 -73.5
t-91 -40.5t-130 -12.5v145q22 0 43.5 5t38 17t26.5 31t10 47t-1.5 57.5t-5 67.5t-9 87t-13.5 116l10 12q97 9 191 34t175 65zM133 685l112 -111l-111 -111l-112 111zM467 760l112 -111l-111 -111l-112 111z" />
    <glyph glyph-name="uniFC4E" unicode="&#xfc4e;" horiz-adv-x="607" arabic-form="isolated" 
d="M397 532l117 -102q-16 -20 -26.5 -36t-17 -30t-9 -27t-2.5 -27q0 -38 27.5 -73.5t100.5 -81.5l-92 -164q-28 5 -57 15.5t-54.5 24t-47.5 28.5q-13 10 -23 20q-24 6 -43 6q-35 0 -52.5 -28.5t-17.5 -91.5q0 -47 7 -103.5t23 -136.5h-180q-9 57 -15 98.5t-9.5 72t-4.5 51.5
t-1 36q0 64 15.5 116t45.5 89t74.5 57t102.5 20q17 0 28 -1h12q-18 38 -18 80q0 48 28 97t79 91h10zM393 807l112 -111l-111 -111l-112 111z" />
    <glyph glyph-name="uniFC8D" unicode="&#xfc8d;" horiz-adv-x="991" arabic-form="final" 
d="M942 389q-12 -39 -18 -66.5t-5 -56.5q1 -33 19 -54.5t53 -21.5q10 0 10 -10v-169q0 -11 -10 -11q-63 0 -106.5 10t-71 32.5t-39.5 58.5t-12 89q0 22 0.5 36t1.5 26t2 23q0 1 1 3q-3 -2 -7 -4q-15 -9 -35.5 -18t-48.5 -18q-22 -6 -51 -14q1 -10 1 -19q2 -20 3.5 -38.5
t2 -36.5t0.5 -38q0 -156 -78.5 -231.5t-237.5 -75.5q-142 0 -219 70t-77 200q0 53 10 107t33 123h160q-21 -54 -30.5 -95.5t-9.5 -80.5q0 -64 33.5 -99t96.5 -35q141 0 141 143q0 25 -1 50t-4 53t-7.5 61.5t-10.5 75.5l10 12q97 9 192 34t176 65zM807 762l112 -111
l-111 -111l-112 111zM317 619l112 -111l-111 -111l-112 111z" />
    <glyph glyph-name="uniFC4F" unicode="&#xfc4f;" horiz-adv-x="901" arabic-form="isolated" 
d="M832 485q15 -95 22 -158t7 -111q0 -181 -175 -210q-27 -51 -57 -89q-37 -47 -81.5 -76t-98.5 -42.5t-123 -13.5q-144 0 -225 70t-81 200q0 53 10 107t33 123h160q-21 -54 -30.5 -95.5t-9.5 -80.5q0 -66 37.5 -100t122.5 -34q74 0 136 22q21 7 40 18q-41 12 -96 37v180
q51 -21 98.5 -31.5t91.5 -10.5q36 0 52.5 22t16.5 72q0 24 -7 69.5t-23 131.5h180zM731 774l112 -111l-111 -111l-112 111z" />
    <glyph glyph-name="uniFC8E" unicode="&#xfc8e;" horiz-adv-x="935" arabic-form="final" 
d="M873 413q-10 -45 -14.5 -76.5t-4.5 -56.5q0 -44 18 -67t63 -23q10 0 10 -10v-169q0 -11 -10 -11q-125 0 -191.5 56t-66.5 168q0 30 3 64q3 30 7 60q-58 -4 -95 -15q-40 -12 -61 -27.5t-27.5 -31.5t-6.5 -26q0 -15 12.5 -29.5t35.5 -31.5l28 -22q40 -31 66.5 -68t26.5 -88
t-22.5 -92t-66 -70.5t-106.5 -45.5t-145 -16q-144 0 -225 70t-81 200q0 53 10 107t33 123h160q-21 -54 -30.5 -95.5t-9.5 -80.5q0 -71 42.5 -102.5t137.5 -31.5q66 0 96 12t30 31q0 11 -14.5 28t-33.5 32l-56 45q-63 51 -63 125q0 35 18.5 77t61 80.5t111 68.5t168.5 41z
M672 812l112 -111l-111 -111l-112 111z" />
    <glyph glyph-name="uniFC50" unicode="&#xfc50;" horiz-adv-x="901" arabic-form="isolated" 
d="M832 485q15 -95 22 -158t7 -111q0 -181 -175 -210q-27 -51 -57 -89q-37 -47 -81.5 -76t-98.5 -42.5t-123 -13.5q-144 0 -225 70t-81 200q0 53 10 107t33 123h160q-21 -54 -30.5 -95.5t-9.5 -80.5q0 -66 37.5 -100t122.5 -34q74 0 136 22q21 7 40 18q-41 12 -96 37v180
q51 -21 98.5 -31.5t91.5 -10.5q36 0 52.5 22t16.5 72q0 24 -7 69.5t-23 131.5h180zM731 774l112 -111l-111 -111l-112 111zM340 -269l68 -66l66 66l113 -111l-111 -111l-68 66l-66 -66l-113 111z" />
    <glyph glyph-name="uniFC8F" unicode="&#xfc8f;" horiz-adv-x="935" arabic-form="final" 
d="M873 413q-10 -45 -14.5 -76.5t-4.5 -56.5q0 -44 18 -67t63 -23q10 0 10 -10v-169q0 -11 -10 -11q-125 0 -191.5 56t-66.5 168q0 30 3 64q3 30 7 60q-58 -4 -95 -15q-40 -12 -61 -27.5t-27.5 -31.5t-6.5 -26q0 -15 12.5 -29.5t35.5 -31.5l28 -22q40 -31 66.5 -68t26.5 -88
t-22.5 -92t-66 -70.5t-106.5 -45.5t-145 -16q-144 0 -225 70t-81 200q0 53 10 107t33 123h160q-21 -54 -30.5 -95.5t-9.5 -80.5q0 -71 42.5 -102.5t137.5 -31.5q66 0 96 12t30 31q0 11 -14.5 28t-33.5 32l-56 45q-63 51 -63 125q0 35 18.5 77t61 80.5t111 68.5t168.5 41z
M672 812l112 -111l-111 -111l-112 111zM340 -269l68 -66l66 66l113 -111l-111 -111l-68 66l-66 -66l-113 111z" />
    <glyph glyph-name="uniFC91" unicode="&#xfc91;" horiz-adv-x="647" arabic-form="final" 
d="M598 389q-12 -39 -18 -66.5t-5 -56.5q1 -33 19 -54.5t53 -21.5q10 0 10 -10v-169q0 -11 -10 -11q-121 0 -175 45t-54 145q0 22 0.5 36t1.5 26t2 23l1 4q-4 -2 -8 -5q-17 -9 -38 -18t-48 -18q-20 -6 -47 -14q5 -46 7 -90q4 -57 4 -112q0 -65 -18 -110.5t-54 -73.5
t-91 -40.5t-130 -12.5v145q22 0 43.5 5t38 17t26.5 31t10 47t-1.5 57.5t-5 67.5t-9 87t-13.5 116l10 12q97 9 191 34t175 65zM392 -46l68 -66l66 66l113 -111l-111 -111l-68 66l-66 -66l-113 111z" />
    <glyph glyph-name="uniFC92" unicode="&#xfc92;" horiz-adv-x="647" arabic-form="final" 
d="M598 389q-12 -39 -18 -66.5t-5 -56.5q1 -33 19 -54.5t53 -21.5q10 0 10 -10v-169q0 -11 -10 -11q-121 0 -175 45t-54 145q0 22 0.5 36t1.5 26t2 23l1 4q-4 -2 -8 -5q-17 -9 -38 -18t-48 -18q-20 -6 -47 -14q5 -46 7 -90q4 -57 4 -112q0 -65 -18 -110.5t-54 -73.5
t-91 -40.5t-130 -12.5v145q22 0 43.5 5t38 17t26.5 31t10 47t-1.5 57.5t-5 67.5t-9 87t-13.5 116l10 12q97 9 191 34t175 65zM133 685l112 -111l-111 -111l-112 111zM392 -46l68 -66l66 66l113 -111l-111 -111l-68 66l-66 -66l-113 111z" />
    <glyph glyph-name="uniFC58" unicode="&#xfc58;" horiz-adv-x="607" arabic-form="isolated" 
d="M397 532l117 -102q-16 -20 -26.5 -36t-17 -30t-9 -27t-2.5 -27q0 -38 27.5 -73.5t100.5 -81.5l-92 -164q-28 5 -57 15.5t-54.5 24t-47.5 28.5q-13 10 -23 20q-24 6 -43 6q-35 0 -52.5 -28.5t-17.5 -91.5q0 -47 7 -103.5t23 -136.5h-180q-9 57 -15 98.5t-9.5 72t-4.5 51.5
t-1 36q0 64 15.5 116t45.5 89t74.5 57t102.5 20q17 0 28 -1h12q-18 38 -18 80q0 48 28 97t79 91h10zM358 -46l68 -66l66 66l113 -111l-111 -111l-68 66l-66 -66l-113 111z" />
    <glyph glyph-name="uniFC94" unicode="&#xfc94;" horiz-adv-x="991" arabic-form="final" 
d="M942 389q-12 -39 -18 -66.5t-5 -56.5q1 -33 19 -54.5t53 -21.5q10 0 10 -10v-169q0 -11 -10 -11q-63 0 -106.5 10t-71 32.5t-39.5 58.5t-12 89q0 22 0.5 36t1.5 26t2 23q0 1 1 3q-3 -2 -7 -4q-15 -9 -35.5 -18t-48.5 -18q-22 -6 -51 -14q1 -10 1 -19q2 -20 3.5 -38.5
t2 -36.5t0.5 -38q0 -156 -78.5 -231.5t-237.5 -75.5q-142 0 -219 70t-77 200q0 53 10 107t33 123h160q-21 -54 -30.5 -95.5t-9.5 -80.5q0 -64 33.5 -99t96.5 -35q141 0 141 143q0 25 -1 50t-4 53t-7.5 61.5t-10.5 75.5l10 12q97 9 192 34t176 65zM713 -46l67 -66l67 66
l113 -111l-111 -111l-68 66l-66 -66l-113 111zM317 619l112 -111l-111 -111l-112 111z" />
    <glyph glyph-name="uniFC64" unicode="&#xfc64;" horiz-adv-x="647" arabic-form="final" 
d="M598 389q-12 -39 -18 -66.5t-5 -56.5q1 -33 19 -54.5t53 -21.5q10 0 10 -10v-169q0 -11 -10 -11q-121 0 -175 45t-54 145q0 22 0.5 36t1.5 26t2 23l1 4q-4 -2 -8 -5q-17 -9 -38 -18t-48 -18q-20 -6 -47 -14q5 -46 7 -90q4 -57 4 -112q0 -65 -18 -110.5t-54 -73.5
t-91 -40.5t-130 -12.5v145q22 0 43.5 5t38 17t26.5 31t10 47t-1.5 57.5t-5 67.5t-9 87t-13.5 116l10 12q97 9 191 34t175 65zM613 649l-35 -110h-124q-25 0 -47.5 -3t-58.5 -14v107q18 6 31 10l24 6l-1 1q-21 18 -21 52q0 24 9 43.5t24.5 33.5t36 21.5t44.5 7.5q34 0 78 -21
v-95q-23 8 -38.5 11t-28.5 3q-40 0 -40 -28q0 -16 15 -20.5t43 -4.5h89z" />
    <glyph glyph-name="uniFC65" unicode="&#xfc65;" horiz-adv-x="647" arabic-form="final" 
d="M598 389q-12 -39 -18 -66.5t-5 -56.5q1 -33 19 -54.5t53 -21.5q10 0 10 -10v-169q0 -11 -10 -11q-121 0 -175 45t-54 145q0 22 0.5 36t1.5 26t2 23l1 4q-4 -2 -8 -5q-17 -9 -38 -18t-48 -18q-20 -6 -47 -14q5 -46 7 -90q4 -57 4 -112q0 -65 -18 -110.5t-54 -73.5
t-91 -40.5t-130 -12.5v145q22 0 43.5 5t38 17t26.5 31t10 47t-1.5 57.5t-5 67.5t-9 87t-13.5 116l10 12q97 9 191 34t175 65zM133 685l112 -111l-111 -111l-112 111zM613 649l-35 -110h-124q-25 0 -47.5 -3t-58.5 -14v107q18 6 31 10l24 6l-1 1q-21 18 -21 52q0 24 9 43.5
t24.5 33.5t36 21.5t44.5 7.5q34 0 78 -21v-95q-23 8 -38.5 11t-28.5 3q-40 0 -40 -28q0 -16 15 -20.5t43 -4.5h89z" />
    <glyph glyph-name="uniFC02" unicode="&#xfc02;" horiz-adv-x="607" arabic-form="isolated" 
d="M397 532l117 -102q-16 -20 -26.5 -36t-17 -30t-9 -27t-2.5 -27q0 -38 27.5 -73.5t100.5 -81.5l-92 -164q-28 5 -57 15.5t-54.5 24t-47.5 28.5q-13 10 -23 20q-24 6 -43 6q-35 0 -52.5 -28.5t-17.5 -91.5q0 -47 7 -103.5t23 -136.5h-180q-9 57 -15 98.5t-9.5 72t-4.5 51.5
t-1 36q0 64 15.5 116t45.5 89t74.5 57t102.5 20q17 0 28 -1h12q-18 38 -18 80q0 48 28 97t79 91h10zM540 691l-35 -110h-124q-25 0 -47.5 -3t-58.5 -14v107q18 6 31 10l24 6l-1 1q-21 18 -21 52q0 24 9 43.5t24.5 33.5t36 21.5t44.5 7.5q34 0 78 -21v-95q-23 8 -38.5 11
t-28.5 3q-40 0 -40 -28q0 -16 15 -20.5t43 -4.5h89z" />
    <glyph glyph-name="uniFC67" unicode="&#xfc67;" horiz-adv-x="991" arabic-form="final" 
d="M942 389q-12 -39 -18 -66.5t-5 -56.5q1 -33 19 -54.5t53 -21.5q10 0 10 -10v-169q0 -11 -10 -11q-63 0 -106.5 10t-71 32.5t-39.5 58.5t-12 89q0 22 0.5 36t1.5 26t2 23q0 1 1 3q-3 -2 -7 -4q-15 -9 -35.5 -18t-48.5 -18q-22 -6 -51 -14q1 -10 1 -19q2 -20 3.5 -38.5
t2 -36.5t0.5 -38q0 -156 -78.5 -231.5t-237.5 -75.5q-142 0 -219 70t-77 200q0 53 10 107t33 123h160q-21 -54 -30.5 -95.5t-9.5 -80.5q0 -64 33.5 -99t96.5 -35q141 0 141 143q0 25 -1 50t-4 53t-7.5 61.5t-10.5 75.5l10 12q97 9 192 34t176 65zM958 647l-35 -110h-124
q-25 0 -47.5 -3t-58.5 -14v107q18 6 31 10q12 3 23 6l-1 1q-20 18 -20 52q0 24 9 43.5t24.5 33.5t36 21.5t44.5 7.5q34 0 78 -21v-95q-23 8 -38.5 11t-28.5 3q-40 0 -40 -28q0 -16 15 -20.5t43 -4.5h89zM317 619l112 -111l-111 -111l-112 111z" />
    <glyph glyph-name="uniFC03" unicode="&#xfc03;" horiz-adv-x="905" arabic-form="isolated" 
d="M832 485q15 -95 22 -158t7 -111q0 -181 -175 -210q-27 -51 -57 -89q-37 -47 -81.5 -76t-98.5 -42.5t-123 -13.5q-144 0 -225 70t-81 200q0 53 10 107t33 123h160q-21 -54 -30.5 -95.5t-9.5 -80.5q0 -66 37.5 -100t122.5 -34q74 0 136 22q21 7 40 18q-41 12 -96 37v180
q51 -21 98.5 -31.5t91.5 -10.5q36 0 52.5 22t16.5 72q0 24 -7 69.5t-23 131.5h180zM881 649l-35 -110h-124q-25 0 -47.5 -3t-58.5 -14v107q18 6 31 10l24 6l-1 1q-21 18 -21 52q0 24 9 43.5t24.5 33.5t36 21.5t44.5 7.5q34 0 78 -21v-95q-23 8 -38.5 11t-28.5 3
q-40 0 -40 -28q0 -16 15 -20.5t43 -4.5h89z" />
    <glyph glyph-name="uniFC68" unicode="&#xfc68;" horiz-adv-x="935" arabic-form="final" 
d="M873 413q-10 -45 -14.5 -76.5t-4.5 -56.5q0 -44 18 -67t63 -23q10 0 10 -10v-169q0 -11 -10 -11q-125 0 -191.5 56t-66.5 168q0 30 3 64q3 30 7 60q-58 -4 -95 -15q-40 -12 -61 -27.5t-27.5 -31.5t-6.5 -26q0 -15 12.5 -29.5t35.5 -31.5l28 -22q40 -31 66.5 -68t26.5 -88
t-22.5 -92t-66 -70.5t-106.5 -45.5t-145 -16q-144 0 -225 70t-81 200q0 53 10 107t33 123h160q-21 -54 -30.5 -95.5t-9.5 -80.5q0 -71 42.5 -102.5t137.5 -31.5q66 0 96 12t30 31q0 11 -14.5 28t-33.5 32l-56 45q-63 51 -63 125q0 35 18.5 77t61 80.5t111 68.5t168.5 41z
M816 682l-35 -110h-124q-25 0 -47.5 -3t-58.5 -14v107q18 6 31 10l24 6l-1 1q-21 18 -21 52q0 24 9 43.5t24.5 33.5t36 21.5t44.5 7.5q34 0 78 -21v-95q-23 8 -38.5 11t-28.5 3q-40 0 -40 -28q0 -16 15 -20.5t43 -4.5h89z" />
    <glyph glyph-name="uniFC04" unicode="&#xfc04;" horiz-adv-x="905" arabic-form="isolated" 
d="M832 485q15 -95 22 -158t7 -111q0 -181 -175 -210q-27 -51 -57 -89q-37 -47 -81.5 -76t-98.5 -42.5t-123 -13.5q-144 0 -225 70t-81 200q0 53 10 107t33 123h160q-21 -54 -30.5 -95.5t-9.5 -80.5q0 -66 37.5 -100t122.5 -34q74 0 136 22q21 7 40 18q-41 12 -96 37v180
q51 -21 98.5 -31.5t91.5 -10.5q36 0 52.5 22t16.5 72q0 24 -7 69.5t-23 131.5h180zM881 649l-35 -110h-124q-25 0 -47.5 -3t-58.5 -14v107q18 6 31 10l24 6l-1 1q-21 18 -21 52q0 24 9 43.5t24.5 33.5t36 21.5t44.5 7.5q34 0 78 -21v-95q-23 8 -38.5 11t-28.5 3
q-40 0 -40 -28q0 -16 15 -20.5t43 -4.5h89zM340 -269l68 -66l66 66l113 -111l-111 -111l-68 66l-66 -66l-113 111z" />
    <glyph glyph-name="uniFC69" unicode="&#xfc69;" horiz-adv-x="935" arabic-form="final" 
d="M873 413q-10 -45 -14.5 -76.5t-4.5 -56.5q0 -44 18 -67t63 -23q10 0 10 -10v-169q0 -11 -10 -11q-125 0 -191.5 56t-66.5 168q0 30 3 64q3 30 7 60q-58 -4 -95 -15q-40 -12 -61 -27.5t-27.5 -31.5t-6.5 -26q0 -15 12.5 -29.5t35.5 -31.5l28 -22q40 -31 66.5 -68t26.5 -88
t-22.5 -92t-66 -70.5t-106.5 -45.5t-145 -16q-144 0 -225 70t-81 200q0 53 10 107t33 123h160q-21 -54 -30.5 -95.5t-9.5 -80.5q0 -71 42.5 -102.5t137.5 -31.5q66 0 96 12t30 31q0 11 -14.5 28t-33.5 32l-56 45q-63 51 -63 125q0 35 18.5 77t61 80.5t111 68.5t168.5 41z
M816 682l-35 -110h-124q-25 0 -47.5 -3t-58.5 -14v107q18 6 31 10l24 6l-1 1q-21 18 -21 52q0 24 9 43.5t24.5 33.5t36 21.5t44.5 7.5q34 0 78 -21v-95q-23 8 -38.5 11t-28.5 3q-40 0 -40 -28q0 -16 15 -20.5t43 -4.5h89zM340 -269l68 -66l66 66l113 -111l-111 -111l-68 66
l-66 -66l-113 111z" />
    <glyph glyph-name="uni06AA.init" unicode="&#x6aa;" horiz-adv-x="821" 
d="M470 725l-283 -270h348q58 0 105 -15.5t80.5 -43.5t52 -67.5t18.5 -87.5q0 -115 -65 -178t-184 -63h-542q-10 0 -10 11v169q0 10 10 10h544q30 0 48.5 14.5t18.5 39.5q0 23 -18 37t-48 14h-439l-91 160l220 270h235z" />
    <glyph glyph-name="uni06AA.medi" unicode="&#x6aa;" horiz-adv-x="851" 
d="M470 725l-283 -270h348q58 0 105 -15.5t80.5 -43.5t52 -67.5t18.5 -87.5q0 -115 -65 -178t-184 -63h-542q-10 0 -10 11v169q0 10 10 10h544q30 0 48.5 14.5t18.5 39.5q0 23 -18 37t-48 14h-439l-91 160l220 270h235zM726 235q26 -22 58.5 -33.5t66.5 -11.5q10 0 10 -10
v-169q0 -11 -10 -11q-59 0 -111 34.5t-90 98.5z" />
    <glyph glyph-name="uni06AA.fina" unicode="&#x6aa;" horiz-adv-x="929" 
d="M578 725l-283 -270h318q58 0 105 -15.5t80.5 -43.5t52 -67.5t18.5 -87.5q0 -115 -65 -178t-184 -63h-374q-60 0 -115.5 18t-120.5 58l74 169q29 -16 53 -26.5t46.5 -17t44.5 -9t48 -2.5h346q30 0 48.5 14.5t18.5 39.5q0 23 -18 37t-48 14h-409l-91 160l220 270h235z
M804 235q26 -22 58.5 -33.5t66.5 -11.5q10 0 10 -10v-169q0 -11 -10 -11q-59 0 -111 34.5t-90 98.5z" />
    <glyph glyph-name=".notdef" horiz-adv-x="500" 
d="M0 725h500v-725h-500v725zM19 696v-667l220 333zM481 29v667l-221 -334zM33 19h433l-216 327zM250 378l216 328h-433z" />
    <glyph glyph-name="glyph1" 
 />
    <glyph glyph-name="glyph2" horiz-adv-x="215" 
 />
    <glyph glyph-name="space" unicode=" " horiz-adv-x="215" 
 />
    <glyph glyph-name="exclam" unicode="!" horiz-adv-x="337" 
d="M92 237l-44 332v156h241v-156l-43 -332h-154zM60 0v210h217v-210h-217z" />
    <glyph glyph-name="quotedbl" unicode="&#x22;" horiz-adv-x="417" 
d="M394 725l-22 -254h-122l-22 254h166zM189 725l-22 -254h-122l-22 254h166z" />
    <glyph glyph-name="numbersign" unicode="#" horiz-adv-x="826" 
d="M209 571l22 154h157l-22 -154h153l22 154h157l-22 -154h148l-18 -137h-150l-21 -140h148l-17 -138h-151l-22 -156h-157l22 156h-153l-22 -156h-157l22 156h-146l18 138h148l21 140h-146l17 137h149zM325 294h153l21 140h-153z" />
    <glyph glyph-name="dollar" unicode="$" horiz-adv-x="691" 
d="M369 818v-77q123 -8 192 -71t77 -163h-189q-6 39 -25.5 62t-54.5 28v-146l28 -7q46 -12 91.5 -26t81.5 -38.5t58 -63.5t22 -100q0 -54 -23 -95t-62 -70t-90 -44.5t-106 -18.5v-102h-52v103q-63 4 -112.5 25t-85.5 55t-56.5 79t-24.5 98h189q5 -48 28.5 -79t61.5 -36v154
l-61 16q-39 10 -76.5 27t-67.5 43t-48 64t-18 92q0 52 23 91.5t61.5 66t87 40.5t99.5 16v77h52zM454 195q0 28 -23.5 45.5t-61.5 30.5v-141q37 0 61 19.5t24 45.5zM240 540q0 -51 69 -72l8 -2v132q-37 -1 -57 -19.5t-20 -38.5z" />
    <glyph glyph-name="percent" unicode="%" horiz-adv-x="1066" 
d="M199 394q26 0 43.5 27.5t17.5 99.5q0 36 -4.5 60.5t-13 39.5t-19.5 21t-24 6q-14 0 -25.5 -6t-19.5 -21t-12.5 -39.5t-4.5 -60.5q0 -72 17 -99.5t45 -27.5zM199 309q-89 0 -134 56t-45 156t45 155.5t134 55.5q88 0 133 -55.5t45 -155.5t-45 -156t-133 -56zM200 0l500 725
h166l-500 -725h-166zM865 77q26 0 43.5 27.5t17.5 99.5q0 36 -4.5 60.5t-13 39.5t-19.5 21t-24 6q-14 0 -25.5 -6t-19.5 -21t-12.5 -39.5t-4.5 -60.5q0 -72 17 -99.5t45 -27.5zM865 -8q-89 0 -134 56t-45 156t45 155.5t134 55.5q88 0 133 -55.5t45 -155.5t-45 -156t-133 -56
z" />
    <glyph glyph-name="ampersand" unicode="&#x26;" horiz-adv-x="819" 
d="M280 -13q-56 0 -103.5 13.5t-82.5 39.5t-54.5 65.5t-19.5 92.5q0 73 45 124t126 83q-32 41 -52 81.5t-20 85.5q0 37 16 68.5t47 54t76 35t103 12.5q63 0 108.5 -16.5t74.5 -42.5t42.5 -57.5t13.5 -61.5q0 -29 -12 -57.5t-31.5 -53t-43.5 -44t-49 -29.5l80 -90
q20 31 35 62t23 60h191q-13 -48 -48 -114t-92 -130l151 -168h-248l-46 50q-50 -29 -107 -46t-123 -17zM325 136q22 0 43.5 6.5t42.5 17.5l-122 134q-29 -18 -38.5 -40.5t-9.5 -42.5q0 -38 25.5 -56.5t58.5 -18.5zM333 569q0 -17 9 -37.5t32 -49.5q22 12 35 35t13 44
q0 24 -14 35t-31 11t-30.5 -9t-13.5 -29z" />
    <glyph glyph-name="quotesingle" unicode="'" horiz-adv-x="212" 
d="M189 725l-22 -254h-122l-22 254h166z" />
    <glyph glyph-name="parenleft" unicode="(" horiz-adv-x="366" 
d="M32 279q0 67 13.5 133.5t34 125t45 107t47.5 80.5h199q-29 -45 -54.5 -99t-44.5 -112.5t-29.5 -118.5t-10.5 -116t10.5 -117.5t29.5 -121.5t44.5 -115t54.5 -100h-199q-23 32 -47.5 81.5t-45 110t-34 127.5t-13.5 135z" />
    <glyph glyph-name="parenright" unicode=")" horiz-adv-x="366" 
d="M334 279q0 -68 -13.5 -135t-34 -127.5t-45 -110t-47.5 -81.5h-199q29 45 54.5 100t44 115t29.5 121.5t11 117.5t-11 116t-29.5 118.5t-44 112.5t-54.5 99h199q23 -32 47.5 -80.5t45 -107t34 -125t13.5 -133.5z" />
    <glyph glyph-name="asterisk" unicode="*" horiz-adv-x="357" 
d="M219 625l94 36l36 -94l-96 -34l58 -81l-80 -59l-61 84l-57 -84l-85 57l59 83l-97 34l36 94l92 -36v100h101v-100z" />
    <glyph glyph-name="plus" unicode="+" horiz-adv-x="678" 
d="M240 0v182h-194v174h194v182h200v-182h193v-174h-193v-182h-200z" />
    <glyph glyph-name="comma" unicode="," horiz-adv-x="314" 
d="M48 210h218v-222l-88 -155h-147l73 167h-56v210z" />
    <glyph glyph-name="hyphen" unicode="-" horiz-adv-x="455" 
d="M43 181v174h369v-174h-369z" />
    <glyph glyph-name="period" unicode="." horiz-adv-x="313" 
d="M48 0v210h217v-210h-217z" />
    <glyph glyph-name="slash" unicode="/" horiz-adv-x="500" 
d="M0 0l292 725h208l-292 -725h-208z" />
    <glyph glyph-name="zero" unicode="0" horiz-adv-x="714" 
d="M357 -13q-77 0 -136 26.5t-98.5 75.5t-59.5 119t-20 157t20 157t59.5 118.5t98.5 75t136 26.5q78 0 136.5 -26.5t98 -75t59.5 -118.5t20 -157t-20 -157t-59.5 -119t-98 -75.5t-136.5 -26.5zM357 136q24 0 44 12t34.5 39t22.5 70.5t8 107.5t-8 107.5t-22.5 70.5t-34.5 39
t-44 12t-43.5 -12t-34 -39t-22.5 -70.5t-8 -107.5t8 -107.5t22.5 -70.5t34 -39t43.5 -12z" />
    <glyph glyph-name="one" unicode="1" horiz-adv-x="447" 
d="M171 0v472h-160v146q47 1 81 7.5t57.5 19.5t38.5 33t26 47h157v-725h-200z" />
    <glyph glyph-name="two" unicode="2" horiz-adv-x="635" 
d="M331 742q57 0 106.5 -12t87 -37.5t59 -64.5t21.5 -93q0 -53 -22 -100.5t-62.5 -91.5t-98.5 -86.5t-130 -86.5h310v-170h-578v158q28 20 67 46.5t81 57t83 64t74 67.5t53 66.5t20 61.5q0 38 -26.5 55.5t-60.5 17.5q-46 0 -74 -32t-28 -99h-190q2 134 81.5 206.5
t226.5 72.5z" />
    <glyph glyph-name="three" unicode="3" horiz-adv-x="674" 
d="M329 136q49 0 74 21t25 51q0 42 -34.5 58.5t-106.5 16.5h-30v161h33q60 0 89.5 23.5t29.5 59.5q0 34 -26 50.5t-59 16.5q-40 0 -72.5 -23.5t-36.5 -77.5h-194q9 123 93.5 186t226.5 63q60 0 110 -13.5t86 -39.5t56 -63t20 -83q0 -29 -7.5 -55.5t-20.5 -48t-30 -37.5
t-36 -25q52 -18 84 -61t32 -107q0 -55 -25 -96.5t-67.5 -69.5t-98 -42t-115.5 -14q-140 0 -223.5 68t-92.5 192h194q9 -61 40.5 -86t81.5 -25z" />
    <glyph glyph-name="four" unicode="4" horiz-adv-x="669" 
d="M206 309h144v178zM662 139h-112v-139h-200v139h-342v150l367 436h175v-416h112v-170z" />
    <glyph glyph-name="five" unicode="5" horiz-adv-x="706" 
d="M349 136q53 0 81.5 29t28.5 74t-27.5 75t-78.5 30q-43 0 -70 -15.5t-41 -42.5l-178 15l54 424h500v-169h-332l-16 -113q29 28 71 39t87 11q52 0 95.5 -17.5t75 -50.5t49.5 -80t18 -105q0 -60 -22 -107t-62.5 -79.5t-97 -49.5t-124.5 -17q-62 0 -117 15t-98 45t-70 76
t-33 108h192q7 -47 36.5 -71t78.5 -24z" />
    <glyph glyph-name="six" unicode="6" horiz-adv-x="689" 
d="M246 243q0 -54 29.5 -80.5t69.5 -26.5q39 0 68.5 26.5t29.5 80.5q0 26 -8.5 46t-22 33.5t-31 20.5t-36.5 7q-40 0 -69.5 -27t-29.5 -80zM354 594q-24 0 -44.5 -10.5t-36.5 -30.5t-24.5 -48t-8.5 -64q29 31 73 44t94 13q42 0 85 -15t77.5 -45.5t56.5 -78t22 -113.5
q0 -63 -23 -111t-63.5 -81t-96 -50t-120.5 -17q-75 0 -132.5 25.5t-96 73t-58 114t-19.5 148.5q0 84 19.5 156t60 125t102 83t144.5 30q63 0 112 -16.5t83 -45t52 -67t19 -83.5h-185q-5 32 -31 48t-61 16z" />
    <glyph glyph-name="seven" unicode="7" horiz-adv-x="566" 
d="M-3 725h585v-169q-149 -98 -223.5 -233.5t-69.5 -322.5h-220q-3 90 22.5 174.5t69 156.5t99.5 129.5t114 95.5h-377v169z" />
    <glyph glyph-name="eight" unicode="8" horiz-adv-x="714" 
d="M357 742q71 0 125 -16t90 -43.5t54.5 -63.5t18.5 -76q0 -45 -19 -85.5t-54 -66.5q96 -60 96 -174q0 -50 -22 -92t-62.5 -72.5t-98 -48t-128.5 -17.5t-128.5 17.5t-98 48t-62.5 72.5t-22 92q0 114 96 174q-35 26 -54 66.5t-19 85.5q0 40 18.5 76t55 63.5t90 43.5t124.5 16
zM357 320q-47 0 -77 -26t-30 -66q0 -44 30 -68t77 -24t76.5 24t29.5 68q0 40 -29.5 66t-76.5 26zM447 519q0 35 -26 55t-64 20t-64 -20t-26 -55q0 -36 26 -56.5t64 -20.5t64 20.5t26 56.5z" />
    <glyph glyph-name="nine" unicode="9" horiz-adv-x="685" 
d="M436 486q0 54 -29.5 81t-69.5 27q-39 0 -68 -27t-29 -81q0 -26 8 -46t21.5 -33.5t31 -20t36.5 -6.5q40 0 69.5 26.5t29.5 79.5zM328 136q24 0 44.5 10.5t36.5 30t24.5 48t8.5 63.5q-29 -31 -73 -44t-94 -13q-42 0 -85 15t-77.5 46t-56.5 78.5t-22 112.5q0 63 23 111.5
t63.5 81t96 49.5t120.5 17q75 0 132.5 -25.5t96 -73t58 -114t19.5 -147.5q0 -84 -19.5 -156.5t-60 -125.5t-102 -83t-144.5 -30q-63 0 -112.5 16.5t-83 45t-51.5 67t-19 83.5h185q5 -32 31 -47.5t61 -15.5z" />
    <glyph glyph-name="colon" unicode=":" horiz-adv-x="313" 
d="M48 0v210h217v-210h-217zM48 328v210h217v-210h-217z" />
    <glyph glyph-name="semicolon" unicode=";" horiz-adv-x="314" 
d="M48 328v210h217v-210h-217zM48 210h218v-222l-88 -155h-147l73 167h-56v210z" />
    <glyph glyph-name="less" unicode="&#x3c;" horiz-adv-x="678" 
d="M618 553v-194l-317 -91l317 -92v-193l-567 198v174z" />
    <glyph glyph-name="equal" unicode="=" horiz-adv-x="678" 
d="M56 298v175h566v-175h-566zM56 65v174h566v-174h-566z" />
    <glyph glyph-name="greater" unicode="&#x3e;" horiz-adv-x="678" 
d="M627 181l-567 -198v193l317 92l-317 91v194l567 -198v-174z" />
    <glyph glyph-name="question" unicode="?" horiz-adv-x="629" 
d="M331 742q57 0 108 -12.5t89 -37t60.5 -61t22.5 -85.5q0 -39 -14 -69.5t-35 -53.5t-46.5 -40t-48.5 -28q-26 -12 -42 -22t-25 -20.5t-12 -24.5t-3 -34v-8q0 -4 1 -9h-209q-3 25 -3 48q0 58 27.5 99.5t98.5 70.5q43 18 74 37.5t31 49.5q0 14 -7.5 24t-19.5 16t-27 9t-30 3
q-23 0 -43.5 -6.5t-36.5 -19t-25.5 -32.5t-9.5 -47h-198q0 67 24.5 114.5t67.5 78.5t102 45.5t129 14.5zM174 0v210h217v-210h-217z" />
    <glyph glyph-name="at" unicode="@" horiz-adv-x="826" 
d="M403 459q-21 0 -38 -10t-29 -26.5t-18.5 -39t-6.5 -46.5q0 -75 62 -75q21 0 38 10t28.5 27.5t17.5 40.5t6 49q0 32 -16 51t-44 19zM603 152q-42 0 -75 18.5t-47 59.5q-46 -79 -134 -79q-33 0 -62.5 11t-52.5 34t-36.5 58t-13.5 83q0 51 18.5 94.5t48.5 74.5t67.5 48.5
t75.5 17.5q32 0 62.5 -12.5t50.5 -47.5l8 44h109l-39 -224q-3 -20 -4 -38t2 -31.5t11.5 -21.5t24.5 -8q18 0 34.5 11.5t29 33.5t20.5 53.5t8 70.5q0 62 -20.5 109.5t-57 79.5t-88 48.5t-112.5 16.5q-69 0 -126.5 -23.5t-98.5 -65.5t-63.5 -98.5t-22.5 -122.5q0 -64 20 -117
t56.5 -91t87.5 -59t113 -21q97 0 188 47l29 -69q-54 -26 -110.5 -37.5t-107.5 -11.5q-79 0 -144.5 26.5t-112.5 74.5t-73 114.5t-26 146.5q0 79 30 147.5t82.5 119.5t124.5 80t156 29q70 0 133.5 -19t112.5 -58.5t78 -99.5t29 -142q0 -61 -15 -108t-40.5 -79.5t-58.5 -49.5
t-69 -17z" />
    <glyph glyph-name="A" unicode="A" horiz-adv-x="745" 
d="M258 725h229l263 -725h-227l-37 121h-231l-37 -121h-223zM304 277h134l-66 218z" />
    <glyph glyph-name="B" unicode="B" horiz-adv-x="720" 
d="M65 725h318q61 0 112.5 -8t89.5 -29.5t59.5 -59t21.5 -95.5q0 -45 -13 -79t-44 -62q38 -23 61 -62t23 -99q0 -62 -21.5 -106t-60.5 -71.5t-93.5 -40.5t-121.5 -13h-331v725zM274 169h128q35 0 54 18t19 44q0 27 -19 45t-54 18h-128v-125zM274 439h115q30 0 46 17.5
t16 40.5t-16 41t-46 18h-115v-117z" />
    <glyph glyph-name="C" unicode="C" horiz-adv-x="768" 
d="M22 365q0 88 25.5 158t73 118.5t115 74.5t152.5 26q70 0 130 -19.5t106.5 -57t77.5 -91t42 -122.5h-206q-11 53 -48.5 84t-94.5 31q-68 0 -111.5 -50.5t-43.5 -151.5q0 -102 43.5 -152.5t111.5 -50.5q57 0 96 32t50 84h205q-11 -69 -42 -123t-78 -91.5t-107.5 -57
t-130.5 -19.5q-85 0 -152.5 26t-115 74.5t-73 118.5t-25.5 159z" />
    <glyph glyph-name="D" unicode="D" horiz-adv-x="754" 
d="M515 363q0 62 -14.5 100t-41 58.5t-62.5 27.5t-79 7h-44v-387h44q43 0 79 7t62.5 28t41 59t14.5 100zM315 725q87 0 163.5 -18t133 -60t89 -111.5t32.5 -172.5q0 -104 -32.5 -173.5t-89 -111.5t-133 -60t-163.5 -18h-250v725h250z" />
    <glyph glyph-name="E" unicode="E" horiz-adv-x="683" 
d="M65 725h574v-179h-365v-92h346v-180h-346v-94h369v-180h-578v725z" />
    <glyph glyph-name="F" unicode="F" horiz-adv-x="601" 
d="M65 725h526v-179h-317v-92h298v-180h-298v-274h-209v725z" />
    <glyph glyph-name="G" unicode="G" horiz-adv-x="794" 
d="M395 567q-72 0 -113.5 -53t-41.5 -147q0 -46 10 -83.5t29.5 -64.5t49 -42t69.5 -15q34 0 59.5 9t42 23t24.5 30t8 31v1h-157v158h360v-414h-163l-1 77q-33 -47 -87.5 -68.5t-121.5 -21.5q-78 0 -141 27t-107 76.5t-68 119.5t-24 157q0 86 25.5 155.5t73.5 118t116.5 75
t154.5 26.5q61 0 115.5 -14.5t99 -44.5t77 -77t47.5 -112h-205q-10 31 -41.5 52t-89.5 21z" />
    <glyph glyph-name="H" unicode="H" horiz-adv-x="797" 
d="M732 725v-725h-209v274h-249v-274h-209v725h209v-271h249v271h209z" />
    <glyph glyph-name="I" unicode="I" horiz-adv-x="339" 
d="M274 0h-209v725h209v-725z" />
    <glyph glyph-name="J" unicode="J" horiz-adv-x="682" 
d="M618 272q0 -77 -21 -131t-60.5 -88.5t-96 -50t-126.5 -15.5t-126 18.5t-95 54.5t-60.5 90.5t-21.5 126.5h209q2 -79 23 -110.5t71 -31.5t72.5 29.5t22.5 107.5v453h209v-453z" />
    <glyph glyph-name="K" unicode="K" horiz-adv-x="736" 
d="M274 467l208 258h253l-251 -292l262 -433h-246l-156 269l-70 -82v-187h-209v725h209v-258z" />
    <glyph glyph-name="L" unicode="L" horiz-adv-x="611" 
d="M274 180h338v-180h-547v725h209v-545z" />
    <glyph glyph-name="M" unicode="M" horiz-adv-x="982" 
d="M399 0l-146 499v-499h-188v725h306l123 -451l121 451h303v-725h-188v502l-144 -502h-187z" />
    <glyph glyph-name="N" unicode="N" horiz-adv-x="802" 
d="M480 0l-222 462v-462h-193v725h257l223 -461v461h193v-725h-258z" />
    <glyph glyph-name="O" unicode="O" horiz-adv-x="804" 
d="M239 364q0 -54 13.5 -92t36.5 -62.5t52 -36t61 -11.5q31 0 60.5 11.5t52.5 36t36.5 62.5t13.5 92t-13.5 92t-36.5 63t-52.5 36.5t-60.5 11.5q-32 0 -61 -11.5t-52 -36.5t-36.5 -63t-13.5 -92zM782 364q0 -90 -28 -160t-78.5 -118t-120.5 -73.5t-153 -25.5t-153 25.5
t-120.5 73.5t-78.5 118t-28 160t28 160t78.5 118.5t120.5 74t153 25.5t153 -25.5t120.5 -74t78.5 -118.5t28 -160z" />
    <glyph glyph-name="P" unicode="P" horiz-adv-x="695" 
d="M360 725q71 0 131.5 -10.5t105 -38t69.5 -75t25 -121.5t-25 -121.5t-69.5 -74.5t-105 -37.5t-131.5 -10.5h-86v-236h-209v725h295zM274 556v-151h105q45 0 70 18t25 57q0 40 -25 58t-70 18h-105z" />
    <glyph glyph-name="Q" unicode="Q" horiz-adv-x="804" 
d="M782 364q0 -97 -32.5 -170.5t-89.5 -121.5l72 -99l-127 -89l-86 117q-56 -14 -117 -14q-83 0 -153 25.5t-120.5 73.5t-78.5 118t-28 160t28 160t78.5 118.5t120.5 74t153 25.5t153 -25.5t120.5 -74t78.5 -118.5t28 -160zM239 364q0 -54 13.5 -92t36.5 -62.5t52 -36
t61 -11.5q31 0 60.5 11.5t52.5 36t36.5 62.5t13.5 92t-13.5 92t-36.5 63t-52.5 36.5t-60.5 11.5q-32 0 -61 -11.5t-52 -36.5t-36.5 -63t-13.5 -92z" />
    <glyph glyph-name="R" unicode="R" horiz-adv-x="750" 
d="M360 255h-86v-255h-209v725h300q71 0 132 -10t105.5 -36.5t69.5 -71.5t25 -115q0 -78 -36 -126t-93 -74l172 -292h-235zM274 556v-143h115q46 0 68 20t22 51t-22 51.5t-68 20.5h-115z" />
    <glyph glyph-name="S" unicode="S" horiz-adv-x="706" 
d="M46 511q0 59 26.5 102.5t70 72t99 42.5t113.5 14q97 0 173 -21t145 -59l-88 -173q-20 12 -47 24t-58.5 21.5t-65 15.5t-66.5 6q-42 0 -65 -10t-23 -31q0 -32 60 -45l107 -22q51 -11 96.5 -26t80 -39t54.5 -60t20 -90q0 -62 -25 -108t-67.5 -76.5t-100.5 -46t-124 -15.5
q-115 0 -201 29.5t-147 74.5l103 169q23 -17 52 -32.5t61.5 -27t68 -18.5t70.5 -7q44 0 69.5 9t25.5 32t-28.5 36.5t-79.5 24.5l-82 17q-43 9 -83.5 24.5t-72.5 41t-51.5 62.5t-19.5 89z" />
    <glyph glyph-name="T" unicode="T" horiz-adv-x="653" 
d="M221 546h-216v179h642v-179h-217v-546h-209v546z" />
    <glyph glyph-name="U" unicode="U" horiz-adv-x="762" 
d="M263 725v-425q0 -35 6 -60.5t19.5 -43t36 -26t56.5 -8.5q67 0 92.5 37t25.5 101v425h209v-404q0 -85 -17.5 -147.5t-56 -104t-100.5 -62t-151 -20.5q-86 0 -148 17t-102 56t-59.5 101.5t-19.5 152.5v411h209z" />
    <glyph glyph-name="V" unicode="V" horiz-adv-x="702" 
d="M222 725l130 -478l133 478h222l-241 -725h-229l-242 725h227z" />
    <glyph glyph-name="W" unicode="W" horiz-adv-x="985" 
d="M696 268l68 457h211l-142 -725h-243l-97 495l-98 -495h-242l-143 725h212l73 -451l84 451h227z" />
    <glyph glyph-name="X" unicode="X" horiz-adv-x="727" 
d="M243 364l-246 361h247l123 -182l127 182h236l-246 -353l254 -372h-247l-132 193l-134 -193h-236z" />
    <glyph glyph-name="Y" unicode="Y" horiz-adv-x="731" 
d="M229 725l136 -253l138 253h244l-281 -445v-280h-209v282l-273 443h245z" />
    <glyph glyph-name="Z" unicode="Z" horiz-adv-x="688" 
d="M639 546l-359 -366h372v-180h-626v180l359 366h-330v179h584v-179z" />
    <glyph glyph-name="bracketleft" unicode="[" horiz-adv-x="384" 
d="M364 725v-157h-115v-586h115v-157h-299v900h299z" />
    <glyph glyph-name="backslash" unicode="\" horiz-adv-x="500" 
d="M500 0h-207l-293 725h209z" />
    <glyph glyph-name="bracketright" unicode="]" horiz-adv-x="384" 
d="M319 725v-900h-299v157h115v586h-115v157h299z" />
    <glyph glyph-name="asciicircum" unicode="^" horiz-adv-x="598" 
d="M588 338h-189l-100 228l-100 -228h-188l188 387h200z" />
    <glyph glyph-name="underscore" unicode="_" horiz-adv-x="522" 
d="M11 -174v174h500v-174h-500z" />
    <glyph glyph-name="grave" unicode="`" horiz-adv-x="346" 
d="M22 725h208l94 -116h-160z" />
    <glyph glyph-name="a" unicode="a" horiz-adv-x="636" 
d="M387 356q0 22 -6.5 36t-17.5 21.5t-25.5 10.5t-30.5 3q-38 0 -62 -17t-29 -52h-172q3 38 22 74t53.5 63.5t84.5 44.5t117 17q58 0 106.5 -12t83 -39.5t54 -73.5t18.5 -113l-1 -103v-53q0 -28 1.5 -57t3.5 -56.5t5 -49.5h-186v70q-30 -45 -78 -64t-105 -19q-39 0 -74 11.5
t-61.5 33t-41.5 51t-15 65.5q0 47 23.5 81t69 57t112 36t151.5 19v15zM394 241q-80 -5 -121 -20.5t-41 -50.5q0 -17 15.5 -33t50.5 -16q19 0 36.5 4.5t31 16.5t21 32t7.5 51v16z" />
    <glyph glyph-name="b" unicode="b" horiz-adv-x="680" 
d="M259 725v-262q18 35 60 61t102 26q45 0 87.5 -18t75 -53t52.5 -87.5t20 -122.5t-20 -122.5t-52.5 -88t-75 -53.5t-87.5 -18q-60 0 -102 26t-60 61v-74h-200v725h200zM252 269q0 -61 27.5 -97t69.5 -36q43 0 68 38t25 95t-25 94.5t-68 37.5q-42 0 -69.5 -35.5t-27.5 -96.5
z" />
    <glyph glyph-name="c" unicode="c" horiz-adv-x="608" 
d="M315 559q59 0 107 -18.5t82.5 -50t56 -72.5t27.5 -86h-184q-2 13 -8 27t-16.5 25.5t-24.5 18.5t-32 7q-27 0 -45 -10.5t-28.5 -29.5t-14.5 -44t-4 -53q0 -29 4.5 -54t15.5 -43.5t28 -29.5t43 -11q19 0 34 7t25.5 18t17 24.5t8.5 26.5h184q-8 -45 -30 -86t-57.5 -71.5
t-83.5 -49t-106 -18.5q-71 0 -124.5 21t-89.5 58.5t-54.5 90.5t-18.5 116q0 64 21 117t58.5 90.5t90.5 58.5t118 21z" />
    <glyph glyph-name="d" unicode="d" horiz-adv-x="680" 
d="M421 725h200v-725h-200v74q-18 -35 -60 -61t-102 -26q-45 0 -87.5 18t-75 53.5t-52.5 88t-20 122.5t20 122.5t52.5 87.5t75 53t87.5 18q60 0 102 -26t60 -61v262zM428 269q0 61 -27.5 96.5t-69.5 35.5q-43 0 -68 -37.5t-25 -94.5t25 -95t68 -38q42 0 69.5 36t27.5 97z
" />
    <glyph glyph-name="e" unicode="e" horiz-adv-x="634" 
d="M326 -14q-71 0 -127 21.5t-94 60t-58 92t-20 116.5q0 64 22.5 116.5t61.5 89t92 56.5t114 20q71 0 127 -26t94.5 -71.5t57 -106.5t13.5 -131h-388q5 -41 33 -65.5t75 -24.5q29 0 55.5 13t35.5 35h188q-9 -30 -30.5 -64t-56.5 -63t-83.5 -48.5t-111.5 -19.5zM330 421
q-16 0 -32.5 -4.5t-31 -15t-26 -27t-16.5 -40.5h208q-2 24 -12 40.5t-25 27t-32 15t-33 4.5z" />
    <glyph glyph-name="f" unicode="f" horiz-adv-x="453" 
d="M97 568q0 53 10 84.5t33.5 47.5t61.5 20.5t94 4.5h147v-127h-107q-22 0 -30 -6.5t-8 -26.5v-27h145v-126h-146v-412h-200v412h-97v126h97v30z" />
    <glyph glyph-name="g" unicode="g" horiz-adv-x="680" 
d="M421 96q-9 -15 -24.5 -29t-36 -25t-46 -17.5t-55.5 -6.5q-45 0 -87.5 15.5t-75 48t-52.5 83t-20 120.5t20 120t52.5 82t75 47.5t87.5 15.5q60 0 102 -22.5t60 -54.5v65h200v-456q0 -74 -24.5 -125t-66 -83.5t-95.5 -47t-113 -14.5q-122 0 -188 46.5t-83 128.5h185
q5 -23 24.5 -37t59.5 -14q21 0 39.5 5.5t32 18t21.5 33t8 49.5v54zM428 285q0 60 -27.5 88t-69.5 28q-43 0 -70.5 -29.5t-27.5 -86.5q0 -58 27.5 -87.5t70.5 -29.5q42 0 69.5 28t27.5 89z" />
    <glyph glyph-name="h" unicode="h" horiz-adv-x="653" 
d="M259 468q27 40 69.5 61t97.5 21q50 0 84.5 -14.5t55.5 -42.5t30 -67.5t9 -88.5v-337h-200v296q0 17 -2 33.5t-8.5 30t-19.5 21.5t-35 8q-37 0 -59 -24.5t-22 -83.5v-281h-200v725h200v-257z" />
    <glyph glyph-name="i" unicode="i" horiz-adv-x="318" 
d="M259 538v-538h-200v538h200zM259 725v-142h-200v142h200z" />
    <glyph glyph-name="j" unicode="j" horiz-adv-x="319" 
d="M59 538h200v-534q0 -55 -10.5 -90t-34 -54.5t-61.5 -27t-94 -7.5h-75v134h36q19 0 29 7.5t10 30.5v541zM259 725v-142h-200v142h200z" />
    <glyph glyph-name="k" unicode="k" horiz-adv-x="653" 
d="M259 725v-366l169 179h225l-198 -206l203 -332h-227l-114 189l-58 -61v-128h-200v725h200z" />
    <glyph glyph-name="l" unicode="l" horiz-adv-x="318" 
d="M259 0h-200v725h200v-725z" />
    <glyph glyph-name="m" unicode="m" horiz-adv-x="981" 
d="M671 390q-36 0 -55.5 -24.5t-19.5 -83.5v-282h-200v287q0 45 -12 74t-50 29q-36 0 -55.5 -24.5t-19.5 -83.5v-282h-200v538h200v-59q23 33 62.5 52t97.5 19q60 0 96.5 -22t53.5 -69q29 42 73.5 66.5t114.5 24.5q42 0 75 -12.5t55.5 -41t34 -74t11.5 -111.5v-311h-200v287
q0 45 -12 74t-50 29z" />
    <glyph glyph-name="n" unicode="n" horiz-adv-x="653" 
d="M259 468q27 40 69.5 61t97.5 21q50 0 84.5 -14.5t55.5 -42.5t30 -67.5t9 -88.5v-337h-200v297q0 17 -2 33.5t-8.5 30t-19.5 21.5t-35 8q-37 0 -59 -24.5t-22 -83.5v-282h-200v538h200v-70z" />
    <glyph glyph-name="o" unicode="o" horiz-adv-x="640" 
d="M320 405q-38 0 -64 -30t-26 -105q0 -38 7 -63.5t19 -41t28.5 -22.5t35.5 -7t35.5 7t28.5 22.5t19 41t7 63.5q0 75 -26 105t-64 30zM320 -13q-60 0 -114 17.5t-94.5 53t-64 88.5t-23.5 124t23.5 124t64 88.5t94.5 53.5t114 18t113.5 -18t94 -53.5t64.5 -88.5t24 -124
t-24 -124t-64.5 -88.5t-94 -53t-113.5 -17.5z" />
    <glyph glyph-name="p" unicode="p" horiz-adv-x="680" 
d="M252 268q0 -61 27.5 -96.5t69.5 -35.5q43 0 68 37.5t25 94.5t-25 95t-68 38q-42 0 -69.5 -36t-27.5 -97zM259 -175h-200v713h200v-75q18 35 60 61t102 26q45 0 87.5 -18t75 -53.5t52.5 -88t20 -122.5t-20 -122.5t-52.5 -88t-75 -53t-87.5 -17.5q-60 0 -102 26t-60 61
v-249z" />
    <glyph glyph-name="q" unicode="q" horiz-adv-x="680" 
d="M421 -175v249q-18 -35 -60 -61t-102 -26q-45 0 -87.5 17.5t-75 53t-52.5 88t-20 122.5t20 122.5t52.5 88t75 53.5t87.5 18q60 0 102 -26t60 -61v75h200v-713h-200zM428 268q0 61 -27.5 97t-69.5 36q-43 0 -68 -38t-25 -95t25 -94.5t68 -37.5q42 0 69.5 35.5t27.5 96.5z
" />
    <glyph glyph-name="r" unicode="r" horiz-adv-x="429" 
d="M419 351q-11 2 -23.5 4t-26.5 2q-48 0 -79 -19t-31 -73v-265h-200v538h195v-103q16 50 56 78.5t84 28.5h12q8 0 13 -1v-190z" />
    <glyph glyph-name="s" unicode="s" horiz-adv-x="582" 
d="M485 357q-37 15 -88 29.5t-102 14.5q-26 0 -38 -7t-12 -16q0 -8 7.5 -17t34.5 -14l70 -13q44 -8 81 -19.5t63.5 -29.5t41.5 -44.5t15 -64.5q0 -94 -69.5 -141.5t-187.5 -47.5q-100 0 -168 20.5t-113 48.5l74 139q37 -20 87.5 -37.5t110.5 -17.5q28 0 49 6.5t21 20.5
t-15 20.5t-47 12.5l-57 11q-42 7 -77.5 20t-61 33.5t-39.5 49t-14 66.5q0 42 20.5 74t55.5 53.5t81.5 33t98.5 11.5q39 0 75.5 -5t68 -13t56.5 -17.5t42 -18.5z" />
    <glyph glyph-name="t" unicode="t" horiz-adv-x="480" 
d="M108 686h200v-148h137v-126h-137v-240q0 -23 9.5 -30t29.5 -7h98v-135h-138q-56 0 -94 4.5t-61 21t-33.5 49t-10.5 87.5v250h-108v126h108v148z" />
    <glyph glyph-name="u" unicode="u" horiz-adv-x="645" 
d="M385 73q-23 -38 -60.5 -62t-94.5 -24q-45 0 -81.5 12.5t-59.5 40.5q-20 24 -30.5 64t-10.5 107v327h200v-287q0 -32 4 -49.5t11 -27.5q16 -21 50 -21t53 24.5t19 84.5v276h200v-538h-200v73z" />
    <glyph glyph-name="v" unicode="v" horiz-adv-x="589" 
d="M300 199l81 339h208l-181 -538h-222l-186 538h214z" />
    <glyph glyph-name="w" unicode="w" horiz-adv-x="879" 
d="M338 538h208l72 -339l69 339h192l-139 -538h-222l-76 342l-74 -342h-223l-145 538h198l75 -339z" />
    <glyph glyph-name="x" unicode="x" horiz-adv-x="626" 
d="M425 275l207 -275h-224l-96 127l-97 -127h-220l208 272l-200 266h225l88 -118l91 118h219z" />
    <glyph glyph-name="y" unicode="y" horiz-adv-x="595" 
d="M58 -175v134h61q31 0 47 5t23 26l3 7l-192 541h199l101 -344l100 344h195l-183 -523q-22 -62 -50.5 -99.5t-63.5 -57.5t-77 -26.5t-91 -6.5h-72z" />
    <glyph glyph-name="z" unicode="z" horiz-adv-x="579" 
d="M24 146l281 246h-261v146h502v-146l-281 -246h293v-146h-534v146z" />
    <glyph glyph-name="braceleft" unicode="{" horiz-adv-x="404" 
d="M297 -175q-56 0 -94 7.5t-61 27t-33.5 54.5t-10.5 90v95q0 23 -2.5 42t-10.5 32.5t-23 21t-40 7.5v147q25 0 40 7.5t23 21t10.5 32.5t2.5 42v94q0 55 10.5 90t33.5 54.5t61 27t94 7.5h87v-145h-47q-20 0 -28.5 -7t-8.5 -31v-116q0 -39 -8.5 -65.5t-22.5 -43t-32.5 -26
t-38.5 -14.5v-3q20 -5 38.5 -14.5t32.5 -26t22.5 -42.5t8.5 -65v-118q0 -24 8.5 -31t28.5 -7h47v-145h-87z" />
    <glyph glyph-name="bar" unicode="|" horiz-adv-x="310" 
d="M245 725v-815h-180v815h180z" />
    <glyph glyph-name="braceright" unicode="}" horiz-adv-x="403" 
d="M20 -30h46q20 0 29 7t9 31v118q0 39 8.5 65t22.5 42.5t32 26t38 14.5v3q-20 5 -38 14.5t-32 26t-22.5 43t-8.5 65.5v116q0 24 -9 31t-29 7h-46v145h86q56 0 94 -7.5t61.5 -27t33.5 -54.5t10 -90v-94q0 -23 2.5 -42t11 -32.5t23.5 -21t40 -7.5v-147q-25 0 -40 -7.5
t-23.5 -21t-11 -32.5t-2.5 -42v-95q0 -55 -10 -90t-33.5 -54.5t-61.5 -27t-94 -7.5h-86v145z" />
    <glyph glyph-name="asciitilde" unicode="~" horiz-adv-x="678" 
d="M433 318q17 0 23.5 13t7.5 48h147q0 -52 -8 -93.5t-25.5 -71t-45.5 -45t-69 -15.5q-33 0 -64.5 9.5t-59.5 21t-51.5 21t-39.5 9.5q-18 0 -25.5 -13t-8.5 -48h-147q0 52 8 93.5t26 71t47 45t70 15.5q34 0 67 -9.5t62 -21t51.5 -21t34.5 -9.5z" />
    <glyph glyph-name="uni00A0" unicode="&#xa0;" horiz-adv-x="215" 
 />
    <glyph glyph-name="exclamdown" unicode="&#xa1;" horiz-adv-x="337" 
d="M289 -175h-241v145l44 332h154l43 -332v-145zM60 328v210h217v-210h-217z" />
    <glyph glyph-name="cent" unicode="&#xa2;" horiz-adv-x="605" 
d="M342 633v-76q53 -4 96 -24t74.5 -50.5t50.5 -69.5t25 -81h-184q-4 23 -19.5 45.5t-42.5 29.5v-270q29 7 45 29t20 45h184q-7 -42 -27.5 -81t-52 -69t-74.5 -50t-95 -24v-94h-54v94q-65 4 -113.5 26.5t-81.5 60t-49.5 88t-16.5 110.5q0 61 18.5 111.5t53 88t82.5 59.5
t107 27v75h54zM231 273q0 -47 12.5 -82.5t44.5 -49.5v263q-33 -13 -45 -48.5t-12 -82.5z" />
    <glyph glyph-name="sterling" unicode="&#xa3;" horiz-adv-x="691" 
d="M365 594q-33 0 -60 -15t-27 -49q0 -33 19.5 -69.5t39.5 -74.5h163v-75h-133q1 -6 1.5 -11.5t0.5 -10.5q0 -27 -17.5 -56t-61.5 -60l1 -2q18 7 35.5 8.5t30.5 1.5q25 0 43 -3.5t33 -8t29 -8t31 -3.5q20 0 48.5 7t72.5 27l65 -162q-48 -20 -96 -31t-105 -11q-28 0 -55 6
t-54 13t-54 13t-55 6q-22 0 -59.5 -7.5t-92.5 -36.5l-74 149q67 31 102 63t35 83q0 8 -2 16.5t-4 17.5h-122v75h87q-20 36 -38.5 75t-18.5 82q0 53 25.5 91t67 62t94 35t105.5 11q71 0 128 -19t97 -54.5t61.5 -87t21.5 -116.5h-190q-4 66 -35.5 97.5t-82.5 31.5z" />
    <glyph glyph-name="currency" unicode="&#xa4;" horiz-adv-x="636" 
d="M79 346q0 39 11.5 74.5t32.5 64.5l-69 70l49 49l68 -68q30 23 66.5 36t77.5 13q42 0 79.5 -13.5t67.5 -37.5l71 70l49 -49l-72 -72q20 -29 32 -64t12 -73t-11.5 -73t-32.5 -64l72 -71l-49 -49l-71 70q-31 -23 -68 -36t-79 -13q-41 0 -77 12.5t-66 35.5l-69 -69l-49 49
l69 70q-21 29 -32.5 64t-11.5 74zM234 346q0 -38 22.5 -62.5t58.5 -24.5q39 0 63 24.5t24 62.5q0 40 -24 65.5t-63 25.5q-36 0 -58.5 -25.5t-22.5 -65.5z" />
    <glyph glyph-name="yen" unicode="&#xa5;" horiz-adv-x="711" 
d="M452 69v-69h-200v69h-140v78h140v65h-140v80h128l-240 433h221l135 -274l138 274h217l-246 -433h127v-80h-140v-65h140v-78h-140z" />
    <glyph glyph-name="brokenbar" unicode="&#xa6;" horiz-adv-x="298" 
d="M239 725v-305h-180v305h180zM239 215v-305h-180v305h180z" />
    <glyph glyph-name="section" unicode="&#xa7;" horiz-adv-x="694" 
d="M349 -59q26 0 45.5 9.5t19.5 27.5q0 21 -27 37.5t-62 32.5l-128 61q-81 38 -125.5 83.5t-44.5 108.5q0 42 27 80t75 64q-47 53 -47 119q0 43 21 76.5t56 56t82 34t99 11.5q56 0 103.5 -12t83.5 -37.5t59 -65.5t32 -95h-196q-9 35 -33 50.5t-60 15.5q-26 0 -42 -8.5
t-16 -19.5q0 -14 21 -27.5t53 -29.5l137 -64q43 -20 77 -40.5t58 -43.5t37 -49t13 -58q0 -54 -31 -93t-73 -62q44 -47 44 -111q0 -48 -21 -84t-57 -61t-84 -37.5t-103 -12.5q-63 0 -113 16t-86.5 46t-58.5 72.5t-28 94.5h196q9 -51 35 -68t62 -17zM258 358
q-20 -12 -27 -20.5t-7 -19.5q0 -17 20 -30.5t50 -28.5l134 -65l1 -1q17 9 27.5 20.5t10.5 22.5q0 14 -16.5 27t-57.5 33z" />
    <glyph glyph-name="dieresis" unicode="&#xa8;" horiz-adv-x="466" 
d="M22 725h171v-116h-171v116zM444 725v-116h-170v116h170z" />
    <glyph glyph-name="copyright" unicode="&#xa9;" horiz-adv-x="825" 
d="M38 361q0 84 29.5 153t80 119t119 77.5t146.5 27.5t146 -27.5t118.5 -77.5t80 -119t29.5 -153q0 -83 -29.5 -152t-80 -118.5t-118.5 -76.5t-146 -27t-146.5 27t-119 76.5t-80 118.5t-29.5 152zM121 361q0 -66 22.5 -121t62 -94.5t92.5 -61.5t115 -22q63 0 116 22t92 61.5
t61 94.5t22 121q0 67 -22 122.5t-61 95.5t-92 61.5t-116 21.5q-62 0 -115 -21.5t-92.5 -61.5t-62 -95.5t-22.5 -122.5zM414 244q35 0 61 17t34 59l104 -23q-17 -62 -70.5 -101.5t-131.5 -39.5q-47 0 -84.5 15.5t-63.5 43t-39.5 65t-13.5 82.5q0 46 14.5 83.5t41.5 64.5
t64.5 41.5t83.5 14.5q37 0 70 -10.5t58.5 -30t43 -46t23.5 -58.5l-103 -25q-5 35 -29.5 59.5t-62.5 24.5q-39 0 -66 -29.5t-27 -88.5q0 -57 25.5 -87.5t67.5 -30.5z" />
    <glyph glyph-name="ordfeminine" unicode="&#xaa;" horiz-adv-x="348" 
d="M25 642q5 51 44.5 77.5t115.5 26.5q68 0 102.5 -28t33.5 -93v-63q-1 -28 0.5 -59t4.5 -65h-102l-1 36q-11 -18 -33 -31t-60 -13q-27 0 -48.5 8.5t-36.5 22.5t-22.5 32.5t-7.5 38.5q0 22 8 37.5t20 25.5q23 18 61 26t73 12l34 3v6q0 14 -9 21t-30 7q-14 0 -26.5 -5.5
t-14.5 -22.5h-106zM214 569l-37 -3q-27 -3 -37 -10.5t-10 -18.5t8 -19.5t25 -8.5q23 0 37 11t14 31v18z" />
    <glyph glyph-name="guillemotleft" unicode="&#xab;" horiz-adv-x="646" 
d="M-3 274l169 231h175l-119 -232l118 -232h-174zM280 274l169 231h175l-119 -232l118 -232h-174z" />
    <glyph glyph-name="logicalnot" unicode="&#xac;" horiz-adv-x="678" 
d="M36 274v175h566v-346h-200v171h-366z" />
    <glyph glyph-name="uni00AD" unicode="&#xad;" horiz-adv-x="455" 
d="M43 181v174h369v-174h-369z" />
    <glyph glyph-name="registered" unicode="&#xae;" horiz-adv-x="825" 
d="M38 361q0 84 29.5 153t80 119t119 77.5t146.5 27.5t146 -27.5t118.5 -77.5t80 -119t29.5 -153q0 -83 -29.5 -152t-80 -118.5t-118.5 -76.5t-146 -27t-146.5 27t-119 76.5t-80 118.5t-29.5 152zM121 361q0 -66 22.5 -121t62 -94.5t92.5 -61.5t115 -22q63 0 116 22t92 61.5
t61 94.5t22 121q0 67 -22 122.5t-61 95.5t-92 61.5t-116 21.5q-62 0 -115 -21.5t-92.5 -61.5t-62 -95.5t-22.5 -122.5zM349 175h-108v400h160q40 0 74 -6t59 -20.5t39 -40t14 -64.5q0 -45 -20.5 -71t-52.5 -39l97 -159h-120l-84 143h-58v-143zM479 444q0 17 -12 32t-39 15
h-79v-90h79q27 0 39 12.5t12 30.5z" />
    <glyph glyph-name="macron" unicode="&#xaf;" horiz-adv-x="357" 
d="M22 621v104h313v-104h-313z" />
    <glyph glyph-name="degree" unicode="&#xb0;" horiz-adv-x="373" 
d="M11 562q0 37 14 69t37.5 56t55.5 37.5t68 13.5q37 0 69 -13.5t56 -37.5t38 -56t14 -69q0 -36 -14 -68t-38 -56t-56 -37.5t-69 -13.5q-36 0 -68 13.5t-55.5 37.5t-37.5 56t-14 68zM113 562q0 -32 20.5 -55.5t52.5 -23.5q34 0 55 23.5t21 55.5q0 33 -21 56.5t-55 23.5
q-32 0 -52.5 -23.5t-20.5 -56.5z" />
    <glyph glyph-name="plusminus" unicode="&#xb1;" horiz-adv-x="678" 
d="M240 538h200v-85h193v-175h-193v-85h-200v85h-194v175h194v85zM46 0v174h587v-174h-587z" />
    <glyph glyph-name="uni00B2" unicode="&#xb2;" horiz-adv-x="362" 
d="M187 853q33 0 61 -7t49 -21.5t33 -36.5t12 -53q0 -30 -12 -55.5t-34.5 -48.5t-54.5 -46.5t-71 -49.5h170v-97h-328v90q24 17 60.5 41t70.5 51t58.5 54.5t24.5 52.5q0 22 -12.5 32t-32.5 10q-26 0 -42.5 -18.5t-18.5 -56.5h-109q2 76 47.5 117.5t128.5 41.5z" />
    <glyph glyph-name="uni00B3" unicode="&#xb3;" horiz-adv-x="386" 
d="M194 515q27 0 40 11.5t13 27.5q0 24 -19 34.5t-60 10.5h-17v93h18q68 0 68 42q0 17 -15 26t-33 9q-23 0 -40 -10.5t-19 -40.5h-111q8 60 53 97.5t126 37.5q69 0 112 -29t43 -82q0 -33 -16 -56t-38 -33q29 -10 47.5 -35.5t18.5 -62.5q0 -30 -14 -53.5t-38 -39.5t-55 -24
t-65 -8q-80 0 -126.5 38.5t-52.5 105.5h110q5 -31 23.5 -45t46.5 -14z" />
    <glyph glyph-name="acute" unicode="&#xb4;" horiz-adv-x="346" 
d="M182 609h-160l95 116h207z" />
    <glyph glyph-name="paragraph" unicode="&#xb6;" horiz-adv-x="504" 
d="M0 554q0 40 16.5 72t46.5 54t72 33.5t93 11.5h213v-814h-82v738h-112v-738h-81v473q-27 3 -56.5 13t-54 30t-40 51t-15.5 76z" />
    <glyph glyph-name="periodcentered" unicode="&#xb7;" horiz-adv-x="314" 
d="M48 164v210h217v-210h-217z" />
    <glyph glyph-name="cedilla" unicode="&#xb8;" horiz-adv-x="277" 
d="M39 -133q9 -5 27.5 -9.5t38.5 -4.5t34 6t14 23q0 14 -11 21t-29 7q-8 0 -19 -2t-19 -7l-30 17l51 83h62l-33 -52q13 4 37 4q15 0 31.5 -3.5t30 -11.5t22.5 -21t9 -32q0 -24 -11.5 -40t-31 -26.5t-44.5 -15t-51 -4.5q-53 0 -95 14z" />
    <glyph glyph-name="uni00B9" unicode="&#xb9;" horiz-adv-x="248" 
d="M94 438v264h-91v82q53 2 78.5 16t36.5 46h89v-408h-113z" />
    <glyph glyph-name="ordmasculine" unicode="&#xba;" horiz-adv-x="364" 
d="M132 588q0 -38 14 -55.5t36 -17.5t35.5 17.5t13.5 55.5t-13.5 55.5t-35.5 17.5t-36 -17.5t-14 -55.5zM15 588q0 40 13.5 70t36 49.5t53 29t64.5 9.5t64 -9.5t52.5 -29t35.5 -49.5t13 -70q0 -41 -13 -70.5t-35.5 -49t-52.5 -29t-64 -9.5t-64.5 9.5t-53 29t-36 49
t-13.5 70.5z" />
    <glyph glyph-name="guillemotright" unicode="&#xbb;" horiz-adv-x="646" 
d="M480 41h-174l118 232l-119 232h175l169 -231zM197 41h-174l118 232l-119 232h175l169 -231z" />
    <glyph glyph-name="onequarter" unicode="&#xbc;" horiz-adv-x="913" 
d="M94 317v264h-91v82q53 2 78.5 16t36.5 46h89v-408h-113zM48 0l500 725h166l-500 -725h-166zM642 176h82v96zM901 80h-63v-80h-114v80h-195v86l209 242h100v-232h63v-96z" />
    <glyph glyph-name="onehalf" unicode="&#xbd;" horiz-adv-x="876" 
d="M94 317v264h-91v82q53 2 78.5 16t36.5 46h89v-408h-113zM48 0l500 725h166l-500 -725h-166zM701 415q33 0 61 -7t49 -21.5t33 -36.5t12 -53q0 -30 -12 -55.5t-34.5 -48.5t-54.5 -46.5t-71 -49.5h170v-97h-328v90q24 17 60.5 41t70.5 51t58.5 54.5t24.5 52.5
q0 22 -12.5 32t-32.5 10q-26 0 -42.5 -18.5t-18.5 -56.5h-109q2 76 47.5 117.5t128.5 41.5z" />
    <glyph glyph-name="threequarters" unicode="&#xbe;" horiz-adv-x="1051" 
d="M194 394q27 0 40 11.5t13 27.5q0 24 -19 34.5t-60 10.5h-17v93h18q68 0 68 42q0 17 -15 26t-33 9q-23 0 -40 -10.5t-19 -40.5h-111q8 60 53 97.5t126 37.5q69 0 112 -29t43 -82q0 -33 -16 -56t-38 -33q29 -10 47.5 -35.5t18.5 -62.5q0 -30 -14 -53.5t-38 -39.5t-55 -24
t-65 -8q-80 0 -126.5 38.5t-52.5 105.5h110q5 -31 23.5 -45t46.5 -14zM186 0l500 725h166l-500 -725h-166zM780 176h82v96zM1039 80h-63v-80h-114v80h-195v86l209 242h100v-232h63v-96z" />
    <glyph glyph-name="questiondown" unicode="&#xbf;" horiz-adv-x="646" 
d="M302 -187q-57 0 -108 13.5t-89 39.5t-60.5 63.5t-22.5 86.5q0 38 12 65t31.5 46.5t43 33.5t46.5 25q26 13 43.5 22.5t28.5 19.5t16 23.5t5 33.5v8q0 4 -1 9h209q3 -26 3 -48q0 -57 -27.5 -99t-98.5 -71q-21 -9 -40.5 -16.5t-33.5 -16t-22.5 -17.5t-8.5 -21q0 -14 7.5 -24
t19.5 -16t27 -9t29 -3q23 0 44 6.5t37 19.5t25.5 33t9.5 47l198 -5q0 -65 -24.5 -112t-67.5 -77.5t-102 -45t-129 -14.5zM242 328v210h217v-210h-217z" />
    <glyph glyph-name="Agrave" unicode="&#xc0;" horiz-adv-x="745" 
d="M258 725h229l263 -725h-227l-37 121h-231l-37 -121h-223zM304 277h134l-66 218zM124 886h233l104 -113h-178z" />
    <glyph glyph-name="Aacute" unicode="&#xc1;" horiz-adv-x="745" 
d="M258 725h229l263 -725h-227l-37 121h-231l-37 -121h-223zM304 277h134l-66 218zM461 773h-178l103 113h234z" />
    <glyph glyph-name="Acircumflex" unicode="&#xc2;" horiz-adv-x="745" 
d="M258 725h229l263 -725h-227l-37 121h-231l-37 -121h-223zM304 277h134l-66 218zM624 773h-196l-55 49l-58 -49h-195l140 113h227z" />
    <glyph glyph-name="Atilde" unicode="&#xc3;" horiz-adv-x="745" 
d="M258 725h229l263 -725h-227l-37 121h-231l-37 -121h-223zM304 277h134l-66 218zM433 860q47 0 54 37h97q-7 -38 -24 -61t-38 -35t-43 -16t-39 -4q-24 0 -42 6t-32 12.5t-27 12.5t-28 6q-46 0 -53 -37h-97q7 37 24 60t38 35.5t43 16.5t39 4q24 0 41 -6t30.5 -12.5
t26.5 -12.5t30 -6z" />
    <glyph glyph-name="Adieresis" unicode="&#xc4;" horiz-adv-x="745" 
d="M258 725h229l263 -725h-227l-37 121h-231l-37 -121h-223zM304 277h134l-66 218zM342 886v-113h-169v113h169zM571 886v-113h-169v113h169z" />
    <glyph glyph-name="Aring" unicode="&#xc5;" horiz-adv-x="745" 
d="M258 725h229l263 -725h-227l-37 121h-231l-37 -121h-223zM304 277h134l-66 218zM372 935q38 0 64.5 -24t26.5 -61q0 -38 -26.5 -61.5t-64.5 -23.5t-64 23.5t-26 61.5q0 37 26.5 61t63.5 24zM372 893q-17 0 -30 -12t-13 -31t13 -30.5t30 -11.5t30 11.5t13 30.5t-13 31
t-30 12z" />
    <glyph glyph-name="AE" unicode="&#xc6;" horiz-adv-x="1173" 
d="M565 0v121h-268l-96 -121h-244l608 725h563v-179h-354v-92h335v-180h-335v-94h358v-180h-567zM421 277h144v180z" />
    <glyph glyph-name="Ccedilla" unicode="&#xc7;" horiz-adv-x="768" 
d="M22 365q0 88 25.5 158t73 118.5t115 74.5t152.5 26q70 0 130 -19.5t106.5 -57t77.5 -91t42 -122.5h-206q-11 53 -48.5 84t-94.5 31q-68 0 -111.5 -50.5t-43.5 -151.5q0 -102 43.5 -152.5t111.5 -50.5q57 0 96 32t50 84h205q-11 -69 -42 -123t-78 -91.5t-107.5 -57
t-130.5 -19.5q-85 0 -152.5 26t-115 74.5t-73 118.5t-25.5 159zM285 -133q9 -5 27.5 -9.5t38.5 -4.5t34 6t14 23q0 14 -11 21t-29 7q-8 0 -19 -2t-19 -7l-30 17l51 83h62l-33 -52q13 4 37 4q15 0 31.5 -3.5t30 -11.5t22.5 -21t9 -32q0 -24 -11.5 -40t-31 -26.5t-44.5 -15
t-51 -4.5q-53 0 -95 14z" />
    <glyph glyph-name="Egrave" unicode="&#xc8;" horiz-adv-x="683" 
d="M65 725h574v-179h-365v-92h346v-180h-346v-94h369v-180h-578v725zM126 886h233l104 -113h-178z" />
    <glyph glyph-name="Eacute" unicode="&#xc9;" horiz-adv-x="683" 
d="M65 725h574v-179h-365v-92h346v-180h-346v-94h369v-180h-578v725zM433 773h-178l103 113h234z" />
    <glyph glyph-name="Ecircumflex" unicode="&#xca;" horiz-adv-x="683" 
d="M65 725h574v-179h-365v-92h346v-180h-346v-94h369v-180h-578v725zM606 773h-196l-55 49l-58 -49h-195l140 113h227z" />
    <glyph glyph-name="Edieresis" unicode="&#xcb;" horiz-adv-x="683" 
d="M65 725h574v-179h-365v-92h346v-180h-346v-94h369v-180h-578v725zM324 886v-113h-169v113h169zM553 886v-113h-169v113h169z" />
    <glyph glyph-name="Igrave" unicode="&#xcc;" horiz-adv-x="339" 
d="M274 0h-209v725h209v-725zM-78 886h233l104 -113h-178z" />
    <glyph glyph-name="Iacute" unicode="&#xcd;" horiz-adv-x="339" 
d="M274 0h-209v725h209v-725zM258 773h-178l103 113h234z" />
    <glyph glyph-name="Icircumflex" unicode="&#xce;" horiz-adv-x="339" 
d="M274 0h-209v725h209v-725zM422 773h-196l-55 49l-58 -49h-195l140 113h227z" />
    <glyph glyph-name="Idieresis" unicode="&#xcf;" horiz-adv-x="339" 
d="M274 0h-209v725h209v-725zM140 886v-113h-169v113h169zM369 886v-113h-169v113h169z" />
    <glyph glyph-name="Eth" unicode="&#xd0;" horiz-adv-x="800" 
d="M360 725q87 0 163.5 -18t133 -60t89 -111.5t32.5 -172.5q0 -104 -32.5 -173.5t-89 -111.5t-133 -60t-163.5 -18h-250v280h-83v158h83v287h250zM560 363q0 62 -14.5 100t-41 58.5t-62.5 27.5t-79 7h-44v-118h108v-158h-108v-111h44q43 0 79 7t62.5 28t41 59t14.5 100z" />
    <glyph glyph-name="Ntilde" unicode="&#xd1;" horiz-adv-x="802" 
d="M480 0l-222 462v-462h-193v725h257l223 -461v461h193v-725h-258zM472 860q47 0 54 37h97q-7 -38 -24 -61t-38 -35t-43 -16t-39 -4q-24 0 -42 6t-32 12.5t-27 12.5t-28 6q-46 0 -53 -37h-97q7 37 24 60t38 35.5t43 16.5t39 4q24 0 41 -6t30.5 -12.5t26.5 -12.5t30 -6z" />
    <glyph glyph-name="Ograve" unicode="&#xd2;" horiz-adv-x="804" 
d="M239 364q0 -54 13.5 -92t36.5 -62.5t52 -36t61 -11.5q31 0 60.5 11.5t52.5 36t36.5 62.5t13.5 92t-13.5 92t-36.5 63t-52.5 36.5t-60.5 11.5q-32 0 -61 -11.5t-52 -36.5t-36.5 -63t-13.5 -92zM782 364q0 -90 -28 -160t-78.5 -118t-120.5 -73.5t-153 -25.5t-153 25.5
t-120.5 73.5t-78.5 118t-28 160t28 160t78.5 118.5t120.5 74t153 25.5t153 -25.5t120.5 -74t78.5 -118.5t28 -160zM154 886h233l104 -113h-178z" />
    <glyph glyph-name="Oacute" unicode="&#xd3;" horiz-adv-x="804" 
d="M239 364q0 -54 13.5 -92t36.5 -62.5t52 -36t61 -11.5q31 0 60.5 11.5t52.5 36t36.5 62.5t13.5 92t-13.5 92t-36.5 63t-52.5 36.5t-60.5 11.5q-32 0 -61 -11.5t-52 -36.5t-36.5 -63t-13.5 -92zM782 364q0 -90 -28 -160t-78.5 -118t-120.5 -73.5t-153 -25.5t-153 25.5
t-120.5 73.5t-78.5 118t-28 160t28 160t78.5 118.5t120.5 74t153 25.5t153 -25.5t120.5 -74t78.5 -118.5t28 -160zM491 773h-178l103 113h234z" />
    <glyph glyph-name="Ocircumflex" unicode="&#xd4;" horiz-adv-x="804" 
d="M239 364q0 -54 13.5 -92t36.5 -62.5t52 -36t61 -11.5q31 0 60.5 11.5t52.5 36t36.5 62.5t13.5 92t-13.5 92t-36.5 63t-52.5 36.5t-60.5 11.5q-32 0 -61 -11.5t-52 -36.5t-36.5 -63t-13.5 -92zM782 364q0 -90 -28 -160t-78.5 -118t-120.5 -73.5t-153 -25.5t-153 25.5
t-120.5 73.5t-78.5 118t-28 160t28 160t78.5 118.5t120.5 74t153 25.5t153 -25.5t120.5 -74t78.5 -118.5t28 -160zM654 773h-196l-55 49l-58 -49h-195l140 113h227z" />
    <glyph glyph-name="Otilde" unicode="&#xd5;" horiz-adv-x="804" 
d="M239 364q0 -54 13.5 -92t36.5 -62.5t52 -36t61 -11.5q31 0 60.5 11.5t52.5 36t36.5 62.5t13.5 92t-13.5 92t-36.5 63t-52.5 36.5t-60.5 11.5q-32 0 -61 -11.5t-52 -36.5t-36.5 -63t-13.5 -92zM782 364q0 -90 -28 -160t-78.5 -118t-120.5 -73.5t-153 -25.5t-153 25.5
t-120.5 73.5t-78.5 118t-28 160t28 160t78.5 118.5t120.5 74t153 25.5t153 -25.5t120.5 -74t78.5 -118.5t28 -160zM463 860q47 0 54 37h97q-7 -38 -24 -61t-38 -35t-43 -16t-39 -4q-24 0 -42 6t-32 12.5t-27 12.5t-28 6q-46 0 -53 -37h-97q7 37 24 60t38 35.5t43 16.5t39 4
q24 0 41 -6t30.5 -12.5t26.5 -12.5t30 -6z" />
    <glyph glyph-name="Odieresis" unicode="&#xd6;" horiz-adv-x="804" 
d="M239 364q0 -54 13.5 -92t36.5 -62.5t52 -36t61 -11.5q31 0 60.5 11.5t52.5 36t36.5 62.5t13.5 92t-13.5 92t-36.5 63t-52.5 36.5t-60.5 11.5q-32 0 -61 -11.5t-52 -36.5t-36.5 -63t-13.5 -92zM782 364q0 -90 -28 -160t-78.5 -118t-120.5 -73.5t-153 -25.5t-153 25.5
t-120.5 73.5t-78.5 118t-28 160t28 160t78.5 118.5t120.5 74t153 25.5t153 -25.5t120.5 -74t78.5 -118.5t28 -160zM372 886v-113h-169v113h169zM601 886v-113h-169v113h169z" />
    <glyph glyph-name="multiply" unicode="&#xd7;" horiz-adv-x="678" 
d="M487 19l-147 140l-156 -147l-114 108l155 149l-150 141l116 109l149 -142l154 148l115 -110l-155 -146l148 -140z" />
    <glyph glyph-name="Oslash" unicode="&#xd8;" horiz-adv-x="804" 
d="M782 364q0 -90 -28 -160t-78.5 -118t-120.5 -73.5t-153 -25.5q-129 0 -224 60l-57 -67l-55 47l56 66q-48 48 -74 115.5t-26 155.5q0 90 28 160t78.5 118.5t120.5 74t153 25.5q64 0 120.5 -15.5t102.5 -44.5l45 53l56 -46l-45 -53q48 -48 74.5 -116t26.5 -156zM565 364
q0 65 -22 111l-239 -280q21 -17 46.5 -25t51.5 -8q31 0 60.5 11.5t52.5 36t36.5 62.5t13.5 92zM239 364q0 -34 5.5 -61t15.5 -49l238 280q-42 33 -96 33q-32 0 -61 -11.5t-52 -36.5t-36.5 -63t-13.5 -92z" />
    <glyph glyph-name="Ugrave" unicode="&#xd9;" horiz-adv-x="762" 
d="M263 725v-425q0 -35 6 -60.5t19.5 -43t36 -26t56.5 -8.5q67 0 92.5 37t25.5 101v425h209v-404q0 -85 -17.5 -147.5t-56 -104t-100.5 -62t-151 -20.5q-86 0 -148 17t-102 56t-59.5 101.5t-19.5 152.5v411h209zM153 886h233l104 -113h-178z" />
    <glyph glyph-name="Uacute" unicode="&#xda;" horiz-adv-x="762" 
d="M263 725v-425q0 -35 6 -60.5t19.5 -43t36 -26t56.5 -8.5q67 0 92.5 37t25.5 101v425h209v-404q0 -85 -17.5 -147.5t-56 -104t-100.5 -62t-151 -20.5q-86 0 -148 17t-102 56t-59.5 101.5t-19.5 152.5v411h209zM470 773h-178l103 113h234z" />
    <glyph glyph-name="Ucircumflex" unicode="&#xdb;" horiz-adv-x="762" 
d="M263 725v-425q0 -35 6 -60.5t19.5 -43t36 -26t56.5 -8.5q67 0 92.5 37t25.5 101v425h209v-404q0 -85 -17.5 -147.5t-56 -104t-100.5 -62t-151 -20.5q-86 0 -148 17t-102 56t-59.5 101.5t-19.5 152.5v411h209zM633 773h-196l-55 49l-58 -49h-195l140 113h227z" />
    <glyph glyph-name="Udieresis" unicode="&#xdc;" horiz-adv-x="762" 
d="M263 725v-425q0 -35 6 -60.5t19.5 -43t36 -26t56.5 -8.5q67 0 92.5 37t25.5 101v425h209v-404q0 -85 -17.5 -147.5t-56 -104t-100.5 -62t-151 -20.5q-86 0 -148 17t-102 56t-59.5 101.5t-19.5 152.5v411h209zM351 886v-113h-169v113h169zM580 886v-113h-169v113h169z" />
    <glyph glyph-name="Yacute" unicode="&#xdd;" horiz-adv-x="731" 
d="M229 725l136 -253l138 253h244l-281 -445v-280h-209v282l-273 443h245zM454 773h-178l103 113h234z" />
    <glyph glyph-name="Thorn" unicode="&#xde;" horiz-adv-x="691" 
d="M349 618q71 0 131.5 -10.5t105 -38.5t69.5 -75.5t25 -121.5t-25 -121.5t-69.5 -74.5t-105 -37.5t-131.5 -10.5h-75v-128h-209v725h209v-107h75zM274 438v-130h94q46 0 70.5 13t24.5 51q0 40 -24.5 53t-70.5 13h-94z" />
    <glyph glyph-name="germandbls" unicode="&#xdf;" horiz-adv-x="724" 
d="M59 0v480q0 79 21 125t56 75q42 34 101.5 48t130.5 14q62 0 114.5 -13.5t90.5 -39.5t59 -64.5t21 -87.5q0 -44 -18 -79t-39 -52q42 -21 71.5 -68.5t29.5 -115.5q0 -58 -19 -102t-54 -73.5t-84.5 -44.5t-110.5 -15q-29 0 -64.5 3t-75.5 11l34 156q15 -4 34 -7.5t38 -3.5
t37 4t31.5 13.5t21.5 24.5t8 37q0 45 -33 64t-93 19h-43v153h35q54 0 76.5 17.5t22.5 47.5q0 29 -24 48.5t-69 19.5q-28 0 -50.5 -6.5t-37.5 -23.5q-8 -11 -13 -29.5t-5 -53.5v-481h-200z" />
    <glyph glyph-name="agrave" unicode="&#xe0;" horiz-adv-x="636" 
d="M387 356q0 22 -6.5 36t-17.5 21.5t-25.5 10.5t-30.5 3q-38 0 -62 -17t-29 -52h-172q3 38 22 74t53.5 63.5t84.5 44.5t117 17q58 0 106.5 -12t83 -39.5t54 -73.5t18.5 -113l-1 -103v-53q0 -28 1.5 -57t3.5 -56.5t5 -49.5h-186v70q-30 -45 -78 -64t-105 -19q-39 0 -74 11.5
t-61.5 33t-41.5 51t-15 65.5q0 47 23.5 81t69 57t112 36t151.5 19v15zM394 241q-80 -5 -121 -20.5t-41 -50.5q0 -17 15.5 -33t50.5 -16q19 0 36.5 4.5t31 16.5t21 32t7.5 51v16zM109 725h208l94 -116h-160z" />
    <glyph glyph-name="aacute" unicode="&#xe1;" horiz-adv-x="636" 
d="M387 356q0 22 -6.5 36t-17.5 21.5t-25.5 10.5t-30.5 3q-38 0 -62 -17t-29 -52h-172q3 38 22 74t53.5 63.5t84.5 44.5t117 17q58 0 106.5 -12t83 -39.5t54 -73.5t18.5 -113l-1 -103v-53q0 -28 1.5 -57t3.5 -56.5t5 -49.5h-186v70q-30 -45 -78 -64t-105 -19q-39 0 -74 11.5
t-61.5 33t-41.5 51t-15 65.5q0 47 23.5 81t69 57t112 36t151.5 19v15zM394 241q-80 -5 -121 -20.5t-41 -50.5q0 -17 15.5 -33t50.5 -16q19 0 36.5 4.5t31 16.5t21 32t7.5 51v16zM391 609h-160l95 116h207z" />
    <glyph glyph-name="acircumflex" unicode="&#xe2;" horiz-adv-x="636" 
d="M387 356q0 22 -6.5 36t-17.5 21.5t-25.5 10.5t-30.5 3q-38 0 -62 -17t-29 -52h-172q3 38 22 74t53.5 63.5t84.5 44.5t117 17q58 0 106.5 -12t83 -39.5t54 -73.5t18.5 -113l-1 -103v-53q0 -28 1.5 -57t3.5 -56.5t5 -49.5h-186v70q-30 -45 -78 -64t-105 -19q-39 0 -74 11.5
t-61.5 33t-41.5 51t-15 65.5q0 47 23.5 81t69 57t112 36t151.5 19v15zM394 241q-80 -5 -121 -20.5t-41 -50.5q0 -17 15.5 -33t50.5 -16q19 0 36.5 4.5t31 16.5t21 32t7.5 51v16zM546 609h-162l-61 57l-64 -57h-162l136 116h181z" />
    <glyph glyph-name="atilde" unicode="&#xe3;" horiz-adv-x="636" 
d="M387 356q0 22 -6.5 36t-17.5 21.5t-25.5 10.5t-30.5 3q-38 0 -62 -17t-29 -52h-172q3 38 22 74t53.5 63.5t84.5 44.5t117 17q58 0 106.5 -12t83 -39.5t54 -73.5t18.5 -113l-1 -103v-53q0 -28 1.5 -57t3.5 -56.5t5 -49.5h-186v70q-30 -45 -78 -64t-105 -19q-39 0 -74 11.5
t-61.5 33t-41.5 51t-15 65.5q0 47 23.5 81t69 57t112 36t151.5 19v15zM394 241q-80 -5 -121 -20.5t-41 -50.5q0 -17 15.5 -33t50.5 -16q19 0 36.5 4.5t31 16.5t21 32t7.5 51v16zM381 692q44 0 53 44h97q-11 -63 -46 -95t-89 -32q-26 0 -45 7t-34.5 15t-29 15t-28.5 7
q-43 0 -51 -44h-97q10 60 44 93.5t92 33.5q25 0 43 -7t32.5 -15t28 -15t30.5 -7z" />
    <glyph glyph-name="adieresis" unicode="&#xe4;" horiz-adv-x="636" 
d="M387 356q0 22 -6.5 36t-17.5 21.5t-25.5 10.5t-30.5 3q-38 0 -62 -17t-29 -52h-172q3 38 22 74t53.5 63.5t84.5 44.5t117 17q58 0 106.5 -12t83 -39.5t54 -73.5t18.5 -113l-1 -103v-53q0 -28 1.5 -57t3.5 -56.5t5 -49.5h-186v70q-30 -45 -78 -64t-105 -19q-39 0 -74 11.5
t-61.5 33t-41.5 51t-15 65.5q0 47 23.5 81t69 57t112 36t151.5 19v15zM394 241q-80 -5 -121 -20.5t-41 -50.5q0 -17 15.5 -33t50.5 -16q19 0 36.5 4.5t31 16.5t21 32t7.5 51v16zM110 725h171v-116h-171v116zM532 725v-116h-170v116h170z" />
    <glyph glyph-name="aring" unicode="&#xe5;" horiz-adv-x="636" 
d="M387 356q0 22 -6.5 36t-17.5 21.5t-25.5 10.5t-30.5 3q-38 0 -62 -17t-29 -52h-172q3 38 22 74t53.5 63.5t84.5 44.5t117 17q58 0 106.5 -12t83 -39.5t54 -73.5t18.5 -113l-1 -103v-53q0 -28 1.5 -57t3.5 -56.5t5 -49.5h-186v70q-30 -45 -78 -64t-105 -19q-39 0 -74 11.5
t-61.5 33t-41.5 51t-15 65.5q0 47 23.5 81t69 57t112 36t151.5 19v15zM394 241q-80 -5 -121 -20.5t-41 -50.5q0 -17 15.5 -33t50.5 -16q19 0 36.5 4.5t31 16.5t21 32t7.5 51v16zM312 785q19 0 36 -6.5t30 -18.5t20.5 -28.5t7.5 -35.5q0 -38 -27.5 -63.5t-66.5 -25.5
q-20 0 -37.5 6.5t-30 18.5t-20 28.5t-7.5 35.5q0 39 28 64t67 25zM312 737q-17 0 -29 -11.5t-12 -29.5q0 -17 12 -28.5t29 -11.5t29 11.5t12 28.5q0 18 -12 29.5t-29 11.5z" />
    <glyph glyph-name="ae" unicode="&#xe6;" horiz-adv-x="985" 
d="M682 -13q-81 0 -138 26.5t-92 74.5q-23 -31 -50.5 -50.5t-58 -31t-63 -15.5t-63.5 -4q-38 0 -72.5 10.5t-60 30.5t-40.5 49t-15 66q0 48 25 82t71 57.5t112 38.5t148 25v15q0 38 -24 54t-59 16q-31 0 -54.5 -17.5t-28.5 -49.5h-177q3 35 21.5 69.5t52 62t83.5 44.5
t117 17q60 0 105.5 -14.5t78.5 -47.5q34 29 78.5 44t94.5 15q71 0 126 -27.5t91.5 -73t53.5 -106t12 -126.5h-376q4 -40 31 -63.5t73 -23.5q29 0 51.5 12.5t31.5 34.5h188q-9 -30 -29.5 -64t-53.5 -63t-80 -48t-110 -19zM677 417q-32 0 -59 -18.5t-35 -66.5h186
q-2 24 -10.5 40.5t-21.5 26t-28.5 14t-31.5 4.5zM390 245q-17 -2 -33 -4.5t-34 -6.5q-30 -6 -48 -13.5t-27.5 -15.5t-12.5 -17t-3 -18q0 -17 14.5 -33t46.5 -16q17 0 34 4.5t31 16.5t23 32t9 51v20z" />
    <glyph glyph-name="ccedilla" unicode="&#xe7;" horiz-adv-x="608" 
d="M315 559q59 0 107 -18.5t82.5 -50t56 -72.5t27.5 -86h-184q-2 13 -8 27t-16.5 25.5t-24.5 18.5t-32 7q-27 0 -45 -10.5t-28.5 -29.5t-14.5 -44t-4 -53q0 -29 4.5 -54t15.5 -43.5t28 -29.5t43 -11q19 0 34 7t25.5 18t17 24.5t8.5 26.5h184q-8 -45 -30 -86t-57.5 -71.5
t-83.5 -49t-106 -18.5q-71 0 -124.5 21t-89.5 58.5t-54.5 90.5t-18.5 116q0 64 21 117t58.5 90.5t90.5 58.5t118 21zM210 -133q9 -5 27.5 -9.5t38.5 -4.5t34 6t14 23q0 14 -11 21t-29 7q-8 0 -19 -2t-19 -7l-30 17l51 83h62l-33 -52q13 4 37 4q15 0 31.5 -3.5t30 -11.5
t22.5 -21t9 -32q0 -24 -11.5 -40t-31 -26.5t-44.5 -15t-51 -4.5q-53 0 -95 14z" />
    <glyph glyph-name="egrave" unicode="&#xe8;" horiz-adv-x="634" 
d="M326 -14q-71 0 -127 21.5t-94 60t-58 92t-20 116.5q0 64 22.5 116.5t61.5 89t92 56.5t114 20q71 0 127 -26t94.5 -71.5t57 -106.5t13.5 -131h-388q5 -41 33 -65.5t75 -24.5q29 0 55.5 13t35.5 35h188q-9 -30 -30.5 -64t-56.5 -63t-83.5 -48.5t-111.5 -19.5zM330 421
q-16 0 -32.5 -4.5t-31 -15t-26 -27t-16.5 -40.5h208q-2 24 -12 40.5t-25 27t-32 15t-33 4.5zM96 725h208l94 -116h-160z" />
    <glyph glyph-name="eacute" unicode="&#xe9;" horiz-adv-x="634" 
d="M326 -14q-71 0 -127 21.5t-94 60t-58 92t-20 116.5q0 64 22.5 116.5t61.5 89t92 56.5t114 20q71 0 127 -26t94.5 -71.5t57 -106.5t13.5 -131h-388q5 -41 33 -65.5t75 -24.5q29 0 55.5 13t35.5 35h188q-9 -30 -30.5 -64t-56.5 -63t-83.5 -48.5t-111.5 -19.5zM330 421
q-16 0 -32.5 -4.5t-31 -15t-26 -27t-16.5 -40.5h208q-2 24 -12 40.5t-25 27t-32 15t-33 4.5zM398 609h-160l95 116h207z" />
    <glyph glyph-name="ecircumflex" unicode="&#xea;" horiz-adv-x="634" 
d="M326 -14q-71 0 -127 21.5t-94 60t-58 92t-20 116.5q0 64 22.5 116.5t61.5 89t92 56.5t114 20q71 0 127 -26t94.5 -71.5t57 -106.5t13.5 -131h-388q5 -41 33 -65.5t75 -24.5q29 0 55.5 13t35.5 35h188q-9 -30 -30.5 -64t-56.5 -63t-83.5 -48.5t-111.5 -19.5zM330 421
q-16 0 -32.5 -4.5t-31 -15t-26 -27t-16.5 -40.5h208q-2 24 -12 40.5t-25 27t-32 15t-33 4.5zM543 609h-162l-61 57l-64 -57h-162l136 116h181z" />
    <glyph glyph-name="edieresis" unicode="&#xeb;" horiz-adv-x="634" 
d="M326 -14q-71 0 -127 21.5t-94 60t-58 92t-20 116.5q0 64 22.5 116.5t61.5 89t92 56.5t114 20q71 0 127 -26t94.5 -71.5t57 -106.5t13.5 -131h-388q5 -41 33 -65.5t75 -24.5q29 0 55.5 13t35.5 35h188q-9 -30 -30.5 -64t-56.5 -63t-83.5 -48.5t-111.5 -19.5zM330 421
q-16 0 -32.5 -4.5t-31 -15t-26 -27t-16.5 -40.5h208q-2 24 -12 40.5t-25 27t-32 15t-33 4.5zM107 725h171v-116h-171v116zM529 725v-116h-170v116h170z" />
    <glyph glyph-name="igrave" unicode="&#xec;" horiz-adv-x="318" 
d="M259 538v-538h-200v538h200zM-62 725h208l94 -116h-160z" />
    <glyph glyph-name="iacute" unicode="&#xed;" horiz-adv-x="318" 
d="M259 538v-538h-200v538h200zM239 609h-160l95 116h207z" />
    <glyph glyph-name="icircumflex" unicode="&#xee;" horiz-adv-x="318" 
d="M259 538v-538h-200v538h200zM385 609h-162l-61 57l-64 -57h-162l136 116h181z" />
    <glyph glyph-name="idieresis" unicode="&#xef;" horiz-adv-x="318" 
d="M259 538v-538h-200v538h200zM-51 725h171v-116h-171v116zM371 725v-116h-170v116h170z" />
    <glyph glyph-name="eth" unicode="&#xf0;" horiz-adv-x="636" 
d="M433 750l58 -28l-67 -41q40 -29 73.5 -66t58.5 -83t39 -101.5t14 -119.5q0 -83 -22.5 -143.5t-62 -101t-95 -60t-121.5 -19.5q-64 0 -116.5 19t-89.5 54.5t-57.5 87t-20.5 116.5q0 64 18 116.5t49.5 90t74 58.5t89.5 21q53 0 95.5 -23t67.5 -64l1 1q-12 42 -45 77.5
t-75 64.5l-66 -39l-58 27l73 44q-26 14 -51.5 26t-48.5 22l161 60q17 -8 32.5 -15.5t31.5 -16.5zM428 269q0 61 -27.5 96.5t-69.5 35.5q-43 0 -68 -37.5t-25 -94.5t25 -95t68 -38q42 0 69.5 36t27.5 97z" />
    <glyph glyph-name="ntilde" unicode="&#xf1;" horiz-adv-x="653" 
d="M259 468q27 40 69.5 61t97.5 21q50 0 84.5 -14.5t55.5 -42.5t30 -67.5t9 -88.5v-337h-200v297q0 17 -2 33.5t-8.5 30t-19.5 21.5t-35 8q-37 0 -59 -24.5t-22 -83.5v-282h-200v538h200v-70zM392 692q44 0 53 44h97q-11 -63 -46 -95t-89 -32q-26 0 -45 7t-34.5 15t-29 15
t-28.5 7q-43 0 -51 -44h-97q10 60 44 93.5t92 33.5q25 0 43 -7t32.5 -15t28 -15t30.5 -7z" />
    <glyph glyph-name="ograve" unicode="&#xf2;" horiz-adv-x="640" 
d="M320 405q-38 0 -64 -30t-26 -105q0 -38 7 -63.5t19 -41t28.5 -22.5t35.5 -7t35.5 7t28.5 22.5t19 41t7 63.5q0 75 -26 105t-64 30zM320 -13q-60 0 -114 17.5t-94.5 53t-64 88.5t-23.5 124t23.5 124t64 88.5t94.5 53.5t114 18t113.5 -18t94 -53.5t64.5 -88.5t24 -124
t-24 -124t-64.5 -88.5t-94 -53t-113.5 -17.5zM97 725h208l94 -116h-160z" />
    <glyph glyph-name="oacute" unicode="&#xf3;" horiz-adv-x="640" 
d="M320 405q-38 0 -64 -30t-26 -105q0 -38 7 -63.5t19 -41t28.5 -22.5t35.5 -7t35.5 7t28.5 22.5t19 41t7 63.5q0 75 -26 105t-64 30zM320 -13q-60 0 -114 17.5t-94.5 53t-64 88.5t-23.5 124t23.5 124t64 88.5t94.5 53.5t114 18t113.5 -18t94 -53.5t64.5 -88.5t24 -124
t-24 -124t-64.5 -88.5t-94 -53t-113.5 -17.5zM399 609h-160l95 116h207z" />
    <glyph glyph-name="ocircumflex" unicode="&#xf4;" horiz-adv-x="640" 
d="M320 405q-38 0 -64 -30t-26 -105q0 -38 7 -63.5t19 -41t28.5 -22.5t35.5 -7t35.5 7t28.5 22.5t19 41t7 63.5q0 75 -26 105t-64 30zM320 -13q-60 0 -114 17.5t-94.5 53t-64 88.5t-23.5 124t23.5 124t64 88.5t94.5 53.5t114 18t113.5 -18t94 -53.5t64.5 -88.5t24 -124
t-24 -124t-64.5 -88.5t-94 -53t-113.5 -17.5zM544 609h-162l-61 57l-64 -57h-162l136 116h181z" />
    <glyph glyph-name="otilde" unicode="&#xf5;" horiz-adv-x="640" 
d="M320 405q-38 0 -64 -30t-26 -105q0 -38 7 -63.5t19 -41t28.5 -22.5t35.5 -7t35.5 7t28.5 22.5t19 41t7 63.5q0 75 -26 105t-64 30zM320 -13q-60 0 -114 17.5t-94.5 53t-64 88.5t-23.5 124t23.5 124t64 88.5t94.5 53.5t114 18t113.5 -18t94 -53.5t64.5 -88.5t24 -124
t-24 -124t-64.5 -88.5t-94 -53t-113.5 -17.5zM379 692q44 0 53 44h97q-11 -63 -46 -95t-89 -32q-26 0 -45 7t-34.5 15t-29 15t-28.5 7q-43 0 -51 -44h-97q10 60 44 93.5t92 33.5q25 0 43 -7t32.5 -15t28 -15t30.5 -7z" />
    <glyph glyph-name="odieresis" unicode="&#xf6;" horiz-adv-x="640" 
d="M320 405q-38 0 -64 -30t-26 -105q0 -38 7 -63.5t19 -41t28.5 -22.5t35.5 -7t35.5 7t28.5 22.5t19 41t7 63.5q0 75 -26 105t-64 30zM320 -13q-60 0 -114 17.5t-94.5 53t-64 88.5t-23.5 124t23.5 124t64 88.5t94.5 53.5t114 18t113.5 -18t94 -53.5t64.5 -88.5t24 -124
t-24 -124t-64.5 -88.5t-94 -53t-113.5 -17.5zM108 725h171v-116h-171v116zM530 725v-116h-170v116h170z" />
    <glyph glyph-name="divide" unicode="&#xf7;" horiz-adv-x="678" 
d="M231 145h217v-145h-217v145zM231 538h217v-145h-217v145zM46 182v174h587v-174h-587z" />
    <glyph glyph-name="oslash" unicode="&#xf8;" horiz-adv-x="640" 
d="M320 -13q-47 0 -90 10.5t-79 31.5l-57 -65l-49 45l53 61q-35 35 -54.5 84.5t-19.5 115.5q0 71 23.5 124t64 88.5t94.5 53.5t114 18q45 0 86.5 -10t76.5 -30l40 46l51 -43l-37 -43q37 -35 58 -86t21 -118q0 -71 -24 -124t-64.5 -88.5t-94 -53t-113.5 -17.5zM410 270
q0 28 -5 53l-143 -165q12 -12 26.5 -17t31.5 -5q19 0 35.5 7t28.5 22.5t19 41t7 63.5zM320 405q-38 0 -64 -30t-26 -105q0 -26 3 -45l140 162q-21 18 -53 18z" />
    <glyph glyph-name="ugrave" unicode="&#xf9;" horiz-adv-x="645" 
d="M385 73q-23 -38 -60.5 -62t-94.5 -24q-45 0 -81.5 12.5t-59.5 40.5q-20 24 -30.5 64t-10.5 107v327h200v-287q0 -32 4 -49.5t11 -27.5q16 -21 50 -21t53 24.5t19 84.5v276h200v-538h-200v73zM94 725h208l94 -116h-160z" />
    <glyph glyph-name="uacute" unicode="&#xfa;" horiz-adv-x="645" 
d="M385 73q-23 -38 -60.5 -62t-94.5 -24q-45 0 -81.5 12.5t-59.5 40.5q-20 24 -30.5 64t-10.5 107v327h200v-287q0 -32 4 -49.5t11 -27.5q16 -21 50 -21t53 24.5t19 84.5v276h200v-538h-200v73zM396 609h-160l95 116h207z" />
    <glyph glyph-name="ucircumflex" unicode="&#xfb;" horiz-adv-x="645" 
d="M385 73q-23 -38 -60.5 -62t-94.5 -24q-45 0 -81.5 12.5t-59.5 40.5q-20 24 -30.5 64t-10.5 107v327h200v-287q0 -32 4 -49.5t11 -27.5q16 -21 50 -21t53 24.5t19 84.5v276h200v-538h-200v73zM541 609h-162l-61 57l-64 -57h-162l136 116h181z" />
    <glyph glyph-name="udieresis" unicode="&#xfc;" horiz-adv-x="645" 
d="M385 73q-23 -38 -60.5 -62t-94.5 -24q-45 0 -81.5 12.5t-59.5 40.5q-20 24 -30.5 64t-10.5 107v327h200v-287q0 -32 4 -49.5t11 -27.5q16 -21 50 -21t53 24.5t19 84.5v276h200v-538h-200v73zM105 725h171v-116h-171v116zM527 725v-116h-170v116h170z" />
    <glyph glyph-name="yacute" unicode="&#xfd;" horiz-adv-x="595" 
d="M58 -175v134h61q31 0 47 5t23 26l3 7l-192 541h199l101 -344l100 344h195l-183 -523q-22 -62 -50.5 -99.5t-63.5 -57.5t-77 -26.5t-91 -6.5h-72zM377 609h-160l95 116h207z" />
    <glyph glyph-name="thorn" unicode="&#xfe;" horiz-adv-x="680" 
d="M259 463q18 35 59 61t101 26q45 0 87 -18t74.5 -53t52.5 -87.5t20 -122.5t-20 -122.5t-52.5 -88t-74.5 -53.5t-87 -18q-60 0 -101 26t-59 61v-249h-200v900h200v-262zM253 269q0 -61 27 -97t69 -36q43 0 68.5 38t25.5 95t-25.5 94t-68.5 37q-42 0 -69 -35t-27 -96z" />
    <glyph glyph-name="ydieresis" unicode="&#xff;" horiz-adv-x="595" 
d="M58 -175v134h61q31 0 47 5t23 26l3 7l-192 541h199l101 -344l100 344h195l-183 -523q-22 -62 -50.5 -99.5t-63.5 -57.5t-77 -26.5t-91 -6.5h-72zM86 725h171v-116h-171v116zM508 725v-116h-170v116h170z" />
    <glyph glyph-name="Abreve" unicode="&#x102;" horiz-adv-x="745" 
d="M258 725h229l263 -725h-227l-37 121h-231l-37 -121h-223zM304 277h134l-66 218zM563 886q-6 -62 -52 -90t-140 -28q-91 0 -138 28t-52 90h129q6 -36 61 -36q57 0 63 36h129z" />
    <glyph glyph-name="Amacron" unicode="&#x100;" horiz-adv-x="745" 
d="M258 725h229l263 -725h-227l-37 121h-231l-37 -121h-223zM304 277h134l-66 218zM194 783v95h356v-95h-356z" />
    <glyph glyph-name="Aogonek" unicode="&#x104;" horiz-adv-x="745" 
d="M258 725h229l263 -725q-38 -17 -60.5 -30t-22.5 -36q0 -17 14.5 -24t34.5 -7q10 0 17.5 2t16.5 5v-87q-16 -4 -43.5 -7.5t-57.5 -3.5q-31 0 -61.5 5.5t-55 17.5t-39.5 30.5t-15 45.5q0 35 14 55.5t31 33.5l-37 121h-231l-37 -121h-223zM304 277h134l-66 218z" />
    <glyph glyph-name="Cacute" unicode="&#x106;" horiz-adv-x="768" 
d="M22 365q0 88 25.5 158t73 118.5t115 74.5t152.5 26q70 0 130 -19.5t106.5 -57t77.5 -91t42 -122.5h-206q-11 53 -48.5 84t-94.5 31q-68 0 -111.5 -50.5t-43.5 -151.5q0 -102 43.5 -152.5t111.5 -50.5q57 0 96 32t50 84h205q-11 -69 -42 -123t-78 -91.5t-107.5 -57
t-130.5 -19.5q-85 0 -152.5 26t-115 74.5t-73 118.5t-25.5 159zM473 773h-178l103 113h234z" />
    <glyph glyph-name="Ccaron" unicode="&#x10c;" horiz-adv-x="768" 
d="M22 365q0 88 25.5 158t73 118.5t115 74.5t152.5 26q70 0 130 -19.5t106.5 -57t77.5 -91t42 -122.5h-206q-11 53 -48.5 84t-94.5 31q-68 0 -111.5 -50.5t-43.5 -151.5q0 -102 43.5 -152.5t111.5 -50.5q57 0 96 32t50 84h205q-11 -69 -42 -123t-78 -91.5t-107.5 -57
t-130.5 -19.5q-85 0 -152.5 26t-115 74.5t-73 118.5t-25.5 159zM132 886h196l55 -50l58 50h195l-140 -113h-227z" />
    <glyph glyph-name="Ccircumflex" unicode="&#x108;" horiz-adv-x="768" 
d="M22 365q0 88 25.5 158t73 118.5t115 74.5t152.5 26q70 0 130 -19.5t106.5 -57t77.5 -91t42 -122.5h-206q-11 53 -48.5 84t-94.5 31q-68 0 -111.5 -50.5t-43.5 -151.5q0 -102 43.5 -152.5t111.5 -50.5q57 0 96 32t50 84h205q-11 -69 -42 -123t-78 -91.5t-107.5 -57
t-130.5 -19.5q-85 0 -152.5 26t-115 74.5t-73 118.5t-25.5 159zM636 773h-196l-55 49l-58 -49h-195l140 113h227z" />
    <glyph glyph-name="Cdotaccent" unicode="&#x10a;" horiz-adv-x="768" 
d="M22 365q0 88 25.5 158t73 118.5t115 74.5t152.5 26q70 0 130 -19.5t106.5 -57t77.5 -91t42 -122.5h-206q-11 53 -48.5 84t-94.5 31q-68 0 -111.5 -50.5t-43.5 -151.5q0 -102 43.5 -152.5t111.5 -50.5q57 0 96 32t50 84h205q-11 -69 -42 -123t-78 -91.5t-107.5 -57
t-130.5 -19.5q-85 0 -152.5 26t-115 74.5t-73 118.5t-25.5 159zM470 886v-113h-171v113h171z" />
    <glyph glyph-name="Dcaron" unicode="&#x10e;" horiz-adv-x="754" 
d="M515 363q0 62 -14.5 100t-41 58.5t-62.5 27.5t-79 7h-44v-387h44q43 0 79 7t62.5 28t41 59t14.5 100zM315 725q87 0 163.5 -18t133 -60t89 -111.5t32.5 -172.5q0 -104 -32.5 -173.5t-89 -111.5t-133 -60t-163.5 -18h-250v725h250zM127 886h196l55 -50l58 50h195
l-140 -113h-227z" />
    <glyph glyph-name="Dcroat" unicode="&#x110;" horiz-adv-x="800" 
d="M360 725q87 0 163.5 -18t133 -60t89 -111.5t32.5 -172.5q0 -104 -32.5 -173.5t-89 -111.5t-133 -60t-163.5 -18h-250v280h-83v158h83v287h250zM560 363q0 62 -14.5 100t-41 58.5t-62.5 27.5t-79 7h-44v-118h108v-158h-108v-111h44q43 0 79 7t62.5 28t41 59t14.5 100z" />
    <glyph glyph-name="Ebreve" unicode="&#x114;" horiz-adv-x="683" 
d="M65 725h574v-179h-365v-92h346v-180h-346v-94h369v-180h-578v725zM555 886q-6 -62 -52 -90t-140 -28q-91 0 -138 28t-52 90h129q6 -36 61 -36q57 0 63 36h129z" />
    <glyph glyph-name="Ecaron" unicode="&#x11a;" horiz-adv-x="683" 
d="M65 725h574v-179h-365v-92h346v-180h-346v-94h369v-180h-578v725zM102 886h196l55 -50l58 50h195l-140 -113h-227z" />
    <glyph glyph-name="Emacron" unicode="&#x112;" horiz-adv-x="683" 
d="M65 725h574v-179h-365v-92h346v-180h-346v-94h369v-180h-578v725zM176 783v95h356v-95h-356z" />
    <glyph glyph-name="Eogonek" unicode="&#x118;" horiz-adv-x="683" 
d="M643 0q-38 -16 -63 -30t-25 -37q0 -17 12.5 -23.5t32.5 -6.5q13 0 23.5 2t19.5 4v-87q-16 -3 -36.5 -6.5t-50.5 -3.5t-64 4t-62 14.5t-46.5 29t-18.5 47.5q0 30 19 53t50 40h209zM65 725h574v-179h-365v-92h346v-180h-346v-94h369v-180h-578v725z" />
    <glyph glyph-name="Edotaccent" unicode="&#x116;" horiz-adv-x="683" 
d="M65 725h574v-179h-365v-92h346v-180h-346v-94h369v-180h-578v725zM440 886v-113h-171v113h171z" />
    <glyph glyph-name="Gbreve" unicode="&#x11e;" horiz-adv-x="794" 
d="M395 567q-72 0 -113.5 -53t-41.5 -147q0 -46 10 -83.5t29.5 -64.5t49 -42t69.5 -15q34 0 59.5 9t42 23t24.5 30t8 31v1h-157v158h360v-414h-163l-1 77q-33 -47 -87.5 -68.5t-121.5 -21.5q-78 0 -141 27t-107 76.5t-68 119.5t-24 157q0 86 25.5 155.5t73.5 118t116.5 75
t154.5 26.5q61 0 115.5 -14.5t99 -44.5t77 -77t47.5 -112h-205q-10 31 -41.5 52t-89.5 21zM569 886q-6 -62 -52 -90t-140 -28q-91 0 -138 28t-52 90h129q6 -36 61 -36q57 0 63 36h129z" />
    <glyph glyph-name="Gcircumflex" unicode="&#x11c;" horiz-adv-x="794" 
d="M395 567q-72 0 -113.5 -53t-41.5 -147q0 -46 10 -83.5t29.5 -64.5t49 -42t69.5 -15q34 0 59.5 9t42 23t24.5 30t8 31v1h-157v158h360v-414h-163l-1 77q-33 -47 -87.5 -68.5t-121.5 -21.5q-78 0 -141 27t-107 76.5t-68 119.5t-24 157q0 86 25.5 155.5t73.5 118t116.5 75
t154.5 26.5q61 0 115.5 -14.5t99 -44.5t77 -77t47.5 -112h-205q-10 31 -41.5 52t-89.5 21zM630 773h-196l-55 49l-58 -49h-195l140 113h227z" />
    <glyph glyph-name="uni0122" unicode="&#x122;" horiz-adv-x="794" 
d="M395 567q-72 0 -113.5 -53t-41.5 -147q0 -46 10 -83.5t29.5 -64.5t49 -42t69.5 -15q34 0 59.5 9t42 23t24.5 30t8 31v1h-157v158h360v-414h-163l-1 77q-33 -47 -87.5 -68.5t-121.5 -21.5q-78 0 -141 27t-107 76.5t-68 119.5t-24 157q0 86 25.5 155.5t73.5 118t116.5 75
t154.5 26.5q61 0 115.5 -14.5t99 -44.5t77 -77t47.5 -112h-205q-10 31 -41.5 52t-89.5 21zM305 -36h149v-106l-55 -89h-97l39 95h-36v100z" />
    <glyph glyph-name="Gdotaccent" unicode="&#x120;" horiz-adv-x="794" 
d="M395 567q-72 0 -113.5 -53t-41.5 -147q0 -46 10 -83.5t29.5 -64.5t49 -42t69.5 -15q34 0 59.5 9t42 23t24.5 30t8 31v1h-157v158h360v-414h-163l-1 77q-33 -47 -87.5 -68.5t-121.5 -21.5q-78 0 -141 27t-107 76.5t-68 119.5t-24 157q0 86 25.5 155.5t73.5 118t116.5 75
t154.5 26.5q61 0 115.5 -14.5t99 -44.5t77 -77t47.5 -112h-205q-10 31 -41.5 52t-89.5 21zM464 886v-113h-171v113h171z" />
    <glyph glyph-name="Hbar" unicode="&#x126;" horiz-adv-x="797" 
d="M732 725v-85h54v-116h-54v-524h-209v274h-249v-274h-209v524h-55v116h55v85h209v-85h249v85h209zM523 454v70h-249v-70h249z" />
    <glyph glyph-name="Hcircumflex" unicode="&#x124;" horiz-adv-x="796" 
d="M732 725v-725h-209v274h-249v-274h-209v725h209v-271h249v271h209zM650 773h-196l-55 49l-58 -49h-195l140 113h227z" />
    <glyph glyph-name="Ibreve" unicode="&#x12c;" horiz-adv-x="339" 
d="M274 0h-209v725h209v-725zM361 886q-6 -62 -52 -90t-140 -28q-91 0 -138 28t-52 90h129q6 -36 61 -36q57 0 63 36h129z" />
    <glyph glyph-name="Idotaccent" unicode="&#x130;" horiz-adv-x="339" 
d="M274 0h-209v725h209v-725zM255 886v-113h-171v113h171z" />
    <glyph glyph-name="Imacron" unicode="&#x12a;" horiz-adv-x="339" 
d="M274 0h-209v725h209v-725zM-8 783v95h356v-95h-356z" />
    <glyph glyph-name="Iogonek" unicode="&#x12e;" horiz-adv-x="339" 
d="M275 0q-38 -16 -63 -30t-25 -37q0 -17 12.5 -23.5t32.5 -6.5q13 0 23.5 2t19.5 4v-87q-16 -3 -36.5 -6.5t-50.5 -3.5t-64 4t-62 14.5t-46.5 29t-18.5 47.5q0 30 19 53t50 40h209zM274 0h-209v725h209v-725z" />
    <glyph glyph-name="Itilde" unicode="&#x128;" horiz-adv-x="339" 
d="M274 0h-209v725h209v-725zM231 860q47 0 54 37h97q-7 -38 -24 -61t-38 -35t-43 -16t-39 -4q-24 0 -42 6t-32 12.5t-27 12.5t-28 6q-46 0 -53 -37h-97q7 37 24 60t38 35.5t43 16.5t39 4q24 0 41 -6t30.5 -12.5t26.5 -12.5t30 -6z" />
    <glyph glyph-name="uni1ECA" unicode="&#x1eca;" horiz-adv-x="339" 
d="M274 0h-209v725h209v-725zM252 -175h-166v119h166v-119z" />
    <glyph glyph-name="Jcircumflex" unicode="&#x134;" horiz-adv-x="682" 
d="M618 272q0 -77 -21 -131t-60.5 -88.5t-96 -50t-126.5 -15.5t-126 18.5t-95 54.5t-60.5 90.5t-21.5 126.5h209q2 -79 23 -110.5t71 -31.5t72.5 29.5t22.5 107.5v453h209v-453zM766 773h-196l-55 49l-58 -49h-195l140 113h227z" />
    <glyph glyph-name="uni0136" unicode="&#x136;" horiz-adv-x="736" 
d="M274 467l208 258h253l-251 -292l262 -433h-246l-156 269l-70 -82v-187h-209v725h209v-258zM332 -36h149v-106l-55 -89h-97l39 95h-36v100z" />
    <glyph glyph-name="Lacute" unicode="&#x139;" horiz-adv-x="611" 
d="M274 180h338v-180h-547v725h209v-545zM247 773h-178l103 113h234z" />
    <glyph glyph-name="Lcaron" unicode="&#x13d;" horiz-adv-x="611" 
d="M274 180h338v-180h-547v725h209v-545zM465 555h-134l20 170h173z" />
    <glyph glyph-name="uni013B" unicode="&#x13b;" horiz-adv-x="611" 
d="M274 180h338v-180h-547v725h209v-545zM265 -36h149v-106l-55 -89h-97l39 95h-36v100z" />
    <glyph glyph-name="Ldot" unicode="&#x13f;" horiz-adv-x="611" 
d="M274 180h338v-180h-547v725h209v-545zM560 510v-113h-171v113h171z" />
    <glyph glyph-name="Lslash" unicode="&#x141;" horiz-adv-x="649" 
d="M311 546l120 74v-180l-120 -74v-186h338v-180h-547v238l-91 -56v180l91 56v307h209v-179z" />
    <glyph glyph-name="Eng" unicode="&#x14a;" horiz-adv-x="797" 
d="M274 451v-451h-209v725h272l187 -330v330h209v-716q0 -63 -10.5 -99.5t-35 -55.5t-65.5 -24t-101 -5h-91v151h35q28 0 43.5 7.5t15.5 26.5v8z" />
    <glyph glyph-name="Nacute" unicode="&#x143;" horiz-adv-x="802" 
d="M480 0l-222 462v-462h-193v725h257l223 -461v461h193v-725h-258zM490 773h-178l103 113h234z" />
    <glyph glyph-name="Ncaron" unicode="&#x147;" horiz-adv-x="802" 
d="M480 0l-222 462v-462h-193v725h257l223 -461v461h193v-725h-258zM149 886h196l55 -50l58 50h195l-140 -113h-227z" />
    <glyph glyph-name="uni0145" unicode="&#x145;" horiz-adv-x="802" 
d="M480 0l-222 462v-462h-193v725h257l223 -461v461h193v-725h-258zM328 -36h149v-106l-55 -89h-97l39 95h-36v100z" />
    <glyph glyph-name="OE" unicode="&#x152;" horiz-adv-x="1155" 
d="M579 53q-36 -31 -82.5 -48.5t-105.5 -17.5q-83 0 -151 25.5t-116.5 74.5t-75 119t-26.5 160t26.5 160t75 118t116.5 73t151 25q59 0 105.5 -17t82.5 -46v46h531v-179h-365v-92h347v-180h-347v-94h369v-180h-535v53zM564 366q0 54 -13.5 92t-36 62t-52 35.5t-60.5 11.5
q-32 0 -61 -11.5t-52 -35.5t-36.5 -62t-13.5 -92t13.5 -92.5t36.5 -63t52 -36.5t61 -12q31 0 60.5 12t52 36.5t36 63t13.5 92.5z" />
    <glyph glyph-name="Obreve" unicode="&#x14e;" horiz-adv-x="804" 
d="M239 364q0 -54 13.5 -92t36.5 -62.5t52 -36t61 -11.5q31 0 60.5 11.5t52.5 36t36.5 62.5t13.5 92t-13.5 92t-36.5 63t-52.5 36.5t-60.5 11.5q-32 0 -61 -11.5t-52 -36.5t-36.5 -63t-13.5 -92zM782 364q0 -90 -28 -160t-78.5 -118t-120.5 -73.5t-153 -25.5t-153 25.5
t-120.5 73.5t-78.5 118t-28 160t28 160t78.5 118.5t120.5 74t153 25.5t153 -25.5t120.5 -74t78.5 -118.5t28 -160zM593 886q-6 -62 -52 -90t-140 -28q-91 0 -138 28t-52 90h129q6 -36 61 -36q57 0 63 36h129z" />
    <glyph glyph-name="Ohungarumlaut" unicode="&#x150;" horiz-adv-x="804" 
d="M239 364q0 -54 13.5 -92t36.5 -62.5t52 -36t61 -11.5q31 0 60.5 11.5t52.5 36t36.5 62.5t13.5 92t-13.5 92t-36.5 63t-52.5 36.5t-60.5 11.5q-32 0 -61 -11.5t-52 -36.5t-36.5 -63t-13.5 -92zM782 364q0 -90 -28 -160t-78.5 -118t-120.5 -73.5t-153 -25.5t-153 25.5
t-120.5 73.5t-78.5 118t-28 160t28 160t78.5 118.5t120.5 74t153 25.5t153 -25.5t120.5 -74t78.5 -118.5t28 -160zM362 773h-178l103 113h234zM621 773h-178l104 113h233z" />
    <glyph glyph-name="Omacron" unicode="&#x14c;" horiz-adv-x="804" 
d="M239 364q0 -54 13.5 -92t36.5 -62.5t52 -36t61 -11.5q31 0 60.5 11.5t52.5 36t36.5 62.5t13.5 92t-13.5 92t-36.5 63t-52.5 36.5t-60.5 11.5q-32 0 -61 -11.5t-52 -36.5t-36.5 -63t-13.5 -92zM782 364q0 -90 -28 -160t-78.5 -118t-120.5 -73.5t-153 -25.5t-153 25.5
t-120.5 73.5t-78.5 118t-28 160t28 160t78.5 118.5t120.5 74t153 25.5t153 -25.5t120.5 -74t78.5 -118.5t28 -160zM224 783v95h356v-95h-356z" />
    <glyph glyph-name="uni1ECC" unicode="&#x1ecc;" horiz-adv-x="804" 
d="M239 364q0 -54 13.5 -92t36.5 -62.5t52 -36t61 -11.5q31 0 60.5 11.5t52.5 36t36.5 62.5t13.5 92t-13.5 92t-36.5 63t-52.5 36.5t-60.5 11.5q-32 0 -61 -11.5t-52 -36.5t-36.5 -63t-13.5 -92zM782 364q0 -90 -28 -160t-78.5 -118t-120.5 -73.5t-153 -25.5t-153 25.5
t-120.5 73.5t-78.5 118t-28 160t28 160t78.5 118.5t120.5 74t153 25.5t153 -25.5t120.5 -74t78.5 -118.5t28 -160zM485 -175h-166v119h166v-119z" />
    <glyph glyph-name="Racute" unicode="&#x154;" horiz-adv-x="750" 
d="M360 255h-86v-255h-209v725h300q71 0 132 -10t105.5 -36.5t69.5 -71.5t25 -115q0 -78 -36 -126t-93 -74l172 -292h-235zM274 556v-143h115q46 0 68 20t22 51t-22 51.5t-68 20.5h-115zM441 773h-178l103 113h234z" />
    <glyph glyph-name="Rcaron" unicode="&#x158;" horiz-adv-x="750" 
d="M360 255h-86v-255h-209v725h300q71 0 132 -10t105.5 -36.5t69.5 -71.5t25 -115q0 -78 -36 -126t-93 -74l172 -292h-235zM274 556v-143h115q46 0 68 20t22 51t-22 51.5t-68 20.5h-115zM130 886h196l55 -50l58 50h195l-140 -113h-227z" />
    <glyph glyph-name="uni0156" unicode="&#x156;" horiz-adv-x="750" 
d="M360 255h-86v-255h-209v725h300q71 0 132 -10t105.5 -36.5t69.5 -71.5t25 -115q0 -78 -36 -126t-93 -74l172 -292h-235zM274 556v-143h115q46 0 68 20t22 51t-22 51.5t-68 20.5h-115zM309 -36h149v-106l-55 -89h-97l39 95h-36v100z" />
    <glyph glyph-name="Sacute" unicode="&#x15a;" horiz-adv-x="706" 
d="M46 511q0 59 26.5 102.5t70 72t99 42.5t113.5 14q97 0 173 -21t145 -59l-88 -173q-20 12 -47 24t-58.5 21.5t-65 15.5t-66.5 6q-42 0 -65 -10t-23 -31q0 -32 60 -45l107 -22q51 -11 96.5 -26t80 -39t54.5 -60t20 -90q0 -62 -25 -108t-67.5 -76.5t-100.5 -46t-124 -15.5
q-115 0 -201 29.5t-147 74.5l103 169q23 -17 52 -32.5t61.5 -27t68 -18.5t70.5 -7q44 0 69.5 9t25.5 32t-28.5 36.5t-79.5 24.5l-82 17q-43 9 -83.5 24.5t-72.5 41t-51.5 62.5t-19.5 89zM434 773h-178l103 113h234z" />
    <glyph glyph-name="Scaron" unicode="&#x160;" horiz-adv-x="706" 
d="M46 511q0 59 26.5 102.5t70 72t99 42.5t113.5 14q97 0 173 -21t145 -59l-88 -173q-20 12 -47 24t-58.5 21.5t-65 15.5t-66.5 6q-42 0 -65 -10t-23 -31q0 -32 60 -45l107 -22q51 -11 96.5 -26t80 -39t54.5 -60t20 -90q0 -62 -25 -108t-67.5 -76.5t-100.5 -46t-124 -15.5
q-115 0 -201 29.5t-147 74.5l103 169q23 -17 52 -32.5t61.5 -27t68 -18.5t70.5 -7q44 0 69.5 9t25.5 32t-28.5 36.5t-79.5 24.5l-82 17q-43 9 -83.5 24.5t-72.5 41t-51.5 62.5t-19.5 89zM113 886h196l55 -50l58 50h195l-140 -113h-227z" />
    <glyph glyph-name="Scedilla" unicode="&#x15e;" horiz-adv-x="706" 
d="M46 511q0 59 26.5 102.5t70 72t99 42.5t113.5 14q97 0 173 -21t145 -59l-88 -173q-20 12 -47 24t-58.5 21.5t-65 15.5t-66.5 6q-42 0 -65 -10t-23 -31q0 -32 60 -45l107 -22q51 -11 96.5 -26t80 -39t54.5 -60t20 -90q0 -62 -25 -108t-67.5 -76.5t-100.5 -46t-124 -15.5
q-115 0 -201 29.5t-147 74.5l103 169q23 -17 52 -32.5t61.5 -27t68 -18.5t70.5 -7q44 0 69.5 9t25.5 32t-28.5 36.5t-79.5 24.5l-82 17q-43 9 -83.5 24.5t-72.5 41t-51.5 62.5t-19.5 89zM246 -133q9 -5 27.5 -9.5t38.5 -4.5t34 6t14 23q0 14 -11 21t-29 7q-8 0 -19 -2
t-19 -7l-30 17l51 83h62l-33 -52q13 4 37 4q15 0 31.5 -3.5t30 -11.5t22.5 -21t9 -32q0 -24 -11.5 -40t-31 -26.5t-44.5 -15t-51 -4.5q-53 0 -95 14z" />
    <glyph glyph-name="Scircumflex" unicode="&#x15c;" horiz-adv-x="706" 
d="M46 511q0 59 26.5 102.5t70 72t99 42.5t113.5 14q97 0 173 -21t145 -59l-88 -173q-20 12 -47 24t-58.5 21.5t-65 15.5t-66.5 6q-42 0 -65 -10t-23 -31q0 -32 60 -45l107 -22q51 -11 96.5 -26t80 -39t54.5 -60t20 -90q0 -62 -25 -108t-67.5 -76.5t-100.5 -46t-124 -15.5
q-115 0 -201 29.5t-147 74.5l103 169q23 -17 52 -32.5t61.5 -27t68 -18.5t70.5 -7q44 0 69.5 9t25.5 32t-28.5 36.5t-79.5 24.5l-82 17q-43 9 -83.5 24.5t-72.5 41t-51.5 62.5t-19.5 89zM617 773h-196l-55 49l-58 -49h-195l140 113h227z" />
    <glyph glyph-name="uni0218" unicode="&#x218;" horiz-adv-x="706" 
d="M46 511q0 59 26.5 102.5t70 72t99 42.5t113.5 14q97 0 173 -21t145 -59l-88 -173q-20 12 -47 24t-58.5 21.5t-65 15.5t-66.5 6q-42 0 -65 -10t-23 -31q0 -32 60 -45l107 -22q51 -11 96.5 -26t80 -39t54.5 -60t20 -90q0 -62 -25 -108t-67.5 -76.5t-100.5 -46t-124 -15.5
q-115 0 -201 29.5t-147 74.5l103 169q23 -17 52 -32.5t61.5 -27t68 -18.5t70.5 -7q44 0 69.5 9t25.5 32t-28.5 36.5t-79.5 24.5l-82 17q-43 9 -83.5 24.5t-72.5 41t-51.5 62.5t-19.5 89zM272 -36h149v-106l-55 -89h-97l39 95h-36v100z" />
    <glyph glyph-name="Tbar" unicode="&#x166;" horiz-adv-x="653" 
d="M221 280h-107v147h107v119h-216v179h642v-179h-217v-119h108v-147h-108v-280h-209v280z" />
    <glyph glyph-name="Tcaron" unicode="&#x164;" horiz-adv-x="653" 
d="M221 546h-216v179h642v-179h-217v-546h-209v546zM74 886h196l55 -50l58 50h195l-140 -113h-227z" />
    <glyph glyph-name="uni0162" unicode="&#x162;" horiz-adv-x="653" 
d="M221 546h-216v179h642v-179h-217v-546h-209v546zM253 -36h149v-106l-55 -89h-97l39 95h-36v100z" />
    <glyph glyph-name="uni021A" unicode="&#x21a;" horiz-adv-x="653" 
d="M221 546h-216v179h642v-179h-217v-546h-209v546zM253 -36h149v-106l-55 -89h-97l39 95h-36v100z" />
    <glyph glyph-name="Ubreve" unicode="&#x16c;" horiz-adv-x="762" 
d="M263 725v-425q0 -35 6 -60.5t19.5 -43t36 -26t56.5 -8.5q67 0 92.5 37t25.5 101v425h209v-404q0 -85 -17.5 -147.5t-56 -104t-100.5 -62t-151 -20.5q-86 0 -148 17t-102 56t-59.5 101.5t-19.5 152.5v411h209zM572 886q-6 -62 -52 -90t-140 -28q-91 0 -138 28t-52 90h129
q6 -36 61 -36q57 0 63 36h129z" />
    <glyph glyph-name="Uhungarumlaut" unicode="&#x170;" horiz-adv-x="762" 
d="M263 725v-425q0 -35 6 -60.5t19.5 -43t36 -26t56.5 -8.5q67 0 92.5 37t25.5 101v425h209v-404q0 -85 -17.5 -147.5t-56 -104t-100.5 -62t-151 -20.5q-86 0 -148 17t-102 56t-59.5 101.5t-19.5 152.5v411h209zM341 773h-178l103 113h234zM600 773h-178l104 113h233z" />
    <glyph glyph-name="Umacron" unicode="&#x16a;" horiz-adv-x="762" 
d="M263 725v-425q0 -35 6 -60.5t19.5 -43t36 -26t56.5 -8.5q67 0 92.5 37t25.5 101v425h209v-404q0 -85 -17.5 -147.5t-56 -104t-100.5 -62t-151 -20.5q-86 0 -148 17t-102 56t-59.5 101.5t-19.5 152.5v411h209zM203 783v95h356v-95h-356z" />
    <glyph glyph-name="Uogonek" unicode="&#x172;" horiz-adv-x="762" 
d="M419 -188q-30 0 -64 4t-62 14.5t-46.5 29t-18.5 47.5q0 27 16 48t42 38q-120 18 -176 93t-56 228v411h211v-425q0 -35 6 -60.5t19.5 -43t36 -26t56.5 -8.5q67 0 92.5 37t25.5 101v425h207v-404q0 -68 -10.5 -121t-34.5 -92.5t-63 -66.5t-96 -42q-38 -11 -62 -27t-24 -39
q0 -17 12.5 -23.5t32.5 -6.5q13 0 23.5 2t19.5 4v-87q-16 -3 -36.5 -6.5t-50.5 -3.5z" />
    </font>
</defs>
</svg>
