<?xml version="1.0" standalone="no"?>
<!DOCTYPE svg PUBLIC "-//W3C//DTD SVG 1.1//EN" "http://www.w3.org/Graphics/SVG/1.1/DTD/svg11.dtd" >
<svg xmlns="http://www.w3.org/2000/svg" xmlns:xlink="http://www.w3.org/1999/xlink" version="1.1">
<metadata>
Created by Christoph Koeberlin (http://christoph.koe.berlin)
Copyright (c) 2016 Swiss Typefaces Sa`rl. All rights reserved.
</metadata>
<defs>
<font id="Font" horiz-adv-x="0" >
  <font-face 
    font-family="Font"
    font-weight="400"
    font-stretch="normal"
    units-per-em="1000"
    panose-1="2 11 5 4 0 0 0 0 0 0"
    ascent="800"
    descent="-200"
    x-height="538"
    cap-height="725"
    bbox="-211 -649 2813 1121"
    underline-thickness="70"
    underline-position="-110"
    unicode-range="U+0020-FEFC"
  />
<missing-glyph horiz-adv-x="500" 
d="M0 725h500v-725h-500v725zM19 696v-667l220 333zM481 29v667l-221 -334zM33 19h433l-216 327zM250 378l216 328h-433z" />
    <glyph glyph-name="uni0407_uni0407.liga" unicode="&#x407;&#x407;" horiz-adv-x="501" 
d="M198 0h-102v725h102v-725zM405 0h-102v725h102v-725zM492 880v-99h-91v99h91zM296 880v-99h-91v99h91zM101 880v-99h-91v99h91z" />
    <glyph glyph-name="uni0457_uni0457.liga" unicode="&#x457;&#x457;" horiz-adv-x="446" 
d="M369 538v-538h-91v538h91zM168 538v-538h-91v538h91zM70 725v-99h-91v99h91zM268 725v-99h-91v99h91zM468 725v-99h-91v99h91z" />
    <glyph glyph-name="uniFEFB" unicode="&#xfedf;&#xfe8e;" horiz-adv-x="589" arabic-form="isolated" 
d="M450 775v-237q0 -76 -21 -141q-6 -19 -14 -38l50 -45q46 -42 67.5 -80t21.5 -79q0 -31 -10.5 -59t-32.5 -49.5t-56 -34t-82 -12.5h-314l-39 90q85 50 149.5 96.5t107.5 98.5q22 26 38 53l-277 252l4 10h106l201 -182q16 54 16 120v237h85zM366 275q-42 -57 -106 -108
q-51 -40 -117 -77h249q37 0 57 17.5t20 45.5q0 22 -13.5 46t-37.5 46l-45 40q-3 -5 -7 -10z" />
    <glyph glyph-name="uniFEFC" unicode="&#xfee0;&#xfe8e;" horiz-adv-x="673" arabic-form="final" 
d="M554 725v-531q0 -53 27 -78.5t92 -25.5q10 0 10 -10v-69q0 -11 -10 -11q-103 0 -154 51l-3 3q-20 -9 -43 -17q-33 -12 -68 -20.5t-70.5 -12.5t-68.5 -4q-59 0 -122.5 8t-118.5 26v85q56 -16 120 -23q58 -6 111 -6q-1 13 -1 25q-1 26 -6 55q-3 21 -9 50t-17 77
t-28.5 120.5t-42.5 182.5h90q24 -108 40 -178.5t25.5 -116.5t14.5 -74.5t8 -50.5q4 -24 3 -53q0 -16 -1 -35q35 2 65 7q43 6 83 18q-11 33 -11 74v534h85z" />
    <glyph glyph-name="uniFEF7" unicode="&#xfedf;&#xfe84;" horiz-adv-x="589" arabic-form="isolated" 
d="M450 775v-237q0 -76 -21 -141q-6 -19 -14 -38l50 -45q46 -42 67.5 -80t21.5 -79q0 -31 -10.5 -59t-32.5 -49.5t-56 -34t-82 -12.5h-314l-39 90q85 50 149.5 96.5t107.5 98.5q22 26 38 53l-277 252l4 10h106l201 -182q16 54 16 120v237h85zM366 275q-42 -57 -106 -108
q-51 -40 -117 -77h249q37 0 57 17.5t20 45.5q0 22 -13.5 46t-37.5 46l-45 40q-3 -5 -7 -10zM231 724l-18 -60h-162q-17 0 -33 -2t-42 -10v58q25 9 40 11q12 2 30 3q-5 5 -8 10q-15 22 -15 47q0 39 27 64.5t67 25.5q21 0 39.5 -6t36.5 -14v-58q-23 9 -36.5 12t-26.5 3
q-22 0 -36 -11.5t-14 -31.5q0 -17 13 -29q12 -11 29 -12h109z" />
    <glyph glyph-name="uniFEF8" unicode="&#xfee0;&#xfe84;" horiz-adv-x="673" arabic-form="final" 
d="M554 725v-531q0 -53 27 -78.5t92 -25.5q10 0 10 -10v-69q0 -11 -10 -11q-103 0 -154 51l-3 3q-20 -9 -43 -17q-33 -12 -68 -20.5t-70.5 -12.5t-68.5 -4q-59 0 -122.5 8t-118.5 26v85q56 -16 120 -23q58 -6 111 -6q-1 13 -1 25q-1 26 -6 55q-3 21 -9 50t-17 77
t-28.5 120.5t-42.5 182.5h90q24 -108 40 -178.5t25.5 -116.5t14.5 -74.5t8 -50.5q4 -24 3 -53q0 -16 -1 -35q35 2 65 7q43 6 83 18q-11 33 -11 74v534h85zM312 724l-18 -60h-162q-17 0 -33 -2t-42 -10v58q25 9 39 11q13 2 31 3q-5 5 -9 10q-14 22 -14 47q0 39 27 64.5
t67 25.5q21 0 39.5 -6t36.5 -14v-58q-23 9 -36.5 12t-26.5 3q-22 0 -36 -11.5t-14 -31.5q0 -17 13 -29q12 -11 29 -12h109z" />
    <glyph glyph-name="uniFEF9" unicode="&#xfedf;&#xfe88;" horiz-adv-x="589" arabic-form="isolated" 
d="M450 775v-237q0 -76 -21 -141q-6 -19 -14 -38l50 -45q46 -42 67.5 -80t21.5 -79q0 -31 -10.5 -59t-32.5 -49.5t-56 -34t-82 -12.5h-314l-39 90q85 50 149.5 96.5t107.5 98.5q22 26 38 53l-277 252l4 10h106l201 -182q16 54 16 120v237h85zM366 275q-42 -57 -106 -108
q-51 -40 -117 -77h249q37 0 57 17.5t20 45.5q0 22 -13.5 46t-37.5 46l-45 40q-3 -5 -7 -10zM426 -196l-18 -60h-162q-17 0 -33 -2t-42 -10v58q25 9 40 12q12 2 30 2q-5 5 -9 11q-15 21 -15 46q0 39 27 64t67 25q21 0 39.5 -5.5t36.5 -13.5v-58q-23 8 -36.5 11.5t-26.5 3.5
q-22 0 -36 -12t-14 -31q0 -17 14 -29q12 -10 28 -12h110z" />
    <glyph glyph-name="uniFEFA" unicode="&#xfee0;&#xfe88;" horiz-adv-x="673" arabic-form="final" 
d="M554 725v-531q0 -53 27 -78.5t92 -25.5q10 0 10 -10v-69q0 -11 -10 -11q-103 0 -154 51l-3 3q-20 -9 -43 -17q-33 -12 -68 -20.5t-70.5 -12.5t-68.5 -4q-59 0 -122.5 8t-118.5 26v85q56 -16 120 -23q58 -6 111 -6q-1 13 -1 25q-1 26 -6 55q-3 21 -9 50t-17 77
t-28.5 120.5t-42.5 182.5h90q24 -108 40 -178.5t25.5 -116.5t14.5 -74.5t8 -50.5q4 -24 3 -53q0 -16 -1 -35q35 2 65 7q43 6 83 18q-11 33 -11 74v534h85zM416 -197l-18 -60h-162q-17 0 -33 -2t-42 -10v58q25 9 39 12q13 2 30 2q-5 5 -9 11q-14 21 -14 46q0 39 27 64t67 25
q21 0 39.5 -5.5t36.5 -13.5v-58q-23 8 -36.5 11.5t-26.5 3.5q-22 0 -36 -12t-14 -31q0 -17 13.5 -29t33.5 -12h105z" />
    <glyph glyph-name="uniFEF5" unicode="&#xfedf;&#xfe82;" horiz-adv-x="589" arabic-form="isolated" 
d="M450 775v-237q0 -76 -21 -141q-6 -19 -14 -38l50 -45q46 -42 67.5 -80t21.5 -79q0 -31 -10.5 -59t-32.5 -49.5t-56 -34t-82 -12.5h-314l-39 90q85 50 149.5 96.5t107.5 98.5q22 26 38 53l-277 252l4 10h106l201 -182q16 54 16 120v237h85zM366 275q-42 -57 -106 -108
q-51 -40 -117 -77h249q37 0 57 17.5t20 45.5q0 22 -13.5 46t-37.5 46l-45 40q-3 -5 -7 -10zM70 763q17 0 32.5 -6t31 -12.5t31 -12.5t32.5 -6q15 0 39 6.5t41 19.5l-1 -66q-15 -11 -35 -18t-42 -7q-17 0 -31.5 6t-28.5 12.5t-28 12.5t-29 6q-43 0 -49 -39h-55
q0 43 23.5 73.5t68.5 30.5z" />
    <glyph glyph-name="uniFEF6" unicode="&#xfee0;&#xfe82;" horiz-adv-x="673" arabic-form="final" 
d="M554 725v-531q0 -53 27 -78.5t92 -25.5q10 0 10 -10v-69q0 -11 -10 -11q-103 0 -154 51l-3 3q-20 -9 -43 -17q-33 -12 -68 -20.5t-70.5 -12.5t-68.5 -4q-59 0 -122.5 8t-118.5 26v85q56 -16 120 -23q58 -6 111 -6q-1 13 -1 25q-1 26 -6 55q-3 21 -9 50t-17 77
t-28.5 120.5t-42.5 182.5h90q24 -108 40 -178.5t25.5 -116.5t14.5 -74.5t8 -50.5q4 -24 3 -53q0 -16 -1 -35q35 2 65 7q43 6 83 18q-11 33 -11 74v534h85zM145 766q17 0 32.5 -6t31 -12.5t31 -12.5t32.5 -6q15 0 39 6.5t41 19.5l-1 -66q-15 -11 -35 -18t-42 -7
q-17 0 -31.5 6t-28.5 12.5t-28 12.5t-29 6q-43 0 -49 -39h-55q0 43 23.5 73.5t68.5 30.5z" />
    <glyph glyph-name="uniFEDF_uniFB51.rlig" unicode="&#xfedf;&#xfb51;" horiz-adv-x="589" 
d="M450 775v-237q0 -76 -21 -141q-6 -19 -14 -38l50 -45q46 -42 67.5 -80t21.5 -79q0 -31 -10.5 -59t-32.5 -49.5t-56 -34t-82 -12.5h-314l-39 90q85 50 149.5 96.5t107.5 98.5q22 26 38 53l-277 252l4 10h106l201 -182q16 54 16 120v237h85zM366 275q-42 -57 -106 -108
q-51 -40 -117 -77h249q37 0 57 17.5t20 45.5q0 22 -13.5 46t-37.5 46l-45 40q-3 -5 -7 -10zM189 831q19 0 35.5 -6.5t29 -18.5t19.5 -28t7 -35q0 -48 -39.5 -74t-113.5 -26q-32 0 -69 7.5t-75 22.5l18 54q20 -7 38 -13q45 59 77 86q36 31 73 31zM125 703q42 0 64.5 10.5
t22.5 29.5q0 13 -10 21t-24 8q-11 0 -22 -4.5t-24.5 -15.5t-30.5 -29q-7 -8 -16 -18q22 -2 40 -2z" />
    <glyph glyph-name="uniFEE0_uniFB51.rlig" unicode="&#xfee0;&#xfb51;" horiz-adv-x="673" 
d="M554 725v-531q0 -53 27 -78.5t92 -25.5q10 0 10 -10v-69q0 -11 -10 -11q-103 0 -154 51l-3 3q-20 -9 -43 -17q-33 -12 -68 -20.5t-70.5 -12.5t-68.5 -4q-59 0 -122.5 8t-118.5 26v85q56 -16 120 -23q58 -6 111 -6q-1 13 -1 25q-1 26 -6 55q-3 21 -9 50t-17 77
t-28.5 120.5t-42.5 182.5h90q24 -108 40 -178.5t25.5 -116.5t14.5 -74.5t8 -50.5q4 -24 3 -53q0 -16 -1 -35q35 2 65 7q43 6 83 18q-11 33 -11 74v534h85zM242 834q19 0 35.5 -6.5t29 -18.5t19.5 -28t7 -35q0 -48 -39.5 -74t-113.5 -26q-32 0 -69 7.5t-75 22.5l18 54
q19 -7 38 -13q45 59 77 86q36 31 73 31zM178 706q42 0 64.5 10.5t22.5 29.5q0 13 -10 21t-24 8q-11 0 -22 -4.5t-24.5 -15.5t-30.5 -29q-8 -8 -16 -18q21 -2 40 -2z" />
    <glyph glyph-name="uniFC43" unicode="&#xfedf;&#xfef0;" horiz-adv-x="865" arabic-form="isolated" 
d="M780 725v-534q0 -88 -51 -140q-25 -26 -64 -39q-42 -104 -124 -163q-87 -64 -228 -64q-130 0 -201.5 68t-71.5 204q0 62 12 114t33 114h80q-21 -54 -33 -108t-12 -105q0 -103 53 -150t159 -47q101 0 170 44q47 30 76 81h-2h-150l15 90h135q66 0 92.5 25.5t26.5 78.5v531
h85z" />
    <glyph glyph-name="uniFC86" unicode="&#xfee0;&#xfef0;" horiz-adv-x="894" arabic-form="final" 
d="M774 725v-531q0 -53 27 -78.5t92 -25.5q10 0 10 -10v-69q0 -11 -10 -11q-103 0 -154 51q-6 6 -11 13l-10 -10q-17 -16 -37 -28l-14 -8q-42 -108 -126 -169q-87 -64 -228 -64q-130 0 -201.5 68t-71.5 204q0 62 12 114t33 114h80q-21 -54 -33 -108t-12 -105q0 -103 53 -150
t159 -47q101 0 170 44q47 30 76 81h-2h-150l15 90h135q42 0 75 14q25 10 45 26q-7 28 -7 61v534h85z" />
    <glyph glyph-name="uniFE8E" unicode="&#x627;" horiz-adv-x="289" arabic-form="final" 
d="M170 725v-531q0 -53 27 -78.5t92 -25.5q10 0 10 -10v-69q0 -11 -10 -11q-103 0 -153.5 51.5t-50.5 139.5v534h85z" />
    <glyph glyph-name="uniFE84" unicode="&#x623;" horiz-adv-x="289" arabic-form="final" 
d="M170 600v-406q0 -53 27 -78.5t92 -25.5q10 0 10 -10v-69q0 -11 -10 -11q-103 0 -153.5 51.5t-50.5 139.5v409h85zM255 715l-18 -60h-162q-17 0 -33 -2t-42 -10v58q25 9 40 11q12 2 30 3q-5 5 -8 10q-15 22 -15 47q0 39 27 64.5t67 25.5q21 0 39.5 -6t36.5 -14v-58
q-23 9 -36.5 12t-26.5 3q-22 0 -36 -11.5t-14 -31.5q0 -17 13 -29q12 -11 29 -12h109z" />
    <glyph glyph-name="uniFE88" unicode="&#x625;" horiz-adv-x="289" arabic-form="final" 
d="M170 725v-531q0 -53 27 -78.5t92 -25.5q10 0 10 -10v-69q0 -11 -10 -11q-103 0 -153.5 51.5t-50.5 139.5v534h85zM256 -194l-18 -60h-162q-17 0 -33 -2t-42 -10v58q25 9 40 12q12 2 30 2q-5 5 -9 11q-15 21 -15 46q0 39 27 64t67 25q21 0 39.5 -5.5t36.5 -13.5v-58
q-23 8 -36.5 11.5t-26.5 3.5q-22 0 -36 -12t-14 -31q0 -17 14 -29q12 -10 28 -12h110z" />
    <glyph glyph-name="uniFE82" unicode="&#x622;" horiz-adv-x="289" arabic-form="final" 
d="M170 600v-406q0 -53 27 -78.5t92 -25.5q10 0 10 -10v-69q0 -11 -10 -11q-103 0 -153.5 51.5t-50.5 139.5v409h85zM58 754q17 0 32.5 -6t31 -12.5t31 -12.5t32.5 -6q15 0 39 6.5t41 19.5l-1 -66q-15 -11 -35 -18t-42 -7q-17 0 -31.5 6t-28.5 12.5t-28 12.5t-29 6
q-43 0 -49 -39h-55q0 43 23.5 73.5t68.5 30.5z" />
    <glyph glyph-name="uniFB51" unicode="&#x671;" horiz-adv-x="289" arabic-form="final" 
d="M170 600v-406q0 -53 27 -78.5t92 -25.5q10 0 10 -10v-69q0 -11 -10 -11q-103 0 -153.5 51.5t-50.5 139.5v409h85zM180 813q19 0 35.5 -6.5t29 -18.5t19.5 -28t7 -35q0 -48 -39.5 -74t-113.5 -26q-32 0 -69 7.5t-75 22.5l18 54q20 -7 38 -13q45 59 77 86q36 31 73 31z
M116 685q42 0 64.5 10.5t22.5 29.5q0 13 -10 21t-24 8q-11 0 -22 -4.5t-24.5 -15.5t-30.5 -29q-7 -8 -16 -18q22 -2 40 -2z" />
    <glyph glyph-name="uni066E.init" unicode="&#x66e;" horiz-adv-x="259" 
d="M174 485q8 -55 14 -98.5t9.5 -78.5t5 -63.5t1.5 -53.5q0 -88 -50.5 -139.5t-153.5 -51.5q-10 0 -10 11v69q0 10 10 10q66 0 94 25.5t28 78.5q0 22 -2 47.5t-5.5 59t-10 78.5t-15.5 106h85z" />
    <glyph glyph-name="uni066E.medi" unicode="&#x66e;" horiz-adv-x="300" 
d="M205 370q0 -103 -10 -170q-7 -43 -19 -77q6 -3 10 -6q18 -10 36 -16t36.5 -8.5t41.5 -2.5q10 0 10 -10v-69q0 -11 -10 -11q-56 0 -101 20q-29 13 -59 38q-18 -21 -43 -35q-41 -23 -97 -23q-10 0 -10 11v69q0 10 10 10q74 0 101 54q7 15 12 34t8 46t4.5 63t1.5 83h78z" />
    <glyph glyph-name="uni066E.fina" unicode="&#x66e;" horiz-adv-x="837" 
d="M742 370q0 -103 -10 -170q-7 -43 -19 -77q6 -3 10 -6q18 -10 36 -16t36.5 -8.5t41.5 -2.5q10 0 10 -10v-69q0 -11 -10 -11q-56 0 -101 20q-29 13 -59 38q-18 -21 -43 -35q-34 -19 -79 -23h-4h-258q-120 0 -186.5 58.5t-66.5 170.5q0 35 7.5 90t22.5 121h80
q-13 -63 -19 -107.5t-6 -82.5q0 -42 10 -72t32 -49.5t58 -29t87 -9.5h225q74 0 101 54q7 15 12 34t8 46t4.5 63t1.5 83h78z" />
    <glyph glyph-name="uniFE90" unicode="&#x628;" horiz-adv-x="837" arabic-form="final" 
d="M742 370q0 -103 -10 -170q-7 -43 -19 -77q6 -3 10 -6q18 -10 36 -16t36.5 -8.5t41.5 -2.5q10 0 10 -10v-69q0 -11 -10 -11q-56 0 -101 20q-29 13 -59 38q-18 -21 -43 -35q-34 -19 -79 -23h-4h-258q-120 0 -186.5 58.5t-66.5 170.5q0 35 7.5 90t22.5 121h80
q-13 -63 -19 -107.5t-6 -82.5q0 -42 10 -72t32 -49.5t58 -29t87 -9.5h232q68 2 94 54q7 15 12 34t8 46t4.5 63t1.5 83h78zM423 -73l77 -75l-75 -76l-77 76z" />
    <glyph glyph-name="uniFE92" unicode="&#x628;" horiz-adv-x="300" arabic-form="medial" 
d="M205 370q0 -103 -10 -170q-7 -43 -19 -77q6 -3 10 -6q18 -10 36 -16t36.5 -8.5t41.5 -2.5q10 0 10 -10v-69q0 -11 -10 -11q-56 0 -101 20q-29 13 -59 38q-18 -21 -43 -35q-41 -23 -97 -23q-10 0 -10 11v69q0 10 10 10q74 0 101 54q7 15 12 34t8 46t4.5 63t1.5 83h78z
M143 -79l77 -75l-75 -76l-77 76z" />
    <glyph glyph-name="uniFE91" unicode="&#x628;" horiz-adv-x="259" arabic-form="initial" 
d="M174 485q8 -55 14 -98.5t9.5 -78.5t5 -63.5t1.5 -53.5q0 -88 -50.5 -139.5t-153.5 -51.5q-10 0 -10 11v69q0 10 10 10q66 0 94 25.5t28 78.5q0 22 -2 47.5t-5.5 59t-10 78.5t-15.5 106h85zM98 -77l77 -75l-75 -76l-77 76z" />
    <glyph glyph-name="uniFB57" unicode="&#x67e;" horiz-adv-x="837" arabic-form="final" 
d="M742 370q0 -103 -10 -170q-7 -43 -19 -77q6 -3 10 -6q18 -10 36 -16t36.5 -8.5t41.5 -2.5q10 0 10 -10v-69q0 -11 -10 -11q-56 0 -101 20q-29 13 -59 38q-18 -21 -43 -35q-35 -19 -80 -23h-3h-14h-3h-241q-120 0 -186.5 58.5t-66.5 170.5q0 35 7.5 90t22.5 121h80
q-13 -63 -19 -107.5t-6 -82.5q0 -42 10 -72t32 -49.5t58 -29t87 -9.5h222h3q74 0 101 54q7 15 12 34t8 46t4.5 63t1.5 83h78zM514 -76l76 -75l-76 -77l-77 77zM349 -76l77 -75l-76 -77l-76 77zM433 -213l61 -61l-60 -60l-61 60z" />
    <glyph glyph-name="uniFB59" unicode="&#x67e;" horiz-adv-x="370" arabic-form="medial" 
d="M235 370q0 -100 -8 -165q-4 -34 -12 -62q33 -24 69 -38q41 -15 86 -15q10 0 10 -10v-69q0 -11 -10 -11q-98 0 -185 78q-24 -33 -63 -53q-49 -25 -122 -25q-10 0 -10 11v69q0 10 10 10q52 0 82.5 13t46.5 40q9 15 14.5 34.5t8 46.5t3.5 62.5t1 83.5h79zM245 -75l76 -75
l-76 -77l-77 77zM164 -212l61 -61l-60 -60l-61 60zM80 -75l77 -75l-76 -77l-76 77z" />
    <glyph glyph-name="uniFB58" unicode="&#x67e;" horiz-adv-x="333" arabic-form="initial" 
d="M252 485q8 -55 13.5 -98.5t9.5 -78.5t5.5 -63.5t1.5 -53.5q0 -88 -50.5 -139.5t-153.5 -51.5h-78q-10 0 -10 11v69q0 10 10 10h78q65 0 93 25.5t28 78.5q0 22 -1.5 47.5t-5.5 59t-10 78.5t-15 106h85zM211 -73l76 -75l-76 -77l-77 77zM130 -210l61 -61l-60 -60l-61 60z
M46 -73l77 -75l-76 -77l-76 77z" />
    <glyph glyph-name="uniFE96" unicode="&#x62a;" horiz-adv-x="837" arabic-form="final" 
d="M742 370q0 -103 -10 -170q-7 -43 -19 -77q6 -3 10 -6q18 -10 36 -16t36.5 -8.5t41.5 -2.5q10 0 10 -10v-69q0 -11 -10 -11q-56 0 -101 20q-29 13 -59 38q-18 -21 -43 -35q-35 -19 -80 -23h-3h-14h-3h-241q-120 0 -186.5 58.5t-66.5 170.5q0 35 7.5 90t22.5 121h80
q-13 -63 -19 -107.5t-6 -82.5q0 -42 10 -72t32 -49.5t58 -29t87 -9.5h222h3q74 0 101 54q7 15 12 34t8 46t4.5 63t1.5 83h78zM371 604l76 -74l75 74l76 -76l-76 -75l-75 73l-75 -73l-76 75z" />
    <glyph glyph-name="uniFE98" unicode="&#x62a;" horiz-adv-x="370" arabic-form="medial" 
d="M235 370q0 -100 -8 -165q-4 -34 -12 -62q33 -24 69 -38q41 -15 86 -15q10 0 10 -10v-69q0 -11 -10 -11q-98 0 -185 78q-24 -33 -63 -53q-49 -25 -122 -25q-10 0 -10 11v69q0 10 10 10q52 0 82.5 13t46.5 40q9 15 14.5 34.5t8 46.5t3.5 62.5t1 83.5h79zM118 604l76 -74
l75 74l76 -76l-76 -75l-75 73l-75 -73l-76 75z" />
    <glyph glyph-name="uniFE97" unicode="&#x62a;" horiz-adv-x="373" arabic-form="initial" 
d="M252 485q8 -55 13.5 -98.5t9.5 -78.5t5.5 -63.5t1.5 -53.5q0 -88 -50.5 -139.5t-153.5 -51.5h-78q-10 0 -10 11v69q0 10 10 10h78q65 0 93 25.5t28 78.5q0 22 -1.5 47.5t-5.5 59t-10 78.5t-15 106h85zM121 713l76 -74l75 74l76 -76l-76 -75l-75 73l-75 -73l-76 75z" />
    <glyph glyph-name="uniFE9A" unicode="&#x62b;" horiz-adv-x="837" arabic-form="final" 
d="M742 370q0 -103 -10 -170q-7 -43 -19 -77q6 -3 10 -6q18 -10 36 -16t36.5 -8.5t41.5 -2.5q10 0 10 -10v-69q0 -11 -10 -11q-56 0 -101 20q-29 13 -59 38q-18 -21 -43 -35q-35 -19 -80 -23h-3h-14h-3h-241q-120 0 -186.5 58.5t-66.5 170.5q0 35 7.5 90t22.5 121h80
q-13 -63 -19 -107.5t-6 -82.5q0 -42 10 -72t32 -49.5t58 -29t87 -9.5h222h3q74 0 101 54q7 15 12 34t8 46t4.5 63t1.5 83h78zM521 605l76 -77l-76 -75l-77 75zM356 605l77 -77l-76 -75l-76 75zM439 710l61 -61l-60 -60l-61 60z" />
    <glyph glyph-name="uniFE9C" unicode="&#x62b;" horiz-adv-x="370" arabic-form="medial" 
d="M235 370q0 -100 -8 -165q-4 -34 -12 -62q33 -24 69 -38q41 -15 86 -15q10 0 10 -10v-69q0 -11 -10 -11q-98 0 -185 78q-24 -33 -63 -53q-49 -25 -122 -25q-10 0 -10 11v69q0 10 10 10q52 0 82.5 13t46.5 40q9 15 14.5 34.5t8 46.5t3.5 62.5t1 83.5h79zM273 605l76 -77
l-76 -75l-77 75zM108 605l77 -77l-76 -75l-76 75zM191 710l61 -61l-60 -60l-61 60z" />
    <glyph glyph-name="uniFE9B" unicode="&#x62b;" horiz-adv-x="380" arabic-form="initial" 
d="M252 485q8 -55 13.5 -98.5t9.5 -78.5t5.5 -63.5t1.5 -53.5q0 -88 -50.5 -139.5t-153.5 -51.5h-78q-10 0 -10 11v69q0 10 10 10h78q65 0 93 25.5t28 78.5q0 22 -1.5 47.5t-5.5 59t-10 78.5t-15 106h85zM279 715l76 -77l-76 -75l-77 75zM114 715l77 -77l-76 -75l-76 75z
M197 820l61 -61l-60 -60l-61 60z" />
    <glyph glyph-name="uniFB67" unicode="&#x679;" horiz-adv-x="837" arabic-form="final" 
d="M742 370q0 -103 -10 -170q-7 -43 -19 -77q6 -3 10 -6q18 -10 36 -16t36.5 -8.5t41.5 -2.5q10 0 10 -10v-69q0 -11 -10 -11q-56 0 -101 20q-29 13 -59 38q-18 -21 -43 -35q-34 -19 -79 -23h-4h-14h-3h-241q-120 0 -186.5 58.5t-66.5 170.5q0 35 7.5 90t22.5 121h80
q-13 -63 -19 -107.5t-6 -82.5q0 -42 10 -72t32 -49.5t58 -29t87 -9.5h222h3h7q68 2 94 54q7 15 12 34t8 46t4.5 63t1.5 83h78zM400 670v-96l-3 -13q25 27 47.5 44.5t41.5 25t36 7.5q43 0 70.5 -26.5t27.5 -64.5q0 -50 -48 -78.5t-131 -28.5h-126l-33 58h63v172h55zM439 498
q54 0 84 11.5t30 37.5q0 14 -12 24t-32 10q-14 0 -28 -7t-30.5 -21t-38.5 -36l-19 -19h46z" />
    <glyph glyph-name="uniFB69" unicode="&#x679;" horiz-adv-x="370" arabic-form="medial" 
d="M235 370q0 -100 -8 -165q-4 -34 -12 -62q33 -24 69 -38q41 -15 86 -15q10 0 10 -10v-69q0 -11 -10 -11q-98 0 -185 78q-24 -33 -63 -53q-49 -25 -122 -25q-10 0 -10 11v69q0 10 10 10q52 0 82.5 13t46.5 40q9 15 14.5 34.5t8 46.5t3.5 62.5t1 83.5h79zM135 671v-96
l-2 -13q25 27 47 44.5t41 25t36 7.5q43 0 70.5 -26.5t27.5 -64.5q0 -50 -48 -78.5t-131 -28.5h-126l-33 58h63v172h55zM174 499q54 0 84 11.5t30 37.5q0 14 -12 24t-32 10q-14 0 -28 -7t-30.5 -21t-37.5 -36l-19 -19h45z" />
    <glyph glyph-name="uniFB68" unicode="&#x679;" horiz-adv-x="380" arabic-form="initial" 
d="M252 485q8 -55 13.5 -98.5t9.5 -78.5t5.5 -63.5t1.5 -53.5q0 -88 -50.5 -139.5t-153.5 -51.5h-78q-10 0 -10 11v69q0 10 10 10h78q65 0 93 25.5t28 78.5q0 22 -1.5 47.5t-5.5 59t-10 78.5t-15 106h85zM135 768v-96l-2 -13q25 27 47 44.5t41 25t36 7.5q43 0 70.5 -26.5
t27.5 -64.5q0 -50 -48 -78.5t-131 -28.5h-126l-33 58h63v172h55zM174 596q54 0 84 11.5t30 37.5q0 14 -12 24t-32 10q-14 0 -28 -7t-30.5 -21t-37.5 -36l-19 -19h45z" />
    <glyph glyph-name="uniFE9E" unicode="&#x62c;" horiz-adv-x="651" arabic-form="final" 
d="M195 538q51 0 94 -26t89.5 -62.5t101 -76t127.5 -66.5l-23 -85q-28 0 -55 -2v-52q0 -41 32 -59.5t90 -18.5q10 0 10 -10v-69q0 -11 -10 -11q-88 0 -136.5 38t-48.5 116v59q-26 -5 -52 -11q-82 -19 -146 -53.5t-103 -82t-39 -102.5q0 -74 54 -111.5t149 -37.5
q53 0 105 8.5t123 28.5v-80q-38 -13 -69 -22t-58.5 -14.5t-53 -8t-52.5 -2.5q-134 0 -209 58t-75 173q0 67 33 124t95 100.5t150 70.5q69 22 152 32q-33 18 -61 39q-42 33 -78 61t-69.5 46.5t-71.5 18.5q-29 0 -58.5 -6.5t-61.5 -17.5v80q23 14 58 24t67 10zM357 81l77 -75
l-75 -76l-77 76z" />
    <glyph glyph-name="uniFEA0" unicode="&#x62c;" horiz-adv-x="631" arabic-form="medial" 
d="M189 475q51 0 91.5 -22.5t83.5 -55t95 -68.5t125 -63l-23 -85q-25 -5 -46 -11q0 -36 25 -58t91 -22q10 0 10 -10v-69q0 -11 -10 -11q-93 0 -136 43q-39 40 -42 106q-39 -16 -73 -35q-35 -20 -68 -40.5t-75 -37t-98.5 -26.5t-137.5 -10q-11 0 -11 11v69q0 10 11 10
q67 0 118 7.5t92.5 20t75.5 28.5t67 32.5t67 31.5q22 10 47 19q-43 22 -76 45q-40 30 -73.5 54.5t-65 40.5t-69.5 16q-29 0 -58.5 -6.5t-61.5 -17.5v80q23 14 58 24t67 10zM256 -76l77 -75l-75 -76l-77 76z" />
    <glyph glyph-name="uniFE9F" unicode="&#x62c;" horiz-adv-x="609" arabic-form="initial" 
d="M189 475q51 0 91.5 -22.5t83.5 -55t95 -68.5t125 -63l-23 -85q-61 -12 -103 -29.5t-77.5 -37.5t-68.5 -40.5t-75 -37t-98.5 -26.5t-137.5 -10q-11 0 -11 11v69q0 10 11 10q67 0 118 7.5t92.5 20t75.5 28.5t67 32.5t67 31.5q22 10 47 19q-43 22 -76 45q-40 30 -73.5 54.5
t-65 40.5t-69.5 16q-29 0 -58.5 -6.5t-61.5 -17.5v80q23 14 58 24t67 10zM256 -75l77 -75l-75 -76l-77 76z" />
    <glyph glyph-name="uniFB7B" unicode="&#x686;" horiz-adv-x="651" arabic-form="final" 
d="M200 538q51 0 94 -26t89.5 -62.5t101 -76t127.5 -66.5l-23 -85q-31 0 -60 -2v-52q0 -41 32 -59.5t90 -18.5q10 0 10 -10v-69q0 -11 -10 -11q-88 0 -136.5 38t-48.5 116v58q-24 -4 -47 -10q-82 -19 -146.5 -53.5t-103.5 -82t-39 -102.5q0 -42 17.5 -77.5t60.5 -75.5
l-78 -33q-41 35 -63 81t-22 97q0 67 33 124t95 100.5t150 70.5q69 22 152 32q-33 18 -61 39q-42 33 -78 61t-69.5 46.5t-71.5 18.5q-29 0 -58.5 -6.5t-61.5 -17.5v80q23 14 58 24t67 10zM483 -36l76 -75l-76 -77l-77 77zM318 -36l77 -75l-76 -77l-76 77zM402 -173l61 -61
l-60 -60l-61 60z" />
    <glyph glyph-name="uniFB7D" unicode="&#x686;" horiz-adv-x="631" arabic-form="medial" 
d="M189 475q51 0 91.5 -22.5t83.5 -55t95 -68.5t125 -63l-23 -85q-25 -5 -46 -11q0 -36 25 -58t91 -22q10 0 10 -10v-69q0 -11 -10 -11q-93 0 -136 43q-39 40 -42 106q-39 -16 -73 -35q-35 -20 -68 -40.5t-75 -37t-98.5 -26.5t-137.5 -10q-11 0 -11 11v69q0 10 11 10
q67 0 118 7.5t92.5 20t75.5 28.5t67 32.5t67 31.5q22 10 47 19q-43 22 -76 45q-40 30 -73.5 54.5t-65 40.5t-69.5 16q-29 0 -58.5 -6.5t-61.5 -17.5v80q23 14 58 24t67 10zM367 -78l76 -75l-76 -77l-77 77zM202 -78l77 -75l-76 -77l-76 77zM286 -215l61 -61l-60 -60l-61 60z
" />
    <glyph glyph-name="uniFB7C" unicode="&#x686;" horiz-adv-x="609" arabic-form="initial" 
d="M189 475q51 0 91.5 -22.5t83.5 -55t95 -68.5t125 -63l-23 -85q-61 -12 -103 -29.5t-77.5 -37.5t-68.5 -40.5t-75 -37t-98.5 -26.5t-137.5 -10q-11 0 -11 11v69q0 10 11 10q67 0 118 7.5t92.5 20t75.5 28.5t67 32.5t67 31.5q22 10 47 19q-43 22 -76 45q-40 30 -73.5 54.5
t-65 40.5t-69.5 16q-29 0 -58.5 -6.5t-61.5 -17.5v80q23 14 58 24t67 10zM367 -78l76 -75l-76 -77l-77 77zM286 -215l61 -61l-60 -60l-61 60zM202 -78l77 -75l-76 -77l-76 77z" />
    <glyph glyph-name="uniFEA2" unicode="&#x62d;" horiz-adv-x="651" arabic-form="final" 
d="M195 538q51 0 94 -26t89.5 -62.5t101 -76t127.5 -66.5l-23 -85q-28 0 -55 -2v-52q0 -41 32 -59.5t90 -18.5q10 0 10 -10v-69q0 -11 -10 -11q-88 0 -136.5 38t-48.5 116v59q-26 -5 -52 -11q-82 -19 -146 -53.5t-103 -82t-39 -102.5q0 -74 54 -111.5t149 -37.5
q53 0 105 8.5t123 28.5v-80q-38 -13 -69 -22t-58.5 -14.5t-53 -8t-52.5 -2.5q-134 0 -209 58t-75 173q0 67 33 124t95 100.5t150 70.5q69 22 152 32q-33 18 -61 39q-42 33 -78 61t-69.5 46.5t-71.5 18.5q-29 0 -58.5 -6.5t-61.5 -17.5v80q23 14 58 24t67 10z" />
    <glyph glyph-name="uniFEA4" unicode="&#x62d;" horiz-adv-x="631" arabic-form="medial" 
d="M189 475q51 0 91.5 -22.5t83.5 -55t95 -68.5t125 -63l-23 -85q-25 -5 -46 -11q0 -36 25 -58t91 -22q10 0 10 -10v-69q0 -11 -10 -11q-93 0 -136 43q-39 40 -42 106q-39 -16 -73 -35q-35 -20 -68 -40.5t-75 -37t-98.5 -26.5t-137.5 -10q-11 0 -11 11v69q0 10 11 10
q67 0 118 7.5t92.5 20t75.5 28.5t67 32.5t67 31.5q22 10 47 19q-43 22 -76 45q-40 30 -73.5 54.5t-65 40.5t-69.5 16q-29 0 -58.5 -6.5t-61.5 -17.5v80q23 14 58 24t67 10z" />
    <glyph glyph-name="uniFEA3" unicode="&#x62d;" horiz-adv-x="609" arabic-form="initial" 
d="M189 475q51 0 91.5 -22.5t83.5 -55t95 -68.5t125 -63l-23 -85q-61 -12 -103 -29.5t-77.5 -37.5t-68.5 -40.5t-75 -37t-98.5 -26.5t-137.5 -10q-11 0 -11 11v69q0 10 11 10q67 0 118 7.5t92.5 20t75.5 28.5t67 32.5t67 31.5q22 10 47 19q-43 22 -76 45q-40 30 -73.5 54.5
t-65 40.5t-69.5 16q-29 0 -58.5 -6.5t-61.5 -17.5v80q23 14 58 24t67 10z" />
    <glyph glyph-name="uniFEA6" unicode="&#x62e;" horiz-adv-x="651" arabic-form="final" 
d="M195 538q51 0 94 -26t89.5 -62.5t101 -76t127.5 -66.5l-23 -85q-28 0 -55 -2v-52q0 -41 32 -59.5t90 -18.5q10 0 10 -10v-69q0 -11 -10 -11q-88 0 -136.5 38t-48.5 116v59q-26 -5 -52 -11q-82 -19 -146 -53.5t-103 -82t-39 -102.5q0 -74 54 -111.5t149 -37.5
q53 0 105 8.5t123 28.5v-80q-38 -13 -69 -22t-58.5 -14.5t-53 -8t-52.5 -2.5q-134 0 -209 58t-75 173q0 67 33 124t95 100.5t150 70.5q69 22 152 32q-33 18 -61 39q-42 33 -78 61t-69.5 46.5t-71.5 18.5q-29 0 -58.5 -6.5t-61.5 -17.5v80q23 14 58 24t67 10zM424 702l77 -76
l-75 -75l-77 75z" />
    <glyph glyph-name="uniFEA8" unicode="&#x62e;" horiz-adv-x="631" arabic-form="medial" 
d="M189 475q51 0 91.5 -22.5t83.5 -55t95 -68.5t125 -63l-23 -85q-25 -5 -46 -11q0 -36 25 -58t91 -22q10 0 10 -10v-69q0 -11 -10 -11q-93 0 -136 43q-39 40 -42 106q-39 -16 -73 -35q-35 -20 -68 -40.5t-75 -37t-98.5 -26.5t-137.5 -10q-11 0 -11 11v69q0 10 11 10
q67 0 118 7.5t92.5 20t75.5 28.5t67 32.5t67 31.5q22 10 47 19q-43 22 -76 45q-40 30 -73.5 54.5t-65 40.5t-69.5 16q-29 0 -58.5 -6.5t-61.5 -17.5v80q23 14 58 24t67 10zM230 710l77 -76l-75 -75l-77 75z" />
    <glyph glyph-name="uniFEA7" unicode="&#x62e;" horiz-adv-x="609" arabic-form="initial" 
d="M189 475q51 0 91.5 -22.5t83.5 -55t95 -68.5t125 -63l-23 -85q-61 -12 -103 -29.5t-77.5 -37.5t-68.5 -40.5t-75 -37t-98.5 -26.5t-137.5 -10q-11 0 -11 11v69q0 10 11 10q67 0 118 7.5t92.5 20t75.5 28.5t67 32.5t67 31.5q22 10 47 19q-43 22 -76 45q-40 30 -73.5 54.5
t-65 40.5t-69.5 16q-29 0 -58.5 -6.5t-61.5 -17.5v80q23 14 58 24t67 10zM230 710l77 -76l-75 -75l-77 75z" />
    <glyph glyph-name="uniFEAA" unicode="&#x62f;" horiz-adv-x="518" arabic-form="final" 
d="M15 119q31 -9 55.5 -14.5t45.5 -9t40 -4.5t40 -1q82 0 151 21q-15 28 -26 63q-9 28 -19 64t-19.5 76t-18.5 83.5t-17 87.5h90q6 -39 13.5 -80.5t16 -81t17 -75t17.5 -62.5q17 -51 44.5 -73.5t72.5 -22.5q10 0 10 -10v-69q0 -11 -10 -11q-77 0 -129 52q-42 -25 -87 -38
q-49 -14 -106 -14q-26 0 -46 1.5t-40 5.5t-42.5 10.5t-52.5 16.5v85z" />
    <glyph glyph-name="uniFEAC" unicode="&#x630;" horiz-adv-x="518" arabic-form="final" 
d="M15 119q31 -9 55.5 -14.5t45.5 -9t40 -4.5t40 -1q82 0 151 21q-15 28 -26 63q-9 28 -19 64t-19.5 76t-18.5 83.5t-17 87.5h90q6 -39 13.5 -80.5t16 -81t17 -75t17.5 -62.5q17 -51 44.5 -73.5t72.5 -22.5q10 0 10 -10v-69q0 -11 -10 -11q-77 0 -129 52q-42 -25 -87 -38
q-49 -14 -106 -14q-26 0 -46 1.5t-40 5.5t-42.5 10.5t-52.5 16.5v85zM287 708l77 -76l-75 -75l-77 75z" />
    <glyph glyph-name="uniFB89" unicode="&#x688;" horiz-adv-x="518" arabic-form="final" 
d="M15 119q31 -9 55.5 -14.5t45.5 -9t40 -4.5t40 -1q82 0 151 21q-15 28 -26 63q-9 28 -19 64t-19.5 76t-18.5 83.5t-17 87.5h90q6 -39 13.5 -80.5t16 -81t17 -75t17.5 -62.5q17 -51 44.5 -73.5t72.5 -22.5q10 0 10 -10v-69q0 -11 -10 -11q-77 0 -129 52q-42 -25 -87 -38
q-49 -14 -106 -14q-26 0 -46 1.5t-40 5.5t-42.5 10.5t-52.5 16.5v85zM212 768v-96l-2 -13q25 27 47 44.5t41 25t36 7.5q43 0 70.5 -26.5t27.5 -64.5q0 -50 -48 -78.5t-131 -28.5h-126l-33 58h63v172h55zM251 596q54 0 84 11.5t30 37.5q0 14 -12 24t-32 10q-14 0 -28 -7
t-30.5 -21t-37.5 -36l-19 -19h45z" />
    <glyph glyph-name="uniFEAE" unicode="&#x631;" horiz-adv-x="341" arabic-form="final" 
d="M205 440q6 -44 12 -96t10 -107l3 -37l4 -25q3 -28 13 -45t24 -26t32 -11.5t37 -2.5q10 0 10 -10v-69q0 -11 -10 -11q-63 0 -96 35l-6 8v-17q0 -59 -18.5 -104t-51.5 -75.5t-79.5 -46t-103.5 -15.5v82q37 0 68.5 10t54.5 30.5t36 51t13 71.5q0 81 -10 184.5t-27 225.5h85z
" />
    <glyph glyph-name="uniFEB0" unicode="&#x632;" horiz-adv-x="341" arabic-form="final" 
d="M205 440q6 -44 12 -96t10 -107l3 -37l4 -25q3 -28 13 -45t24 -26t32 -11.5t37 -2.5q10 0 10 -10v-69q0 -11 -10 -11q-63 0 -96 35l-6 8v-17q0 -59 -18.5 -104t-51.5 -75.5t-79.5 -46t-103.5 -15.5v82q37 0 68.5 10t54.5 30.5t36 51t13 71.5q0 81 -10 184.5t-27 225.5h85z
M153 669l77 -76l-75 -75l-77 75z" />
    <glyph glyph-name="uniFB8D" unicode="&#x691;" horiz-adv-x="341" arabic-form="final" 
d="M205 440q6 -44 12 -96t10 -107l3 -37l4 -25q3 -28 13 -45t24 -26t32 -11.5t37 -2.5q10 0 10 -10v-69q0 -11 -10 -11q-63 0 -96 35l-6 8v-17q0 -59 -18.5 -104t-51.5 -75.5t-79.5 -46t-103.5 -15.5v82q37 0 68.5 10t54.5 30.5t36 51t13 71.5q0 81 -10 184.5t-27 225.5h85z
M103 725v-96l-3 -13q25 27 47.5 44.5t41.5 25t36 7.5q43 0 70.5 -26.5t27.5 -64.5q0 -50 -48 -78.5t-131 -28.5h-126l-33 58h63v172h55zM142 553q54 0 84 11.5t30 37.5q0 14 -12 24t-32 10q-14 0 -28 -7t-30.5 -21t-38.5 -36l-19 -19h46z" />
    <glyph glyph-name="uniFB8B" unicode="&#x698;" horiz-adv-x="341" arabic-form="final" 
d="M205 440q6 -44 12 -96t10 -107l3 -37l4 -25q3 -28 13 -45t24 -26t32 -11.5t37 -2.5q10 0 10 -10v-69q0 -11 -10 -11q-63 0 -96 35l-6 8v-17q0 -59 -18.5 -104t-51.5 -75.5t-79.5 -46t-103.5 -15.5v82q37 0 68.5 10t54.5 30.5t36 51t13 71.5q0 81 -10 184.5t-27 225.5h85z
M235 670l76 -77l-76 -75l-77 75zM70 670l77 -77l-76 -75l-76 75zM153 775l61 -61l-60 -60l-61 60z" />
    <glyph glyph-name="uniFEB2" unicode="&#x633;" horiz-adv-x="1320" arabic-form="final" 
d="M537 440q15 -100 25 -183q8 -71 10 -136q26 -13 57 -21q41 -10 71 -10q45 0 68 13.5t37 40.5q7 15 12 34t8 46t4.5 63t1.5 83h79q0 -103 -10 -170q-7 -47 -21 -83q23 -11 50 -17q41 -10 71 -10q45 0 68 13.5t37 40.5q7 15 12 34t8 46t4.5 63t1.5 83v70h79v-70
q0 -103 -10 -170q-6 -37 -15 -68q12 -8 23 -15q18 -10 36 -16t36.5 -8.5t41.5 -2.5q10 0 10 -10v-69q0 -11 -10 -11q-56 0 -101 20q-33 15 -68 47q-21 -27 -51 -44q-42 -23 -97 -23q-42 0 -86 15q-36 13 -78 38q-17 -17 -39 -30q-42 -23 -97 -23q-39 0 -81 14q-26 9 -56 24
q-4 -34 -13 -64q-17 -58 -52 -100t-88.5 -65.5t-126.5 -23.5q-118 0 -183 70.5t-65 201.5q0 62 12 114t33 114h80q-21 -54 -33 -108t-12 -105q0 -91 42 -144t134 -53q101 0 148 54t47 170q0 31 -2.5 65.5t-8 75.5t-12.5 90t-16 110h85z" />
    <glyph glyph-name="uniFEB4" unicode="&#x633;" horiz-adv-x="913" arabic-form="medial" 
d="M196 370q0 -103 -10 -170q-7 -45 -20 -80q26 -13 57 -20q41 -10 71 -10q45 0 68 13.5t37 40.5q7 15 12 34t8 46t4.5 63t1.5 83h79q0 -103 -10 -170q-7 -47 -21 -83q23 -11 50 -17q41 -10 71 -10q45 0 68 13.5t37 40.5q7 15 12 34t8 46t4.5 63t1.5 83v70h79v-70
q0 -103 -10 -170q-6 -38 -16 -69q11 -8 21 -14q18 -10 36 -16t36.5 -8.5t41.5 -2.5q10 0 10 -10v-69q0 -11 -10 -11q-56 0 -101 20q-32 15 -67 45q-20 -25 -49 -42q-42 -23 -97 -23q-42 0 -86 15q-36 13 -78 38q-17 -17 -39 -30q-42 -23 -97 -23q-42 0 -86 15q-38 14 -84 41
q-17 -20 -40 -33q-39 -23 -89 -23q-10 0 -10 11v69q0 10 10 10q31 0 54 12.5t37 41.5q7 15 12 34t8 46t4.5 63t1.5 83h79z" />
    <glyph glyph-name="uniFEB3" unicode="&#x633;" horiz-adv-x="863" arabic-form="initial" 
d="M196 370q0 -103 -10 -170q-7 -45 -20 -80q26 -13 57 -20q41 -10 71 -10q45 0 68 13.5t37 40.5q7 15 12 34t8 46t4.5 63t1.5 83h79q0 -103 -10 -170q-7 -44 -19 -79q31 -13 55 -21q36 -10 74 -10q121 0 121 102q0 21 -1.5 44.5t-5 56.5t-9.5 79.5t-16 112.5h85
q16 -108 23 -177.5t7 -118.5q0 -43 -14 -78t-39.5 -59.5t-61.5 -38t-79 -13.5q-47 0 -95 17q-38 14 -81 40q-18 -20 -42 -34q-42 -23 -97 -23q-42 0 -86 15q-38 14 -84 41q-17 -20 -40 -33q-39 -23 -89 -23q-10 0 -10 11v69q0 10 10 10q31 0 54 12.5t37 41.5q7 15 12 34
t8 46t4.5 63t1.5 83h79z" />
    <glyph glyph-name="uniFEB6" unicode="&#x634;" horiz-adv-x="1320" arabic-form="final" 
d="M537 440q15 -100 25 -183q8 -71 10 -136q26 -13 57 -21q41 -10 71 -10q45 0 68 13.5t37 40.5q7 15 12 34t8 46t4.5 63t1.5 83h79q0 -103 -10 -170q-7 -47 -21 -83q23 -11 50 -17q41 -10 71 -10q45 0 68 13.5t37 40.5q7 15 12 34t8 46t4.5 63t1.5 83v70h79v-70
q0 -103 -10 -170q-6 -37 -15 -68q12 -8 23 -15q18 -10 36 -16t36.5 -8.5t41.5 -2.5q10 0 10 -10v-69q0 -11 -10 -11q-56 0 -101 20q-33 15 -68 47q-21 -27 -51 -44q-42 -23 -97 -23q-42 0 -86 15q-36 13 -78 38q-17 -17 -39 -30q-42 -23 -97 -23q-39 0 -81 14q-26 9 -56 24
q-4 -34 -13 -64q-17 -58 -52 -100t-88.5 -65.5t-126.5 -23.5q-118 0 -183 70.5t-65 201.5q0 62 12 114t33 114h80q-21 -54 -33 -108t-12 -105q0 -91 42 -144t134 -53q101 0 148 54t47 170q0 31 -2.5 65.5t-8 75.5t-12.5 90t-16 110h85zM947 627l76 -77l-76 -75l-77 75z
M782 627l77 -77l-76 -75l-76 75zM865 732l61 -61l-60 -60l-61 60z" />
    <glyph glyph-name="uniFEB8" unicode="&#x634;" horiz-adv-x="913" arabic-form="medial" 
d="M196 370q0 -103 -10 -170q-7 -45 -20 -80q26 -13 57 -20q41 -10 71 -10q45 0 68 13.5t37 40.5q7 15 12 34t8 46t4.5 63t1.5 83h79q0 -103 -10 -170q-7 -47 -21 -83q23 -11 50 -17q41 -10 71 -10q45 0 68 13.5t37 40.5q7 15 12 34t8 46t4.5 63t1.5 83v70h79v-70
q0 -103 -10 -170q-6 -38 -16 -69q11 -8 21 -14q18 -10 36 -16t36.5 -8.5t41.5 -2.5q10 0 10 -10v-69q0 -11 -10 -11q-56 0 -101 20q-32 15 -67 45q-20 -25 -49 -42q-42 -23 -97 -23q-42 0 -86 15q-36 13 -78 38q-17 -17 -39 -30q-42 -23 -97 -23q-42 0 -86 15q-38 14 -84 41
q-17 -20 -40 -33q-39 -23 -89 -23q-10 0 -10 11v69q0 10 10 10q31 0 54 12.5t37 41.5q7 15 12 34t8 46t4.5 63t1.5 83h79zM541 625l76 -77l-76 -75l-77 75zM376 625l77 -77l-76 -75l-76 75zM459 730l61 -61l-60 -60l-61 60z" />
    <glyph glyph-name="uniFEB7" unicode="&#x634;" horiz-adv-x="863" arabic-form="initial" 
d="M196 370q0 -103 -10 -170q-7 -45 -20 -80q26 -13 57 -20q41 -10 71 -10q45 0 68 13.5t37 40.5q7 15 12 34t8 46t4.5 63t1.5 83h79q0 -103 -10 -170q-7 -44 -19 -79q31 -13 55 -21q36 -10 74 -10q121 0 121 102q0 21 -1.5 44.5t-5 56.5t-9.5 79.5t-16 112.5h85
q16 -108 23 -177.5t7 -118.5q0 -43 -14 -78t-39.5 -59.5t-61.5 -38t-79 -13.5q-47 0 -95 17q-38 14 -81 40q-18 -20 -42 -34q-42 -23 -97 -23q-42 0 -86 15q-38 14 -84 41q-17 -20 -40 -33q-39 -23 -89 -23q-10 0 -10 11v69q0 10 10 10q31 0 54 12.5t37 41.5q7 15 12 34
t8 46t4.5 63t1.5 83h79zM547 626l76 -77l-76 -75l-77 75zM382 626l77 -77l-76 -75l-76 75zM465 731l61 -61l-60 -60l-61 60z" />
    <glyph glyph-name="uniFEBA" unicode="&#x635;" horiz-adv-x="1271" arabic-form="final" 
d="M537 440q15 -100 25 -183q2 -16 3 -31q60 66 111 115q65 64 120.5 103t104 56.5t96.5 17.5q45 0 83.5 -16t67 -44.5t44.5 -67.5t16 -85q0 -68 -29 -124q-15 -29 -37 -54q8 -5 15 -10q18 -10 36 -16t36.5 -8.5t41.5 -2.5q10 0 10 -10v-69q0 -11 -10 -11q-56 0 -101 20
q-39 18 -81 59q-50 -36 -118 -57q-74 -22 -165 -22q-32 0 -68 3t-71 8t-67 11q-18 3 -34 6q-3 -28 -11 -54q-17 -58 -52 -100t-88.5 -65.5t-126.5 -23.5q-118 0 -183 70.5t-65 201.5q0 62 12 114t33 114h80q-21 -54 -33 -108t-12 -105q0 -91 42 -144t134 -53q101 0 148 54
t47 170q0 31 -2.5 65.5t-8 75.5t-12.5 90t-16 110h85zM608 103q30 -4 61.5 -7t63.5 -4.5t61 -1.5q74 0 134.5 15t103.5 41.5t66.5 63.5t23.5 81q0 29 -10.5 54t-29 43.5t-43.5 29t-54 10.5q-45 0 -89 -19.5t-94 -58t-109 -95.5q-55 -53 -122 -121q1 -13 1 -26q17 -3 36 -5z
" />
    <glyph glyph-name="uniFEBC" unicode="&#x635;" horiz-adv-x="1016" arabic-form="medial" 
d="M236 370q-4 -38 -7.5 -68t-7 -55.5t-8 -47.5t-9.5 -43l-1 -1q18 -7 39 -14q9 -3 18 -7q97 116 166 188q74 78 129.5 120.5t98.5 56.5t87 14q45 0 84 -16t67 -44.5t44 -67.5t16 -85q0 -68 -28.5 -123t-81 -94.5t-126.5 -61t-165 -21.5q-68 0 -128.5 9.5t-111.5 23
t-91 29.5q-29 11 -51 21q-19 -23 -42 -41q-27 -20 -60 -31t-67 -11q-10 0 -10 11v69q0 10 10 10q54 0 84 19.5t45 66.5q8 26 16.5 72.5t13.5 121.5h77zM427 97q54 -7 112 -7q74 0 134.5 14t103 39.5t66 62t23.5 80.5q0 29 -10.5 54t-29 43.5t-43.5 29t-54 10.5
q-38 0 -76 -17t-86 -57.5t-111 -108.5q-49 -53 -112 -128q40 -9 83 -15zM865 143q20 -15 37.5 -25.5t35.5 -16.5t36.5 -8.5t41.5 -2.5q10 0 10 -10v-69q0 -11 -10 -11q-56 0 -101 20.5t-94 72.5z" />
    <glyph glyph-name="uniFEBB" unicode="&#x635;" horiz-adv-x="997" arabic-form="initial" 
d="M236 370q-4 -38 -7.5 -68t-7 -55.5t-8 -47.5t-9.5 -43l-1 -1q18 -7 39 -14q9 -3 18 -7q97 116 166 188q74 78 129.5 120.5t98.5 56.5t87 14q45 0 84 -16t67 -44.5t44 -67.5t16 -85q0 -68 -28.5 -123t-81 -94.5t-126.5 -61t-165 -21.5q-68 0 -128.5 9.5t-111.5 23
t-91 29.5q-29 11 -51 21q-19 -23 -42 -41q-27 -20 -60 -31t-67 -11q-10 0 -10 11v69q0 10 10 10q54 0 84 19.5t45 66.5q8 26 16.5 72.5t13.5 121.5h77zM427 97q54 -7 112 -7q74 0 134.5 14t103 39.5t66 62t23.5 80.5q0 29 -10.5 54t-29 43.5t-43.5 29t-54 10.5
q-38 0 -76 -17t-86 -57.5t-111 -108.5q-49 -53 -112 -128q40 -9 83 -15z" />
    <glyph glyph-name="uniFEBE" unicode="&#x636;" horiz-adv-x="1271" arabic-form="final" 
d="M537 440q15 -100 25 -183q2 -16 3 -31q60 66 111 115q65 64 120.5 103t104 56.5t96.5 17.5q45 0 83.5 -16t67 -44.5t44.5 -67.5t16 -85q0 -68 -29 -124q-15 -29 -37 -54q8 -5 15 -10q18 -10 36 -16t36.5 -8.5t41.5 -2.5q10 0 10 -10v-69q0 -11 -10 -11q-56 0 -101 20
q-39 18 -81 59q-50 -36 -118 -57q-74 -22 -165 -22q-32 0 -68 3t-71 8t-67 11q-18 3 -34 6q-3 -28 -11 -54q-17 -58 -52 -100t-88.5 -65.5t-126.5 -23.5q-118 0 -183 70.5t-65 201.5q0 62 12 114t33 114h80q-21 -54 -33 -108t-12 -105q0 -91 42 -144t134 -53q101 0 148 54
t47 170q0 31 -2.5 65.5t-8 75.5t-12.5 90t-16 110h85zM608 103q30 -4 61.5 -7t63.5 -4.5t61 -1.5q74 0 134.5 15t103.5 41.5t66.5 63.5t23.5 81q0 29 -10.5 54t-29 43.5t-43.5 29t-54 10.5q-45 0 -89 -19.5t-94 -58t-109 -95.5q-55 -53 -122 -121q1 -13 1 -26q17 -3 36 -5z
M768 708l77 -76l-75 -75l-77 75z" />
    <glyph glyph-name="uniFEC0" unicode="&#x636;" horiz-adv-x="1016" arabic-form="medial" 
d="M236 370q-4 -38 -7.5 -68t-7 -55.5t-8 -47.5t-9.5 -43l-1 -1q18 -7 39 -14q9 -3 18 -7q97 116 166 188q74 78 129.5 120.5t98.5 56.5t87 14q45 0 84 -16t67 -44.5t44 -67.5t16 -85q0 -68 -28.5 -123t-81 -94.5t-126.5 -61t-165 -21.5q-68 0 -128.5 9.5t-111.5 23
t-91 29.5q-29 11 -51 21q-19 -23 -42 -41q-27 -20 -60 -31t-67 -11q-10 0 -10 11v69q0 10 10 10q54 0 84 19.5t45 66.5q8 26 16.5 72.5t13.5 121.5h77zM427 97q54 -7 112 -7q74 0 134.5 14t103 39.5t66 62t23.5 80.5q0 29 -10.5 54t-29 43.5t-43.5 29t-54 10.5
q-38 0 -76 -17t-86 -57.5t-111 -108.5q-49 -53 -112 -128q40 -9 83 -15zM865 143q20 -15 37.5 -25.5t35.5 -16.5t36.5 -8.5t41.5 -2.5q10 0 10 -10v-69q0 -11 -10 -11q-56 0 -101 20.5t-94 72.5zM469 705l77 -76l-75 -75l-77 75z" />
    <glyph glyph-name="uniFEBF" unicode="&#x636;" horiz-adv-x="997" arabic-form="initial" 
d="M236 370q-4 -38 -7.5 -68t-7 -55.5t-8 -47.5t-9.5 -43l-1 -1q18 -7 39 -14q9 -3 18 -7q97 116 166 188q74 78 129.5 120.5t98.5 56.5t87 14q45 0 84 -16t67 -44.5t44 -67.5t16 -85q0 -68 -28.5 -123t-81 -94.5t-126.5 -61t-165 -21.5q-68 0 -128.5 9.5t-111.5 23
t-91 29.5q-29 11 -51 21q-19 -23 -42 -41q-27 -20 -60 -31t-67 -11q-10 0 -10 11v69q0 10 10 10q54 0 84 19.5t45 66.5q8 26 16.5 72.5t13.5 121.5h77zM427 97q54 -7 112 -7q74 0 134.5 14t103 39.5t66 62t23.5 80.5q0 29 -10.5 54t-29 43.5t-43.5 29t-54 10.5
q-38 0 -76 -17t-86 -57.5t-111 -108.5q-49 -53 -112 -128q40 -9 83 -15zM469 705l77 -76l-75 -75l-77 75z" />
    <glyph glyph-name="uniFEC2" unicode="&#x637;" horiz-adv-x="880" arabic-form="final" 
d="M268 725v-285q0 -52 -10 -118q-5 -33 -11 -66q25 28 47 51q75 81 130.5 128t99.5 65t89 18q44 0 82.5 -16t66.5 -44.5t44 -67.5t16 -85q0 -68 -29 -124t-81.5 -96t-126.5 -62.5t-165 -22.5q-113 0 -218.5 11.5t-186.5 31.5v85q51 -11 106 -19q32 39 62 73v543h85zM408 90
q74 0 134.5 15t103.5 41.5t66.5 63.5t23.5 81q0 29 -10.5 54t-28.5 43.5t-43 29t-53 10.5q-37 0 -75 -19.5t-86.5 -63.5t-113.5 -115q-50 -56 -117 -131q97 -9 199 -9zM729 143q20 -15 37.5 -25.5t35.5 -16.5t36.5 -8.5t41.5 -2.5q10 0 10 -10v-69q0 -11 -10 -11
q-56 0 -101 20.5t-94 72.5z" />
    <glyph glyph-name="uniFEC4" unicode="&#x637;" horiz-adv-x="806" arabic-form="medial" 
d="M198 725v-285q0 -52 -10 -118q-6 -36 -12 -71q50 58 91 101q46 49 83 81t69 51t61 26.5t59 7.5q45 0 83 -16t65.5 -44.5t43.5 -67.5t16 -85q0 -68 -29 -124t-81.5 -96t-126.5 -62.5t-165 -22.5h-345q-10 0 -10 11v69q0 10 10 10h45q36 45 68 84v551h85zM333 90
q74 0 134.5 15t103.5 41.5t66.5 63.5t23.5 81q0 29 -10.5 54t-28.5 43.5t-42.5 29t-52.5 10.5q-38 0 -77 -21.5t-89 -68.5t-116 -121q-48 -55 -111 -127h199zM655 143q20 -15 37.5 -25.5t35.5 -16.5t36.5 -8.5t41.5 -2.5q10 0 10 -10v-69q0 -11 -10 -11q-56 0 -101 20.5
t-94 72.5z" />
    <glyph glyph-name="uniFEC3" unicode="&#x637;" horiz-adv-x="792" arabic-form="initial" 
d="M198 725v-285q0 -52 -10 -118q-6 -36 -12 -71q50 58 91 101q46 49 83 81t69 51t61 26.5t59 7.5q45 0 83 -16t65.5 -44.5t43.5 -67.5t16 -85q0 -68 -29 -124t-81.5 -96t-126.5 -62.5t-165 -22.5h-345q-10 0 -10 11v69q0 10 10 10h45q36 45 68 84v551h85zM333 90
q74 0 134.5 15t103.5 41.5t66.5 63.5t23.5 81q0 29 -10.5 54t-28.5 43.5t-42.5 29t-52.5 10.5q-38 0 -77 -21.5t-89 -68.5t-116 -121q-48 -55 -111 -127h199z" />
    <glyph glyph-name="uniFEC6" unicode="&#x638;" horiz-adv-x="880" arabic-form="final" 
d="M268 725v-285q0 -52 -10 -118q-5 -33 -11 -66q25 28 47 51q75 81 130.5 128t99.5 65t89 18q44 0 82.5 -16t66.5 -44.5t44 -67.5t16 -85q0 -68 -29 -124t-81.5 -96t-126.5 -62.5t-165 -22.5q-113 0 -218.5 11.5t-186.5 31.5v85q51 -11 106 -19q32 39 62 73v543h85zM408 90
q74 0 134.5 15t103.5 41.5t66.5 63.5t23.5 81q0 29 -10.5 54t-28.5 43.5t-43 29t-53 10.5q-37 0 -75 -19.5t-86.5 -63.5t-113.5 -115q-50 -56 -117 -131q97 -9 199 -9zM729 143q20 -15 37.5 -25.5t35.5 -16.5t36.5 -8.5t41.5 -2.5q10 0 10 -10v-69q0 -11 -10 -11
q-56 0 -101 20.5t-94 72.5zM435 708l77 -76l-75 -75l-77 75z" />
    <glyph glyph-name="uniFEC8" unicode="&#x638;" horiz-adv-x="806" arabic-form="medial" 
d="M198 725v-285q0 -52 -10 -118q-6 -36 -12 -71q50 58 91 101q46 49 83 81t69 51t61 26.5t59 7.5q45 0 83 -16t65.5 -44.5t43.5 -67.5t16 -85q0 -68 -29 -124t-81.5 -96t-126.5 -62.5t-165 -22.5h-345q-10 0 -10 11v69q0 10 10 10h45q36 45 68 84v551h85zM333 90
q74 0 134.5 15t103.5 41.5t66.5 63.5t23.5 81q0 29 -10.5 54t-28.5 43.5t-42.5 29t-52.5 10.5q-38 0 -77 -21.5t-89 -68.5t-116 -121q-48 -55 -111 -127h199zM655 143q20 -15 37.5 -25.5t35.5 -16.5t36.5 -8.5t41.5 -2.5q10 0 10 -10v-69q0 -11 -10 -11q-56 0 -101 20.5
t-94 72.5zM361 708l77 -76l-75 -75l-77 75z" />
    <glyph glyph-name="uniFEC7" unicode="&#x638;" horiz-adv-x="792" arabic-form="initial" 
d="M198 725v-285q0 -52 -10 -118q-6 -36 -12 -71q50 58 91 101q46 49 83 81t69 51t61 26.5t59 7.5q45 0 83 -16t65.5 -44.5t43.5 -67.5t16 -85q0 -68 -29 -124t-81.5 -96t-126.5 -62.5t-165 -22.5h-345q-10 0 -10 11v69q0 10 10 10h45q36 45 68 84v551h85zM333 90
q74 0 134.5 15t103.5 41.5t66.5 63.5t23.5 81q0 29 -10.5 54t-28.5 43.5t-42.5 29t-52.5 10.5q-38 0 -77 -21.5t-89 -68.5t-116 -121q-48 -55 -111 -127h199zM361 708l77 -76l-75 -75l-77 75z" />
    <glyph glyph-name="uniFECA" unicode="&#x639;" horiz-adv-x="596" arabic-form="final" 
d="M319 528q47 0 86.5 -14t68.5 -38t45 -57t16 -71q0 -39 -18.5 -72.5t-47.5 -62t-66 -52.5l-27 -17q47 -25 94 -38q57 -16 126 -16q10 0 10 -10v-69q0 -11 -10 -11q-50 0 -92.5 9t-81 25t-74.5 38q-22 14 -44 30q-28 -17 -54 -33q-35 -23 -60 -46t-39 -47.5t-14 -51.5
q0 -52 52.5 -80.5t151.5 -28.5q27 0 52.5 2t52.5 6.5t57 11.5t65 17v-80q-38 -13 -68.5 -22t-58 -14.5t-53 -8t-52.5 -2.5q-142 0 -213 49.5t-71 141.5q0 39 16 73t44.5 64.5t67.5 57.5q25 18 52 34q-19 34 -37 62q-23 37 -45 67.5t-45 55.5l-36 40q-17 -8 -34 -17v80
q30 21 65 38t72.5 30t75 20t71.5 7zM337 207q34 22 59 43t39 41.5t14 41.5q0 46 -40 75.5t-103 29.5q-55 0 -126 -23q-19 -6 -38 -13q38 -39 78 -94t80 -124q19 12 37 23z" />
    <glyph glyph-name="uniFECC" unicode="&#x639;" horiz-adv-x="590" arabic-form="medial" 
d="M313 485q47 0 86.5 -14t68.5 -38t45 -57t16 -71q0 -27 -8.5 -58.5t-27.5 -62t-48 -59.5q-12 -12 -25 -22q27 -5 53 -8q52 -5 117 -5q10 0 10 -10v-69q0 -11 -10 -11q-100 0 -175 19q-46 12 -85 28q-22 -8 -43 -15q-41 -12 -84 -19t-91.5 -10t-111.5 -3q-10 2 -10 11v69
q0 10 10 10q72 0 133 3q49 3 92 10q-17 30 -32 55q-24 39 -47.5 70.5t-46.5 57.5q-18 21 -37 41q-16 -8 -33 -17v80q30 21 65 38t72.5 30t75 20t71.5 7zM338 130q31 21 54.5 47t37 54t13.5 53q0 51 -38.5 81t-104.5 30q-55 0 -126 -23q-19 -6 -39 -13q40 -41 81 -99
q45 -64 90 -147q17 7 32 17z" />
    <glyph glyph-name="uniFECB" unicode="&#x639;" horiz-adv-x="543" arabic-form="initial" 
d="M500 43q-50 -9 -103 -17t-113 -14t-130 -9t-154 -3q-10 0 -10 11v69q0 10 10 10q83 0 148 2q-8 5 -15 10q-31 24 -50.5 51t-28 57.5t-8.5 61.5q0 45 17 84t47 67.5t71.5 45t89.5 16.5q66 0 170 -41v-80q-52 17 -90 24.5t-67 7.5q-69 0 -110.5 -35.5t-41.5 -96.5
q0 -26 12.5 -55t38.5 -53t65.5 -38.5t94.5 -11.5l-2 -1q25 3 50 7q58 8 127 20z" />
    <glyph glyph-name="uniFECE" unicode="&#x63a;" horiz-adv-x="596" arabic-form="final" 
d="M319 528q47 0 86.5 -14t68.5 -38t45 -57t16 -71q0 -39 -18.5 -72.5t-47.5 -62t-66 -52.5l-27 -17q47 -25 94 -38q57 -16 126 -16q10 0 10 -10v-69q0 -11 -10 -11q-50 0 -92.5 9t-81 25t-74.5 38q-22 14 -44 30q-28 -17 -54 -33q-35 -23 -60 -46t-39 -47.5t-14 -51.5
q0 -52 52.5 -80.5t151.5 -28.5q27 0 52.5 2t52.5 6.5t57 11.5t65 17v-80q-38 -13 -68.5 -22t-58 -14.5t-53 -8t-52.5 -2.5q-142 0 -213 49.5t-71 141.5q0 39 16 73t44.5 64.5t67.5 57.5q25 18 52 34q-19 34 -37 62q-23 37 -45 67.5t-45 55.5l-36 40q-17 -8 -34 -17v80
q30 21 65 38t72.5 30t75 20t71.5 7zM337 207q34 22 59 43t39 41.5t14 41.5q0 46 -40 75.5t-103 29.5q-55 0 -126 -23q-19 -6 -38 -13q38 -39 78 -94t80 -124q19 12 37 23zM304 754l77 -76l-75 -75l-77 75z" />
    <glyph glyph-name="uniFED0" unicode="&#x63a;" horiz-adv-x="590" arabic-form="medial" 
d="M313 485q47 0 86.5 -14t68.5 -38t45 -57t16 -71q0 -27 -8.5 -58.5t-27.5 -62t-48 -59.5q-12 -12 -25 -22q27 -5 53 -8q52 -5 117 -5q10 0 10 -10v-69q0 -11 -10 -11q-100 0 -175 19q-46 12 -85 28q-22 -8 -43 -15q-41 -12 -84 -19t-91.5 -10t-111.5 -3q-10 2 -10 11v69
q0 10 10 10q72 0 133 3q49 3 92 10q-17 30 -32 55q-24 39 -47.5 70.5t-46.5 57.5q-18 21 -37 41q-16 -8 -33 -17v80q30 21 65 38t72.5 30t75 20t71.5 7zM338 130q31 21 54.5 47t37 54t13.5 53q0 51 -38.5 81t-104.5 30q-55 0 -126 -23q-19 -6 -39 -13q40 -41 81 -99
q45 -64 90 -147q17 7 32 17zM295 710l77 -76l-75 -75l-77 75z" />
    <glyph glyph-name="uniFECF" unicode="&#x63a;" horiz-adv-x="543" arabic-form="initial" 
d="M500 43q-50 -9 -103 -17t-113 -14t-130 -9t-154 -3q-10 0 -10 11v69q0 10 10 10q83 0 148 2q-8 5 -15 10q-31 24 -50.5 51t-28 57.5t-8.5 61.5q0 45 17 84t47 67.5t71.5 45t89.5 16.5q66 0 170 -41v-80q-52 17 -90 24.5t-67 7.5q-69 0 -110.5 -35.5t-41.5 -96.5
q0 -26 12.5 -55t38.5 -53t65.5 -38.5t94.5 -11.5l-2 -1q25 3 50 7q58 8 127 20zM257 710l77 -76l-75 -75l-77 75z" />
    <glyph glyph-name="uniFED2" unicode="&#x641;" horiz-adv-x="964" arabic-form="final" 
d="M692 485q46 0 86 -16.5t69 -46t45.5 -69.5t16.5 -88q0 -69 -44 -124q-20 -25 -46 -46l34 -2q55 -3 111 -3q10 0 10 -10v-69q0 -11 -10 -11q-83 0 -171 14q-52 8 -97 21q-47 -15 -102 -23q-87 -12 -174 -12q-10 2 -10 11v69q0 10 10 10q56 0 107 3q17 1 33 2
q-24 19 -43 42q-43 55 -43 127q0 47 17 87.5t46.5 70t69 46.5t85.5 17zM788 162q35 42 35 96q0 30 -10 55t-27.5 43.5t-42 28.5t-54.5 10q-27 0 -51 -9.5t-41.5 -27.5t-27.5 -43.5t-10 -56.5q0 -53 33 -95q33 -41 92 -61q70 20 104 60zM141 388q-8 -45 -12 -77.5t-4 -60.5
q0 -42 10 -72t32 -49.5t58 -29t87 -9.5h118q10 0 10 -10v-69q0 -11 -10 -11h-137q-120 0 -186.5 58.5t-66.5 169.5q0 37 5 75t16 85h80zM688 708l77 -76l-75 -75l-77 75z" />
    <glyph glyph-name="uniFED4" unicode="&#x641;" horiz-adv-x="544" arabic-form="medial" 
d="M272 485q46 0 86 -16.5t69 -46t45.5 -69.5t16.5 -88q0 -69 -44 -124q-20 -25 -46 -46l34 -2q55 -3 111 -3q10 0 10 -10v-69q0 -11 -10 -11q-83 0 -171 14q-52 8 -97 21q-47 -15 -102 -23q-87 -12 -174 -12q-10 2 -10 11v69q0 10 10 10q56 0 107 3q17 1 33 2
q-24 19 -43 42q-43 55 -43 127q0 47 17 87.5t46.5 70t69 46.5t85.5 17zM368 162q35 42 35 96q0 30 -10 55t-27.5 43.5t-42 28.5t-54.5 10q-27 0 -51 -9.5t-41.5 -27.5t-27.5 -43.5t-10 -56.5q0 -53 33 -95q33 -41 92 -61q70 20 104 60zM271 708l77 -76l-75 -75l-77 75z" />
    <glyph glyph-name="uniFED3" unicode="&#x641;" horiz-adv-x="521" arabic-form="initial" 
d="M262 485q46 0 85 -17.5t67.5 -47.5t45 -71.5t16.5 -89.5q0 -60 -18.5 -108t-53 -81.5t-83.5 -51.5t-111 -18h-210q-10 2 -10 11v69q0 10 10 10h111q-11 21 -27 46q-25 39 -35 71.5t-10 68.5q0 43 17 81t47 66.5t71 45t88 16.5zM219 90q77 0 124 40.5t47 117.5
q0 65 -37.5 105.5t-98.5 40.5q-29 0 -52.5 -10t-41 -27.5t-27 -41t-9.5 -50.5q0 -25 8.5 -50t27.5 -57q14 -23 25 -47q5 -10 10 -21h24zM263 708l77 -76l-75 -75l-77 75z" />
    <glyph glyph-name="uniFB6B" unicode="&#x6a4;" horiz-adv-x="964" arabic-form="final" 
d="M692 485q46 0 86 -16.5t69 -46t45.5 -69.5t16.5 -88q0 -69 -44 -124q-20 -25 -46 -46l34 -2q55 -3 111 -3q10 0 10 -10v-69q0 -11 -10 -11q-83 0 -171 14q-52 8 -97 21q-47 -15 -102 -23q-87 -12 -174 -12q-10 2 -10 11v69q0 10 10 10q56 0 107 3q17 1 33 2
q-24 19 -43 42q-43 55 -43 127q0 47 17 87.5t46.5 70t69 46.5t85.5 17zM788 162q35 42 35 96q0 30 -10 55t-27.5 43.5t-42 28.5t-54.5 10q-27 0 -51 -9.5t-41.5 -27.5t-27.5 -43.5t-10 -56.5q0 -53 33 -95q33 -41 92 -61q70 20 104 60zM141 388q-8 -45 -12 -77.5t-4 -60.5
q0 -42 10 -72t32 -49.5t58 -29t87 -9.5h118q10 0 10 -10v-69q0 -11 -10 -11h-137q-120 0 -186.5 58.5t-66.5 169.5q0 37 5 75t16 85h80zM775 712l76 -77l-76 -75l-77 75zM610 712l77 -77l-76 -75l-76 75zM693 817l61 -61l-60 -60l-61 60z" />
    <glyph glyph-name="uniFB6D" unicode="&#x6a4;" horiz-adv-x="544" arabic-form="medial" 
d="M272 485q46 0 86 -16.5t69 -46t45.5 -69.5t16.5 -88q0 -69 -44 -124q-20 -25 -46 -46l34 -2q55 -3 111 -3q10 0 10 -10v-69q0 -11 -10 -11q-83 0 -171 14q-52 8 -97 21q-47 -15 -102 -23q-87 -12 -174 -12q-10 2 -10 11v69q0 10 10 10q56 0 107 3q17 1 33 2
q-24 19 -43 42q-43 55 -43 127q0 47 17 87.5t46.5 70t69 46.5t85.5 17zM368 162q35 42 35 96q0 30 -10 55t-27.5 43.5t-42 28.5t-54.5 10q-27 0 -51 -9.5t-41.5 -27.5t-27.5 -43.5t-10 -56.5q0 -53 33 -95q33 -41 92 -61q70 20 104 60zM357 712l76 -77l-76 -75l-77 75z
M192 712l77 -77l-76 -75l-76 75zM275 817l61 -61l-60 -60l-61 60z" />
    <glyph glyph-name="uniFB6C" unicode="&#x6a4;" horiz-adv-x="521" arabic-form="initial" 
d="M262 485q46 0 85 -17.5t67.5 -47.5t45 -71.5t16.5 -89.5q0 -60 -18.5 -108t-53 -81.5t-83.5 -51.5t-111 -18h-210q-10 2 -10 11v69q0 10 10 10h111q-11 21 -27 46q-25 39 -35 71.5t-10 68.5q0 43 17 81t47 66.5t71 45t88 16.5zM219 90q77 0 124 40.5t47 117.5
q0 65 -37.5 105.5t-98.5 40.5q-29 0 -52.5 -10t-41 -27.5t-27 -41t-9.5 -50.5q0 -25 8.5 -50t27.5 -57q14 -23 25 -47q5 -10 10 -21h24zM352 712l76 -77l-76 -75l-77 75zM187 712l77 -77l-76 -75l-76 75zM270 817l61 -61l-60 -60l-61 60z" />
    <glyph glyph-name="uni06A1.init" unicode="&#x6a1;" horiz-adv-x="521" 
d="M262 485q46 0 85 -17.5t67.5 -47.5t45 -71.5t16.5 -89.5q0 -60 -18.5 -108t-53 -81.5t-83.5 -51.5t-111 -18h-210q-10 2 -10 11v69q0 10 10 10h111q-11 21 -27 46q-25 39 -35 71.5t-10 68.5q0 43 17 81t47 66.5t71 45t88 16.5zM219 90q77 0 124 40.5t47 117.5
q0 65 -37.5 105.5t-98.5 40.5q-29 0 -52.5 -10t-41 -27.5t-27 -41t-9.5 -50.5q0 -25 8.5 -50t27.5 -57q14 -23 25 -47q5 -10 10 -21h24z" />
    <glyph glyph-name="uni06A1.medi" unicode="&#x6a1;" horiz-adv-x="544" 
d="M272 485q46 0 86 -16.5t69 -46t45.5 -69.5t16.5 -88q0 -69 -44 -124q-20 -25 -46 -46l34 -2q55 -3 111 -3q10 0 10 -10v-69q0 -11 -10 -11q-83 0 -171 14q-52 8 -97 21q-47 -15 -102 -23q-87 -12 -174 -12q-10 2 -10 11v69q0 10 10 10q56 0 107 3q17 1 33 2
q-24 19 -43 42q-43 55 -43 127q0 47 17 87.5t46.5 70t69 46.5t85.5 17zM368 162q35 42 35 96q0 30 -10 55t-27.5 43.5t-42 28.5t-54.5 10q-27 0 -51 -9.5t-41.5 -27.5t-27.5 -43.5t-10 -56.5q0 -53 33 -95q33 -41 92 -61q70 20 104 60z" />
    <glyph glyph-name="uni06A1.fina" unicode="&#x6a1;" horiz-adv-x="964" 
d="M692 485q46 0 86 -16.5t69 -46t45.5 -69.5t16.5 -88q0 -69 -44 -124q-20 -25 -46 -46l34 -2q55 -3 111 -3q10 0 10 -10v-69q0 -11 -10 -11q-83 0 -171 14q-52 8 -97 21q-47 -15 -102 -23q-87 -12 -174 -12q-10 2 -10 11v69q0 10 10 10q56 0 107 3q17 1 33 2
q-24 19 -43 42q-43 55 -43 127q0 47 17 87.5t46.5 70t69 46.5t85.5 17zM788 162q35 42 35 96q0 30 -10 55t-27.5 43.5t-42 28.5t-54.5 10q-27 0 -51 -9.5t-41.5 -27.5t-27.5 -43.5t-10 -56.5q0 -53 33 -95q33 -41 92 -61q70 20 104 60zM141 388q-8 -45 -12 -77.5t-4 -60.5
q0 -42 10 -72t32 -49.5t58 -29t87 -9.5h118q10 0 10 -10v-69q0 -11 -10 -11h-137q-120 0 -186.5 58.5t-66.5 169.5q0 37 5 75t16 85h80z" />
    <glyph glyph-name="uni066F.aalt" unicode="&#x66f;" horiz-adv-x="760" 
d="M494 475q86 0 139 -57t59 -158q2 -42 4 -100q2 -34 3 -70h61q10 0 10 -10v-69q0 -11 -10 -11h-62q-5 -35 -20 -66q-22 -47 -66 -80t-109 -51t-150 -18q-72 0 -130 16t-98.5 49.5t-62.5 84.5t-22 122q0 62 12 114t33 114h80q-21 -54 -33 -108t-12 -105q0 -100 62.5 -149
t198.5 -49q57 0 101.5 12.5t74.5 34t46 50.5q7 14 11 29h-80q-121 0 -190.5 60.5t-69.5 171.5q0 52 16 96.5t45 77t69.5 51t89.5 18.5zM610 200q-2 27 -3 50q-5 66 -35.5 100.5t-82.5 34.5q-29 0 -53 -11.5t-41 -31.5t-26.5 -47t-9.5 -59q0 -72 46.5 -109t134.5 -37h77
l-3 54q-1 29 -4 56z" />
    <glyph glyph-name="uniFED6" unicode="&#x642;" horiz-adv-x="760" arabic-form="final" 
d="M494 475q86 0 139 -57t59 -158q2 -42 4 -100q2 -34 3 -70h61q10 0 10 -10v-69q0 -11 -10 -11h-62q-5 -35 -20 -66q-22 -47 -66 -80t-109 -51t-150 -18q-72 0 -130 16t-98.5 49.5t-62.5 84.5t-22 122q0 62 12 114t33 114h80q-21 -54 -33 -108t-12 -105q0 -100 62.5 -149
t198.5 -49q57 0 101.5 12.5t74.5 34t46 50.5q7 14 11 29h-80q-121 0 -190.5 60.5t-69.5 171.5q0 52 16 96.5t45 77t69.5 51t89.5 18.5zM610 200q-2 27 -3 50q-5 66 -35.5 100.5t-82.5 34.5q-29 0 -53 -11.5t-41 -31.5t-26.5 -47t-9.5 -59q0 -72 46.5 -109t134.5 -37h77
l-3 54q-1 29 -4 56zM414 707l76 -74l75 74l76 -76l-76 -75l-75 73l-75 -73l-76 75z" />
    <glyph glyph-name="uniFED8" unicode="&#x642;" horiz-adv-x="544" arabic-form="medial" 
d="M272 485q46 0 86 -16.5t69 -46t45.5 -69.5t16.5 -88q0 -69 -44 -124q-20 -25 -46 -46l34 -2q55 -3 111 -3q10 0 10 -10v-69q0 -11 -10 -11q-83 0 -171 14q-52 8 -97 21q-47 -15 -102 -23q-87 -12 -174 -12q-10 2 -10 11v69q0 10 10 10q56 0 107 3q17 1 33 2
q-24 19 -43 42q-43 55 -43 127q0 47 17 87.5t46.5 70t69 46.5t85.5 17zM368 162q35 42 35 96q0 30 -10 55t-27.5 43.5t-42 28.5t-54.5 10q-27 0 -51 -9.5t-41.5 -27.5t-27.5 -43.5t-10 -56.5q0 -53 33 -95q33 -41 92 -61q70 20 104 60zM197 707l76 -74l75 74l76 -76l-76 -75
l-75 73l-75 -73l-76 75z" />
    <glyph glyph-name="uniFED7" unicode="&#x642;" horiz-adv-x="521" arabic-form="initial" 
d="M262 485q46 0 85 -17.5t67.5 -47.5t45 -71.5t16.5 -89.5q0 -60 -18.5 -108t-53 -81.5t-83.5 -51.5t-111 -18h-210q-10 2 -10 11v69q0 10 10 10h111q-11 21 -27 46q-25 39 -35 71.5t-10 68.5q0 43 17 81t47 66.5t71 45t88 16.5zM219 90q77 0 124 40.5t47 117.5
q0 65 -37.5 105.5t-98.5 40.5q-29 0 -52.5 -10t-41 -27.5t-27 -41t-9.5 -50.5q0 -25 8.5 -50t27.5 -57q14 -23 25 -47q5 -10 10 -21h24zM189 707l76 -74l75 74l76 -76l-76 -75l-75 73l-75 -73l-76 75z" />
    <glyph glyph-name="uniFEDA" unicode="&#x643;" horiz-adv-x="877" arabic-form="final" 
d="M140 388q-8 -45 -12 -77.5t-4 -60.5q0 -42 10 -72t32 -49.5t58 -29t87 -9.5h118q93 0 158 14q54 11 91 31q-5 26 -5 56v534h85v-531q0 -53 27 -78.5t92 -25.5q10 0 10 -10v-69q0 -11 -10 -11q-103 0 -154 51q-9 10 -17 21q-53 -35 -114 -52q-69 -20 -161 -20h-2h-4h-3
h-130q-120 0 -186.5 58.5t-66.5 169.5q0 37 5 75t16 85h80zM544 430l-22 -73h-125q-25 0 -47.5 -3t-58.5 -14v70q18 6 30.5 10t22.5 6l6 2l-3 3q-18 22 -18 51q0 40 28 68t77 28q15 0 34 -4.5t39 -14.5v-67q-22 7 -37.5 10t-30.5 3q-20 0 -34 -10t-14 -27q0 -19 16 -29
q14 -8 37 -9h100z" />
    <glyph glyph-name="uniFEDC" unicode="&#x643;" horiz-adv-x="649" arabic-form="medial" 
d="M538 795v-4l-370 -292l174 -76q204 -89 204 -223q0 -45 -18.5 -81.5t-52.5 -63t-82.5 -41t-109.5 -14.5h-283q-10 0 -10 11v69q0 10 10 10h291q37 0 68 8t53.5 22t35.5 33.5t13 42.5q0 41 -36.5 75t-124.5 73l-240 106v68l350 277h128zM498 143q20 -15 37.5 -25.5
t35.5 -16.5t36.5 -8.5t41.5 -2.5q10 0 10 -10v-69q0 -11 -10 -11q-56 0 -101 20.5t-94 72.5z" />
    <glyph glyph-name="uniFEDB" unicode="&#x643;" horiz-adv-x="581" arabic-form="initial" 
d="M538 795v-4l-370 -292l174 -76q204 -89 204 -223q0 -45 -18.5 -81.5t-52.5 -63t-82.5 -41t-109.5 -14.5h-283q-10 0 -10 11v69q0 10 10 10h291q37 0 68 8t53.5 22t35.5 33.5t13 42.5q0 41 -36.5 75t-124.5 73l-240 106v68l350 277h128z" />
    <glyph glyph-name="uniFB8F" unicode="&#x6a9;" horiz-adv-x="987" arabic-form="final" 
d="M151 440q-13 -63 -19 -107.5t-6 -82.5q0 -42 10 -72t32 -49.5t58 -29t87 -9.5h239q10 0 10 -10v-69q0 -11 -10 -11h-258q-120 0 -186.5 58.5t-66.5 170.5q0 35 7.5 90t22.5 121h80zM860 795v-4l-370 -292l174 -76q204 -89 204 -223q0 -45 -18.5 -81.5t-52.5 -63
t-82.5 -41t-109.5 -14.5h-283q-10 0 -10 11v69q0 10 10 10h291q37 0 68 8t53.5 22t35.5 33.5t13 42.5q0 41 -36.5 75t-124.5 73l-240 106v68l350 277h128zM836 143q20 -15 37.5 -25.5t35.5 -16.5t36.5 -8.5t41.5 -2.5q10 0 10 -10v-69q0 -11 -10 -11q-56 0 -101 20.5
t-94 72.5z" />
    <glyph glyph-name="uniFB91" unicode="&#x6a9;" horiz-adv-x="649" arabic-form="medial" 
d="M538 795v-4l-370 -292l174 -76q204 -89 204 -223q0 -45 -18.5 -81.5t-52.5 -63t-82.5 -41t-109.5 -14.5h-283q-10 0 -10 11v69q0 10 10 10h291q37 0 68 8t53.5 22t35.5 33.5t13 42.5q0 41 -36.5 75t-124.5 73l-240 106v68l350 277h128zM498 143q20 -15 37.5 -25.5
t35.5 -16.5t36.5 -8.5t41.5 -2.5q10 0 10 -10v-69q0 -11 -10 -11q-56 0 -101 20.5t-94 72.5z" />
    <glyph glyph-name="uniFB90" unicode="&#x6a9;" horiz-adv-x="581" arabic-form="initial" 
d="M538 795v-4l-370 -292l174 -76q204 -89 204 -223q0 -45 -18.5 -81.5t-52.5 -63t-82.5 -41t-109.5 -14.5h-283q-10 0 -10 11v69q0 10 10 10h291q37 0 68 8t53.5 22t35.5 33.5t13 42.5q0 41 -36.5 75t-124.5 73l-240 106v68l350 277h128z" />
    <glyph glyph-name="uniFB93" unicode="&#x6af;" horiz-adv-x="987" arabic-form="final" 
d="M151 440q-13 -63 -19 -107.5t-6 -82.5q0 -42 10 -72t32 -49.5t58 -29t87 -9.5h239q10 0 10 -10v-69q0 -11 -10 -11h-258q-120 0 -186.5 58.5t-66.5 170.5q0 35 7.5 90t22.5 121h80zM860 795v-4l-370 -292l174 -76q204 -89 204 -223q0 -45 -18.5 -81.5t-52.5 -63
t-82.5 -41t-109.5 -14.5h-283q-10 0 -10 11v69q0 10 10 10h291q37 0 68 8t53.5 22t35.5 33.5t13 42.5q0 41 -36.5 75t-124.5 73l-240 106v68l350 277h128zM836 143q20 -15 37.5 -25.5t35.5 -16.5t36.5 -8.5t41.5 -2.5q10 0 10 -10v-69q0 -11 -10 -11q-56 0 -101 20.5
t-94 72.5zM568 791l-261 -209l-37 44l208 169h90v-4z" />
    <glyph glyph-name="uniFB95" unicode="&#x6af;" horiz-adv-x="784" arabic-form="medial" 
d="M673 795v-4l-370 -292l174 -76q204 -89 204 -223q0 -45 -18.5 -81.5t-52.5 -63t-82.5 -41t-109.5 -14.5h-283q-10 0 -10 11v69q0 10 10 10h291q37 0 68 8t53.5 22t35.5 33.5t13 42.5q0 41 -36.5 75t-124.5 73l-240 106v68l350 277h128zM633 143q20 -15 37.5 -25.5
t35.5 -16.5t36.5 -8.5t41.5 -2.5q10 0 10 -10v-69q0 -11 -10 -11q-56 0 -101 20.5t-94 72.5zM350 791l-261 -209l-37 44l208 169h90v-4zM194 90q10 0 10 -10v-69q0 -11 -10 -11h-194q-10 0 -10 11v69q0 10 10 10h194z" />
    <glyph glyph-name="uniFB94" unicode="&#x6af;" horiz-adv-x="716" arabic-form="initial" 
d="M673 795v-4l-370 -292l174 -76q204 -89 204 -223q0 -45 -18.5 -81.5t-52.5 -63t-82.5 -41t-109.5 -14.5h-283q-10 0 -10 11v69q0 10 10 10h291q37 0 68 8t53.5 22t35.5 33.5t13 42.5q0 41 -36.5 75t-124.5 73l-240 106v68l350 277h128zM350 791l-261 -209l-37 44l208 169
h90v-4zM194 90q10 0 10 -10v-69q0 -11 -10 -11h-194q-10 0 -10 11v69q0 10 10 10h194z" />
    <glyph glyph-name="uniFEDE" unicode="&#x644;" horiz-adv-x="686" arabic-form="final" 
d="M574 725v-550q0 -41 30.5 -63t81.5 -22q10 0 10 -10v-69q0 -11 -10 -11q-73 0 -114 40l-2 1q-4 -35 -13 -66q-16 -58 -50.5 -100t-87.5 -66t-126 -24q-121 0 -187 70.5t-66 201.5q0 62 12 114t33 114h80q-21 -54 -33 -108t-12 -105q0 -91 44 -144t137 -53q100 0 144 55
t44 172v623h85z" />
    <glyph glyph-name="uniFEE0" unicode="&#x644;" horiz-adv-x="318" arabic-form="medial" 
d="M199 725v-531q0 -53 27 -78.5t92 -25.5q10 0 10 -10v-69q0 -11 -10 -11q-103 0 -154 51l-12 14l-10 -11q-17 -16 -37 -28t-45.5 -19t-59.5 -7q-10 0 -10 11v69q0 10 10 10q42 0 75 14q26 10 45 26q-6 28 -6 61v534h85z" />
    <glyph glyph-name="uniFEDF" unicode="&#x644;" horiz-adv-x="289" arabic-form="initial" 
d="M118.993 725v-531q0 -53 -26.999 -78.5q-26.998 -25.5 -91.9941 -25.5q-9.99902 0 -9.99902 -10v-69q0 -11 9.99902 -11q102.994 0 153.49 51.5q50.4971 51.5 50.4971 139.5v534h-84.9941z" />
    <glyph glyph-name="uniFEE2" unicode="&#x645;" horiz-adv-x="669" arabic-form="final" 
d="M381 466q61 0 100 -36t62 -114l29 -99q10 -36 20.5 -60t21.5 -39t24.5 -21.5t30.5 -6.5q10 0 10 -10v-69q0 -11 -10 -11q-36 0 -62.5 14t-47.5 39q-7 8 -13 17l-18 -70q-103 0 -183 15.5t-128 48.5q-23 16 -38 37q-25 -6 -38 -21q-21 -23 -21 -74q0 -24 2 -51t6 -60
t10 -74.5t15 -95.5h-85q-9 56 -15.5 99t-10 77.5t-5.5 62t-2 53.5q0 40 12 72.5t34 55.5t52 36q15 6 30 9q4 31 14 66q15 53 43.5 99.5t69 78.5t91.5 32zM524 113q-15 35 -28 77l-25 78q-17 56 -39.5 82t-55.5 26q-20 0 -40.5 -13.5t-40 -41t-36 -68.5t-28.5 -96
q26 -15 57 -27.5t69 -21.5t86 -14q41 -4 91 -4q-5 11 -10 23z" />
    <glyph glyph-name="uniFEE4" unicode="&#x645;" horiz-adv-x="572" arabic-form="medial" 
d="M283 466q61 0 100 -36t62 -114l29 -99q10 -36 20.5 -60t21.5 -39t24.5 -21.5t30.5 -6.5q10 0 10 -10v-69q0 -11 -10 -11q-36 0 -62.5 14t-47.5 39q-7 8 -13 17l-18 -70q-103 0 -183 15q-66 13 -110 37q-19 -15 -39 -27q-21 -12 -45 -18.5t-53 -6.5q-10 0 -10 11v69
q0 10 10 10q42 0 74 12l6 2l-2 2q-14 25 -14 55q0 42 15 95t43.5 99.5t69 78.5t91.5 32zM426 113q-15 35 -28 77l-25 78q-17 56 -39.5 82t-55.5 26q-20 0 -40.5 -13.5t-40 -41t-36 -68.5t-28.5 -96q26 -15 57 -27.5t69 -21.5t86 -14q41 -4 91 -4q-5 11 -10 23z" />
    <glyph glyph-name="uniFEE3" unicode="&#x645;" horiz-adv-x="551" arabic-form="initial" 
d="M313 461q49 0 84 -25.5t59.5 -73t38.5 -115.5t21 -154l-67 -106q-101 0 -197 19q-88 17 -155 48q-3 -4 -5 -7q-18 -24 -39.5 -35.5t-52.5 -11.5q-10 2 -10 11v69q0 10 10 10q17 0 29 10t23 30t22.5 50.5t28.5 72.5q22 54 44 93.5t47 65t54 37.5t65 12zM280 91
q81 -13 157 -13q-9 143 -41 216q-34 76 -88 76q-20 0 -37.5 -7.5t-34 -26.5t-33.5 -51t-36 -80q-16 -40 -30 -71q65 -30 143 -43z" />
    <glyph glyph-name="uniFEE6" unicode="&#x646;" horiz-adv-x="677" arabic-form="final" 
d="M537 440q15 -100 25 -183q4 -39 7 -76l1 -6q3 -28 13 -45t24 -26t32 -11.5t37 -2.5q10 0 10 -10v-69q0 -11 -10 -11q-63 0 -96 35q-6 7 -11 14q-4 -40 -14 -75q-17 -58 -52 -100t-88.5 -65.5t-126.5 -23.5q-118 0 -183 70.5t-65 201.5q0 62 12 114t33 114h80
q-21 -54 -33 -108t-12 -105q0 -91 42 -144t134 -53q101 0 148 54t47 170q0 31 -2.5 65.5t-8 75.5t-12.5 90t-16 110h85zM304 546l77 -76l-75 -75l-77 75z" />
    <glyph glyph-name="uniFEE8" unicode="&#x646;" horiz-adv-x="300" arabic-form="medial" 
d="M205 370q0 -103 -10 -170q-7 -43 -19 -77q6 -3 10 -6q18 -10 36 -16t36.5 -8.5t41.5 -2.5q10 0 10 -10v-69q0 -11 -10 -11q-56 0 -101 20q-29 13 -59 38q-18 -21 -43 -35q-41 -23 -97 -23q-10 0 -10 11v69q0 10 10 10q74 0 101 54q7 15 12 34t8 46t4.5 63t1.5 83h78z
M160 603l77 -76l-75 -75l-77 75z" />
    <glyph glyph-name="uniFEE7" unicode="&#x646;" horiz-adv-x="259" arabic-form="initial" 
d="M174 485q8 -55 14 -98.5t9.5 -78.5t5 -63.5t1.5 -53.5q0 -88 -50.5 -139.5t-153.5 -51.5q-10 0 -10 11v69q0 10 10 10q66 0 94 25.5t28 78.5q0 22 -2 47.5t-5.5 59t-10 78.5t-15.5 106h85zM123 708l77 -76l-75 -75l-77 75z" />
    <glyph glyph-name="uniFB9F" unicode="&#x6ba;" horiz-adv-x="677" arabic-form="final" 
d="M537 440q15 -100 25 -183q4 -39 7 -76l1 -6q3 -28 13 -45t24 -26t32 -11.5t37 -2.5q10 0 10 -10v-69q0 -11 -10 -11q-63 0 -96 35q-6 7 -11 14q-4 -40 -14 -75q-17 -58 -52 -100t-88.5 -65.5t-126.5 -23.5q-118 0 -183 70.5t-65 201.5q0 62 12 114t33 114h80
q-21 -54 -33 -108t-12 -105q0 -91 42 -144t134 -53q101 0 148 54t47 170q0 31 -2.5 65.5t-8 75.5t-12.5 90t-16 110h85z" />
    <glyph glyph-name="uniFEE9" unicode="&#x647;" horiz-adv-x="823" arabic-form="isolated" 
d="M310 670q112 0 199 -27t147 -76t91 -116.5t31 -148.5q0 -43 -14 -104.5t-40 -131.5l-84 -79q-85 0 -164 17q-58 13 -119 33q-43 -15 -85 -24q-61 -13 -122 -13q-32 0 -65.5 6t-69.5 17v85q33 -8 66 -13t64 -5q29 0 56 4q4 1 9 2q-24 18 -42 41q-42 55 -42 127
q0 47 16.5 87.5t45.5 70t68 46.5t85 17t85.5 -16.5t68 -46t44.5 -69.5t16 -88q0 -69 -44 -124q-20 -26 -47 -48q3 0 5 -1q34 -5 63 -8.5t55.5 -5t53.5 -1.5q23 50 37.5 109.5t14.5 107.5q0 54 -22.5 105.5t-69 91.5t-119 64.5t-172.5 24.5v90zM435 162q35 42 35 96
q0 30 -9.5 55t-27 43.5t-41.5 28.5t-54 10q-55 0 -91 -37t-36 -100q0 -53 32 -95q32 -41 90 -61q68 20 102 60z" />
    <glyph glyph-name="uniFEEA" unicode="&#x647;" horiz-adv-x="536" arabic-form="final" 
d="M447 538v-357q0 -45 19 -68t70 -23q10 0 10 -10v-69q0 -11 -10 -11q-88 0 -131 50q-40 -22 -75 -35q-42 -15 -88 -15q-45 0 -82 14t-63.5 39t-41.5 60.5t-15 78.5q0 40 16 85.5t55.5 86t106.5 71.5q59 27 144 39v64h85zM283 374q-49 -16 -84.5 -41.5t-54.5 -59.5t-19 -74
q0 -51 32 -80t87 -29q38 0 74 8q26 6 53 18q-9 32 -9 73v204q-42 -7 -79 -19z" />
    <glyph glyph-name="uniFEEC" unicode="&#x647;" horiz-adv-x="553" arabic-form="medial" 
d="M339 560q33 -29 60.5 -62t47.5 -69t31 -73.5t11 -74.5q0 -71 -37 -124q-17 -25 -42 -47q22 -7 47 -12q45 -8 96 -8q10 0 10 -11v-69q0 -10 -10 -10q-29 0 -56 5q-18 4 -40 11q38 -49 38 -96q0 -61 -45.5 -98t-121.5 -37q-58 0 -106.5 23t-84 64.5t-55.5 99.5q-5 15 -9 30
q-35 -2 -73 -2q-10 0 -10 11v69q0 10 10 10q33 0 63 1v8q0 55 11.5 115t36.5 120t65 118t96 108h67zM178 104q76 14 126.5 38.5t75 59t24.5 76.5q0 34 -9.5 65t-26 58.5t-38.5 51.5q-15 17 -31 32q-36 -31 -63 -71q-31 -46 -52 -97t-31 -102.5t-10 -96.5v-20q18 3 35 6z
M196 17q-19 -3 -38 -7q0 -1 1 -2q16 -46 42.5 -76t60 -44t69.5 -14q39 0 63 15.5t24 44.5q0 33 -20 66q-18 28 -55 65q-63 -31 -147 -48z" />
    <glyph glyph-name="uniFEEB" unicode="&#x647;" horiz-adv-x="752" arabic-form="initial" 
d="M239 670q112 0 199 -27t147 -76t91 -116.5t31 -148.5q0 -43 -14 -104.5t-40 -131.5l-85 -79q-84 0 -163 17q-58 13 -121 34q-51 -18 -112 -26q-85 -12 -172 -12q-10 2 -10 11v69q0 10 10 10q56 0 104 3q17 1 34 3q-23 18 -41 41q-43 55 -43 127q0 47 16.5 87.5t45.5 70
t68 46.5t85 17q47 0 86.5 -16.5t68 -46t44.5 -69.5t16 -88q0 -69 -44 -124q-20 -26 -47 -48q3 0 5 -1q34 -5 63 -8.5t55.5 -5t53.5 -1.5q23 50 37 109.5t14 107.5q0 54 -22 105.5t-69 91.5t-119.5 64.5t-172.5 24.5zM364 162q34 42 34 96q0 30 -9.5 55t-27 43.5t-41.5 28.5
t-54 10q-54 0 -90.5 -37t-36.5 -100q0 -53 33 -95q32 -41 89 -61q69 20 103 60z" />
    <glyph glyph-name="uniFBA7" unicode="&#x6c1;" horiz-adv-x="620" arabic-form="final" 
d="M297 430q34 0 61 -10.5t50.5 -34t45 -60.5t44.5 -89q10 -24 21.5 -50t25.5 -47t32.5 -35t42.5 -14q10 0 10 -10v-69q0 -11 -10 -11q-32 0 -58.5 10t-50 32.5t-44 58t-40.5 86.5q-15 40 -28.5 69t-28.5 48t-32.5 27.5t-40.5 8.5q-22 0 -40.5 -8.5t-36.5 -28.5t-36.5 -52.5
t-39.5 -80.5l-37 -84l-72 34l37 84q27 61 52.5 104t52.5 70t56.5 39.5t63.5 12.5z" />
    <glyph glyph-name="uniFBA9" unicode="&#x6c1;" horiz-adv-x="725" arabic-form="medial" 
d="M214 370v-347q0 -108 55 -158q52 -46 157 -50v65q0 101 48.5 155.5t137.5 54.5h113q10 0 10 -11v-69q0 -10 -10 -10h-113q-51 0 -78.5 -30.5t-27.5 -99.5v-63l-70 -82q-158 0 -232.5 73.5t-74.5 230.5v12q-8 -7 -17 -13q-20 -14 -47.5 -21t-64.5 -7q-10 0 -10 11v69
q0 10 10 10q21 0 43.5 3.5t41.5 12.5t31.5 25t12.5 41v198h85zM685 -62l-50 -108h55l-18 -105h-110v103l54 110h69z" />
    <glyph glyph-name="uniFBA8" unicode="&#x6c1;" horiz-adv-x="274" arabic-form="initial" 
d="M157 -62l-50 -108h55l-18 -105h-110v103l54 110h69zM174 485q8 -55 14 -98.5t9.5 -78.5t5 -63.5t1.5 -53.5q0 -88 -50.5 -139.5t-153.5 -51.5q-10 0 -10 11v69q0 10 10 10q66 0 94 25.5t28 78.5q0 22 -2 47.5t-5.5 59t-10 78.5t-15.5 106h85z" />
    <glyph glyph-name="uni06C2.aalt" unicode="&#x6c2;" horiz-adv-x="536" 
d="M447 538v-357q0 -45 19 -68t70 -23q10 0 10 -10v-69q0 -11 -10 -11q-88 0 -131 50q-40 -22 -75 -35q-42 -15 -88 -15q-45 0 -82 14t-63.5 39t-41.5 60.5t-15 78.5q0 40 16 85.5t55.5 86t106.5 71.5q59 27 144 39v64h85zM283 374q-49 -16 -84.5 -41.5t-54.5 -59.5t-19 -74
q0 -51 32 -80t87 -29q38 0 74 8q26 6 53 18q-9 32 -9 73v204q-42 -7 -79 -19zM524 661l-18 -60h-162q-17 0 -33 -2t-42 -10v58q25 9 40 11q12 2 30 3q-5 5 -8 10q-15 22 -15 47q0 39 27 64.5t67 25.5q21 0 39.5 -6t36.5 -14v-58q-23 9 -36.5 12t-26.5 3q-22 0 -36 -11.5
t-14 -31.5q0 -17 13 -29q12 -11 29 -12h109z" />
    <glyph glyph-name="uniFBAB" unicode="&#x6be;" horiz-adv-x="617" arabic-form="final" 
d="M403 560q33 -30 60.5 -64.5t47.5 -70.5t31 -72.5t11 -71.5q0 -45 -16 -82t-45 -67q-10 -11 -22 -20q23 -9 51 -14q45 -8 96 -8q10 0 10 -11v-69q0 -10 -10 -10q-29 0 -56 5q-19 4 -40 11q38 -49 38 -96q0 -61 -45.5 -98t-121.5 -37q-60 0 -109 23t-84 66q-29 35 -47 81
q-44 -28 -88 -65l-49 63q30 28 60 51q26 19 55 37q-4 34 -4 71q0 124 54 239.5t156 208.5h67zM215 85q41 19 91 38q82 29 122 66.5t40 88.5q0 32 -10 63t-26.5 58.5t-38.5 52.5q-15 17 -31 32q-27 -25 -51 -57q-30 -39 -52.5 -87t-35.5 -102.5t-13 -111.5q0 -22 1 -42
q2 0 4 1zM331 38q-54 -18 -100 -40q14 -36 35 -62q26 -32 59.5 -47t68.5 -15q39 0 63 15.5t24 44.5q0 33 -20 66q-18 29 -57 68q-34 -17 -73 -30z" />
    <glyph glyph-name="uniFBAD" unicode="&#x6be;" horiz-adv-x="553" arabic-form="medial" 
d="M339 560q33 -29 60.5 -62t47.5 -69t31 -73.5t11 -74.5q0 -71 -37 -124q-17 -25 -42 -47q22 -7 47 -12q45 -8 96 -8q10 0 10 -11v-69q0 -10 -10 -10q-29 0 -56 5q-18 4 -40 11q38 -49 38 -96q0 -61 -45.5 -98t-121.5 -37q-58 0 -106.5 23t-84 64.5t-55.5 99.5q-5 15 -9 30
q-35 -2 -73 -2q-10 0 -10 11v69q0 10 10 10q33 0 63 1v8q0 55 11.5 115t36.5 120t65 118t96 108h67zM178 104q76 14 126.5 38.5t75 59t24.5 76.5q0 34 -9.5 65t-26 58.5t-38.5 51.5q-15 17 -31 32q-36 -31 -63 -71q-31 -46 -52 -97t-31 -102.5t-10 -96.5v-20q18 3 35 6z
M196 17q-19 -3 -38 -7q0 -1 1 -2q16 -46 42.5 -76t60 -44t69.5 -14q39 0 63 15.5t24 44.5q0 33 -20 66q-18 28 -55 65q-63 -31 -147 -48z" />
    <glyph glyph-name="uniFBAC" unicode="&#x6be;" horiz-adv-x="752" arabic-form="initial" 
d="M239 670q112 0 199 -27t147 -76t91 -116.5t31 -148.5q0 -43 -14 -104.5t-40 -131.5l-85 -79q-84 0 -163 17q-58 13 -121 34q-51 -18 -112 -26q-85 -12 -172 -12q-10 2 -10 11v69q0 10 10 10q56 0 104 3q17 1 34 3q-23 18 -41 41q-43 55 -43 127q0 47 16.5 87.5t45.5 70
t68 46.5t85 17q47 0 86.5 -16.5t68 -46t44.5 -69.5t16 -88q0 -69 -44 -124q-20 -26 -47 -48q3 0 5 -1q34 -5 63 -8.5t55.5 -5t53.5 -1.5q23 50 37 109.5t14 107.5q0 54 -22 105.5t-69 91.5t-119.5 64.5t-172.5 24.5zM364 162q34 42 34 96q0 30 -9.5 55t-27 43.5t-41.5 28.5
t-54 10q-54 0 -90.5 -37t-36.5 -100q0 -53 33 -95q32 -41 89 -61q69 20 103 60z" />
    <glyph glyph-name="uniFE94" unicode="&#x629;" horiz-adv-x="536" arabic-form="final" 
d="M447 538v-357q0 -45 19 -68t70 -23q10 0 10 -10v-69q0 -11 -10 -11q-88 0 -131 50q-40 -22 -75 -35q-42 -15 -88 -15q-45 0 -82 14t-63.5 39t-41.5 60.5t-15 78.5q0 40 16 85.5t55.5 86t106.5 71.5q59 27 144 39v64h85zM283 374q-49 -16 -84.5 -41.5t-54.5 -59.5t-19 -74
q0 -51 32 -80t87 -29q38 0 74 8q26 6 53 18q-9 32 -9 73v204q-42 -7 -79 -19zM282 762l76 -74l75 74l76 -76l-76 -75l-75 73l-75 -73l-76 75z" />
    <glyph glyph-name="uni06C3.aalt" unicode="&#x6c3;" horiz-adv-x="620" 
d="M297 430q34 0 61 -10.5t50.5 -34t45 -60.5t44.5 -89q10 -24 21.5 -50t25.5 -47t32.5 -35t42.5 -14q10 0 10 -10v-69q0 -11 -10 -11q-32 0 -58.5 10t-50 32.5t-44 58t-40.5 86.5q-15 40 -28.5 69t-28.5 48t-32.5 27.5t-40.5 8.5q-22 0 -40.5 -8.5t-36.5 -28.5t-36.5 -52.5
t-39.5 -80.5l-37 -84l-72 34l37 84q27 61 52.5 104t52.5 70t56.5 39.5t63.5 12.5zM219 672l76 -74l75 74l76 -76l-76 -75l-75 73l-75 -73l-76 75z" />
    <glyph glyph-name="uniFEEE" unicode="&#x648;" horiz-adv-x="531" arabic-form="final" 
d="M265 475q86 0 139 -57t59 -158q2 -42 4 -101q2 -34 3 -69h61q10 0 10 -10v-69q0 -11 -10 -11h-62q-4 -36 -18 -68q-21 -47 -64.5 -79.5t-110 -50t-156.5 -17.5v82q135 0 202 44q53 35 65 89h-82q-121 0 -190.5 60.5t-69.5 171.5q0 52 16 96.5t45 77t69.5 51t89.5 18.5z
M385 146q-4 59 -7 104q-5 66 -35.5 100.5t-82.5 34.5q-29 0 -53 -11.5t-41 -31.5t-26.5 -47t-9.5 -59q0 -72 46.5 -109t134.5 -37h78q-2 27 -4 56z" />
    <glyph glyph-name="uniFE86" unicode="&#x624;" horiz-adv-x="531" arabic-form="final" 
d="M265 475q86 0 139 -57t59 -158q2 -42 4 -101q2 -34 3 -69h61q10 0 10 -10v-69q0 -11 -10 -11h-62q-4 -36 -18 -68q-21 -47 -64.5 -79.5t-110 -50t-156.5 -17.5v82q135 0 202 44q53 35 65 89h-82q-121 0 -190.5 60.5t-69.5 171.5q0 52 16 96.5t45 77t69.5 51t89.5 18.5z
M385 146q-4 59 -7 104q-5 66 -35.5 100.5t-82.5 34.5q-29 0 -53 -11.5t-41 -31.5t-26.5 -47t-9.5 -59q0 -72 46.5 -109t134.5 -37h78q-2 27 -4 56zM383 642l-22 -73h-125q-25 0 -47.5 -3t-58.5 -14v70q18 6 30.5 10t23.5 6l6 2q-2 1 -4 3q-18 22 -18 51q0 40 28 68t77 28
q15 0 34 -4.5t39 -14.5v-67q-22 7 -37.5 10t-30.5 3q-20 0 -34 -10t-14 -27q0 -19 16 -29q14 -8 37 -9h100z" />
    <glyph glyph-name="uniFEF0" unicode="&#x649;" horiz-adv-x="679" arabic-form="final" 
d="M485 119q39 -9 66 -14.5t48.5 -8.5t40 -4.5t39.5 -1.5q10 0 10 -10v-69q0 -11 -10 -11h-9q-43 -99 -123 -153q-90 -62 -224 -62t-208.5 68t-74.5 204q0 62 12 114t33 114h80q-21 -54 -33 -108t-12 -105q0 -103 55 -150t167 -47q46 0 88.5 10.5t77.5 32t61 55.5
q13 16 23 35q-22 5 -48.5 11t-58.5 15v85z" />
    <glyph glyph-name="uniFEF2" unicode="&#x64a;" horiz-adv-x="679" arabic-form="final" 
d="M485 119q39 -9 66 -14.5t48.5 -8.5t40 -4.5t39.5 -1.5q10 0 10 -10v-69q0 -11 -10 -11h-9q-43 -99 -123 -153q-90 -62 -224 -62t-208.5 68t-74.5 204q0 62 12 114t33 114h80q-21 -54 -33 -108t-12 -105q0 -103 55 -150t167 -47q46 0 88.5 10.5t77.5 32t61 55.5
q13 16 23 35q-22 5 -48.5 11t-58.5 15v85zM317 -273l76 -73l75 73l76 -75l-76 -76l-75 74l-75 -74l-76 76z" />
    <glyph glyph-name="uniFEF4" unicode="&#x64a;" horiz-adv-x="370" arabic-form="medial" 
d="M235 370q0 -100 -8 -165q-4 -34 -12 -62q33 -24 69 -38q41 -15 86 -15q10 0 10 -10v-69q0 -11 -10 -11q-98 0 -185 78q-24 -33 -63 -53q-49 -25 -122 -25q-10 0 -10 11v69q0 10 10 10q52 0 82.5 13t46.5 40q9 15 14.5 34.5t8 46.5t3.5 62.5t1 83.5h79zM93 -78l76 -73
l75 73l76 -75l-76 -76l-75 74l-75 -74l-76 76z" />
    <glyph glyph-name="uniFEF3" unicode="&#x64a;" horiz-adv-x="333" arabic-form="initial" 
d="M252 485q8 -55 13.5 -98.5t9.5 -78.5t5.5 -63.5t1.5 -53.5q0 -88 -50.5 -139.5t-153.5 -51.5h-78q-10 0 -10 11v69q0 10 10 10h78q65 0 93 25.5t28 78.5q0 22 -1.5 47.5t-5.5 59t-10 78.5t-15 106h85zM58 -78l76 -73l75 73l76 -75l-76 -76l-75 74l-75 -74l-76 76z" />
    <glyph glyph-name="uniFE8A" unicode="&#x626;" horiz-adv-x="679" arabic-form="final" 
d="M485 119q39 -9 66 -14.5t48.5 -8.5t40 -4.5t39.5 -1.5q10 0 10 -10v-69q0 -11 -10 -11h-9q-43 -99 -123 -153q-90 -62 -224 -62t-208.5 68t-74.5 204q0 62 12 114t33 114h80q-21 -54 -33 -108t-12 -105q0 -103 55 -150t167 -47q46 0 88.5 10.5t77.5 32t61 55.5
q13 16 23 35q-22 5 -48.5 11t-58.5 15v85zM615 313l-22 -73h-125q-25 0 -47.5 -3t-58.5 -14v70q18 6 30.5 10t23.5 6l6 2q-2 1 -4 3q-18 22 -18 51q0 40 28 68t77 28q15 0 34 -4.5t39 -14.5v-67q-22 7 -37.5 10t-30.5 3q-20 0 -34 -10t-14 -27q0 -19 16 -29q14 -8 37 -9h100
z" />
    <glyph glyph-name="uniFE8C" unicode="&#x626;" horiz-adv-x="370" arabic-form="medial" 
d="M235 370q0 -100 -8 -165q-4 -34 -12 -62q33 -24 69 -38q41 -15 86 -15q10 0 10 -10v-69q0 -11 -10 -11q-98 0 -185 78q-24 -33 -63 -53q-49 -25 -122 -25q-10 0 -10 11v69q0 10 10 10q52 0 82.5 13t46.5 40q9 15 14.5 34.5t8 46.5t3.5 62.5t1 83.5h79zM322 515l-22 -73
h-125q-25 0 -47.5 -3t-58.5 -14v70q18 6 30.5 10t23.5 6l6 2q-2 1 -4 3q-18 22 -18 51q0 40 28 68t77 28q15 0 34 -4.5t39 -14.5v-67q-22 7 -37.5 10t-30.5 3q-20 0 -34 -10t-14 -27q0 -19 16 -29q14 -8 37 -9h100z" />
    <glyph glyph-name="uniFE8B" unicode="&#x626;" horiz-adv-x="333" arabic-form="initial" 
d="M252 485q8 -55 13.5 -98.5t9.5 -78.5t5.5 -63.5t1.5 -53.5q0 -88 -50.5 -139.5t-153.5 -51.5h-78q-10 0 -10 11v69q0 10 10 10h78q65 0 93 25.5t28 78.5q0 22 -1.5 47.5t-5.5 59t-10 78.5t-15 106h85zM330 612l-22 -73h-125q-25 0 -47.5 -3t-58.5 -14v70q18 6 30.5 10
t23.5 6l6 2q-2 1 -4 3q-18 22 -18 51q0 40 28 68t77 28q15 0 34 -4.5t39 -14.5v-67q-22 7 -37.5 10t-30.5 3q-20 0 -34 -10t-14 -27q0 -19 16 -29q14 -8 37 -9h100z" />
    <glyph glyph-name="uniFBFD" unicode="&#x6cc;" horiz-adv-x="679" arabic-form="final" 
d="M485 119q39 -9 66 -14.5t48.5 -8.5t40 -4.5t39.5 -1.5q10 0 10 -10v-69q0 -11 -10 -11h-9q-43 -99 -123 -153q-90 -62 -224 -62t-208.5 68t-74.5 204q0 62 12 114t33 114h80q-21 -54 -33 -108t-12 -105q0 -103 55 -150t167 -47q46 0 88.5 10.5t77.5 32t61 55.5
q13 16 23 35q-22 5 -48.5 11t-58.5 15v85z" />
    <glyph glyph-name="uniFBFF" unicode="&#x6cc;" horiz-adv-x="370" arabic-form="medial" 
d="M235 370q0 -100 -8 -165q-4 -34 -12 -62q33 -24 69 -38q41 -15 86 -15q10 0 10 -10v-69q0 -11 -10 -11q-98 0 -185 78q-24 -33 -63 -53q-49 -25 -122 -25q-10 0 -10 11v69q0 10 10 10q52 0 82.5 13t46.5 40q9 15 14.5 34.5t8 46.5t3.5 62.5t1 83.5h79zM93 -78l76 -73
l75 73l76 -75l-76 -76l-75 74l-75 -74l-76 76z" />
    <glyph glyph-name="uniFBFE" unicode="&#x6cc;" horiz-adv-x="333" arabic-form="initial" 
d="M252 485q8 -55 13.5 -98.5t9.5 -78.5t5.5 -63.5t1.5 -53.5q0 -88 -50.5 -139.5t-153.5 -51.5h-78q-10 0 -10 11v69q0 10 10 10h78q65 0 93 25.5t28 78.5q0 22 -1.5 47.5t-5.5 59t-10 78.5t-15 106h85zM58 -78l76 -73l75 73l76 -75l-76 -76l-75 74l-75 -74l-76 76z" />
    <glyph glyph-name="uniFBAF" unicode="&#x6d2;" horiz-adv-x="734" arabic-form="final" 
d="M734 90q10 0 10 -10v-69q0 -11 -10 -11h-494q-110 0 -110 -63q0 -34 35 -48t100 -14h348l-38 -90h-286q-126 0 -185 36t-59 114q0 76 55.5 115.5t166.5 39.5h467z" />
    <glyph glyph-name="uniFBB1" unicode="&#x6d3;" horiz-adv-x="734" arabic-form="final" 
d="M734 90q10 0 10 -10v-69q0 -11 -10 -11h-494q-110 0 -110 -63q0 -34 35 -48t100 -14h348l-38 -90h-286q-126 0 -185 36t-59 114q0 76 55.5 115.5t166.5 39.5h467zM461 303l-22 -73h-125q-25 0 -47.5 -3t-58.5 -14v70q18 6 30.5 10t23.5 6l6 2q-2 1 -4 3q-18 22 -18 51
q0 40 28 68t77 28q15 0 34 -4.5t39 -14.5v-67q-22 7 -37.5 10t-30.5 3q-20 0 -34 -10t-14 -27q0 -19 16 -29q14 -8 37 -9h100z" />
    <glyph glyph-name="uniFC6A" unicode="&#xfc6a;" horiz-adv-x="603" arabic-form="final" 
d="M524 415q-11 -50 -17.5 -100t-6.5 -88q0 -71 24 -104t79 -33q10 0 10 -10v-69q0 -11 -10 -11q-90 0 -136 49.5t-46 143.5q0 43 5 93q4 40 11 80q-53 -26 -108.5 -44.5t-106.5 -27.5q6 -63 10 -122q6 -68 6 -146q0 -59 -19 -104t-53 -75.5t-80 -46t-101 -15.5v82
q35 0 66.5 10t55 30.5t37 51t13.5 71.5q0 37 -1.5 72.5t-5 74t-8.5 83t-12 98.5l10 12q49 4 89.5 12t77 19.5t70 26t68.5 31.5zM377 -77l77 -75l-75 -76l-77 76z" />
    <glyph glyph-name="uniFC6B" unicode="&#xfc6b;" horiz-adv-x="603" arabic-form="final" 
d="M524 415q-11 -50 -17.5 -100t-6.5 -88q0 -71 24 -104t79 -33q10 0 10 -10v-69q0 -11 -10 -11q-90 0 -136 49.5t-46 143.5q0 43 5 93q4 40 11 80q-53 -26 -108.5 -44.5t-106.5 -27.5q6 -63 10 -122q6 -68 6 -146q0 -59 -19 -104t-53 -75.5t-80 -46t-101 -15.5v82
q35 0 66.5 10t55 30.5t37 51t13.5 71.5q0 37 -1.5 72.5t-5 74t-8.5 83t-12 98.5l10 12q49 4 89.5 12t77 19.5t70 26t68.5 31.5zM143 631l77 -76l-75 -75l-77 75zM377 -77l77 -75l-75 -76l-77 76z" />
    <glyph glyph-name="uniFC08" unicode="&#xfc08;" horiz-adv-x="542" arabic-form="isolated" 
d="M412 532l53 -54q-59 -52 -84 -94t-25 -93q0 -56 28 -99q19 -28 50 -58q37 -19 73 -42l-43 -79q-43 8 -78 26q-28 15 -53 36q-33 12 -60 18q-34 7 -65 7q-45 0 -66.5 -21.5t-21.5 -72.5q0 -24 2 -51t6 -60t10 -74.5t15 -95.5h-85q-9 56 -15.5 99t-10 77.5t-5.5 62t-2 53.5
q0 40 12.5 72.5t34.5 54.5t53 34t67 12q28 0 62 -6q21 -4 42 -9q-8 14 -14 28q-21 51 -21 99q0 67 35 126t96 104h10zM318 -77l77 -75l-75 -76l-77 76z" />
    <glyph glyph-name="uniFC6D" unicode="&#xfc6d;" horiz-adv-x="938" arabic-form="final" 
d="M859 415q-11 -50 -17 -100t-6 -88q0 -71 23.5 -104t78.5 -33q10 0 10 -10v-69q0 -11 -10 -11q-90 0 -136 49.5t-46 143.5q0 43 5 93q5 40 12 81q-51 -27 -106 -45q-57 -19 -109 -28q6 -49 10 -93q4 -52 4 -102q0 -68 -17 -125.5t-52 -99.5t-88.5 -65.5t-126.5 -23.5
q-118 0 -183 70.5t-65 201.5q0 62 12 114t33 114h80q-21 -54 -33 -108t-12 -105q0 -91 42 -144t134 -53q101 0 147 54t46 170q0 28 -1.5 55.5t-4.5 58t-7.5 66t-10.5 79.5l10 12q49 4 89.5 12t77 19.5t70 26t68.5 31.5zM693 -78l77 -75l-75 -76l-77 76zM294 546l77 -76
l-75 -75l-77 75z" />
    <glyph glyph-name="uniFC09" unicode="&#xfc09;" horiz-adv-x="871" arabic-form="isolated" 
d="M780 485q8 -55 14 -98.5t9.5 -78.5t5 -63.5t1.5 -53.5q0 -91 -51 -141q-36 -35 -97 -46q-43 -102 -122 -157q-88 -62 -222 -62t-206 68t-72 204q0 62 12 114t33 114h80q-21 -54 -33 -108t-12 -105q0 -103 52.5 -150t164.5 -47q94 0 163 43q49 29 78 82h-152l15 90h165
q66 0 94 25.5t28 78.5q0 22 -2 47.5t-5.5 59t-10 78.5t-15.5 106h85zM728 -77l77 -75l-75 -76l-77 76z" />
    <glyph glyph-name="uniFC6E" unicode="&#xfc6e;" horiz-adv-x="904" arabic-form="final" 
d="M775 435q-13 -60 -21 -113.5t-8 -90.5q0 -69 42.5 -105t115.5 -36q10 0 10 -10v-69q0 -11 -10 -11q-53 0 -96.5 14.5t-74 42t-47 68.5t-16.5 95q0 38 5 85q5 39 15 88q-60 -4 -108 -16q-54 -13 -92 -33t-58 -44t-20 -49q0 -13 3.5 -23t12.5 -20.5t24.5 -22t39.5 -27.5
l44 -29q56 -36 79.5 -72.5t23.5 -79.5q0 -42 -19.5 -77.5t-57 -61t-91.5 -39.5t-123 -14q-71 0 -127.5 16t-97 49.5t-62 84.5t-21.5 122q0 62 12 114t33 114h80q-21 -54 -33 -108t-12 -105q0 -100 62.5 -149t198.5 -49q82 0 130 26.5t48 66.5q0 20 -19 40t-58 47l-46 31
q-56 38 -80.5 73t-24.5 84q0 43 22 83t67.5 72t116 55t167.5 33zM763 -77l77 -75l-75 -76l-77 76z" />
    <glyph glyph-name="uniFC0A" unicode="&#xfc0a;" horiz-adv-x="871" arabic-form="isolated" 
d="M780 485q8 -55 14 -98.5t9.5 -78.5t5 -63.5t1.5 -53.5q0 -91 -51 -141q-36 -35 -97 -46q-43 -102 -122 -157q-88 -62 -222 -62t-206 68t-72 204q0 62 12 114t33 114h80q-21 -54 -33 -108t-12 -105q0 -103 52.5 -150t164.5 -47q94 0 163 43q49 29 78 82h-152l15 90h165
q66 0 94 25.5t28 78.5q0 22 -2 47.5t-5.5 59t-10 78.5t-15.5 106h85zM728 -77l77 -75l-75 -76l-77 76zM332 -273l76 -73l75 73l76 -75l-76 -76l-75 74l-75 -74l-76 76z" />
    <glyph glyph-name="uniFC6F" unicode="&#xfc6f;" horiz-adv-x="904" arabic-form="final" 
d="M775 435q-13 -60 -21 -113.5t-8 -90.5q0 -69 42.5 -105t115.5 -36q10 0 10 -10v-69q0 -11 -10 -11q-53 0 -96.5 14.5t-74 42t-47 68.5t-16.5 95q0 38 5 85q5 39 15 88q-60 -4 -108 -16q-54 -13 -92 -33t-58 -44t-20 -49q0 -13 3.5 -23t12.5 -20.5t24.5 -22t39.5 -27.5
l44 -29q56 -36 79.5 -72.5t23.5 -79.5q0 -42 -19.5 -77.5t-57 -61t-91.5 -39.5t-123 -14q-71 0 -127.5 16t-97 49.5t-62 84.5t-21.5 122q0 62 12 114t33 114h80q-21 -54 -33 -108t-12 -105q0 -100 62.5 -149t198.5 -49q82 0 130 26.5t48 66.5q0 20 -19 40t-58 47l-46 31
q-56 38 -80.5 73t-24.5 84q0 43 22 83t67.5 72t116 55t167.5 33zM763 -77l77 -75l-75 -76l-77 76zM332 -273l76 -73l75 73l76 -75l-76 -76l-75 74l-75 -74l-76 76z" />
    <glyph glyph-name="uniFC70" unicode="&#xfc70;" horiz-adv-x="603" arabic-form="final" 
d="M524 415q-11 -50 -17.5 -100t-6.5 -88q0 -71 24 -104t79 -33q10 0 10 -10v-69q0 -11 -10 -11q-90 0 -136 49.5t-46 143.5q0 43 5 93q4 40 11 80q-53 -26 -108.5 -44.5t-106.5 -27.5q6 -63 10 -122q6 -68 6 -146q0 -59 -19 -104t-53 -75.5t-80 -46t-101 -15.5v82
q35 0 66.5 10t55 30.5t37 51t13.5 71.5q0 37 -1.5 72.5t-5 74t-8.5 83t-12 98.5l10 12q49 4 89.5 12t77 19.5t70 26t68.5 31.5zM329 706l76 -74l75 74l76 -76l-76 -75l-75 73l-75 -73l-76 75z" />
    <glyph glyph-name="uniFC71" unicode="&#xfc71;" horiz-adv-x="603" arabic-form="final" 
d="M524 415q-11 -50 -17.5 -100t-6.5 -88q0 -71 24 -104t79 -33q10 0 10 -10v-69q0 -11 -10 -11q-90 0 -136 49.5t-46 143.5q0 43 5 93q4 40 11 80q-53 -26 -108.5 -44.5t-106.5 -27.5q6 -63 10 -122q6 -68 6 -146q0 -59 -19 -104t-53 -75.5t-80 -46t-101 -15.5v82
q35 0 66.5 10t55 30.5t37 51t13.5 71.5q0 37 -1.5 72.5t-5 74t-8.5 83t-12 98.5l10 12q49 4 89.5 12t77 19.5t70 26t68.5 31.5zM143 631l77 -76l-75 -75l-77 75zM382 706l76 -74l75 74l76 -76l-76 -75l-75 73l-75 -73l-76 75z" />
    <glyph glyph-name="uniFC0E" unicode="&#xfc0e;" horiz-adv-x="542" arabic-form="isolated" 
d="M412 532l53 -54q-59 -52 -84 -94t-25 -93q0 -56 28 -99q19 -28 50 -58q37 -19 73 -42l-43 -79q-43 8 -78 26q-28 15 -53 36q-33 12 -60 18q-34 7 -65 7q-45 0 -66.5 -21.5t-21.5 -72.5q0 -24 2 -51t6 -60t10 -74.5t15 -95.5h-85q-9 56 -15.5 99t-10 77.5t-5.5 62t-2 53.5
q0 40 12.5 72.5t34.5 54.5t53 34t67 12q28 0 62 -6q21 -4 42 -9q-8 14 -14 28q-21 51 -21 99q0 67 35 126t96 104h10zM333 748l76 -74l75 74l76 -76l-76 -75l-75 73l-75 -73l-76 75z" />
    <glyph glyph-name="uniFC73" unicode="&#xfc73;" horiz-adv-x="938" arabic-form="final" 
d="M859 415q-11 -50 -17 -100t-6 -88q0 -71 23.5 -104t78.5 -33q10 0 10 -10v-69q0 -11 -10 -11q-90 0 -136 49.5t-46 143.5q0 43 5 93q5 40 12 81q-51 -27 -106 -45q-57 -19 -109 -28q6 -49 10 -93q4 -52 4 -102q0 -68 -17 -125.5t-52 -99.5t-88.5 -65.5t-126.5 -23.5
q-118 0 -183 70.5t-65 201.5q0 62 12 114t33 114h80q-21 -54 -33 -108t-12 -105q0 -91 42 -144t134 -53q101 0 147 54t46 170q0 28 -1.5 55.5t-4.5 58t-7.5 66t-10.5 79.5l10 12q49 4 89.5 12t77 19.5t70 26t68.5 31.5zM662 707l76 -74l75 74l76 -76l-76 -75l-75 73l-75 -73
l-76 75zM294 546l77 -76l-75 -75l-77 75z" />
    <glyph glyph-name="uniFC0F" unicode="&#xfc0f;" horiz-adv-x="909" arabic-form="isolated" 
d="M780 485q8 -55 14 -98.5t9.5 -78.5t5 -63.5t1.5 -53.5q0 -91 -51 -141q-36 -35 -97 -46q-43 -102 -122 -157q-88 -62 -222 -62t-206 68t-72 204q0 62 12 114t33 114h80q-21 -54 -33 -108t-12 -105q0 -103 52.5 -150t164.5 -47q94 0 163 43q49 29 78 82h-152l15 90h165
q66 0 94 25.5t28 78.5q0 22 -2 47.5t-5.5 59t-10 78.5t-15.5 106h85zM658 713l76 -74l75 74l76 -76l-76 -75l-75 73l-75 -73l-76 75z" />
    <glyph glyph-name="uniFC74" unicode="&#xfc74;" horiz-adv-x="904" arabic-form="final" 
d="M775 435q-13 -60 -21 -113.5t-8 -90.5q0 -69 42.5 -105t115.5 -36q10 0 10 -10v-69q0 -11 -10 -11q-53 0 -96.5 14.5t-74 42t-47 68.5t-16.5 95q0 38 5 85q5 39 15 88q-60 -4 -108 -16q-54 -13 -92 -33t-58 -44t-20 -49q0 -13 3.5 -23t12.5 -20.5t24.5 -22t39.5 -27.5
l44 -29q56 -36 79.5 -72.5t23.5 -79.5q0 -42 -19.5 -77.5t-57 -61t-91.5 -39.5t-123 -14q-71 0 -127.5 16t-97 49.5t-62 84.5t-21.5 122q0 62 12 114t33 114h80q-21 -54 -33 -108t-12 -105q0 -100 62.5 -149t198.5 -49q82 0 130 26.5t48 66.5q0 20 -19 40t-58 47l-46 31
q-56 38 -80.5 73t-24.5 84q0 43 22 83t67.5 72t116 55t167.5 33zM586 739l76 -74l75 74l76 -76l-76 -75l-75 73l-75 -73l-76 75z" />
    <glyph glyph-name="uniFC10" unicode="&#xfc10;" horiz-adv-x="909" arabic-form="isolated" 
d="M780 485q8 -55 14 -98.5t9.5 -78.5t5 -63.5t1.5 -53.5q0 -91 -51 -141q-36 -35 -97 -46q-43 -102 -122 -157q-88 -62 -222 -62t-206 68t-72 204q0 62 12 114t33 114h80q-21 -54 -33 -108t-12 -105q0 -103 52.5 -150t164.5 -47q94 0 163 43q49 29 78 82h-152l15 90h165
q66 0 94 25.5t28 78.5q0 22 -2 47.5t-5.5 59t-10 78.5t-15.5 106h85zM658 713l76 -74l75 74l76 -76l-76 -75l-75 73l-75 -73l-76 75zM332 -273l76 -73l75 73l76 -75l-76 -76l-75 74l-75 -74l-76 76z" />
    <glyph glyph-name="uniFC75" unicode="&#xfc75;" horiz-adv-x="904" arabic-form="final" 
d="M775 435q-13 -60 -21 -113.5t-8 -90.5q0 -69 42.5 -105t115.5 -36q10 0 10 -10v-69q0 -11 -10 -11q-53 0 -96.5 14.5t-74 42t-47 68.5t-16.5 95q0 38 5 85q5 39 15 88q-60 -4 -108 -16q-54 -13 -92 -33t-58 -44t-20 -49q0 -13 3.5 -23t12.5 -20.5t24.5 -22t39.5 -27.5
l44 -29q56 -36 79.5 -72.5t23.5 -79.5q0 -42 -19.5 -77.5t-57 -61t-91.5 -39.5t-123 -14q-71 0 -127.5 16t-97 49.5t-62 84.5t-21.5 122q0 62 12 114t33 114h80q-21 -54 -33 -108t-12 -105q0 -100 62.5 -149t198.5 -49q82 0 130 26.5t48 66.5q0 20 -19 40t-58 47l-46 31
q-56 38 -80.5 73t-24.5 84q0 43 22 83t67.5 72t116 55t167.5 33zM586 739l76 -74l75 74l76 -76l-76 -75l-75 73l-75 -73l-76 75zM333 -273l76 -73l75 73l76 -75l-76 -76l-75 74l-75 -74l-76 76z" />
    <glyph glyph-name="uniFC76" unicode="&#xfc76;" horiz-adv-x="603" arabic-form="final" 
d="M524 415q-11 -50 -17.5 -100t-6.5 -88q0 -71 24 -104t79 -33q10 0 10 -10v-69q0 -11 -10 -11q-90 0 -136 49.5t-46 143.5q0 43 5 93q4 40 11 80q-53 -26 -108.5 -44.5t-106.5 -27.5q6 -63 10 -122q6 -68 6 -146q0 -59 -19 -104t-53 -75.5t-80 -46t-101 -15.5v82
q35 0 66.5 10t55 30.5t37 51t13.5 71.5q0 37 -1.5 72.5t-5 74t-8.5 83t-12 98.5l10 12q49 4 89.5 12t77 19.5t70 26t68.5 31.5zM485 712l76 -77l-76 -75l-77 75zM320 712l77 -77l-76 -75l-76 75zM403 817l61 -61l-60 -60l-61 60z" />
    <glyph glyph-name="uniFC77" unicode="&#xfc77;" horiz-adv-x="603" arabic-form="final" 
d="M524 415q-11 -50 -17.5 -100t-6.5 -88q0 -71 24 -104t79 -33q10 0 10 -10v-69q0 -11 -10 -11q-90 0 -136 49.5t-46 143.5q0 43 5 93q4 40 11 80q-53 -26 -108.5 -44.5t-106.5 -27.5q6 -63 10 -122q6 -68 6 -146q0 -59 -19 -104t-53 -75.5t-80 -46t-101 -15.5v82
q35 0 66.5 10t55 30.5t37 51t13.5 71.5q0 37 -1.5 72.5t-5 74t-8.5 83t-12 98.5l10 12q49 4 89.5 12t77 19.5t70 26t68.5 31.5zM143 631l77 -76l-75 -75l-77 75zM531 712l76 -77l-76 -75l-77 75zM366 712l77 -77l-76 -75l-76 75zM449 817l61 -61l-60 -60l-61 60z" />
    <glyph glyph-name="uniFC12" unicode="&#xfc12;" horiz-adv-x="542" arabic-form="isolated" 
d="M412 532l53 -54q-59 -52 -84 -94t-25 -93q0 -56 28 -99q19 -28 50 -58q37 -19 73 -42l-43 -79q-43 8 -78 26q-28 15 -53 36q-33 12 -60 18q-34 7 -65 7q-45 0 -66.5 -21.5t-21.5 -72.5q0 -24 2 -51t6 -60t10 -74.5t15 -95.5h-85q-9 56 -15.5 99t-10 77.5t-5.5 62t-2 53.5
q0 40 12.5 72.5t34.5 54.5t53 34t67 12q28 0 62 -6q21 -4 42 -9q-8 14 -14 28q-21 51 -21 99q0 67 35 126t96 104h10zM492 762l76 -77l-76 -75l-77 75zM327 762l77 -77l-76 -75l-76 75zM410 867l61 -61l-60 -60l-61 60z" />
    <glyph glyph-name="uniFC79" unicode="&#xfc79;" horiz-adv-x="938" arabic-form="final" 
d="M859 415q-11 -50 -17 -100t-6 -88q0 -71 23.5 -104t78.5 -33q10 0 10 -10v-69q0 -11 -10 -11q-90 0 -136 49.5t-46 143.5q0 43 5 93q5 40 12 81q-51 -27 -106 -45q-57 -19 -109 -28q6 -49 10 -93q4 -52 4 -102q0 -68 -17 -125.5t-52 -99.5t-88.5 -65.5t-126.5 -23.5
q-118 0 -183 70.5t-65 201.5q0 62 12 114t33 114h80q-21 -54 -33 -108t-12 -105q0 -91 42 -144t134 -53q101 0 147 54t46 170q0 28 -1.5 55.5t-4.5 58t-7.5 66t-10.5 79.5l10 12q49 4 89.5 12t77 19.5t70 26t68.5 31.5zM817 698l76 -77l-76 -75l-77 75zM652 698l77 -77
l-76 -75l-76 75zM294 546l77 -76l-75 -75l-77 75zM735 803l61 -61l-60 -60l-61 60z" />
    <glyph glyph-name="uniFC13" unicode="&#xfc13;" horiz-adv-x="918" arabic-form="isolated" 
d="M780 485q8 -55 14 -98.5t9.5 -78.5t5 -63.5t1.5 -53.5q0 -91 -51 -141q-36 -35 -97 -46q-43 -102 -122 -157q-88 -62 -222 -62t-206 68t-72 204q0 62 12 114t33 114h80q-21 -54 -33 -108t-12 -105q0 -103 52.5 -150t164.5 -47q94 0 163 43q49 29 78 82h-152l15 90h165
q66 0 94 25.5t28 78.5q0 22 -2 47.5t-5.5 59t-10 78.5t-15.5 106h85zM817 711l76 -77l-76 -75l-77 75zM652 711l77 -77l-76 -75l-76 75zM735 816l61 -61l-60 -60l-61 60z" />
    <glyph glyph-name="uniFC7A" unicode="&#xfc7a;" horiz-adv-x="904" arabic-form="final" 
d="M775 435q-13 -60 -21 -113.5t-8 -90.5q0 -69 42.5 -105t115.5 -36q10 0 10 -10v-69q0 -11 -10 -11q-53 0 -96.5 14.5t-74 42t-47 68.5t-16.5 95q0 38 5 85q5 39 15 88q-60 -4 -108 -16q-54 -13 -92 -33t-58 -44t-20 -49q0 -13 3.5 -23t12.5 -20.5t24.5 -22t39.5 -27.5
l44 -29q56 -36 79.5 -72.5t23.5 -79.5q0 -42 -19.5 -77.5t-57 -61t-91.5 -39.5t-123 -14q-71 0 -127.5 16t-97 49.5t-62 84.5t-21.5 122q0 62 12 114t33 114h80q-21 -54 -33 -108t-12 -105q0 -100 62.5 -149t198.5 -49q82 0 130 26.5t48 66.5q0 20 -19 40t-58 47l-46 31
q-56 38 -80.5 73t-24.5 84q0 43 22 83t67.5 72t116 55t167.5 33zM738 702l76 -77l-76 -75l-77 75zM573 702l77 -77l-76 -75l-76 75zM656 807l61 -61l-60 -60l-61 60z" />
    <glyph glyph-name="uniFC14" unicode="&#xfc14;" horiz-adv-x="918" arabic-form="isolated" 
d="M780 485q8 -55 14 -98.5t9.5 -78.5t5 -63.5t1.5 -53.5q0 -91 -51 -141q-36 -35 -97 -46q-43 -102 -122 -157q-88 -62 -222 -62t-206 68t-72 204q0 62 12 114t33 114h80q-21 -54 -33 -108t-12 -105q0 -103 52.5 -150t164.5 -47q94 0 163 43q49 29 78 82h-152l15 90h165
q66 0 94 25.5t28 78.5q0 22 -2 47.5t-5.5 59t-10 78.5t-15.5 106h85zM817 711l76 -77l-76 -75l-77 75zM652 711l77 -77l-76 -75l-76 75zM735 816l61 -61l-60 -60l-61 60zM332 -273l76 -73l75 73l76 -75l-76 -76l-75 74l-75 -74l-76 76z" />
    <glyph glyph-name="uniFC7B" unicode="&#xfc7b;" horiz-adv-x="904" arabic-form="final" 
d="M775 435q-13 -60 -21 -113.5t-8 -90.5q0 -69 42.5 -105t115.5 -36q10 0 10 -10v-69q0 -11 -10 -11q-53 0 -96.5 14.5t-74 42t-47 68.5t-16.5 95q0 38 5 85q5 39 15 88q-60 -4 -108 -16q-54 -13 -92 -33t-58 -44t-20 -49q0 -13 3.5 -23t12.5 -20.5t24.5 -22t39.5 -27.5
l44 -29q56 -36 79.5 -72.5t23.5 -79.5q0 -42 -19.5 -77.5t-57 -61t-91.5 -39.5t-123 -14q-71 0 -127.5 16t-97 49.5t-62 84.5t-21.5 122q0 62 12 114t33 114h80q-21 -54 -33 -108t-12 -105q0 -100 62.5 -149t198.5 -49q82 0 130 26.5t48 66.5q0 20 -19 40t-58 47l-46 31
q-56 38 -80.5 73t-24.5 84q0 43 22 83t67.5 72t116 55t167.5 33zM738 702l76 -77l-76 -75l-77 75zM573 702l77 -77l-76 -75l-76 75zM656 807l61 -61l-60 -60l-61 60zM332 -273l76 -73l75 73l76 -75l-76 -76l-75 74l-75 -74l-76 76z" />
    <glyph glyph-name="uniFD0E" unicode="&#xfd0e;" horiz-adv-x="1218" arabic-form="isolated" 
d="M539 495q-21 -91 -30 -149t-9 -96q0 -82 34.5 -121t111.5 -39q45 0 69.5 13.5t38.5 40.5q7 15 12 34t8 46t4.5 63t1.5 83h79q0 -103 -10 -170q-7 -44 -19 -79q31 -13 55 -21q36 -10 74 -10q121 0 121 102q0 21 -1.5 44.5t-5 56.5t-9.5 79.5t-16 112.5h85
q16 -108 23 -177.5t7 -118.5q0 -43 -14 -78t-39.5 -59.5t-61.5 -38t-79 -13.5q-47 0 -95 17q-38 14 -81 40q-18 -20 -43 -34q-43 -23 -99 -23q-113 0 -171 60.5t-58 181.5q0 50 9 103q-16 -4 -33 -8q-35 -8 -69.5 -17t-64.5 -19q-23 -7 -41 -14q3 -31 6 -59q3 -33 5 -65.5
t3 -65.5t1 -71q0 -59 -19 -104t-53 -75.5t-80 -46t-101 -15.5v82q35 0 66.5 10t55 30.5t37 51t13.5 71.5q0 33 -1 63.5t-3.5 63t-6 69t-9.5 81.5l63 65q68 19 138 34q59 12 108 20q7 33 15 69h78z" />
    <glyph glyph-name="uniFD2A" unicode="&#xfd2a;" horiz-adv-x="1259" arabic-form="final" 
d="M538 495q-20 -91 -29.5 -149t-9.5 -96q1 -85 36.5 -122.5t105.5 -37.5q45 0 68.5 13.5t37.5 40.5q7 15 12 34t8 46t4.5 63t1.5 83h78q0 -103 -10 -170q-7 -47 -21 -83q23 -10 51 -17q41 -10 71 -10q45 0 68 13.5t37 40.5q7 15 12 34t8 46t4.5 63t1.5 83v70h79v-70
q0 -103 -10 -170q-6 -38 -16 -69q11 -8 21 -14q18 -10 36 -16t36.5 -8.5t41.5 -2.5q10 0 10 -10v-69q0 -11 -10 -11q-56 0 -101 20q-32 15 -67 45q-20 -25 -49 -42q-42 -23 -97 -23q-42 0 -86 15q-36 13 -79 38q-17 -17 -39 -30q-41 -23 -97 -23q-106 0 -165 59t-59 183
q-1 50 7 103q-15 -4 -31 -8q-35 -8 -69.5 -17t-64.5 -19q-23 -7 -41 -14q3 -31 6 -59q3 -33 5 -65.5t3 -65.5t1 -71q0 -59 -19 -104t-53 -75.5t-80 -46t-101 -15.5v82q35 0 66.5 10t55 30.5t37 51t13.5 71.5q0 33 -1 63.5t-3.5 63t-6 69t-9.5 81.5l63 65q68 19 138 34
q58 12 108 20q7 33 15 69h77z" />
    <glyph glyph-name="uniFCFB" unicode="&#xfcfb;" horiz-adv-x="1464" arabic-form="isolated" 
d="M1379 485q16 -108 23 -177.5t7 -118.5q0 -43 -14 -78t-39.5 -59.5t-61.5 -38t-79 -13.5q-47 0 -95 17q-38 14 -81 40q-19 -20 -46 -34q-46 -23 -106 -23q-100 0 -158.5 56t-58.5 164q0 38 5 85q5 39 15 88q-60 -4 -108 -16q-54 -13 -92 -33t-58 -44t-20 -49
q0 -13 3.5 -23t12.5 -20.5t24.5 -22t39.5 -27.5l44 -29q56 -36 79.5 -72.5t23.5 -79.5q0 -42 -19.5 -77.5t-57 -61t-91.5 -39.5t-123 -14q-71 0 -127.5 16t-97 49.5t-62 84.5t-21.5 122q0 62 12 114t33 114h80q-21 -54 -33 -108t-12 -105q0 -100 62.5 -149t198.5 -49
q82 0 130 26.5t48 66.5q0 20 -19 40t-58 47l-46 31q-56 38 -80.5 73t-24.5 84q0 43 22 83t67.5 72t116 55t167.5 33l71 -50q-13 -60 -21 -113.5t-8 -90.5q0 -69 36 -105t103 -36q51 0 76 13.5t39 40.5q7 15 12 34t8 46t4.5 63t1.5 83h79q0 -103 -10 -170q-7 -44 -19 -79
q31 -13 55 -21q36 -10 74 -10q121 0 121 102q0 21 -1.5 44.5t-5 56.5t-9.5 79.5t-16 112.5h85z" />
    <glyph glyph-name="uniFD17" unicode="&#xfd17;" horiz-adv-x="1505" arabic-form="final" 
d="M1398 440v-70q0 -103 -10 -170q-6 -38 -16 -69q11 -8 21 -14q18 -10 36 -16t36.5 -8.5t41.5 -2.5q10 0 10 -10v-69q0 -11 -10 -11q-56 0 -101 20q-32 15 -67 45q-20 -25 -49 -42q-42 -23 -97 -23q-42 0 -86 15q-36 13 -78 38q-17 -17 -39 -30q-42 -23 -97 -23
q-107 0 -165 56t-58 164q0 38 5 85q5 39 15 88q-60 -4 -108 -16q-54 -13 -92 -33t-58 -44t-20 -49q0 -13 3.5 -23t12.5 -20.5t24.5 -22t39.5 -27.5l44 -29q56 -36 79.5 -72.5t23.5 -79.5q0 -42 -19.5 -77.5t-57 -61t-91.5 -39.5t-123 -14q-71 0 -127.5 16t-97 49.5t-62 84.5
t-21.5 122q0 62 12 114t33 114h80q-21 -54 -33 -108t-12 -105q0 -100 62.5 -149t198.5 -49q82 0 130 26.5t48 66.5q0 20 -19 40t-58 47l-46 31q-56 38 -80.5 73t-24.5 84q0 43 22 83t67.5 72t116 55t167.5 33l71 -50q-13 -60 -21 -113.5t-8 -90.5q0 -69 35.5 -105t106.5 -36
q45 0 68 13.5t37 40.5q7 15 12 34t8 46t4.5 63t1.5 83h79q0 -103 -10 -170q-7 -47 -21 -83q23 -11 50 -17q41 -10 71 -10q45 0 68 13.5t37 40.5q7 15 12 34t8 46t4.5 63t1.5 83v70h79z" />
    <glyph glyph-name="uniFCFC" unicode="&#xfcfc;" horiz-adv-x="1464" arabic-form="isolated" 
d="M1379 485q16 -108 23 -177.5t7 -118.5q0 -43 -14 -78t-39.5 -59.5t-61.5 -38t-79 -13.5q-47 0 -95 17q-38 14 -81 40q-19 -20 -46 -34q-46 -23 -106 -23q-100 0 -158.5 56t-58.5 164q0 38 5 85q5 39 15 88q-60 -4 -108 -16q-54 -13 -92 -33t-58 -44t-20 -49
q0 -13 3.5 -23t12.5 -20.5t24.5 -22t39.5 -27.5l44 -29q56 -36 79.5 -72.5t23.5 -79.5q0 -42 -19.5 -77.5t-57 -61t-91.5 -39.5t-123 -14q-71 0 -127.5 16t-97 49.5t-62 84.5t-21.5 122q0 62 12 114t33 114h80q-21 -54 -33 -108t-12 -105q0 -100 62.5 -149t198.5 -49
q82 0 130 26.5t48 66.5q0 20 -19 40t-58 47l-46 31q-56 38 -80.5 73t-24.5 84q0 43 22 83t67.5 72t116 55t167.5 33l71 -50q-13 -60 -21 -113.5t-8 -90.5q0 -69 36 -105t103 -36q51 0 76 13.5t39 40.5q7 15 12 34t8 46t4.5 63t1.5 83h79q0 -103 -10 -170q-7 -44 -19 -79
q31 -13 55 -21q36 -10 74 -10q121 0 121 102q0 21 -1.5 44.5t-5 56.5t-9.5 79.5t-16 112.5h85zM332 -273l76 -73l75 73l76 -75l-76 -76l-75 74l-75 -74l-76 76z" />
    <glyph glyph-name="uniFD18" unicode="&#xfd18;" horiz-adv-x="1505" arabic-form="final" 
d="M1398 440v-70q0 -103 -10 -170q-6 -38 -16 -69q11 -8 21 -14q18 -10 36 -16t36.5 -8.5t41.5 -2.5q10 0 10 -10v-69q0 -11 -10 -11q-56 0 -101 20q-32 15 -67 45q-20 -25 -49 -42q-42 -23 -97 -23q-42 0 -86 15q-36 13 -78 38q-17 -17 -39 -30q-42 -23 -97 -23
q-107 0 -165 56t-58 164q0 38 5 85q5 39 15 88q-60 -4 -108 -16q-54 -13 -92 -33t-58 -44t-20 -49q0 -13 3.5 -23t12.5 -20.5t24.5 -22t39.5 -27.5l44 -29q56 -36 79.5 -72.5t23.5 -79.5q0 -42 -19.5 -77.5t-57 -61t-91.5 -39.5t-123 -14q-71 0 -127.5 16t-97 49.5t-62 84.5
t-21.5 122q0 62 12 114t33 114h80q-21 -54 -33 -108t-12 -105q0 -100 62.5 -149t198.5 -49q82 0 130 26.5t48 66.5q0 20 -19 40t-58 47l-46 31q-56 38 -80.5 73t-24.5 84q0 43 22 83t67.5 72t116 55t167.5 33l71 -50q-13 -60 -21 -113.5t-8 -90.5q0 -69 35.5 -105t106.5 -36
q45 0 68 13.5t37 40.5q7 15 12 34t8 46t4.5 63t1.5 83h79q0 -103 -10 -170q-7 -47 -21 -83q23 -11 50 -17q41 -10 71 -10q45 0 68 13.5t37 40.5q7 15 12 34t8 46t4.5 63t1.5 83v70h79zM332 -274l76 -73l75 73l76 -75l-76 -76l-75 74l-75 -74l-76 76z" />
    <glyph glyph-name="uniFD0D" unicode="&#xfd0d;" horiz-adv-x="1218" arabic-form="isolated" 
d="M539 495q-21 -91 -30 -149t-9 -96q0 -82 34.5 -121t111.5 -39q45 0 69.5 13.5t38.5 40.5q7 15 12 34t8 46t4.5 63t1.5 83h79q0 -103 -10 -170q-7 -44 -19 -79q31 -13 55 -21q36 -10 74 -10q121 0 121 102q0 21 -1.5 44.5t-5 56.5t-9.5 79.5t-16 112.5h85
q16 -108 23 -177.5t7 -118.5q0 -43 -14 -78t-39.5 -59.5t-61.5 -38t-79 -13.5q-47 0 -95 17q-38 14 -81 40q-18 -20 -43 -34q-43 -23 -99 -23q-113 0 -171 60.5t-58 181.5q0 50 9 103q-16 -4 -33 -8q-35 -8 -69.5 -17t-64.5 -19q-23 -7 -41 -14q3 -31 6 -59q3 -33 5 -65.5
t3 -65.5t1 -71q0 -59 -19 -104t-53 -75.5t-80 -46t-101 -15.5v82q35 0 66.5 10t55 30.5t37 51t13.5 71.5q0 33 -1 63.5t-3.5 63t-6 69t-9.5 81.5l63 65q68 19 138 34q59 12 108 20q7 33 15 69h78zM900 625l76 -77l-76 -75l-77 75zM735 625l77 -77l-76 -75l-76 75zM818 730
l61 -61l-60 -60l-61 60z" />
    <glyph glyph-name="uniFD29" unicode="&#xfd29;" horiz-adv-x="1259" arabic-form="final" 
d="M538 495q-20 -91 -29.5 -149t-9.5 -96q1 -85 36.5 -122.5t105.5 -37.5q45 0 68.5 13.5t37.5 40.5q7 15 12 34t8 46t4.5 63t1.5 83h78q0 -103 -10 -170q-7 -47 -21 -83q23 -10 51 -17q41 -10 71 -10q45 0 68 13.5t37 40.5q7 15 12 34t8 46t4.5 63t1.5 83v70h79v-70
q0 -103 -10 -170q-6 -38 -16 -69q11 -8 21 -14q18 -10 36 -16t36.5 -8.5t41.5 -2.5q10 0 10 -10v-69q0 -11 -10 -11q-56 0 -101 20q-32 15 -67 45q-20 -25 -49 -42q-42 -23 -97 -23q-42 0 -86 15q-36 13 -79 38q-17 -17 -39 -30q-41 -23 -97 -23q-106 0 -165 59t-59 183
q-1 50 7 103q-15 -4 -31 -8q-35 -8 -69.5 -17t-64.5 -19q-23 -7 -41 -14q3 -31 6 -59q3 -33 5 -65.5t3 -65.5t1 -71q0 -59 -19 -104t-53 -75.5t-80 -46t-101 -15.5v82q35 0 66.5 10t55 30.5t37 51t13.5 71.5q0 33 -1 63.5t-3.5 63t-6 69t-9.5 81.5l63 65q68 19 138 34
q58 12 108 20q7 33 15 69h77zM895 624l76 -77l-76 -75l-77 75zM730 624l77 -77l-76 -75l-76 75zM813 729l61 -61l-60 -60l-61 60z" />
    <glyph glyph-name="uniFCFD" unicode="&#xfcfd;" horiz-adv-x="1464" arabic-form="isolated" 
d="M1379 485q16 -108 23 -177.5t7 -118.5q0 -43 -14 -78t-39.5 -59.5t-61.5 -38t-79 -13.5q-47 0 -95 17q-38 14 -81 40q-19 -20 -46 -34q-46 -23 -106 -23q-100 0 -158.5 56t-58.5 164q0 38 5 85q5 39 15 88q-60 -4 -108 -16q-54 -13 -92 -33t-58 -44t-20 -49
q0 -13 3.5 -23t12.5 -20.5t24.5 -22t39.5 -27.5l44 -29q56 -36 79.5 -72.5t23.5 -79.5q0 -42 -19.5 -77.5t-57 -61t-91.5 -39.5t-123 -14q-71 0 -127.5 16t-97 49.5t-62 84.5t-21.5 122q0 62 12 114t33 114h80q-21 -54 -33 -108t-12 -105q0 -100 62.5 -149t198.5 -49
q82 0 130 26.5t48 66.5q0 20 -19 40t-58 47l-46 31q-56 38 -80.5 73t-24.5 84q0 43 22 83t67.5 72t116 55t167.5 33l71 -50q-13 -60 -21 -113.5t-8 -90.5q0 -69 36 -105t103 -36q51 0 76 13.5t39 40.5q7 15 12 34t8 46t4.5 63t1.5 83h79q0 -103 -10 -170q-7 -44 -19 -79
q31 -13 55 -21q36 -10 74 -10q121 0 121 102q0 21 -1.5 44.5t-5 56.5t-9.5 79.5t-16 112.5h85zM1155 625l76 -77l-76 -75l-77 75zM990 625l77 -77l-76 -75l-76 75zM1073 730l61 -61l-60 -60l-61 60z" />
    <glyph glyph-name="uniFD19" unicode="&#xfd19;" horiz-adv-x="1505" arabic-form="final" 
d="M1398 440v-70q0 -103 -10 -170q-6 -38 -16 -69q11 -8 21 -14q18 -10 36 -16t36.5 -8.5t41.5 -2.5q10 0 10 -10v-69q0 -11 -10 -11q-56 0 -101 20q-32 15 -67 45q-20 -25 -49 -42q-42 -23 -97 -23q-42 0 -86 15q-36 13 -78 38q-17 -17 -39 -30q-42 -23 -97 -23
q-107 0 -165 56t-58 164q0 38 5 85q5 39 15 88q-60 -4 -108 -16q-54 -13 -92 -33t-58 -44t-20 -49q0 -13 3.5 -23t12.5 -20.5t24.5 -22t39.5 -27.5l44 -29q56 -36 79.5 -72.5t23.5 -79.5q0 -42 -19.5 -77.5t-57 -61t-91.5 -39.5t-123 -14q-71 0 -127.5 16t-97 49.5t-62 84.5
t-21.5 122q0 62 12 114t33 114h80q-21 -54 -33 -108t-12 -105q0 -100 62.5 -149t198.5 -49q82 0 130 26.5t48 66.5q0 20 -19 40t-58 47l-46 31q-56 38 -80.5 73t-24.5 84q0 43 22 83t67.5 72t116 55t167.5 33l71 -50q-13 -60 -21 -113.5t-8 -90.5q0 -69 35.5 -105t106.5 -36
q45 0 68 13.5t37 40.5q7 15 12 34t8 46t4.5 63t1.5 83h79q0 -103 -10 -170q-7 -47 -21 -83q23 -11 50 -17q41 -10 71 -10q45 0 68 13.5t37 40.5q7 15 12 34t8 46t4.5 63t1.5 83v70h79zM1139 624l76 -77l-76 -75l-77 75zM974 624l77 -77l-76 -75l-76 75zM1057 729l61 -61
l-60 -60l-61 60z" />
    <glyph glyph-name="uniFCFE" unicode="&#xfcfe;" horiz-adv-x="1464" arabic-form="isolated" 
d="M1379 485q16 -108 23 -177.5t7 -118.5q0 -43 -14 -78t-39.5 -59.5t-61.5 -38t-79 -13.5q-47 0 -95 17q-38 14 -81 40q-19 -20 -46 -34q-46 -23 -106 -23q-100 0 -158.5 56t-58.5 164q0 38 5 85q5 39 15 88q-60 -4 -108 -16q-54 -13 -92 -33t-58 -44t-20 -49
q0 -13 3.5 -23t12.5 -20.5t24.5 -22t39.5 -27.5l44 -29q56 -36 79.5 -72.5t23.5 -79.5q0 -42 -19.5 -77.5t-57 -61t-91.5 -39.5t-123 -14q-71 0 -127.5 16t-97 49.5t-62 84.5t-21.5 122q0 62 12 114t33 114h80q-21 -54 -33 -108t-12 -105q0 -100 62.5 -149t198.5 -49
q82 0 130 26.5t48 66.5q0 20 -19 40t-58 47l-46 31q-56 38 -80.5 73t-24.5 84q0 43 22 83t67.5 72t116 55t167.5 33l71 -50q-13 -60 -21 -113.5t-8 -90.5q0 -69 36 -105t103 -36q51 0 76 13.5t39 40.5q7 15 12 34t8 46t4.5 63t1.5 83h79q0 -103 -10 -170q-7 -44 -19 -79
q31 -13 55 -21q36 -10 74 -10q121 0 121 102q0 21 -1.5 44.5t-5 56.5t-9.5 79.5t-16 112.5h85zM332 -273l76 -73l75 73l76 -75l-76 -76l-75 74l-75 -74l-76 76zM1147 625l76 -77l-76 -75l-77 75zM982 625l77 -77l-76 -75l-76 75zM1065 730l61 -61l-60 -60l-61 60z" />
    <glyph glyph-name="uniFD1A" unicode="&#xfd1a;" horiz-adv-x="1505" arabic-form="final" 
d="M1398 440v-70q0 -103 -10 -170q-6 -38 -16 -69q11 -8 21 -14q18 -10 36 -16t36.5 -8.5t41.5 -2.5q10 0 10 -10v-69q0 -11 -10 -11q-56 0 -101 20q-32 15 -67 45q-20 -25 -49 -42q-42 -23 -97 -23q-42 0 -86 15q-36 13 -78 38q-17 -17 -39 -30q-42 -23 -97 -23
q-107 0 -165 56t-58 164q0 38 5 85q5 39 15 88q-60 -4 -108 -16q-54 -13 -92 -33t-58 -44t-20 -49q0 -13 3.5 -23t12.5 -20.5t24.5 -22t39.5 -27.5l44 -29q56 -36 79.5 -72.5t23.5 -79.5q0 -42 -19.5 -77.5t-57 -61t-91.5 -39.5t-123 -14q-71 0 -127.5 16t-97 49.5t-62 84.5
t-21.5 122q0 62 12 114t33 114h80q-21 -54 -33 -108t-12 -105q0 -100 62.5 -149t198.5 -49q82 0 130 26.5t48 66.5q0 20 -19 40t-58 47l-46 31q-56 38 -80.5 73t-24.5 84q0 43 22 83t67.5 72t116 55t167.5 33l71 -50q-13 -60 -21 -113.5t-8 -90.5q0 -69 35.5 -105t106.5 -36
q45 0 68 13.5t37 40.5q7 15 12 34t8 46t4.5 63t1.5 83h79q0 -103 -10 -170q-7 -47 -21 -83q23 -11 50 -17q41 -10 71 -10q45 0 68 13.5t37 40.5q7 15 12 34t8 46t4.5 63t1.5 83v70h79zM332 -274l76 -73l75 73l76 -75l-76 -76l-75 74l-75 -74l-76 76zM1136 624l76 -77
l-76 -75l-77 75zM971 624l77 -77l-76 -75l-76 75zM1054 729l61 -61l-60 -60l-61 60z" />
    <glyph glyph-name="uniFD0F" unicode="&#xfd0f;" horiz-adv-x="1272" arabic-form="isolated" 
d="M1016 518q45 0 84 -16t67 -44.5t44 -67.5t16 -85q0 -69 -28.5 -125.5t-81 -96.5t-126.5 -61.5t-165 -21.5h-120q-140 0 -212 59t-72 183q0 50 9 103q-16 -4 -33 -8q-35 -8 -69.5 -17t-64.5 -19q-23 -7 -41 -14q3 -31 6 -59q3 -33 5 -65.5t3 -65.5t1 -71q0 -59 -19 -104
t-53 -75.5t-80 -46t-101 -15.5v82q35 0 66.5 10t55 30.5t37 51t13.5 71.5q0 33 -1 63.5t-3.5 63t-6 69t-9.5 81.5l63 65q68 19 138 34q59 12 108 20q7 33 15 69h78q-21 -91 -30 -149t-9 -96q0 -42 10 -72.5t33 -50.5q2 -1 3 -2q62 76 112 133q56 64 100 109.5t79 74.5
t65.5 46t57.5 23.5t56 6.5zM699 90h115q74 0 134.5 14t103 40.5t66 63.5t23.5 83q0 29 -10.5 54t-29 43.5t-43.5 29t-54 10.5q-38 0 -74 -18.5t-82 -61t-107 -113.5q-50 -58 -118 -140q33 -5 76 -5z" />
    <glyph glyph-name="uniFD2B" unicode="&#xfd2b;" horiz-adv-x="1287" arabic-form="final" 
d="M1016 518q45 0 84 -16t67 -44.5t44 -67.5t16 -85q0 -69 -28.5 -125.5t-81 -96.5t-126.5 -61.5t-165 -21.5h-120q-140 0 -212 59t-72 183q0 50 9 103q-16 -4 -33 -8q-35 -8 -69.5 -17t-64.5 -19q-23 -7 -41 -14q3 -31 6 -59q3 -33 5 -65.5t3 -65.5t1 -71q0 -59 -19 -104
t-53 -75.5t-80 -46t-101 -15.5v82q35 0 66.5 10t55 30.5t37 51t13.5 71.5q0 33 -1 63.5t-3.5 63t-6 69t-9.5 81.5l63 65q68 19 138 34q59 12 108 20q7 33 15 69h78q-21 -91 -30 -149t-9 -96q0 -42 10 -72.5t33 -50.5q2 -1 3 -2q62 76 112 133q56 64 100 109.5t79 74.5
t65.5 46t57.5 23.5t56 6.5zM699 90h115q74 0 134.5 14t103 40.5t66 63.5t23.5 83q0 29 -10.5 54t-29 43.5t-43.5 29t-54 10.5q-38 0 -74 -18.5t-82 -61t-107 -113.5q-50 -58 -118 -140q33 -5 76 -5zM1136 143q20 -15 37.5 -25.5t35.5 -16.5t36.5 -8.5t41.5 -2.5q10 0 10 -10
v-69q0 -11 -10 -11q-56 0 -101 20.5t-94 72.5z" />
    <glyph glyph-name="uniFD05" unicode="&#xfd05;" horiz-adv-x="1496" arabic-form="isolated" 
d="M1240 518q45 0 84 -16t67 -44.5t44 -67.5t16 -85q0 -69 -28.5 -125.5t-81 -96.5t-126.5 -61.5t-165 -21.5h-152q-109 0 -168.5 55t-59.5 165q0 38 5 85q5 39 15 88q-60 -4 -108 -16q-54 -13 -92 -33t-58 -44t-20 -49q0 -13 3.5 -23t12.5 -20.5t24.5 -22t39.5 -27.5
l44 -29q56 -36 79.5 -72.5t23.5 -79.5q0 -42 -19.5 -77.5t-57 -61t-91.5 -39.5t-123 -14q-71 0 -127.5 16t-97 49.5t-62 84.5t-21.5 122q0 62 12 114t33 114h80q-21 -54 -33 -108t-12 -105q0 -100 62.5 -149t198.5 -49q82 0 130 26.5t48 66.5q0 20 -19 40t-58 47l-46 31
q-56 38 -80.5 73t-24.5 84q0 43 22 83t67.5 72t116 55t167.5 33l71 -50q-9 -41 -14.5 -70t-8.5 -51.5t-4.5 -42t-1.5 -40.5q0 -69 27 -102q95 115 161 189q73 80 126.5 124.5t95 60t84.5 15.5zM888 90h150q74 0 134.5 14t103 40.5t66 63.5t23.5 83q0 29 -10.5 54t-29 43.5
t-43.5 29t-54 10.5q-38 0 -74 -18t-82 -61t-107 -113q-51 -59 -120 -143q20 -3 43 -3z" />
    <glyph glyph-name="uniFD21" unicode="&#xfd21;" horiz-adv-x="1517" arabic-form="final" 
d="M1240 518q45 0 84 -16t67 -44.5t44 -67.5t16 -85q0 -69 -28.5 -125.5t-81 -96.5t-126.5 -61.5t-165 -21.5h-152q-109 0 -168.5 55t-59.5 165q0 38 5 85q5 39 15 88q-60 -4 -108 -16q-54 -13 -92 -33t-58 -44t-20 -49q0 -13 3.5 -23t12.5 -20.5t24.5 -22t39.5 -27.5
l44 -29q56 -36 79.5 -72.5t23.5 -79.5q0 -42 -19.5 -77.5t-57 -61t-91.5 -39.5t-123 -14q-71 0 -127.5 16t-97 49.5t-62 84.5t-21.5 122q0 62 12 114t33 114h80q-21 -54 -33 -108t-12 -105q0 -100 62.5 -149t198.5 -49q82 0 130 26.5t48 66.5q0 20 -19 40t-58 47l-46 31
q-56 38 -80.5 73t-24.5 84q0 43 22 83t67.5 72t116 55t167.5 33l71 -50q-9 -41 -14.5 -70t-8.5 -51.5t-4.5 -42t-1.5 -40.5q0 -69 27 -102q95 115 161 189q73 80 126.5 124.5t95 60t84.5 15.5zM888 90h150q74 0 134.5 14t103 40.5t66 63.5t23.5 83q0 29 -10.5 54t-29 43.5
t-43.5 29t-54 10.5q-38 0 -74 -18t-82 -61t-107 -113q-51 -59 -120 -143q20 -3 43 -3zM1366 143q20 -15 37.5 -25.5t35.5 -16.5t36.5 -8.5t41.5 -2.5q10 0 10 -10v-69q0 -11 -10 -11q-56 0 -101 20.5t-94 72.5z" />
    <glyph glyph-name="uniFD06" unicode="&#xfd06;" horiz-adv-x="1496" arabic-form="isolated" 
d="M1240 518q45 0 84 -16t67 -44.5t44 -67.5t16 -85q0 -69 -28.5 -125.5t-81 -96.5t-126.5 -61.5t-165 -21.5h-152q-109 0 -168.5 55t-59.5 165q0 38 5 85q5 39 15 88q-60 -4 -108 -16q-54 -13 -92 -33t-58 -44t-20 -49q0 -13 3.5 -23t12.5 -20.5t24.5 -22t39.5 -27.5
l44 -29q56 -36 79.5 -72.5t23.5 -79.5q0 -42 -19.5 -77.5t-57 -61t-91.5 -39.5t-123 -14q-71 0 -127.5 16t-97 49.5t-62 84.5t-21.5 122q0 62 12 114t33 114h80q-21 -54 -33 -108t-12 -105q0 -100 62.5 -149t198.5 -49q82 0 130 26.5t48 66.5q0 20 -19 40t-58 47l-46 31
q-56 38 -80.5 73t-24.5 84q0 43 22 83t67.5 72t116 55t167.5 33l71 -50q-9 -41 -14.5 -70t-8.5 -51.5t-4.5 -42t-1.5 -40.5q0 -69 27 -102q95 115 161 189q73 80 126.5 124.5t95 60t84.5 15.5zM888 90h150q74 0 134.5 14t103 40.5t66 63.5t23.5 83q0 29 -10.5 54t-29 43.5
t-43.5 29t-54 10.5q-38 0 -74 -18t-82 -61t-107 -113q-51 -59 -120 -143q20 -3 43 -3zM332 -273l76 -73l75 73l76 -75l-76 -76l-75 74l-75 -74l-76 76z" />
    <glyph glyph-name="uniFD22" unicode="&#xfd22;" horiz-adv-x="1517" arabic-form="final" 
d="M1240 518q45 0 84 -16t67 -44.5t44 -67.5t16 -85q0 -69 -28.5 -125.5t-81 -96.5t-126.5 -61.5t-165 -21.5h-152q-109 0 -168.5 55t-59.5 165q0 38 5 85q5 39 15 88q-60 -4 -108 -16q-54 -13 -92 -33t-58 -44t-20 -49q0 -13 3.5 -23t12.5 -20.5t24.5 -22t39.5 -27.5
l44 -29q56 -36 79.5 -72.5t23.5 -79.5q0 -42 -19.5 -77.5t-57 -61t-91.5 -39.5t-123 -14q-71 0 -127.5 16t-97 49.5t-62 84.5t-21.5 122q0 62 12 114t33 114h80q-21 -54 -33 -108t-12 -105q0 -100 62.5 -149t198.5 -49q82 0 130 26.5t48 66.5q0 20 -19 40t-58 47l-46 31
q-56 38 -80.5 73t-24.5 84q0 43 22 83t67.5 72t116 55t167.5 33l71 -50q-9 -41 -14.5 -70t-8.5 -51.5t-4.5 -42t-1.5 -40.5q0 -69 27 -102q95 115 161 189q73 80 126.5 124.5t95 60t84.5 15.5zM888 90h150q74 0 134.5 14t103 40.5t66 63.5t23.5 83q0 29 -10.5 54t-29 43.5
t-43.5 29t-54 10.5q-38 0 -74 -18t-82 -61t-107 -113q-51 -59 -120 -143q20 -3 43 -3zM1366 143q20 -15 37.5 -25.5t35.5 -16.5t36.5 -8.5t41.5 -2.5q10 0 10 -10v-69q0 -11 -10 -11q-56 0 -101 20.5t-94 72.5zM332 -273l76 -73l75 73l76 -75l-76 -76l-75 74l-75 -74l-76 76
z" />
    <glyph glyph-name="uniFD10" unicode="&#xfd10;" horiz-adv-x="1272" arabic-form="isolated" 
d="M1016 518q45 0 84 -16t67 -44.5t44 -67.5t16 -85q0 -69 -28.5 -125.5t-81 -96.5t-126.5 -61.5t-165 -21.5h-120q-140 0 -212 59t-72 183q0 50 9 103q-16 -4 -33 -8q-35 -8 -69.5 -17t-64.5 -19q-23 -7 -41 -14q3 -31 6 -59q3 -33 5 -65.5t3 -65.5t1 -71q0 -59 -19 -104
t-53 -75.5t-80 -46t-101 -15.5v82q35 0 66.5 10t55 30.5t37 51t13.5 71.5q0 33 -1 63.5t-3.5 63t-6 69t-9.5 81.5l63 65q68 19 138 34q59 12 108 20q7 33 15 69h78q-21 -91 -30 -149t-9 -96q0 -42 10 -72.5t33 -50.5q2 -1 3 -2q62 76 112 133q56 64 100 109.5t79 74.5
t65.5 46t57.5 23.5t56 6.5zM699 90h115q74 0 134.5 14t103 40.5t66 63.5t23.5 83q0 29 -10.5 54t-29 43.5t-43.5 29t-54 10.5q-38 0 -74 -18.5t-82 -61t-107 -113.5q-50 -58 -118 -140q33 -5 76 -5zM759 703l77 -76l-75 -75l-77 75z" />
    <glyph glyph-name="uniFD2C" unicode="&#xfd2c;" horiz-adv-x="1287" arabic-form="final" 
d="M1016 518q45 0 84 -16t67 -44.5t44 -67.5t16 -85q0 -69 -28.5 -125.5t-81 -96.5t-126.5 -61.5t-165 -21.5h-120q-140 0 -212 59t-72 183q0 50 9 103q-16 -4 -33 -8q-35 -8 -69.5 -17t-64.5 -19q-23 -7 -41 -14q3 -31 6 -59q3 -33 5 -65.5t3 -65.5t1 -71q0 -59 -19 -104
t-53 -75.5t-80 -46t-101 -15.5v82q35 0 66.5 10t55 30.5t37 51t13.5 71.5q0 33 -1 63.5t-3.5 63t-6 69t-9.5 81.5l63 65q68 19 138 34q59 12 108 20q7 33 15 69h78q-21 -91 -30 -149t-9 -96q0 -42 10 -72.5t33 -50.5q2 -1 3 -2q62 76 112 133q56 64 100 109.5t79 74.5
t65.5 46t57.5 23.5t56 6.5zM699 90h115q74 0 134.5 14t103 40.5t66 63.5t23.5 83q0 29 -10.5 54t-29 43.5t-43.5 29t-54 10.5q-38 0 -74 -18.5t-82 -61t-107 -113.5q-50 -58 -118 -140q33 -5 76 -5zM1136 143q20 -15 37.5 -25.5t35.5 -16.5t36.5 -8.5t41.5 -2.5q10 0 10 -10
v-69q0 -11 -10 -11q-56 0 -101 20.5t-94 72.5zM759 703l77 -76l-75 -75l-77 75z" />
    <glyph glyph-name="uniFD07" unicode="&#xfd07;" horiz-adv-x="1496" arabic-form="isolated" 
d="M1240 518q45 0 84 -16t67 -44.5t44 -67.5t16 -85q0 -69 -28.5 -125.5t-81 -96.5t-126.5 -61.5t-165 -21.5h-152q-109 0 -168.5 55t-59.5 165q0 38 5 85q5 39 15 88q-60 -4 -108 -16q-54 -13 -92 -33t-58 -44t-20 -49q0 -13 3.5 -23t12.5 -20.5t24.5 -22t39.5 -27.5
l44 -29q56 -36 79.5 -72.5t23.5 -79.5q0 -42 -19.5 -77.5t-57 -61t-91.5 -39.5t-123 -14q-71 0 -127.5 16t-97 49.5t-62 84.5t-21.5 122q0 62 12 114t33 114h80q-21 -54 -33 -108t-12 -105q0 -100 62.5 -149t198.5 -49q82 0 130 26.5t48 66.5q0 20 -19 40t-58 47l-46 31
q-56 38 -80.5 73t-24.5 84q0 43 22 83t67.5 72t116 55t167.5 33l71 -50q-9 -41 -14.5 -70t-8.5 -51.5t-4.5 -42t-1.5 -40.5q0 -69 27 -102q95 115 161 189q73 80 126.5 124.5t95 60t84.5 15.5zM888 90h150q74 0 134.5 14t103 40.5t66 63.5t23.5 83q0 29 -10.5 54t-29 43.5
t-43.5 29t-54 10.5q-38 0 -74 -18t-82 -61t-107 -113q-51 -59 -120 -143q20 -3 43 -3zM1010 713l77 -76l-75 -75l-77 75z" />
    <glyph glyph-name="uniFD23" unicode="&#xfd23;" horiz-adv-x="1517" arabic-form="final" 
d="M1240 518q45 0 84 -16t67 -44.5t44 -67.5t16 -85q0 -69 -28.5 -125.5t-81 -96.5t-126.5 -61.5t-165 -21.5h-152q-109 0 -168.5 55t-59.5 165q0 38 5 85q5 39 15 88q-60 -4 -108 -16q-54 -13 -92 -33t-58 -44t-20 -49q0 -13 3.5 -23t12.5 -20.5t24.5 -22t39.5 -27.5
l44 -29q56 -36 79.5 -72.5t23.5 -79.5q0 -42 -19.5 -77.5t-57 -61t-91.5 -39.5t-123 -14q-71 0 -127.5 16t-97 49.5t-62 84.5t-21.5 122q0 62 12 114t33 114h80q-21 -54 -33 -108t-12 -105q0 -100 62.5 -149t198.5 -49q82 0 130 26.5t48 66.5q0 20 -19 40t-58 47l-46 31
q-56 38 -80.5 73t-24.5 84q0 43 22 83t67.5 72t116 55t167.5 33l71 -50q-9 -41 -14.5 -70t-8.5 -51.5t-4.5 -42t-1.5 -40.5q0 -69 27 -102q95 115 161 189q73 80 126.5 124.5t95 60t84.5 15.5zM888 90h150q74 0 134.5 14t103 40.5t66 63.5t23.5 83q0 29 -10.5 54t-29 43.5
t-43.5 29t-54 10.5q-38 0 -74 -18t-82 -61t-107 -113q-51 -59 -120 -143q20 -3 43 -3zM1366 143q20 -15 37.5 -25.5t35.5 -16.5t36.5 -8.5t41.5 -2.5q10 0 10 -10v-69q0 -11 -10 -11q-56 0 -101 20.5t-94 72.5zM1010 713l77 -76l-75 -75l-77 75z" />
    <glyph glyph-name="uniFD08" unicode="&#xfd08;" horiz-adv-x="1496" arabic-form="isolated" 
d="M1240 518q45 0 84 -16t67 -44.5t44 -67.5t16 -85q0 -69 -28.5 -125.5t-81 -96.5t-126.5 -61.5t-165 -21.5h-152q-109 0 -168.5 55t-59.5 165q0 38 5 85q5 39 15 88q-60 -4 -108 -16q-54 -13 -92 -33t-58 -44t-20 -49q0 -13 3.5 -23t12.5 -20.5t24.5 -22t39.5 -27.5
l44 -29q56 -36 79.5 -72.5t23.5 -79.5q0 -42 -19.5 -77.5t-57 -61t-91.5 -39.5t-123 -14q-71 0 -127.5 16t-97 49.5t-62 84.5t-21.5 122q0 62 12 114t33 114h80q-21 -54 -33 -108t-12 -105q0 -100 62.5 -149t198.5 -49q82 0 130 26.5t48 66.5q0 20 -19 40t-58 47l-46 31
q-56 38 -80.5 73t-24.5 84q0 43 22 83t67.5 72t116 55t167.5 33l71 -50q-9 -41 -14.5 -70t-8.5 -51.5t-4.5 -42t-1.5 -40.5q0 -69 27 -102q95 115 161 189q73 80 126.5 124.5t95 60t84.5 15.5zM888 90h150q74 0 134.5 14t103 40.5t66 63.5t23.5 83q0 29 -10.5 54t-29 43.5
t-43.5 29t-54 10.5q-38 0 -74 -18t-82 -61t-107 -113q-51 -59 -120 -143q20 -3 43 -3zM332 -273l76 -73l75 73l76 -75l-76 -76l-75 74l-75 -74l-76 76zM1010 713l77 -76l-75 -75l-77 75z" />
    <glyph glyph-name="uniFD24" unicode="&#xfd24;" horiz-adv-x="1517" arabic-form="final" 
d="M1240 518q45 0 84 -16t67 -44.5t44 -67.5t16 -85q0 -69 -28.5 -125.5t-81 -96.5t-126.5 -61.5t-165 -21.5h-152q-109 0 -168.5 55t-59.5 165q0 38 5 85q5 39 15 88q-60 -4 -108 -16q-54 -13 -92 -33t-58 -44t-20 -49q0 -13 3.5 -23t12.5 -20.5t24.5 -22t39.5 -27.5
l44 -29q56 -36 79.5 -72.5t23.5 -79.5q0 -42 -19.5 -77.5t-57 -61t-91.5 -39.5t-123 -14q-71 0 -127.5 16t-97 49.5t-62 84.5t-21.5 122q0 62 12 114t33 114h80q-21 -54 -33 -108t-12 -105q0 -100 62.5 -149t198.5 -49q82 0 130 26.5t48 66.5q0 20 -19 40t-58 47l-46 31
q-56 38 -80.5 73t-24.5 84q0 43 22 83t67.5 72t116 55t167.5 33l71 -50q-9 -41 -14.5 -70t-8.5 -51.5t-4.5 -42t-1.5 -40.5q0 -69 27 -102q95 115 161 189q73 80 126.5 124.5t95 60t84.5 15.5zM888 90h150q74 0 134.5 14t103 40.5t66 63.5t23.5 83q0 29 -10.5 54t-29 43.5
t-43.5 29t-54 10.5q-38 0 -74 -18t-82 -61t-107 -113q-51 -59 -120 -143q20 -3 43 -3zM1366 143q20 -15 37.5 -25.5t35.5 -16.5t36.5 -8.5t41.5 -2.5q10 0 10 -10v-69q0 -11 -10 -11q-56 0 -101 20.5t-94 72.5zM332 -273l76 -73l75 73l76 -75l-76 -76l-75 74l-75 -74l-76 76
zM1010 713l77 -76l-75 -75l-77 75z" />
    <glyph glyph-name="uniFC31" unicode="&#xfc31;" horiz-adv-x="861" arabic-form="isolated" 
d="M611 590q42 0 77 -14.5t60.5 -40.5t41 -63.5t18.5 -83.5q1 -21 2.5 -44.5t3 -47.5t2 -47.5t0.5 -42.5q0 -78 -38 -128t-114 -68q-44 -108 -129.5 -166.5t-221.5 -58.5q-130 0 -201.5 68t-71.5 204q0 62 12 114t33 114h80q-21 -54 -33 -108t-12 -105q0 -103 53 -150
t159 -47q85 0 147 31t99 94h-157l15 90h147q79 0 113 27.5t37 92.5q-31 -14 -63 -22t-61 -8q-91 0 -143.5 49t-52.5 143q0 48 15 88t41.5 69t63 45t78.5 16zM605 500q-46 0 -76.5 -34t-30.5 -90q0 -58 33.5 -87t90.5 -29q59 0 108 17q-2 27 -3.5 53t-3.5 49q-4 59 -36 90
t-82 31zM611 803l77 -76l-75 -75l-77 75z" />
    <glyph glyph-name="uniFC32" unicode="&#xfc32;" horiz-adv-x="861" arabic-form="isolated" 
d="M611 590q42 0 77 -14.5t60.5 -40.5t41 -63.5t18.5 -83.5q1 -21 2.5 -44.5t3 -47.5t2 -47.5t0.5 -42.5q0 -78 -38 -128t-114 -68q-44 -108 -129.5 -166.5t-221.5 -58.5q-130 0 -201.5 68t-71.5 204q0 62 12 114t33 114h80q-21 -54 -33 -108t-12 -105q0 -103 53 -150
t159 -47q85 0 147 31t99 94h-157l15 90h147q79 0 113 27.5t37 92.5q-31 -14 -63 -22t-61 -8q-91 0 -143.5 49t-52.5 143q0 48 15 88t41.5 69t63 45t78.5 16zM605 500q-46 0 -76.5 -34t-30.5 -90q0 -58 33.5 -87t90.5 -29q59 0 108 17q-2 27 -3.5 53t-3.5 49q-4 59 -36 90
t-82 31zM606 803l77 -76l-75 -75l-77 75zM302 -273l76 -73l75 73l76 -75l-76 -76l-75 74l-75 -74l-76 76z" />
    <glyph glyph-name="uniFC35" unicode="&#xfc35;" horiz-adv-x="861" arabic-form="isolated" 
d="M611 590q42 0 77 -14.5t60.5 -40.5t41 -63.5t18.5 -83.5q1 -21 2.5 -44.5t3 -47.5t2 -47.5t0.5 -42.5q0 -78 -38 -128t-114 -68q-44 -108 -129.5 -166.5t-221.5 -58.5q-130 0 -201.5 68t-71.5 204q0 62 12 114t33 114h80q-21 -54 -33 -108t-12 -105q0 -103 53 -150
t159 -47q85 0 147 31t99 94h-157l15 90h147q79 0 113 27.5t37 92.5q-31 -14 -63 -22t-61 -8q-91 0 -143.5 49t-52.5 143q0 48 15 88t41.5 69t63 45t78.5 16zM605 500q-46 0 -76.5 -34t-30.5 -90q0 -58 33.5 -87t90.5 -29q59 0 108 17q-2 27 -3.5 53t-3.5 49q-4 59 -36 90
t-82 31zM538 804l76 -74l75 74l76 -76l-76 -75l-75 73l-75 -73l-76 75z" />
    <glyph glyph-name="uniFC36" unicode="&#xfc36;" horiz-adv-x="861" arabic-form="isolated" 
d="M611 590q42 0 77 -14.5t60.5 -40.5t41 -63.5t18.5 -83.5q1 -21 2.5 -44.5t3 -47.5t2 -47.5t0.5 -42.5q0 -78 -38 -128t-114 -68q-44 -108 -129.5 -166.5t-221.5 -58.5q-130 0 -201.5 68t-71.5 204q0 62 12 114t33 114h80q-21 -54 -33 -108t-12 -105q0 -103 53 -150
t159 -47q85 0 147 31t99 94h-157l15 90h147q79 0 113 27.5t37 92.5q-31 -14 -63 -22t-61 -8q-91 0 -143.5 49t-52.5 143q0 48 15 88t41.5 69t63 45t78.5 16zM605 500q-46 0 -76.5 -34t-30.5 -90q0 -58 33.5 -87t90.5 -29q59 0 108 17q-2 27 -3.5 53t-3.5 49q-4 59 -36 90
t-82 31zM538 804l76 -74l75 74l76 -76l-76 -75l-75 73l-75 -73l-76 75zM317 -273l76 -73l75 73l76 -75l-76 -76l-75 74l-75 -74l-76 76z" />
    <glyph glyph-name="uniFC3D" unicode="&#xfc3d;" horiz-adv-x="1412" arabic-form="isolated" 
d="M1367 795v-4l-368 -292l174 -76q204 -89 204 -223q0 -45 -18.5 -81.5t-52.5 -63t-82.5 -41t-109.5 -14.5h-219h-2q-107 0 -165 56t-58 164q0 38 5 85q5 39 15 88q-60 -4 -108 -16q-54 -13 -92 -33t-58 -44t-20 -49q0 -13 3.5 -23t12.5 -20.5t24.5 -22t39.5 -27.5l44 -29
q56 -36 79.5 -72.5t23.5 -79.5q0 -42 -19.5 -77.5t-57 -61t-91.5 -39.5t-123 -14q-71 0 -127.5 16t-97 49.5t-62 84.5t-21.5 122q0 62 12 114t33 114h80q-21 -54 -33 -108t-12 -105q0 -100 62.5 -149t198.5 -49q82 0 130 26.5t48 66.5q0 20 -19 40t-58 47l-46 31
q-56 38 -80.5 73t-24.5 84q0 43 22 83t67.5 72t116 55t167.5 33l71 -56q-13 -60 -21 -110.5t-8 -87.5q0 -69 36.5 -105t110.5 -36h2h227q37 0 68 8t53.5 22t35.5 33.5t13 42.5q0 41 -36.5 75t-124.5 73l-240 106v68l349 277h127z" />
    <glyph glyph-name="uniFC83" unicode="&#xfc83;" horiz-adv-x="1488" arabic-form="final" 
d="M1367 795v-4l-368 -292l174 -76q204 -89 204 -223q0 -45 -18.5 -81.5t-52.5 -63t-82.5 -41t-109.5 -14.5h-219h-2q-107 0 -165 56t-58 164q0 38 5 85q5 39 15 88q-60 -4 -108 -16q-54 -13 -92 -33t-58 -44t-20 -49q0 -13 3.5 -23t12.5 -20.5t24.5 -22t39.5 -27.5l44 -29
q56 -36 79.5 -72.5t23.5 -79.5q0 -42 -19.5 -77.5t-57 -61t-91.5 -39.5t-123 -14q-71 0 -127.5 16t-97 49.5t-62 84.5t-21.5 122q0 62 12 114t33 114h80q-21 -54 -33 -108t-12 -105q0 -100 62.5 -149t198.5 -49q82 0 130 26.5t48 66.5q0 20 -19 40t-58 47l-46 31
q-56 38 -80.5 73t-24.5 84q0 43 22 83t67.5 72t116 55t167.5 33l71 -56q-13 -60 -21 -110.5t-8 -87.5q0 -69 36.5 -105t110.5 -36h2h227q37 0 68 8t53.5 22t35.5 33.5t13 42.5q0 41 -36.5 75t-124.5 73l-240 106v68l349 277h127zM1337 143q20 -15 37.5 -25.5t35.5 -16.5
t36.5 -8.5t41.5 -2.5q10 0 10 -10v-69q0 -11 -10 -11q-56 0 -101 20.5t-94 72.5z" />
    <glyph glyph-name="uniFC3E" unicode="&#xfc3e;" horiz-adv-x="1412" arabic-form="isolated" 
d="M1367 795v-4l-368 -292l174 -76q204 -89 204 -223q0 -45 -18.5 -81.5t-52.5 -63t-82.5 -41t-109.5 -14.5h-219h-2q-107 0 -165 56t-58 164q0 38 5 85q5 39 15 88q-60 -4 -108 -16q-54 -13 -92 -33t-58 -44t-20 -49q0 -13 3.5 -23t12.5 -20.5t24.5 -22t39.5 -27.5l44 -29
q56 -36 79.5 -72.5t23.5 -79.5q0 -42 -19.5 -77.5t-57 -61t-91.5 -39.5t-123 -14q-71 0 -127.5 16t-97 49.5t-62 84.5t-21.5 122q0 62 12 114t33 114h80q-21 -54 -33 -108t-12 -105q0 -100 62.5 -149t198.5 -49q82 0 130 26.5t48 66.5q0 20 -19 40t-58 47l-46 31
q-56 38 -80.5 73t-24.5 84q0 43 22 83t67.5 72t116 55t167.5 33l71 -56q-13 -60 -21 -110.5t-8 -87.5q0 -69 36.5 -105t110.5 -36h2h227q37 0 68 8t53.5 22t35.5 33.5t13 42.5q0 41 -36.5 75t-124.5 73l-240 106v68l349 277h127zM332 -273l76 -73l75 73l76 -75l-76 -76
l-75 74l-75 -74l-76 76z" />
    <glyph glyph-name="uniFC84" unicode="&#xfc84;" horiz-adv-x="1488" arabic-form="final" 
d="M1367 795v-4l-368 -292l174 -76q204 -89 204 -223q0 -45 -18.5 -81.5t-52.5 -63t-82.5 -41t-109.5 -14.5h-219h-2q-107 0 -165 56t-58 164q0 38 5 85q5 39 15 88q-60 -4 -108 -16q-54 -13 -92 -33t-58 -44t-20 -49q0 -13 3.5 -23t12.5 -20.5t24.5 -22t39.5 -27.5l44 -29
q56 -36 79.5 -72.5t23.5 -79.5q0 -42 -19.5 -77.5t-57 -61t-91.5 -39.5t-123 -14q-71 0 -127.5 16t-97 49.5t-62 84.5t-21.5 122q0 62 12 114t33 114h80q-21 -54 -33 -108t-12 -105q0 -100 62.5 -149t198.5 -49q82 0 130 26.5t48 66.5q0 20 -19 40t-58 47l-46 31
q-56 38 -80.5 73t-24.5 84q0 43 22 83t67.5 72t116 55t167.5 33l71 -56q-13 -60 -21 -110.5t-8 -87.5q0 -69 36.5 -105t110.5 -36h2h227q37 0 68 8t53.5 22t35.5 33.5t13 42.5q0 41 -36.5 75t-124.5 73l-240 106v68l349 277h127zM1337 143q20 -15 37.5 -25.5t35.5 -16.5
t36.5 -8.5t41.5 -2.5q10 0 10 -10v-69q0 -11 -10 -11q-56 0 -101 20.5t-94 72.5zM332 -273l76 -73l75 73l76 -75l-76 -76l-75 74l-75 -74l-76 76z" />
    <glyph glyph-name="uniFC42" unicode="&#xfc42;" horiz-adv-x="517" arabic-form="isolated" 
d="M389 725v-567q20 -8 44 -19q43 -20 84 -47l-43 -79q-43 8 -78 26q-28 15 -53 36q-33 12 -60 18q-34 7 -65 7q-45 0 -66.5 -21.5t-21.5 -72.5q0 -24 2 -51t6 -60t10 -74.5t15 -95.5h-85q-9 56 -15.5 99t-10 77.5t-5.5 62t-2 53.5q0 40 12.5 72.5t34.5 54.5t53 34t67 12
q28 0 62 -6q19 -3 37 -8v2q-7 45 -7 89v458h85z" />
    <glyph glyph-name="uniFCCC" unicode="&#xfccc;" horiz-adv-x="293" arabic-form="initial" 
d="M0 90q34 0 68 -4q23 -2 44 -6q-1 6 -2 13q-7 45 -7 89v543h85v-662q17 -7 36 -16q43 -20 84 -47l-41 -77q-42 10 -77 27q-26 12 -50 31q-34 10 -70 14q-43 5 -70 5q-10 0 -10 10v69q0 11 10 11z" />
    <glyph glyph-name="uniFC44" unicode="&#xfc44;" horiz-adv-x="865" arabic-form="isolated" 
d="M780 725v-534q0 -88 -51 -140q-25 -26 -64 -39q-42 -104 -124 -163q-87 -64 -228 -64q-130 0 -201.5 68t-71.5 204q0 62 12 114t33 114h80q-21 -54 -33 -108t-12 -105q0 -103 53 -150t159 -47q101 0 170 44q47 30 76 81h-2h-150l15 90h135q66 0 92.5 25.5t26.5 78.5v531
h85zM310 -263l76 -73l75 73l76 -75l-76 -76l-75 74l-75 -74l-76 76z" />
    <glyph glyph-name="uniFC87" unicode="&#xfc87;" horiz-adv-x="894" arabic-form="final" 
d="M774 725v-531q0 -53 27 -78.5t92 -25.5q10 0 10 -10v-69q0 -11 -10 -11q-103 0 -154 51q-6 6 -11 13l-10 -10q-17 -16 -37 -28l-14 -8q-42 -108 -126 -169q-87 -64 -228 -64q-130 0 -201.5 68t-71.5 204q0 62 12 114t33 114h80q-21 -54 -33 -108t-12 -105q0 -103 53 -150
t159 -47q101 0 170 44q47 30 76 81h-2h-150l15 90h135q42 0 75 14q25 10 45 26q-7 28 -7 61v534h85zM311 -263l76 -73l75 73l76 -75l-76 -76l-75 74l-75 -74l-76 76z" />
    <glyph glyph-name="uniFC8A" unicode="&#xfc8a;" horiz-adv-x="603" arabic-form="final" 
d="M524 415q-11 -50 -17.5 -100t-6.5 -88q0 -71 24 -104t79 -33q10 0 10 -10v-69q0 -11 -10 -11q-90 0 -136 49.5t-46 143.5q0 43 5 93q4 40 11 80q-53 -26 -108.5 -44.5t-106.5 -27.5q6 -63 10 -122q6 -68 6 -146q0 -59 -19 -104t-53 -75.5t-80 -46t-101 -15.5v82
q35 0 66.5 10t55 30.5t37 51t13.5 71.5q0 37 -1.5 72.5t-5 74t-8.5 83t-12 98.5l10 12q49 4 89.5 12t77 19.5t70 26t68.5 31.5zM447 710l77 -76l-75 -75l-77 75z" />
    <glyph glyph-name="uniFC8B" unicode="&#xfc8b;" horiz-adv-x="603" arabic-form="final" 
d="M524 415q-11 -50 -17.5 -100t-6.5 -88q0 -71 24 -104t79 -33q10 0 10 -10v-69q0 -11 -10 -11q-90 0 -136 49.5t-46 143.5q0 43 5 93q4 40 11 80q-53 -26 -108.5 -44.5t-106.5 -27.5q6 -63 10 -122q6 -68 6 -146q0 -59 -19 -104t-53 -75.5t-80 -46t-101 -15.5v82
q35 0 66.5 10t55 30.5t37 51t13.5 71.5q0 37 -1.5 72.5t-5 74t-8.5 83t-12 98.5l10 12q49 4 89.5 12t77 19.5t70 26t68.5 31.5zM143 631l77 -76l-75 -75l-77 75zM447 710l77 -76l-75 -75l-77 75z" />
    <glyph glyph-name="uniFC4E" unicode="&#xfc4e;" horiz-adv-x="542" arabic-form="isolated" 
d="M412 532l53 -54q-59 -52 -84 -94t-25 -93q0 -56 28 -99q19 -28 50 -58q37 -19 73 -42l-43 -79q-43 8 -78 26q-28 15 -53 36q-33 12 -60 18q-34 7 -65 7q-45 0 -66.5 -21.5t-21.5 -72.5q0 -24 2 -51t6 -60t10 -74.5t15 -95.5h-85q-9 56 -15.5 99t-10 77.5t-5.5 62t-2 53.5
q0 40 12.5 72.5t34.5 54.5t53 34t67 12q28 0 62 -6q21 -4 42 -9q-8 14 -14 28q-21 51 -21 99q0 67 35 126t96 104h10zM409 755l77 -76l-75 -75l-77 75z" />
    <glyph glyph-name="uniFC8D" unicode="&#xfc8d;" horiz-adv-x="938" arabic-form="final" 
d="M859 415q-11 -50 -17 -100t-6 -88q0 -71 23.5 -104t78.5 -33q10 0 10 -10v-69q0 -11 -10 -11q-90 0 -136 49.5t-46 143.5q0 43 5 93q5 40 12 81q-51 -27 -106 -45q-57 -19 -109 -28q6 -49 10 -93q4 -52 4 -102q0 -68 -17 -125.5t-52 -99.5t-88.5 -65.5t-126.5 -23.5
q-118 0 -183 70.5t-65 201.5q0 62 12 114t33 114h80q-21 -54 -33 -108t-12 -105q0 -91 42 -144t134 -53q101 0 147 54t46 170q0 28 -1.5 55.5t-4.5 58t-7.5 66t-10.5 79.5l10 12q49 4 89.5 12t77 19.5t70 26t68.5 31.5zM780 722l77 -76l-75 -75l-77 75zM294 546l77 -76
l-75 -75l-77 75z" />
    <glyph glyph-name="uniFC4F" unicode="&#xfc4f;" horiz-adv-x="865" arabic-form="isolated" 
d="M780 485q8 -55 14 -98.5t9.5 -78.5t5 -63.5t1.5 -53.5q0 -91 -51 -141q-36 -35 -97 -46q-43 -102 -122 -157q-88 -62 -222 -62t-206 68t-72 204q0 62 12 114t33 114h80q-21 -54 -33 -108t-12 -105q0 -103 52.5 -150t164.5 -47q94 0 163 43q49 29 78 82h-152l15 90h165
q66 0 94 25.5t28 78.5q0 22 -2 47.5t-5.5 59t-10 78.5t-15.5 106h85zM729 708l77 -76l-75 -75l-77 75z" />
    <glyph glyph-name="uniFC8E" unicode="&#xfc8e;" horiz-adv-x="904" arabic-form="final" 
d="M775 435q-13 -60 -21 -113.5t-8 -90.5q0 -69 42.5 -105t115.5 -36q10 0 10 -10v-69q0 -11 -10 -11q-53 0 -96.5 14.5t-74 42t-47 68.5t-16.5 95q0 38 5 85q5 39 15 88q-60 -4 -108 -16q-54 -13 -92 -33t-58 -44t-20 -49q0 -13 3.5 -23t12.5 -20.5t24.5 -22t39.5 -27.5
l44 -29q56 -36 79.5 -72.5t23.5 -79.5q0 -42 -19.5 -77.5t-57 -61t-91.5 -39.5t-123 -14q-71 0 -127.5 16t-97 49.5t-62 84.5t-21.5 122q0 62 12 114t33 114h80q-21 -54 -33 -108t-12 -105q0 -100 62.5 -149t198.5 -49q82 0 130 26.5t48 66.5q0 20 -19 40t-58 47l-46 31
q-56 38 -80.5 73t-24.5 84q0 43 22 83t67.5 72t116 55t167.5 33zM701 747l77 -76l-75 -75l-77 75z" />
    <glyph glyph-name="uniFC50" unicode="&#xfc50;" horiz-adv-x="865" arabic-form="isolated" 
d="M780 485q8 -55 14 -98.5t9.5 -78.5t5 -63.5t1.5 -53.5q0 -91 -51 -141q-36 -35 -97 -46q-43 -102 -122 -157q-88 -62 -222 -62t-206 68t-72 204q0 62 12 114t33 114h80q-21 -54 -33 -108t-12 -105q0 -103 52.5 -150t164.5 -47q94 0 163 43q49 29 78 82h-152l15 90h165
q66 0 94 25.5t28 78.5q0 22 -2 47.5t-5.5 59t-10 78.5t-15.5 106h85zM729 708l77 -76l-75 -75l-77 75zM332 -273l76 -73l75 73l76 -75l-76 -76l-75 74l-75 -74l-76 76z" />
    <glyph glyph-name="uniFC8F" unicode="&#xfc8f;" horiz-adv-x="904" arabic-form="final" 
d="M775 435q-13 -60 -21 -113.5t-8 -90.5q0 -69 42.5 -105t115.5 -36q10 0 10 -10v-69q0 -11 -10 -11q-53 0 -96.5 14.5t-74 42t-47 68.5t-16.5 95q0 38 5 85q5 39 15 88q-60 -4 -108 -16q-54 -13 -92 -33t-58 -44t-20 -49q0 -13 3.5 -23t12.5 -20.5t24.5 -22t39.5 -27.5
l44 -29q56 -36 79.5 -72.5t23.5 -79.5q0 -42 -19.5 -77.5t-57 -61t-91.5 -39.5t-123 -14q-71 0 -127.5 16t-97 49.5t-62 84.5t-21.5 122q0 62 12 114t33 114h80q-21 -54 -33 -108t-12 -105q0 -100 62.5 -149t198.5 -49q82 0 130 26.5t48 66.5q0 20 -19 40t-58 47l-46 31
q-56 38 -80.5 73t-24.5 84q0 43 22 83t67.5 72t116 55t167.5 33zM701 747l77 -76l-75 -75l-77 75zM332 -273l76 -73l75 73l76 -75l-76 -76l-75 74l-75 -74l-76 76z" />
    <glyph glyph-name="uniFC91" unicode="&#xfc91;" horiz-adv-x="603" arabic-form="final" 
d="M524 415q-11 -50 -17.5 -100t-6.5 -88q0 -71 24 -104t79 -33q10 0 10 -10v-69q0 -11 -10 -11q-90 0 -136 49.5t-46 143.5q0 43 5 93q4 40 11 80q-53 -26 -108.5 -44.5t-106.5 -27.5q6 -63 10 -122q6 -68 6 -146q0 -59 -19 -104t-53 -75.5t-80 -46t-101 -15.5v82
q35 0 66.5 10t55 30.5t37 51t13.5 71.5q0 37 -1.5 72.5t-5 74t-8.5 83t-12 98.5l10 12q49 4 89.5 12t77 19.5t70 26t68.5 31.5zM319 -74l76 -73l75 73l76 -75l-76 -76l-75 74l-75 -74l-76 76z" />
    <glyph glyph-name="uniFC92" unicode="&#xfc92;" horiz-adv-x="603" arabic-form="final" 
d="M524 415q-11 -50 -17.5 -100t-6.5 -88q0 -71 24 -104t79 -33q10 0 10 -10v-69q0 -11 -10 -11q-90 0 -136 49.5t-46 143.5q0 43 5 93q4 40 11 80q-53 -26 -108.5 -44.5t-106.5 -27.5q6 -63 10 -122q6 -68 6 -146q0 -59 -19 -104t-53 -75.5t-80 -46t-101 -15.5v82
q35 0 66.5 10t55 30.5t37 51t13.5 71.5q0 37 -1.5 72.5t-5 74t-8.5 83t-12 98.5l10 12q49 4 89.5 12t77 19.5t70 26t68.5 31.5zM143 631l77 -76l-75 -75l-77 75zM319 -74l76 -73l75 73l76 -75l-76 -76l-75 74l-75 -74l-76 76z" />
    <glyph glyph-name="uniFC58" unicode="&#xfc58;" horiz-adv-x="542" arabic-form="isolated" 
d="M412 532l53 -54q-59 -52 -84 -94t-25 -93q0 -56 28 -99q19 -28 50 -58q37 -19 73 -42l-43 -79q-43 8 -78 26q-28 15 -53 36q-33 12 -60 18q-34 7 -65 7q-45 0 -66.5 -21.5t-21.5 -72.5q0 -24 2 -51t6 -60t10 -74.5t15 -95.5h-85q-9 56 -15.5 99t-10 77.5t-5.5 62t-2 53.5
q0 40 12.5 72.5t34.5 54.5t53 34t67 12q28 0 62 -6q21 -4 42 -9q-8 14 -14 28q-21 51 -21 99q0 67 35 126t96 104h10zM255 -74l76 -73l75 73l76 -75l-76 -76l-75 74l-75 -74l-76 76z" />
    <glyph glyph-name="uniFC94" unicode="&#xfc94;" horiz-adv-x="938" arabic-form="final" 
d="M859 415q-11 -50 -17 -100t-6 -88q0 -71 23.5 -104t78.5 -33q10 0 10 -10v-69q0 -11 -10 -11q-90 0 -136 49.5t-46 143.5q0 43 5 93q5 40 12 81q-51 -27 -106 -45q-57 -19 -109 -28q6 -49 10 -93q4 -52 4 -102q0 -68 -17 -125.5t-52 -99.5t-88.5 -65.5t-126.5 -23.5
q-118 0 -183 70.5t-65 201.5q0 62 12 114t33 114h80q-21 -54 -33 -108t-12 -105q0 -91 42 -144t134 -53q101 0 147 54t46 170q0 28 -1.5 55.5t-4.5 58t-7.5 66t-10.5 79.5l10 12q49 4 89.5 12t77 19.5t70 26t68.5 31.5zM656 -74l76 -73l75 73l76 -75l-76 -76l-75 74l-75 -74
l-76 76zM294 546l77 -76l-75 -75l-77 75z" />
    <glyph glyph-name="uniFC64" unicode="&#xfc64;" horiz-adv-x="603" arabic-form="final" 
d="M524 415q-11 -50 -17.5 -100t-6.5 -88q0 -71 24 -104t79 -33q10 0 10 -10v-69q0 -11 -10 -11q-90 0 -136 49.5t-46 143.5q0 43 5 93q4 40 11 80q-53 -26 -108.5 -44.5t-106.5 -27.5q6 -63 10 -122q6 -68 6 -146q0 -59 -19 -104t-53 -75.5t-80 -46t-101 -15.5v82
q35 0 66.5 10t55 30.5t37 51t13.5 71.5q0 37 -1.5 72.5t-5 74t-8.5 83t-12 98.5l10 12q49 4 89.5 12t77 19.5t70 26t68.5 31.5zM571 635l-22 -73h-125q-25 0 -47.5 -3t-58.5 -14v70q18 6 30.5 10t23.5 6l6 2q-2 1 -4 3q-18 22 -18 51q0 40 28 68t77 28q15 0 34 -4.5
t39 -14.5v-67q-22 7 -37.5 10t-30.5 3q-20 0 -34 -10t-14 -27q0 -19 16 -29q14 -8 37 -9h100z" />
    <glyph glyph-name="uniFC65" unicode="&#xfc65;" horiz-adv-x="603" arabic-form="final" 
d="M524 415q-11 -50 -17.5 -100t-6.5 -88q0 -71 24 -104t79 -33q10 0 10 -10v-69q0 -11 -10 -11q-90 0 -136 49.5t-46 143.5q0 43 5 93q4 40 11 80q-53 -26 -108.5 -44.5t-106.5 -27.5q6 -63 10 -122q6 -68 6 -146q0 -59 -19 -104t-53 -75.5t-80 -46t-101 -15.5v82
q35 0 66.5 10t55 30.5t37 51t13.5 71.5q0 37 -1.5 72.5t-5 74t-8.5 83t-12 98.5l10 12q49 4 89.5 12t77 19.5t70 26t68.5 31.5zM143 631l77 -76l-75 -75l-77 75zM581 635l-22 -73h-125q-25 0 -47.5 -3t-58.5 -14v70q18 6 30.5 10t23.5 6l6 2q-2 1 -4 3q-18 22 -18 51
q0 40 28 68t77 28q15 0 34 -4.5t39 -14.5v-67q-22 7 -37.5 10t-30.5 3q-20 0 -34 -10t-14 -27q0 -19 16 -29q14 -8 37 -9h100z" />
    <glyph glyph-name="uniFC02" unicode="&#xfc02;" horiz-adv-x="542" arabic-form="isolated" 
d="M412 532l53 -54q-59 -52 -84 -94t-25 -93q0 -56 28 -99q19 -28 50 -58q37 -19 73 -42l-43 -79q-43 8 -78 26q-28 15 -53 36q-33 12 -60 18q-34 7 -65 7q-45 0 -66.5 -21.5t-21.5 -72.5q0 -24 2 -51t6 -60t10 -74.5t15 -95.5h-85q-9 56 -15.5 99t-10 77.5t-5.5 62t-2 53.5
q0 40 12.5 72.5t34.5 54.5t53 34t67 12q28 0 62 -6q21 -4 42 -9q-8 14 -14 28q-21 51 -21 99q0 67 35 126t96 104h10zM518 678l-22 -73h-125q-25 0 -47.5 -3t-58.5 -14v70q18 6 30.5 10t23.5 6l6 2q-2 1 -4 3q-18 22 -18 51q0 40 28 68t77 28q15 0 34 -4.5t39 -14.5v-67
q-22 7 -37.5 10t-30.5 3q-20 0 -34 -10t-14 -27q0 -19 16 -29q14 -8 37 -9h100z" />
    <glyph glyph-name="uniFC67" unicode="&#xfc67;" horiz-adv-x="938" arabic-form="final" 
d="M859 415q-11 -50 -17 -100t-6 -88q0 -71 23.5 -104t78.5 -33q10 0 10 -10v-69q0 -11 -10 -11q-90 0 -136 49.5t-46 143.5q0 43 5 93q5 40 12 81q-51 -27 -106 -45q-57 -19 -109 -28q6 -49 10 -93q4 -52 4 -102q0 -68 -17 -125.5t-52 -99.5t-88.5 -65.5t-126.5 -23.5
q-118 0 -183 70.5t-65 201.5q0 62 12 114t33 114h80q-21 -54 -33 -108t-12 -105q0 -91 42 -144t134 -53q101 0 147 54t46 170q0 28 -1.5 55.5t-4.5 58t-7.5 66t-10.5 79.5l10 12q49 4 89.5 12t77 19.5t70 26t68.5 31.5zM893 634l-22 -73h-125q-25 0 -47.5 -3t-58.5 -14v70
q18 6 30.5 10t22.5 6l6 2l-3 3q-18 22 -18 51q0 40 28 68t77 28q15 0 34 -4.5t39 -14.5v-67q-22 7 -37.5 10t-30.5 3q-20 0 -34 -10t-14 -27q0 -19 16.5 -28.5t44.5 -9.5h92zM294 546l77 -76l-75 -75l-77 75z" />
    <glyph glyph-name="uniFC03" unicode="&#xfc03;" horiz-adv-x="881" arabic-form="isolated" 
d="M780 485q8 -55 14 -98.5t9.5 -78.5t5 -63.5t1.5 -53.5q0 -91 -51 -141q-36 -35 -97 -46q-43 -102 -122 -157q-88 -62 -222 -62t-206 68t-72 204q0 62 12 114t33 114h80q-21 -54 -33 -108t-12 -105q0 -103 52.5 -150t164.5 -47q94 0 163 43q49 29 78 82h-152l15 90h165
q66 0 94 25.5t28 78.5q0 22 -2 47.5t-5.5 59t-10 78.5t-15.5 106h85zM857 609l-22 -73h-125q-25 0 -47.5 -3t-58.5 -14v70q18 6 30.5 10t23.5 6l6 2q-2 1 -4 3q-18 22 -18 51q0 40 28 68t77 28q15 0 34 -4.5t39 -14.5v-67q-22 7 -37.5 10t-30.5 3q-20 0 -34 -10t-14 -27
q0 -19 16 -29q14 -8 37 -9h100z" />
    <glyph glyph-name="uniFC68" unicode="&#xfc68;" horiz-adv-x="904" arabic-form="final" 
d="M775 435q-13 -60 -21 -113.5t-8 -90.5q0 -69 42.5 -105t115.5 -36q10 0 10 -10v-69q0 -11 -10 -11q-53 0 -96.5 14.5t-74 42t-47 68.5t-16.5 95q0 38 5 85q5 39 15 88q-60 -4 -108 -16q-54 -13 -92 -33t-58 -44t-20 -49q0 -13 3.5 -23t12.5 -20.5t24.5 -22t39.5 -27.5
l44 -29q56 -36 79.5 -72.5t23.5 -79.5q0 -42 -19.5 -77.5t-57 -61t-91.5 -39.5t-123 -14q-71 0 -127.5 16t-97 49.5t-62 84.5t-21.5 122q0 62 12 114t33 114h80q-21 -54 -33 -108t-12 -105q0 -100 62.5 -149t198.5 -49q82 0 130 26.5t48 66.5q0 20 -19 40t-58 47l-46 31
q-56 38 -80.5 73t-24.5 84q0 43 22 83t67.5 72t116 55t167.5 33zM789 655l-22 -73h-125q-25 0 -47.5 -3t-58.5 -14v70q18 6 30.5 10t23.5 6l6 2q-2 1 -4 3q-18 22 -18 51q0 40 28 68t77 28q15 0 34 -4.5t39 -14.5v-67q-22 7 -37.5 10t-30.5 3q-20 0 -34 -10t-14 -27
q0 -19 16 -29q14 -8 37 -9h100z" />
    <glyph glyph-name="uniFC04" unicode="&#xfc04;" horiz-adv-x="881" arabic-form="isolated" 
d="M780 485q8 -55 14 -98.5t9.5 -78.5t5 -63.5t1.5 -53.5q0 -91 -51 -141q-36 -35 -97 -46q-43 -102 -122 -157q-88 -62 -222 -62t-206 68t-72 204q0 62 12 114t33 114h80q-21 -54 -33 -108t-12 -105q0 -103 52.5 -150t164.5 -47q94 0 163 43q49 29 78 82h-152l15 90h165
q66 0 94 25.5t28 78.5q0 22 -2 47.5t-5.5 59t-10 78.5t-15.5 106h85zM857 609l-22 -73h-125q-25 0 -47.5 -3t-58.5 -14v70q18 6 30.5 10t23.5 6l6 2q-2 1 -4 3q-18 22 -18 51q0 40 28 68t77 28q15 0 34 -4.5t39 -14.5v-67q-22 7 -37.5 10t-30.5 3q-20 0 -34 -10t-14 -27
q0 -19 16 -29q14 -8 37 -9h100zM332 -273l76 -73l75 73l76 -75l-76 -76l-75 74l-75 -74l-76 76z" />
    <glyph glyph-name="uniFC69" unicode="&#xfc69;" horiz-adv-x="904" arabic-form="final" 
d="M775 435q-13 -60 -21 -113.5t-8 -90.5q0 -69 42.5 -105t115.5 -36q10 0 10 -10v-69q0 -11 -10 -11q-53 0 -96.5 14.5t-74 42t-47 68.5t-16.5 95q0 38 5 85q5 39 15 88q-60 -4 -108 -16q-54 -13 -92 -33t-58 -44t-20 -49q0 -13 3.5 -23t12.5 -20.5t24.5 -22t39.5 -27.5
l44 -29q56 -36 79.5 -72.5t23.5 -79.5q0 -42 -19.5 -77.5t-57 -61t-91.5 -39.5t-123 -14q-71 0 -127.5 16t-97 49.5t-62 84.5t-21.5 122q0 62 12 114t33 114h80q-21 -54 -33 -108t-12 -105q0 -100 62.5 -149t198.5 -49q82 0 130 26.5t48 66.5q0 20 -19 40t-58 47l-46 31
q-56 38 -80.5 73t-24.5 84q0 43 22 83t67.5 72t116 55t167.5 33zM789 655l-22 -73h-125q-25 0 -47.5 -3t-58.5 -14v70q18 6 30.5 10t23.5 6l6 2q-2 1 -4 3q-18 22 -18 51q0 40 28 68t77 28q15 0 34 -4.5t39 -14.5v-67q-22 7 -37.5 10t-30.5 3q-20 0 -34 -10t-14 -27
q0 -19 16 -29q14 -8 37 -9h100zM332 -273l76 -73l75 73l76 -75l-76 -76l-75 74l-75 -74l-76 76z" />
    <glyph glyph-name="uni06AA.init" unicode="&#x6aa;" horiz-adv-x="801" 
d="M387 725l-267 -295h392q55 0 100 -15t77 -43.5t49.5 -68.5t17.5 -91q0 -47 -16 -86t-45.5 -67t-70 -43.5t-89.5 -15.5h-535q-10 0 -10 11v69q0 10 10 10h523q69 0 108.5 31.5t39.5 88.5q0 63 -40 96.5t-114 33.5h-444l-50 90l251 295h113z" />
    <glyph glyph-name="uni06AA.medi" unicode="&#x6aa;" horiz-adv-x="851" 
d="M387 725l-267 -295h392q55 0 100 -15t77 -43.5t49.5 -68.5t17.5 -91q0 -47 -16 -86t-45.5 -67t-70 -43.5t-89.5 -15.5h-535q-10 0 -10 11v69q0 10 10 10h523q69 0 108.5 31.5t39.5 88.5q0 63 -40 96.5t-114 33.5h-444l-50 90l251 295h113zM700 143q20 -15 37.5 -25.5
t35.5 -16.5t36.5 -8.5t41.5 -2.5q10 0 10 -10v-69q0 -11 -10 -11q-56 0 -101 20.5t-94 72.5z" />
    <glyph glyph-name="uni06AA.fina" unicode="&#x6aa;" horiz-adv-x="949" 
d="M488 725l-267 -295h392q55 0 100 -15t77 -43.5t49.5 -68.5t17.5 -91q0 -47 -16 -86t-45.5 -67t-70 -43.5t-89.5 -15.5h-399q-33 0 -60 4t-52.5 12.5t-50 22.5t-52.5 35l44 73q24 -16 45 -27t41 -17.5t41 -9.5t44 -3h387q69 0 108.5 31.5t39.5 88.5q0 63 -40 96.5
t-114 33.5h-444l-50 90l251 295h113zM798 143q20 -15 37.5 -25.5t35.5 -16.5t36.5 -8.5t41.5 -2.5q10 0 10 -10v-69q0 -11 -10 -11q-56 0 -101 20.5t-94 72.5z" />
    <glyph glyph-name=".notdef" horiz-adv-x="500" 
d="M0 725h500v-725h-500v725zM19 696v-667l220 333zM481 29v667l-221 -334zM33 19h433l-216 327zM250 378l216 328h-433z" />
    <glyph glyph-name="glyph1" 
 />
    <glyph glyph-name="glyph2" horiz-adv-x="237" 
 />
    <glyph glyph-name="space" unicode=" " horiz-adv-x="237" 
 />
    <glyph glyph-name="exclam" unicode="!" horiz-adv-x="245" 
d="M94 212l-20 294v219h97v-219l-20 -294h-57zM65 0v115h115v-115h-115z" />
    <glyph glyph-name="quotedbl" unicode="&#x22;" horiz-adv-x="309" 
d="M282 725l-20 -240h-62l-20 240h102zM129 725l-20 -240h-62l-20 240h102z" />
    <glyph glyph-name="numbersign" unicode="#" horiz-adv-x="666" 
d="M207 538l26 187h74l-26 -187h156l26 187h74l-26 -187h134l-10 -71h-134l-24 -174h135l-10 -71h-135l-30 -222h-74l30 222h-156l-30 -222h-74l30 222h-141l10 71h141l24 174h-142l10 71h142zM247 293h156l24 174h-156z" />
    <glyph glyph-name="dollar" unicode="$" horiz-adv-x="587" 
d="M318 811v-73q102 -8 161.5 -68t58.5 -159h-94q-1 39 -11.5 66t-28 45t-40 27.5t-46.5 12.5v-248l15 -4q41 -11 81 -26t71.5 -39t50.5 -59t19 -87q0 -51 -19 -89t-51 -64t-75.5 -40.5t-91.5 -17.5v-85h-55v85q-52 4 -94.5 24t-73 51.5t-47 74t-15.5 92.5h94
q1 -40 12.5 -69.5t30.5 -50t43 -32t50 -14.5v271l-22 6q-41 11 -75.5 29t-59.5 43.5t-39.5 59t-14.5 75.5q0 43 18 76.5t47 57.5t67 38t79 18v73h55zM461 185q0 32 -10 53.5t-28.5 36.5t-45 25.5t-59.5 19.5v-257q28 2 54 10.5t46 23.5t31.5 37t11.5 51zM146 549
q0 -45 28.5 -74t87.5 -46l1 -1v235q-22 -2 -43 -9.5t-37.5 -21.5t-26.5 -34.5t-10 -48.5z" />
    <glyph glyph-name="percent" unicode="%" horiz-adv-x="998" 
d="M200 310q-41 0 -71.5 15.5t-50.5 43.5t-30.5 66.5t-10.5 85.5q0 46 10.5 85t30.5 67t50.5 43.5t71.5 15.5t72 -15.5t51.5 -43.5t31 -67t10.5 -85q0 -47 -10.5 -85.5t-31 -66.5t-51.5 -43.5t-72 -15.5zM200 365q44 0 66.5 40.5t22.5 115.5t-22.5 116t-66.5 41
q-42 0 -64.5 -41t-22.5 -116t22.5 -115.5t64.5 -40.5zM199 0l500 725h101l-500 -725h-101zM800 -7q-41 0 -71.5 15.5t-50.5 43.5t-30.5 66.5t-10.5 85.5q0 46 10.5 85t30.5 67t50.5 43.5t71.5 15.5t72 -15.5t51.5 -43.5t31 -67t10.5 -85q0 -47 -10.5 -85.5t-31 -66.5
t-51.5 -43.5t-72 -15.5zM800 48q44 0 66.5 40.5t22.5 115.5t-22.5 116t-66.5 41q-42 0 -64.5 -41t-22.5 -116t22.5 -115.5t64.5 -40.5z" />
    <glyph glyph-name="ampersand" unicode="&#x26;" horiz-adv-x="703" 
d="M269 -13q-56 0 -100.5 16.5t-75.5 45t-48 67t-17 83.5q0 84 50.5 139t132.5 83q-36 42 -58 81.5t-22 82.5q0 35 14.5 63.5t40.5 48.5t62 31t78 11q33 0 66 -8t60 -26.5t43.5 -48.5t16.5 -73q0 -69 -41.5 -115t-108.5 -73l147 -156q14 33 23 71t12 83h94q-5 -60 -21 -116
t-44 -105l162 -172h-131l-88 94q-47 -50 -108.5 -78.5t-138.5 -28.5zM269 66q56 0 104 22.5t85 66.5l-194 208q-65 -23 -102 -61.5t-37 -98.5q0 -32 12 -57t31.5 -43t45.5 -27.5t55 -9.5zM228 592q0 -17 6.5 -35t17.5 -35.5t25 -34.5t29 -32l2 -3q52 19 84.5 52.5t32.5 77.5
t-28.5 62.5t-68.5 18.5q-19 0 -37 -4t-32 -13t-22.5 -22.5t-8.5 -31.5z" />
    <glyph glyph-name="quotesingle" unicode="'" horiz-adv-x="156" 
d="M129 725l-20 -240h-62l-20 240h102z" />
    <glyph glyph-name="parenleft" unicode="(" horiz-adv-x="245" 
d="M32 275q0 76 13 143.5t33 125t44.5 103t47.5 78.5h75q-50 -80 -84.5 -194t-34.5 -256t34.5 -255.5t84.5 -194.5h-75q-23 33 -47.5 79t-44.5 103t-33 124.5t-13 143.5z" />
    <glyph glyph-name="parenright" unicode=")" horiz-adv-x="245" 
d="M213 275q0 -76 -13 -143.5t-33 -124.5t-44.5 -103t-47.5 -79h-75q50 81 84.5 194.5t34.5 255.5q0 71 -9.5 135t-25.5 120.5t-37.5 105.5t-46.5 89h75q23 -33 47.5 -78.5t44.5 -103t33 -125t13 -143.5z" />
    <glyph glyph-name="asterisk" unicode="*" horiz-adv-x="352" 
d="M205 606l113 43l23 -56l-115 -40l69 -97l-46 -35l-74 101l-68 -101l-53 34l70 98l-113 40l20 56l113 -43v119h61v-119z" />
    <glyph glyph-name="plus" unicode="+" horiz-adv-x="678" 
d="M294 0v226h-226v86h226v220h91v-220h226v-86h-226v-226h-91z" />
    <glyph glyph-name="comma" unicode="," horiz-adv-x="245" 
d="M65 115h115v-123l-61 -131h-58l53 139h-49v115z" />
    <glyph glyph-name="hyphen" unicode="-" horiz-adv-x="405" 
d="M43 231v86h318v-86h-318z" />
    <glyph glyph-name="period" unicode="." horiz-adv-x="245" 
d="M65 0v115h115v-115h-115z" />
    <glyph glyph-name="slash" unicode="/" horiz-adv-x="377" 
d="M0 0l285 725h92l-286 -725h-91z" />
    <glyph glyph-name="zero" unicode="0" horiz-adv-x="661" 
d="M515 363q0 151 -50 225t-135 74q-86 0 -135.5 -74t-49.5 -225q0 -152 49.5 -226t135.5 -74t135.5 74t49.5 226zM612 363q0 -86 -17 -155.5t-51.5 -118.5t-88 -75.5t-125.5 -26.5t-125.5 26.5t-88 75.5t-51.5 118.5t-17 155.5t17 155.5t51.5 118t88 75t125.5 26.5
t125.5 -26.5t88 -75t51.5 -118t17 -155.5z" />
    <glyph glyph-name="one" unicode="1" horiz-adv-x="368" 
d="M180 0v567h-168v62q39 1 69 5.5t53.5 14.5t41.5 28t33 48h62v-725h-91z" />
    <glyph glyph-name="two" unicode="2" horiz-adv-x="590" 
d="M302 738q50 0 92.5 -12.5t73 -36.5t47.5 -59.5t17 -81.5q0 -63 -30.5 -122.5t-82.5 -117t-120.5 -113t-144.5 -110.5h398v-85h-522v82q96 71 171.5 132.5t127.5 117t79.5 106t27.5 98.5q0 57 -35.5 91.5t-100.5 34.5q-29 0 -57 -8.5t-49.5 -28t-35 -50.5t-14.5 -76h-94
q-1 54 16.5 98t50.5 75.5t80 48.5t105 17z" />
    <glyph glyph-name="three" unicode="3" horiz-adv-x="587" 
d="M282 63q72 0 118 36t46 104q0 39 -16.5 65.5t-44.5 42.5t-66.5 23t-81.5 7h-15v83h12q95 0 144 28t49 92q0 29 -11 51t-30.5 37t-45 22.5t-54.5 7.5q-73 0 -112.5 -39.5t-45.5 -101.5h-94q4 48 23 88t51 68.5t77.5 44.5t102.5 16q47 0 89.5 -10t75 -32t51.5 -57t19 -85
q0 -56 -30.5 -100.5t-87.5 -67.5q40 -13 67 -32t42.5 -43t22 -51.5t6.5 -55.5q0 -55 -21.5 -95.5t-57.5 -67.5t-83.5 -40.5t-99.5 -13.5q-64 0 -111 18.5t-78.5 49.5t-48 72.5t-20.5 86.5h94q8 -67 48 -109t117 -42z" />
    <glyph glyph-name="four" unicode="4" horiz-adv-x="624" 
d="M118 265h259v335zM602 179h-133v-179h-92v179h-360v86l359 460h93v-460h133v-86z" />
    <glyph glyph-name="five" unicode="5" horiz-adv-x="607" 
d="M302 63q33 0 62 11.5t51.5 34t35.5 55t13 74.5q0 45 -14.5 77.5t-37.5 53.5t-52 31t-59 10q-28 0 -51 -7.5t-41 -19t-30 -26t-18 -27.5l-91 5l47 390h416v-85h-342l-25 -206q29 28 70 41.5t86 13.5q48 0 91 -16.5t75.5 -48.5t52 -78.5t19.5 -106.5q0 -62 -21.5 -109.5
t-57 -79t-82 -47.5t-97.5 -16q-63 0 -109 18.5t-77.5 49t-49 71t-22.5 84.5h94q11 -69 49.5 -108t114.5 -39z" />
    <glyph glyph-name="six" unicode="6" horiz-adv-x="615" 
d="M153 232q0 -38 11 -69t32 -53t50 -34.5t65 -12.5q35 0 64 12.5t50 35t33 53.5t12 68t-11.5 68.5t-32.5 54.5t-50 36t-64 13q-36 0 -65 -13t-50 -36t-32.5 -54.5t-11.5 -68.5zM320 662q-42 0 -74.5 -20t-55 -57t-34.5 -88.5t-14 -114.5q25 43 72 72t119 29q51 0 93.5 -18
t74 -50.5t49 -78t17.5 -99.5q0 -51 -18 -96t-51.5 -79.5t-80.5 -54.5t-105 -20q-136 0 -200 91t-64 259q0 77 14.5 149t48 128t87.5 90t133 34q53 0 92.5 -15.5t67 -40.5t43 -58t21.5 -67h-99q-9 49 -44.5 77t-91.5 28z" />
    <glyph glyph-name="seven" unicode="7" horiz-adv-x="513" 
d="M11 725h502v-85q-135 -109 -214.5 -272.5t-92.5 -367.5h-110q12 196 93.5 359t217.5 281h-396v85z" />
    <glyph glyph-name="eight" unicode="8" horiz-adv-x="626" 
d="M313 738q55 0 100 -14t76.5 -38.5t48.5 -58.5t17 -74q0 -22 -5.5 -45.5t-17.5 -45.5t-31 -41.5t-46 -34.5q35 -14 58.5 -35t37.5 -45.5t20 -50.5t6 -51q0 -52 -20.5 -92.5t-56 -68t-83.5 -42t-104 -14.5t-104.5 14.5t-84 42t-56 68t-20.5 92.5q0 25 6 51t20 50.5
t37.5 45.5t59.5 35q-27 15 -46 34.5t-31 41.5t-17.5 45.5t-5.5 45.5q0 40 17 74t48.5 58.5t76 38.5t100.5 14zM313 348q-78 0 -123 -40t-45 -104t45 -102.5t123 -38.5q77 0 122.5 38.5t45.5 102.5t-45.5 104t-122.5 40zM463 542q0 54 -41 87t-109 33q-69 0 -110 -33t-41 -87
q0 -27 11 -50.5t30.5 -40.5t47.5 -26.5t62 -9.5q68 0 109 36t41 91z" />
    <glyph glyph-name="nine" unicode="9" horiz-adv-x="610" 
d="M455 493q0 37 -11 68.5t-31.5 53.5t-49.5 34.5t-65 12.5q-35 0 -64.5 -12.5t-50.5 -35t-32.5 -53.5t-11.5 -68t11.5 -68.5t32.5 -54t50 -35.5t64 -13q36 0 65 13t49.5 35.5t32 54t11.5 68.5zM288 63q42 0 74.5 20t55 57t35 88.5t14.5 114.5q-25 -43 -72.5 -72t-119.5 -29
q-50 0 -93 18t-74 50.5t-48.5 78t-17.5 100.5q0 50 18 95.5t51.5 79.5t80.5 54t105 20q136 0 200 -91t64 -259q0 -77 -15 -149t-48.5 -128t-87.5 -90t-132 -34q-53 0 -92.5 15.5t-67 40.5t-43 57.5t-21.5 67.5h99q9 -49 44 -77t91 -28z" />
    <glyph glyph-name="colon" unicode=":" horiz-adv-x="245" 
d="M65 423v115h115v-115h-115zM65 0v115h115v-115h-115z" />
    <glyph glyph-name="semicolon" unicode=";" horiz-adv-x="245" 
d="M65 115h115v-123l-61 -131h-58l53 139h-49v115zM65 423v115h115v-115h-115z" />
    <glyph glyph-name="less" unicode="&#x3c;" horiz-adv-x="678" 
d="M591 534v-98l-399 -168l399 -165v-97l-513 223v78z" />
    <glyph glyph-name="equal" unicode="=" horiz-adv-x="678" 
d="M89 332v87h501v-87h-501zM89 130v86h501v-86h-501z" />
    <glyph glyph-name="greater" unicode="&#x3e;" horiz-adv-x="678" 
d="M601 229l-513 -223v97l399 165l-399 168v98l513 -227v-78z" />
    <glyph glyph-name="question" unicode="?" horiz-adv-x="499" 
d="M258 738q42 0 83 -10.5t72.5 -32t51 -55t19.5 -78.5q0 -36 -11.5 -66.5t-30.5 -56t-43.5 -46.5t-49.5 -37q-23 -15 -39 -27t-26 -24t-14.5 -26.5t-4.5 -35.5v-31h-93v34q0 31 7.5 55t23 43.5t39 37.5t54.5 38q39 25 66 57t27 81q0 48 -37.5 76t-95.5 28q-42 0 -70.5 -13
t-46 -33.5t-26 -45t-9.5 -47.5h-91q0 49 18.5 88.5t51 67.5t77.5 43.5t98 15.5zM163 0v115h115v-115h-115z" />
    <glyph glyph-name="at" unicode="@" horiz-adv-x="849" 
d="M614 153q-40 0 -70 23.5t-36 68.5q-23 -45 -60.5 -67t-91.5 -22q-29 0 -56 10.5t-47.5 32t-32.5 55.5t-12 81q0 43 14 85t40.5 74.5t64.5 52.5t86 20q42 0 71.5 -20.5t43.5 -55.5l8 59h71l-29 -218q-2 -13 -3.5 -31t2 -35t13 -29t30.5 -12q19 0 36.5 12t30.5 35
t20.5 55.5t7.5 74.5q0 62 -20.5 109.5t-57 79.5t-88 48t-112.5 16q-69 0 -126.5 -23.5t-98.5 -65t-63.5 -98t-22.5 -122.5q0 -61 18.5 -113t53.5 -90t85.5 -59.5t114.5 -21.5q109 0 194 43l28 -69q-51 -24 -108 -36.5t-114 -12.5q-79 0 -143.5 27.5t-111 75.5t-72 114.5
t-25.5 144.5q0 80 30 149t83 119.5t124.5 79t155.5 28.5q72 0 136.5 -19t112.5 -58.5t76 -99.5t28 -142q0 -61 -15 -108t-40 -79.5t-57 -49t-66 -16.5zM414 492q-28 0 -50 -13t-37.5 -35t-23.5 -50.5t-8 -59.5q0 -53 21.5 -79t61.5 -26q30 0 52.5 13.5t38.5 36t24 52.5t8 63
q0 47 -22.5 72.5t-64.5 25.5z" />
    <glyph glyph-name="A" unicode="A" horiz-adv-x="660" 
d="M269 725h118l273 -725h-110l-57 157h-333l-56 -157h-104zM191 244h270l-136 378z" />
    <glyph glyph-name="B" unicode="B" horiz-adv-x="672" 
d="M86 725h261q51 0 97 -7.5t81 -28t56 -55t21 -88.5q0 -52 -21 -95t-59 -65q52 -22 81 -63.5t29 -108.5q0 -58 -20 -98.5t-55.5 -66t-83 -37.5t-101.5 -12h-286v725zM188 86h185q78 0 116 32.5t38 94.5q0 64 -39 92.5t-121 28.5h-179v-248zM188 415h175q63 0 99.5 26.5
t36.5 90.5q0 56 -37.5 81.5t-98.5 25.5h-175v-224z" />
    <glyph glyph-name="C" unicode="C" horiz-adv-x="726" 
d="M694 231q-12 -60 -40.5 -105.5t-69.5 -76.5t-93 -46.5t-111 -15.5q-78 0 -139 28t-103.5 78t-64.5 119t-22 152q0 84 24 153t68 118t106 76t139 27q56 0 106 -16.5t89.5 -47.5t67 -76.5t39.5 -103.5h-99q-8 34 -25.5 63t-43.5 50t-61 33t-78 12q-48 0 -89.5 -18.5
t-72.5 -55t-48.5 -90.5t-17.5 -124q0 -69 17 -123t48 -91.5t73 -57t93 -19.5q87 0 139.5 44t69.5 114h99z" />
    <glyph glyph-name="D" unicode="D" horiz-adv-x="730" 
d="M575 363q0 92 -25 147t-66 83.5t-94 37t-109 8.5h-93v-553h93q56 0 109 8.5t94 37.5t66 83.5t25 147.5zM284 725q86 0 158.5 -18t125 -60t82 -111.5t29.5 -172.5q0 -104 -29.5 -173.5t-82 -111.5t-125 -60t-158.5 -18h-198v725h198z" />
    <glyph glyph-name="E" unicode="E" horiz-adv-x="613" 
d="M86 725h492v-88h-390v-220h367v-88h-367v-241h390v-88h-492v725z" />
    <glyph glyph-name="F" unicode="F" horiz-adv-x="560" 
d="M86 725h471v-88h-369v-220h348v-88h-348v-329h-102v725z" />
    <glyph glyph-name="G" unicode="G" horiz-adv-x="770" 
d="M388 738q56 0 106 -15.5t89 -44t66.5 -70.5t38.5 -94h-99q-18 61 -68.5 99.5t-137.5 38.5q-48 0 -89.5 -18.5t-72.5 -55t-48.5 -90.5t-17.5 -124q0 -69 17 -123t47 -91.5t72 -57t92 -19.5q36 0 74 8.5t69 30t51 58.5t20 93v19h-192v88h288v-370h-80l-5 91
q-35 -56 -95.5 -80t-133.5 -24q-78 0 -139 28t-103 78t-64 119t-22 152q0 84 24 153t68 118t106 76t139 27z" />
    <glyph glyph-name="H" unicode="H" horiz-adv-x="757" 
d="M671 725v-725h-102v329h-381v-329h-102v725h102v-308h381v308h102z" />
    <glyph glyph-name="I" unicode="I" horiz-adv-x="274" 
d="M188 0h-102v725h102v-725z" />
    <glyph glyph-name="J" unicode="J" horiz-adv-x="552" 
d="M364 725h102v-495q0 -119 -60.5 -181t-167.5 -62q-106 0 -166.5 59.5t-60.5 177.5h95q0 -38 10.5 -66.5t28.5 -48t42 -29.5t51 -10q22 0 44.5 6.5t40.5 24.5t29.5 49.5t11.5 80.5v494z" />
    <glyph glyph-name="K" unicode="K" horiz-adv-x="666" 
d="M188 360l327 365h127l-271 -296l302 -429h-122l-249 354l-114 -126v-228h-102v725h102v-365z" />
    <glyph glyph-name="L" unicode="L" horiz-adv-x="571" 
d="M188 88h383v-88h-485v725h102v-637z" />
    <glyph glyph-name="M" unicode="M" horiz-adv-x="884" 
d="M388 0l-200 632v-632h-102v725h171l185 -604l185 604h171v-725h-102v632l-200 -632h-108z" />
    <glyph glyph-name="N" unicode="N" horiz-adv-x="755" 
d="M520 0l-332 619v-619h-102v725h150l331 -617v617h102v-725h-149z" />
    <glyph glyph-name="O" unicode="O" horiz-adv-x="782" 
d="M155 363q0 -70 18.5 -124t50 -91t74.5 -56t93 -19q49 0 92.5 19t75 56t50 91t18.5 124t-18.5 124t-50 90.5t-75 55.5t-92.5 19q-50 0 -93 -19t-74.5 -55.5t-50 -90.5t-18.5 -124zM731 363q0 -82 -23.5 -151t-68 -119t-107.5 -78t-141 -28t-141 28t-107.5 78t-68 119
t-23.5 151t23.5 151t68 118.5t107.5 77.5t141 28t141 -28t107.5 -77.5t68 -118.5t23.5 -151z" />
    <glyph glyph-name="P" unicode="P" horiz-adv-x="636" 
d="M313 725q66 0 121.5 -9t95.5 -33.5t62 -67t22 -109.5q0 -68 -22 -110.5t-62 -66.5t-95.5 -33t-121.5 -9h-125v-287h-102v725h227zM188 639v-263h133q40 0 74.5 3.5t60 17t40 39t14.5 70.5q0 44 -14.5 70.5t-40 40.5t-60 18t-74.5 4h-133z" />
    <glyph glyph-name="Q" unicode="Q" horiz-adv-x="782" 
d="M731 363q0 -80 -22 -146.5t-64 -116.5l86 -86l-62 -62l-89 89q-80 -54 -189 -54q-78 0 -141 28t-107.5 78t-68 119t-23.5 151t23.5 151t68 118.5t107.5 77.5t141 28t141 -28t107.5 -77.5t68 -118.5t23.5 -151zM155 363q0 -70 18.5 -124t50 -91t74.5 -56t93 -19
q67 0 122 35l-67 67l62 63l67 -68q25 36 38.5 84t13.5 109q0 70 -18.5 124t-50 90.5t-75 55.5t-92.5 19q-50 0 -93 -19t-74.5 -55.5t-50 -90.5t-18.5 -124z" />
    <glyph glyph-name="R" unicode="R" horiz-adv-x="679" 
d="M371 306q-14 -1 -27.5 -1h-27.5h-128v-305h-102v725h230q66 0 121.5 -8t95.5 -31t62.5 -64t22.5 -106q0 -86 -38.5 -131t-105.5 -63l168 -322h-114zM188 639v-248h136q40 0 74.5 3.5t60 16t40 37t14.5 66.5t-14.5 67t-40 37.5t-60 16.5t-74.5 4h-136z" />
    <glyph glyph-name="S" unicode="S" horiz-adv-x="641" 
d="M56 540q0 52 24.5 89.5t62.5 61.5t84.5 35.5t90.5 11.5q49 0 94 -11.5t81.5 -35.5t62.5 -61.5t37 -89.5h-99q-9 31 -28 52.5t-44 35t-53 19t-55 5.5q-21 0 -47.5 -5t-50.5 -17.5t-40 -33t-16 -50.5q0 -48 33.5 -74t84.5 -37l84 -19q42 -9 85 -22.5t78.5 -37.5t58 -60.5
t22.5 -91.5q0 -53 -23 -93.5t-61 -68t-88 -41.5t-104 -14q-64 0 -116 17t-90 48t-61.5 75t-30.5 98h100q14 -75 65 -113.5t135 -38.5q81 0 125 34t44 88q0 28 -11.5 49t-32.5 36t-49.5 25t-62.5 18l-90 19q-37 8 -73 23t-64 39t-45 57.5t-17 78.5z" />
    <glyph glyph-name="T" unicode="T" horiz-adv-x="574" 
d="M236 637h-236v88h574v-88h-236v-637h-102v637z" />
    <glyph glyph-name="U" unicode="U" horiz-adv-x="731" 
d="M177 725v-441q0 -107 42.5 -158t144.5 -51q104 0 147 56.5t43 163.5v430h102v-422q0 -80 -16 -139t-51 -98.5t-90.5 -59t-134.5 -19.5q-75 0 -130 16.5t-90 53t-52 95t-17 143.5v430h102z" />
    <glyph glyph-name="V" unicode="V" horiz-adv-x="638" 
d="M123 725l201 -620l197 620h107l-246 -725h-122l-249 725h112z" />
    <glyph glyph-name="W" unicode="W" horiz-adv-x="922" 
d="M665 116l134 609h107l-181 -725h-124l-140 596l-137 -596h-124l-184 725h112l140 -609l134 609h120z" />
    <glyph glyph-name="X" unicode="X" horiz-adv-x="656" 
d="M269 373l-251 352h121l191 -268l193 268h115l-251 -348l269 -377h-120l-210 293l-211 -293h-115z" />
    <glyph glyph-name="Y" unicode="Y" horiz-adv-x="624" 
d="M112 725l198 -354l202 354h112l-266 -444v-281h-102v283l-256 442h112z" />
    <glyph glyph-name="Z" unicode="Z" horiz-adv-x="633" 
d="M588 637l-426 -549h442v-88h-563v88l427 549h-394v88h514v-88z" />
    <glyph glyph-name="bracketleft" unicode="[" horiz-adv-x="316" 
d="M306 725v-77h-137v-746h137v-77h-225v900h225z" />
    <glyph glyph-name="backslash" unicode="\" horiz-adv-x="377" 
d="M377 0h-92l-285 725h91z" />
    <glyph glyph-name="bracketright" unicode="]" horiz-adv-x="316" 
d="M235 725v-900h-225v77h137v746h-137v77h225z" />
    <glyph glyph-name="asciicircum" unicode="^" horiz-adv-x="441" 
d="M462 338h-98l-146 273l-143 -273h-97l201 387h78z" />
    <glyph glyph-name="underscore" unicode="_" horiz-adv-x="458" 
d="M32 -87v86h394v-86h-394z" />
    <glyph glyph-name="grave" unicode="`" horiz-adv-x="251" 
d="M22 725h116l91 -116h-77z" />
    <glyph glyph-name="a" unicode="a" horiz-adv-x="559" 
d="M411 259q-62 -6 -112 -14.5t-85 -21.5t-54 -32t-19 -47q0 -38 27.5 -61.5t76.5 -23.5q32 0 62 8t53 27.5t37 51t14 79.5v34zM225 -13q-38 0 -71.5 10.5t-59 30t-40 48.5t-14.5 66q0 48 26 80t73.5 53t114.5 34t150 22v13q0 37 -9.5 62t-26 40.5t-39 22t-47.5 6.5
q-57 0 -88.5 -28.5t-34.5 -78.5h-94q3 43 22.5 77t49.5 57t67.5 35t76.5 12q112 0 163.5 -54t50.5 -168l-1 -124q-1 -68 2.5 -116.5t11.5 -86.5h-92q-2 15 -4 32.5t-3 41.5q-25 -42 -68.5 -64.5t-115.5 -22.5z" />
    <glyph glyph-name="b" unicode="b" horiz-adv-x="601" 
d="M159 267q0 -53 13 -91.5t35 -63t50.5 -36t58.5 -11.5q70 0 112 52.5t42 149.5t-42 149.5t-112 52.5q-30 0 -58.5 -11.5t-50.5 -36t-35 -63t-13 -91.5zM163 725v-272q25 43 68 68.5t108 25.5q46 0 88 -19t73.5 -55t50 -88t18.5 -118q0 -67 -18.5 -119t-50 -88t-73.5 -54.5
t-88 -18.5q-65 0 -108 25.5t-68 68.5v-81h-91v725h91z" />
    <glyph glyph-name="c" unicode="c" horiz-adv-x="557" 
d="M295 547q49 0 88.5 -16.5t68.5 -43.5t46 -61t22 -68h-92q-10 48 -48 78.5t-91 30.5q-30 0 -58 -12t-49.5 -36.5t-34.5 -61.5t-13 -88t13 -89t34.5 -63t49.5 -37.5t58 -12.5q28 0 52.5 9t43 24t30.5 34.5t17 40.5h94q-7 -38 -27.5 -72t-52 -60t-72.5 -41t-88 -15
q-58 0 -104.5 21t-79 58t-50 88.5t-17.5 113.5q0 60 18.5 111t52 88.5t81.5 58.5t108 21z" />
    <glyph glyph-name="d" unicode="d" horiz-adv-x="604" 
d="M441 725h91v-725h-91v81q-25 -43 -68 -68.5t-108 -25.5q-46 0 -88 18.5t-73.5 54.5t-50 88t-18.5 119q0 66 18.5 118t50 88t73.5 55t88 19q65 0 108 -25.5t68 -68.5v272zM445 267q0 53 -13 91.5t-35 63t-50.5 36t-58.5 11.5q-70 0 -112 -52.5t-42 -149.5t42 -149.5
t112 -52.5q30 0 58.5 11.5t50.5 36t35 63t13 91.5z" />
    <glyph glyph-name="e" unicode="e" horiz-adv-x="581" 
d="M133 239q1 -44 16 -76t38.5 -53.5t52.5 -32t59 -10.5q60 0 95 24.5t52 64.5h94q-9 -35 -29.5 -65.5t-51 -53.5t-71 -36.5t-89.5 -13.5q-64 0 -113 21.5t-82.5 59.5t-51 89t-17.5 111q0 64 20 115.5t55.5 88t83 56t102.5 19.5q61 0 110 -24t81.5 -66t48 -98t11.5 -120
h-414zM296 469q-30 0 -58 -8.5t-50 -27t-36.5 -47.5t-17.5 -69h317q-1 28 -11.5 55.5t-30.5 49t-48.5 34.5t-64.5 13z" />
    <glyph glyph-name="f" unicode="f" horiz-adv-x="313" 
d="M95 577q0 42 5.5 70.5t21 45.5t44 24.5t74.5 7.5h47v-76h-45q-18 0 -29 -2.5t-17 -10t-8 -20.5t-2 -34v-44h101v-73h-101v-465h-91v465h-75v73h75v39z" />
    <glyph glyph-name="g" unicode="g" horiz-adv-x="597" 
d="M434 538h91v-466q0 -41 -3.5 -71t-10.5 -52t-16 -37.5t-21 -28.5q-29 -34 -77.5 -52.5t-108.5 -18.5q-92 0 -150 41.5t-71 123.5h97q4 -18 12.5 -33.5t23 -27t36 -18t53.5 -6.5q73 0 110 40q7 8 13.5 17t11.5 22.5t7.5 33t2.5 46.5v51q-25 -43 -65.5 -68t-105.5 -25
q-45 0 -86 17.5t-72.5 52t-50.5 84.5t-19 115q0 64 19 114.5t50.5 84.5t72.5 52t86 18q65 0 105.5 -25.5t65.5 -68.5v85zM438 278q0 51 -12.5 87t-33.5 59.5t-48.5 34t-57.5 10.5q-67 0 -109.5 -49.5t-42.5 -141.5q0 -93 42.5 -142.5t109.5 -49.5q30 0 57.5 10.5t48.5 34
t33.5 60t12.5 87.5z" />
    <glyph glyph-name="h" unicode="h" horiz-adv-x="578" 
d="M163 457q23 38 64.5 64t109.5 26q49 0 82.5 -15t54.5 -42.5t30.5 -65.5t9.5 -84v-340h-91v313q0 31 -4 59t-16 49.5t-35.5 34t-62.5 12.5q-66 0 -104 -44.5t-38 -131.5v-292h-91v725h91v-268z" />
    <glyph glyph-name="i" unicode="i" horiz-adv-x="235" 
d="M163 538v-538h-91v538h91zM163 725v-110h-91v110h91z" />
    <glyph glyph-name="j" unicode="j" horiz-adv-x="235" 
d="M72 538h91v-565q0 -42 -5 -70.5t-19.5 -45.5t-39 -24.5t-63.5 -7.5h-46v76h26q35 0 45.5 14t10.5 56v567zM163 725v-110h-91v110h91z" />
    <glyph glyph-name="k" unicode="k" horiz-adv-x="505" 
d="M163 725v-429l217 242h112l-205 -223l233 -315h-111l-183 248l-63 -68v-180h-91v725h91z" />
    <glyph glyph-name="l" unicode="l" horiz-adv-x="235" 
d="M163 0h-91v725h91v-725z" />
    <glyph glyph-name="m" unicode="m" horiz-adv-x="899" 
d="M163 0h-91v538h91v-81q23 38 62 64t100 26q62 0 99.5 -25t55.5 -70q32 50 78 72.5t103 22.5q47 0 80 -15t54 -42.5t30.5 -65.5t9.5 -84v-340h-91v313q0 31 -4 59t-16.5 49.5t-35 34t-59.5 12.5q-59 0 -94.5 -44.5t-35.5 -131.5v-292h-91v313q0 31 -4 59t-16.5 49.5
t-35 34t-59.5 12.5q-59 0 -94.5 -44.5t-35.5 -131.5v-292z" />
    <glyph glyph-name="n" unicode="n" horiz-adv-x="578" 
d="M163 457q23 38 64.5 64t109.5 26q49 0 82.5 -15t54.5 -42.5t30.5 -65.5t9.5 -84v-340h-91v313q0 31 -4 59t-16 49.5t-35.5 34t-62.5 12.5q-66 0 -104 -44.5t-38 -131.5v-292h-91v538h91v-81z" />
    <glyph glyph-name="o" unicode="o" horiz-adv-x="590" 
d="M134 267q0 -54 13.5 -92t36 -62t51.5 -35t60 -11t60 12t51.5 36.5t36 62t13.5 89.5q0 54 -13.5 92t-36 62t-51.5 35t-60 11t-60 -10.5t-51.5 -34.5t-36 -62t-13.5 -93zM295 547q47 0 93 -16.5t83 -50.5t59.5 -87t22.5 -126t-22.5 -126t-59.5 -87t-83 -50.5t-93 -16.5
t-93 16.5t-83 50.5t-59.5 87t-22.5 126t22.5 126t59.5 87t83 50.5t93 16.5z" />
    <glyph glyph-name="p" unicode="p" horiz-adv-x="604" 
d="M163 538v-85q25 43 68 68.5t108 25.5q46 0 88 -19t73.5 -55t50 -88t18.5 -118q0 -67 -18.5 -119t-50 -88t-73.5 -54.5t-88 -18.5q-65 0 -108 25.5t-68 68.5v-256h-91v713h91zM159 267q0 -53 13 -91.5t35 -63t50.5 -36t58.5 -11.5q70 0 112 52.5t42 149.5t-42 149.5
t-112 52.5q-30 0 -58.5 -11.5t-50.5 -36t-35 -63t-13 -91.5z" />
    <glyph glyph-name="q" unicode="q" horiz-adv-x="604" 
d="M441 538h91v-713h-91v256q-25 -43 -68 -68.5t-108 -25.5q-46 0 -88 18.5t-73.5 54.5t-50 88t-18.5 119q0 66 18.5 118t50 88t73.5 55t88 19q65 0 108 -25.5t68 -68.5v85zM445 267q0 53 -13 91.5t-35 63t-50.5 36t-58.5 11.5q-70 0 -112 -52.5t-42 -149.5t42 -149.5
t112 -52.5q30 0 58.5 11.5t50.5 36t35 63t13 91.5z" />
    <glyph glyph-name="r" unicode="r" horiz-adv-x="355" 
d="M340 443q-14 2 -27 3t-24 1q-63 0 -94.5 -38t-31.5 -127v-282h-91v538h89v-94q20 46 59.5 70.5t92.5 26.5h13t14 -1v-97z" />
    <glyph glyph-name="s" unicode="s" horiz-adv-x="525" 
d="M380 381q-11 48 -45 68.5t-82 20.5q-20 0 -40 -3.5t-36.5 -12t-26.5 -21.5t-10 -31q0 -32 21.5 -48.5t60.5 -24.5l76 -15q37 -7 70 -18.5t58.5 -30t40.5 -45.5t15 -66q0 -40 -17 -71t-46.5 -52.5t-69.5 -32.5t-86 -11q-53 0 -94 16t-70.5 42t-46 60t-20.5 69h96
q11 -52 44 -81t93 -29q52 0 88.5 21t36.5 59q0 20 -9 35t-24 25.5t-34.5 17t-41.5 11.5l-80 16q-27 6 -54.5 15.5t-49.5 27t-35.5 43t-13.5 63.5q0 36 17 63.5t46 47t68 29.5t84 10q88 0 143.5 -45t68.5 -122h-95z" />
    <glyph glyph-name="t" unicode="t" horiz-adv-x="325" 
d="M98 673h91v-135h102v-73h-102v-319q0 -21 1.5 -34.5t7 -21.5t16.5 -11t31 -3h46v-76h-66q-39 0 -63.5 5.5t-38.5 20t-19.5 41t-5.5 68.5v330h-85v73h85v135z" />
    <glyph glyph-name="u" unicode="u" horiz-adv-x="568" 
d="M405 77q-23 -38 -62.5 -64t-106.5 -26q-47 0 -79.5 15t-53 42.5t-30 65.5t-9.5 84v344h91v-317q0 -31 3.5 -59t15.5 -49.5t34.5 -34t59.5 -12.5q65 0 101 44.5t36 131.5v296h91v-538h-91v77z" />
    <glyph glyph-name="v" unicode="v" horiz-adv-x="487" 
d="M247 126l146 412h94l-203 -538h-81l-203 538h101z" />
    <glyph glyph-name="w" unicode="w" horiz-adv-x="720" 
d="M313 538h94l107 -398l103 398h98l-155 -538h-83l-119 433l-115 -433h-83l-155 538h98l103 -398z" />
    <glyph glyph-name="x" unicode="x" horiz-adv-x="520" 
d="M311 281l201 -281h-109l-146 205l-145 -205h-104l198 277l-186 261h109l131 -185l132 185h102z" />
    <glyph glyph-name="y" unicode="y" horiz-adv-x="466" 
d="M466 538l-192 -561q-15 -44 -29 -73t-34 -46.5t-49.5 -25t-74.5 -7.5h-47v76h37q22 0 39.5 2t30.5 10.5t23.5 26t19.5 49.5l4 11l-194 538h101l137 -415l133 415h95z" />
    <glyph glyph-name="z" unicode="z" horiz-adv-x="488" 
d="M33 79l311 380h-291v79h397v-79l-310 -380h316v-79h-423v79z" />
    <glyph glyph-name="braceleft" unicode="{" horiz-adv-x="290" 
d="M233 -175q-46 0 -74.5 7.5t-44.5 24.5t-21.5 45.5t-5.5 70.5v163q0 23 -2.5 42t-10.5 32.5t-23 21t-40 7.5v73q25 0 40 7.5t23 21t10.5 32.5t2.5 42v162q0 42 5.5 70.5t21.5 45.5t44.5 24.5t74.5 7.5h47v-77h-45q-36 0 -46 -14t-10 -56v-165q0 -35 -5.5 -58.5t-16.5 -39
t-26.5 -24.5t-35.5 -14v-3q20 -5 35.5 -14t26.5 -24.5t16.5 -39.5t5.5 -58v-166q0 -42 10 -56t46 -14h45v-77h-47v0z" />
    <glyph glyph-name="bar" unicode="|" horiz-adv-x="255" 
d="M169 725v-815h-83v815h83z" />
    <glyph glyph-name="braceright" unicode="}" horiz-adv-x="290" 
d="M10 -98h45q36 0 46 14t10 56v166q0 34 5.5 58t16.5 39.5t26.5 24.5t35.5 14v3q-20 5 -35.5 14t-26.5 24.5t-16.5 39t-5.5 58.5v165q0 42 -10 56t-46 14h-45v77h47q46 0 74.5 -7.5t44.5 -24.5t21.5 -45.5t5.5 -70.5v-162q0 -23 2.5 -42t10.5 -32.5t23 -21t40 -7.5v-73
q-25 0 -40 -7.5t-23 -21t-10.5 -32.5t-2.5 -42v-163q0 -42 -5.5 -70.5t-21.5 -45.5t-44.5 -24.5t-74.5 -7.5h-47v77z" />
    <glyph glyph-name="asciitilde" unicode="~" horiz-adv-x="678" 
d="M452 286q27 0 46.5 18t22.5 51h85q-5 -66 -45.5 -107t-108.5 -41q-31 0 -60.5 10.5t-58 23.5t-55.5 23.5t-52 10.5q-28 0 -47.5 -17.5t-21.5 -50.5h-85q4 66 44.5 107t109.5 41q36 0 67 -11t59 -23.5t52.5 -23.5t47.5 -11z" />
    <glyph glyph-name="uni00A0" unicode="&#xa0;" horiz-adv-x="237" 
 />
    <glyph glyph-name="exclamdown" unicode="&#xa1;" horiz-adv-x="245" 
d="M171 -175h-97v208l20 293h57l20 -293v-208zM65 423v115h115v-115h-115z" />
    <glyph glyph-name="cent" unicode="&#xa2;" horiz-adv-x="546" 
d="M305 628v-81q47 -2 84 -19.5t63 -44t41.5 -59.5t20.5 -66h-92q-9 44 -39.5 73.5t-77.5 34.5v-398q51 5 81.5 36t39.5 71h94q-6 -36 -24.5 -68t-46 -57.5t-64.5 -41.5t-80 -20v-85h-46v85q-53 4 -95 26.5t-70.5 59.5t-43.5 86t-15 108q0 56 15 104t43.5 84.5t70.5 59.5
t95 29v83h46zM134 269q0 -92 36 -141t89 -59v395q-53 -9 -89 -57t-36 -138z" />
    <glyph glyph-name="sterling" unicode="&#xa3;" horiz-adv-x="571" 
d="M298 661q-23 0 -48 -5.5t-45 -18t-33 -34t-13 -52.5q0 -40 17 -78t37 -77h193v-65h-164q6 -18 10 -36.5t4 -37.5q0 -29 -9 -53.5t-24 -44.5t-34 -35.5t-39 -27.5l1 -2q17 6 32.5 9.5t35.5 3.5q21 0 41.5 -6t42 -13.5t44.5 -13.5t50 -6q32 0 62.5 8t57.5 19l27 -79
q-21 -12 -60 -22.5t-79 -10.5q-29 0 -54 6t-49.5 13.5t-50 14t-55.5 6.5q-32 0 -71.5 -10t-74.5 -30l-30 73q16 7 40 22t46.5 38.5t38 55t15.5 70.5q0 23 -5 45.5t-13 43.5h-121v65h91q-19 38 -34.5 76t-15.5 83q0 50 21.5 85t55.5 56.5t77 31.5t86 10q58 0 103 -17
t76.5 -48t47.5 -74t15 -95h-94q-1 45 -13 75t-33 48t-48 26t-58 8z" />
    <glyph glyph-name="currency" unicode="&#xa4;" horiz-adv-x="636" 
d="M79 346q0 39 11.5 74.5t32.5 64.5l-69 70l49 49l68 -68q30 23 66.5 36t77.5 13q42 0 79.5 -13.5t67.5 -37.5l71 70l49 -49l-72 -72q20 -29 32 -64t12 -73t-11.5 -73t-32.5 -64l72 -71l-49 -49l-71 70q-31 -23 -68 -36t-79 -13q-41 0 -77 12.5t-66 35.5l-69 -69l-49 49
l69 70q-21 29 -32.5 64t-11.5 74zM162 346q0 -34 11 -63.5t31.5 -51t48.5 -34t61 -12.5q35 0 64.5 12.5t50.5 34t33 51t12 63.5q0 35 -12 65t-33 52.5t-50.5 35t-64.5 12.5q-33 0 -61 -12.5t-48.5 -35t-31.5 -52.5t-11 -65z" />
    <glyph glyph-name="yen" unicode="&#xa5;" horiz-adv-x="603" 
d="M343 111v-111h-92v111h-163v64h163v76h-163v64h138l-231 410h107l198 -375l202 375h106l-239 -410h145v-64h-171v-76h171v-64h-171z" />
    <glyph glyph-name="brokenbar" unicode="&#xa6;" horiz-adv-x="227" 
d="M155 725v-305h-83v305h83zM155 215v-305h-83v305h83z" />
    <glyph glyph-name="section" unicode="&#xa7;" horiz-adv-x="580" 
d="M288 -109q48 0 78 18.5t30 54.5q0 15 -4 28t-14.5 25.5t-29.5 25.5t-48 29l-130 69q-59 32 -96 73.5t-37 100.5q0 27 10.5 49.5t28 41t41 32.5t50.5 23q-32 21 -56.5 54.5t-24.5 81.5q0 36 17 62.5t44.5 44t62.5 26t71 8.5q90 0 144.5 -44t65.5 -116h-95q-8 45 -41 64.5
t-78 19.5t-71.5 -16.5t-26.5 -44.5q0 -26 17.5 -46.5t63.5 -44.5l137 -74q33 -17 60 -35t46.5 -38t30 -44.5t10.5 -55.5q0 -55 -34.5 -97t-89.5 -65q32 -24 50.5 -52.5t18.5 -70.5q0 -40 -16.5 -70.5t-44 -51t-64.5 -31t-78 -10.5q-94 0 -152.5 49.5t-65.5 136.5h94
q8 -51 37 -80.5t89 -29.5zM239 421q-20 -6 -39.5 -15t-36 -22t-26.5 -28.5t-10 -34.5q0 -30 18 -53t61 -46l137 -74l10 -6q18 8 36 18.5t32 23.5t23 28.5t9 34.5q0 35 -24.5 60.5t-78.5 54.5z" />
    <glyph glyph-name="dieresis" unicode="&#xa8;" horiz-adv-x="365" 
d="M22 725h91v-99h-91v99zM343 725v-99h-92v99h92z" />
    <glyph glyph-name="copyright" unicode="&#xa9;" horiz-adv-x="825" 
d="M38 361q0 84 29.5 153.5t80 119t119 77t146.5 27.5t146 -27.5t118.5 -77t80 -119t29.5 -153.5q0 -83 -29.5 -152t-80 -118.5t-118.5 -76.5t-146 -27t-146.5 27t-119 76.5t-80 118.5t-29.5 152zM112 361q0 -69 23.5 -125.5t64 -97t95.5 -62.5t118 -22q64 0 119 22
t95.5 62.5t63 97t22.5 125.5q0 70 -22.5 127t-63 97.5t-95.5 63t-119 22.5q-63 0 -118 -22.5t-95.5 -63t-64 -97.5t-23.5 -127zM412 227q33 0 61.5 16.5t39.5 58.5l76 -20q-8 -24 -23 -45.5t-37 -38t-51 -26t-66 -9.5q-91 0 -139.5 55.5t-48.5 152.5t51 151t140 54
q72 0 114.5 -36.5t56.5 -90.5l-75 -21q-10 42 -37 63.5t-62 21.5q-46 0 -76 -34.5t-30 -107.5t30 -108.5t76 -35.5z" />
    <glyph glyph-name="ordfeminine" unicode="&#xaa;" horiz-adv-x="345" 
d="M241 480q-14 -27 -44 -38t-57 -11q-53 0 -82 24.5t-29 63.5q0 30 16.5 49.5t44.5 31.5t64.5 18t76.5 9v13q0 34 -18 46t-46 12q-22 0 -39 -12.5t-19 -39.5h-71q3 46 39 75.5t96 29.5q27 0 51 -6t42 -21t28 -40t10 -62q-1 -17 -1.5 -38.5t-0.5 -50.5q1 -26 2 -50.5
t4 -44.5h-66q-1 14 -1 21v21zM150 486q45 0 63 22.5t18 54.5v12q-36 -4 -60.5 -8t-39 -10t-20.5 -14.5t-6 -20.5q0 -17 13.5 -26.5t31.5 -9.5z" />
    <glyph glyph-name="guillemotleft" unicode="&#xab;" horiz-adv-x="514" 
d="M10 273l159 228h98l-150 -228l150 -229h-98zM235 273l159 228h98l-150 -228l150 -229h-98z" />
    <glyph glyph-name="logicalnot" unicode="&#xac;" horiz-adv-x="678" 
d="M58 344v86h522v-332h-92v246h-430z" />
    <glyph glyph-name="uni00AD" unicode="&#xad;" horiz-adv-x="405" 
d="M43 231v86h318v-86h-318z" />
    <glyph glyph-name="registered" unicode="&#xae;" horiz-adv-x="825" 
d="M38 361q0 84 29.5 153.5t80 119t119 77t146.5 27.5t146 -27.5t118.5 -77t80 -119t29.5 -153.5q0 -83 -29.5 -152t-80 -118.5t-118.5 -76.5t-146 -27t-146.5 27t-119 76.5t-80 118.5t-29.5 152zM112 361q0 -69 23.5 -125.5t64 -97t95.5 -62.5t118 -22q64 0 119 22
t95.5 62.5t63 97t22.5 125.5q0 70 -22.5 127t-63 97.5t-95.5 63t-119 22.5q-63 0 -118 -22.5t-95.5 -63t-64 -97.5t-23.5 -127zM425 328h-18h-58v-152h-82v399h122q44 0 79 -5t59 -18.5t37 -37.5t13 -63q0 -33 -17 -61t-55 -45l92 -169h-91zM495 450q0 36 -25.5 48t-67.5 12
h-53v-119h58q47 0 67.5 15t20.5 44z" />
    <glyph glyph-name="macron" unicode="&#xaf;" horiz-adv-x="344" 
d="M22 635v75h300v-75h-300z" />
    <glyph glyph-name="degree" unicode="&#xb0;" horiz-adv-x="337" 
d="M22 591q0 31 11.5 57.5t31.5 46.5t46.5 31.5t56.5 11.5q31 0 58 -11.5t47 -31.5t31.5 -46.5t11.5 -57.5q0 -30 -11.5 -57t-31.5 -47t-47 -31.5t-58 -11.5q-30 0 -56.5 11.5t-46.5 31.5t-31.5 47t-11.5 57zM95 591q0 -32 20.5 -55.5t52.5 -23.5q33 0 54.5 23.5t21.5 55.5
q0 33 -21.5 56t-54.5 23q-32 0 -52.5 -23t-20.5 -56z" />
    <glyph glyph-name="plusminus" unicode="&#xb1;" horiz-adv-x="678" 
d="M293 532h92v-155h215v-86h-215v-156h-92v156h-215v86h215v155zM78 0v86h522v-86h-522z" />
    <glyph glyph-name="uni00B2" unicode="&#xb2;" horiz-adv-x="348" 
d="M177 853q57 0 96 -28t39 -80q0 -61 -53 -120t-149 -124h211v-63h-299v59q100 79 157 136t57 107q0 29 -17 44t-45 15t-50 -19.5t-21 -65.5h-73q-1 63 39 101t108 38z" />
    <glyph glyph-name="uni00B3" unicode="&#xb3;" horiz-adv-x="361" 
d="M178 486q34 0 56.5 17.5t22.5 49.5q0 38 -25.5 53t-69.5 15h-24v59h20q90 0 90 61q0 30 -21 44t-47 14q-36 0 -56 -20.5t-25 -56.5h-70q5 60 45.5 95.5t110.5 35.5q25 0 49.5 -6t44 -19.5t31.5 -34t12 -49.5q0 -30 -16 -53.5t-41 -36.5q33 -14 50 -41t17 -58
q0 -32 -12.5 -55t-34 -38.5t-49.5 -23t-59 -7.5q-35 0 -62.5 11t-47 29.5t-30.5 43t-13 52.5h70q5 -32 25 -56.5t59 -24.5z" />
    <glyph glyph-name="acute" unicode="&#xb4;" horiz-adv-x="251" 
d="M98 609h-76l90 116h117z" />
    <glyph glyph-name="paragraph" unicode="&#xb6;" horiz-adv-x="521" 
d="M0 537q0 88 60 138t181 50h208v-814h-76v744h-121v-744h-76v449q-33 4 -64.5 16t-56.5 34t-40 53.5t-15 73.5z" />
    <glyph glyph-name="periodcentered" unicode="&#xb7;" horiz-adv-x="245" 
d="M65 212v115h115v-115h-115z" />
    <glyph glyph-name="cedilla" unicode="&#xb8;" horiz-adv-x="245" 
d="M38 -136q13 -6 28.5 -10t29.5 -4q22 0 41.5 7t19.5 25q0 15 -13 22.5t-31 7.5q-8 0 -19 -2t-19 -7l-30 17l51 83h53l-32 -51q15 3 30 3q36 0 56 -18.5t20 -49.5q0 -20 -9.5 -35t-25 -25.5t-35 -16t-38.5 -5.5q-20 0 -44 3.5t-49 15.5z" />
    <glyph glyph-name="uni00B9" unicode="&#xb9;" horiz-adv-x="232" 
d="M102 438v308h-89v50q44 1 68.5 9t39.5 41h55v-408h-74z" />
    <glyph glyph-name="ordmasculine" unicode="&#xba;" horiz-adv-x="355" 
d="M178 489q34 0 54.5 24.5t20.5 75.5q0 50 -20.5 75.5t-54.5 25.5q-32 0 -53 -26t-21 -75q0 -50 21 -75t53 -25zM178 431q-29 0 -56 9.5t-47.5 29t-33 49t-12.5 70.5t12.5 71t33 49.5t47.5 29t56 9.5t56 -9.5t47.5 -29t33 -49.5t12.5 -71t-12.5 -70.5t-33 -49t-47.5 -29
t-56 -9.5z" />
    <glyph glyph-name="guillemotright" unicode="&#xbb;" horiz-adv-x="514" 
d="M120 44h-98l151 229l-151 228h98l159 -228zM345 44h-98l151 229l-151 228h98l159 -228z" />
    <glyph glyph-name="onequarter" unicode="&#xbc;" horiz-adv-x="810" 
d="M102 317v308h-89v50q44 1 68.5 9t39.5 41h55v-408h-74zM32 0l500 725h101l-500 -725h-101zM528 155h122v159zM794 94h-70v-94h-74v94h-201v58l202 256h73v-253h70v-61z" />
    <glyph glyph-name="onehalf" unicode="&#xbd;" horiz-adv-x="780" 
d="M102 317v308h-89v50q44 1 68.5 9t39.5 41h55v-408h-74zM32 0l500 725h101l-500 -725h-101zM610 415q57 0 96 -28t39 -80q0 -61 -53 -120t-149 -124h211v-63h-299v59q100 79 157 136t57 107q0 29 -17 44t-45 15t-50 -19.5t-21 -65.5h-73q-1 63 39 101t108 38z" />
    <glyph glyph-name="threequarters" unicode="&#xbe;" horiz-adv-x="939" 
d="M178 365q34 0 56.5 17.5t22.5 49.5q0 38 -25.5 53t-69.5 15h-24v59h20q90 0 90 61q0 30 -21 44t-47 14q-36 0 -56 -20.5t-25 -56.5h-70q5 60 45.5 95.5t110.5 35.5q25 0 49.5 -6t44 -19.5t31.5 -34t12 -49.5q0 -30 -16 -53.5t-41 -36.5q33 -14 50 -41t17 -58
q0 -32 -12.5 -55t-34 -38.5t-49.5 -23t-59 -7.5q-35 0 -62.5 11t-47 29.5t-30.5 43t-13 52.5h70q5 -32 25 -56.5t59 -24.5zM161 0l500 725h101l-500 -725h-101zM657 155h122v159zM923 94h-70v-94h-74v94h-201v58l202 256h73v-253h70v-61z" />
    <glyph glyph-name="questiondown" unicode="&#xbf;" horiz-adv-x="499" 
d="M238 -189q-42 0 -82.5 10.5t-72 32t-51 54.5t-19.5 79q0 36 12 64.5t30.5 52t42 43t46.5 37.5q16 12 31.5 23t27 23t18.5 27.5t7 37.5v31h93v-34q0 -35 -11 -59.5t-28.5 -43.5t-39.5 -34t-44 -31q-17 -13 -33 -26t-28.5 -29t-20 -35t-7.5 -44q0 -47 37 -73t97 -26
q41 0 68.5 13t44.5 33.5t24.5 44t8.5 44.5h91q0 -48 -18.5 -88t-51 -68t-76.5 -43.5t-96 -15.5zM215 423v115h115v-115h-115z" />
    <glyph glyph-name="Agrave" unicode="&#xc0;" horiz-adv-x="660" 
d="M269 725h118l273 -725h-110l-57 157h-333l-56 -157h-104zM191 244h270l-136 378zM137 886h129l110 -113h-91z" />
    <glyph glyph-name="Aacute" unicode="&#xc1;" horiz-adv-x="660" 
d="M269 725h118l273 -725h-110l-57 157h-333l-56 -157h-104zM191 244h270l-136 378zM375 773h-90l110 113h129z" />
    <glyph glyph-name="Acircumflex" unicode="&#xc2;" horiz-adv-x="660" 
d="M269 725h118l273 -725h-110l-57 157h-333l-56 -157h-104zM191 244h270l-136 378zM505 773h-107l-68 56l-68 -56h-107l135 113h83z" />
    <glyph glyph-name="Atilde" unicode="&#xc3;" horiz-adv-x="660" 
d="M269 725h118l273 -725h-110l-57 157h-333l-56 -157h-104zM191 244h270l-136 378zM396 840q19 0 31.5 11t15.5 34h71q-11 -62 -43.5 -87.5t-72.5 -25.5q-23 0 -41 7.5t-34 16t-30.5 16t-30.5 7.5q-40 0 -45 -44h-71q10 58 41 85t74 27q23 0 40.5 -7.5t32.5 -16t30 -16
t32 -7.5z" />
    <glyph glyph-name="Adieresis" unicode="&#xc4;" horiz-adv-x="660" 
d="M269 725h118l273 -725h-110l-57 157h-333l-56 -157h-104zM191 244h270l-136 378zM261 879v-99h-91v99h91zM491 879v-99h-92v99h92z" />
    <glyph glyph-name="Aring" unicode="&#xc5;" horiz-adv-x="660" 
d="M269 725h118l273 -725h-110l-57 157h-333l-56 -157h-104zM191 244h270l-136 378zM330 935q38 0 64.5 -23.5t26.5 -61.5q0 -37 -26.5 -61t-64.5 -24t-64 24t-26 61q0 38 26.5 61.5t63.5 23.5zM330 893q-17 0 -30 -12t-13 -31t13 -30.5t30 -11.5t30 11.5t13 30.5t-13 31
t-30 12z" />
    <glyph glyph-name="AE" unicode="&#xc6;" horiz-adv-x="1050" 
d="M1020 725v-88h-389v-220h366v-88h-366v-241h389v-88h-492v155h-305l-111 -155h-112l528 725h492zM287 244h241v335z" />
    <glyph glyph-name="Ccedilla" unicode="&#xc7;" horiz-adv-x="726" 
d="M694 231q-12 -60 -40.5 -105.5t-69.5 -76.5t-93 -46.5t-111 -15.5q-78 0 -139 28t-103.5 78t-64.5 119t-22 152q0 84 24 153t68 118t106 76t139 27q56 0 106 -16.5t89.5 -47.5t67 -76.5t39.5 -103.5h-99q-8 34 -25.5 63t-43.5 50t-61 33t-78 12q-48 0 -89.5 -18.5
t-72.5 -55t-48.5 -90.5t-17.5 -124q0 -69 17 -123t48 -91.5t73 -57t93 -19.5q87 0 139.5 44t69.5 114h99zM288 -136q13 -6 28.5 -10t29.5 -4q22 0 41.5 7t19.5 25q0 15 -13 22.5t-31 7.5q-8 0 -19 -2t-19 -7l-30 17l51 83h53l-32 -51q15 3 30 3q36 0 56 -18.5t20 -49.5
q0 -20 -9.5 -35t-25 -25.5t-35 -16t-38.5 -5.5q-20 0 -44 3.5t-49 15.5z" />
    <glyph glyph-name="Egrave" unicode="&#xc8;" horiz-adv-x="613" 
d="M86 725h492v-88h-390v-220h367v-88h-367v-241h390v-88h-492v725zM159 886h129l110 -113h-91z" />
    <glyph glyph-name="Eacute" unicode="&#xc9;" horiz-adv-x="613" 
d="M86 725h492v-88h-390v-220h367v-88h-367v-241h390v-88h-492v725zM377 773h-90l110 113h129z" />
    <glyph glyph-name="Ecircumflex" unicode="&#xca;" horiz-adv-x="613" 
d="M86 725h492v-88h-390v-220h367v-88h-367v-241h390v-88h-492v725zM514 773h-107l-68 56l-68 -56h-107l135 113h83z" />
    <glyph glyph-name="Edieresis" unicode="&#xcb;" horiz-adv-x="613" 
d="M86 725h492v-88h-390v-220h367v-88h-367v-241h390v-88h-492v725zM263 879v-99h-91v99h91zM493 879v-99h-92v99h92z" />
    <glyph glyph-name="Igrave" unicode="&#xcc;" horiz-adv-x="274" 
d="M188 0h-102v725h102v-725zM-55 886h129l110 -113h-91z" />
    <glyph glyph-name="Iacute" unicode="&#xcd;" horiz-adv-x="274" 
d="M188 0h-102v725h102v-725zM182 773h-90l110 113h129z" />
    <glyph glyph-name="Icircumflex" unicode="&#xce;" horiz-adv-x="274" 
d="M188 0h-102v725h102v-725zM313 773h-107l-68 56l-68 -56h-107l135 113h83z" />
    <glyph glyph-name="Idieresis" unicode="&#xcf;" horiz-adv-x="274" 
d="M188 0h-102v725h102v-725zM69 879v-99h-91v99h91zM299 879v-99h-92v99h92z" />
    <glyph glyph-name="Eth" unicode="&#xd0;" horiz-adv-x="729" 
d="M284 725q86 0 158.5 -18t125 -60t82 -111.5t29.5 -172.5q0 -104 -29.5 -173.5t-82 -111.5t-125 -60t-158.5 -18h-198v323h-64v90h64v312h198zM575 363q0 92 -25 147t-66 83.5t-94 37t-109 8.5h-93v-226h159v-90h-159v-237h93q56 0 109 8.5t94 37.5t66 83.5t25 147.5z" />
    <glyph glyph-name="Ntilde" unicode="&#xd1;" horiz-adv-x="755" 
d="M520 0l-332 619v-619h-102v725h150l331 -617v617h102v-725h-149zM463 840q19 0 31.5 11t15.5 34h71q-11 -62 -43.5 -87.5t-72.5 -25.5q-23 0 -41 7.5t-34 16t-30.5 16t-30.5 7.5q-40 0 -45 -44h-71q10 58 41 85t74 27q23 0 40.5 -7.5t32.5 -16t30 -16t32 -7.5z" />
    <glyph glyph-name="Ograve" unicode="&#xd2;" horiz-adv-x="782" 
d="M155 363q0 -70 18.5 -124t50 -91t74.5 -56t93 -19q49 0 92.5 19t75 56t50 91t18.5 124t-18.5 124t-50 90.5t-75 55.5t-92.5 19q-50 0 -93 -19t-74.5 -55.5t-50 -90.5t-18.5 -124zM731 363q0 -82 -23.5 -151t-68 -119t-107.5 -78t-141 -28t-141 28t-107.5 78t-68 119
t-23.5 151t23.5 151t68 118.5t107.5 77.5t141 28t141 -28t107.5 -77.5t68 -118.5t23.5 -151zM198 886h129l110 -113h-91z" />
    <glyph glyph-name="Oacute" unicode="&#xd3;" horiz-adv-x="782" 
d="M155 363q0 -70 18.5 -124t50 -91t74.5 -56t93 -19q49 0 92.5 19t75 56t50 91t18.5 124t-18.5 124t-50 90.5t-75 55.5t-92.5 19q-50 0 -93 -19t-74.5 -55.5t-50 -90.5t-18.5 -124zM731 363q0 -82 -23.5 -151t-68 -119t-107.5 -78t-141 -28t-141 28t-107.5 78t-68 119
t-23.5 151t23.5 151t68 118.5t107.5 77.5t141 28t141 -28t107.5 -77.5t68 -118.5t23.5 -151zM436 773h-90l110 113h129z" />
    <glyph glyph-name="Ocircumflex" unicode="&#xd4;" horiz-adv-x="782" 
d="M155 363q0 -70 18.5 -124t50 -91t74.5 -56t93 -19q49 0 92.5 19t75 56t50 91t18.5 124t-18.5 124t-50 90.5t-75 55.5t-92.5 19q-50 0 -93 -19t-74.5 -55.5t-50 -90.5t-18.5 -124zM731 363q0 -82 -23.5 -151t-68 -119t-107.5 -78t-141 -28t-141 28t-107.5 78t-68 119
t-23.5 151t23.5 151t68 118.5t107.5 77.5t141 28t141 -28t107.5 -77.5t68 -118.5t23.5 -151zM566 773h-107l-68 56l-68 -56h-107l135 113h83z" />
    <glyph glyph-name="Otilde" unicode="&#xd5;" horiz-adv-x="782" 
d="M155 363q0 -70 18.5 -124t50 -91t74.5 -56t93 -19q49 0 92.5 19t75 56t50 91t18.5 124t-18.5 124t-50 90.5t-75 55.5t-92.5 19q-50 0 -93 -19t-74.5 -55.5t-50 -90.5t-18.5 -124zM731 363q0 -82 -23.5 -151t-68 -119t-107.5 -78t-141 -28t-141 28t-107.5 78t-68 119
t-23.5 151t23.5 151t68 118.5t107.5 77.5t141 28t141 -28t107.5 -77.5t68 -118.5t23.5 -151zM457 840q19 0 31.5 11t15.5 34h71q-11 -62 -43.5 -87.5t-72.5 -25.5q-23 0 -41 7.5t-34 16t-30.5 16t-30.5 7.5q-40 0 -45 -44h-71q10 58 41 85t74 27q23 0 40.5 -7.5t32.5 -16
t30 -16t32 -7.5z" />
    <glyph glyph-name="Odieresis" unicode="&#xd6;" horiz-adv-x="782" 
d="M155 363q0 -70 18.5 -124t50 -91t74.5 -56t93 -19q49 0 92.5 19t75 56t50 91t18.5 124t-18.5 124t-50 90.5t-75 55.5t-92.5 19q-50 0 -93 -19t-74.5 -55.5t-50 -90.5t-18.5 -124zM731 363q0 -82 -23.5 -151t-68 -119t-107.5 -78t-141 -28t-141 28t-107.5 78t-68 119
t-23.5 151t23.5 151t68 118.5t107.5 77.5t141 28t141 -28t107.5 -77.5t68 -118.5t23.5 -151zM322 879v-99h-91v99h91zM552 879v-99h-92v99h92z" />
    <glyph glyph-name="multiply" unicode="&#xd7;" horiz-adv-x="678" 
d="M510 30l-174 173l-167 -166l-65 64l168 167l-168 169l65 64l167 -167l168 166l65 -64l-168 -168l173 -173z" />
    <glyph glyph-name="Oslash" unicode="&#xd8;" horiz-adv-x="781" 
d="M731 363q0 -82 -23.5 -151t-68 -119t-107.5 -78t-141 -28q-67 0 -122.5 20t-97.5 58l-67 -79l-40 36l69 81q-40 50 -61 116t-21 144q0 82 23.5 151t68 118.5t107.5 77.5t141 28q66 0 121 -20t98 -57l58 69l40 -35l-61 -72q41 -49 62.5 -115.5t21.5 -144.5zM627 363
q0 57 -12 102.5t-34 80.5l-348 -409q31 -32 71.5 -48t86.5 -16q49 0 92.5 19t75 56t50 91t18.5 124zM155 363q0 -57 11.5 -102t32.5 -80l349 408q-65 63 -157 63q-50 0 -93 -19t-74.5 -55.5t-50 -90.5t-18.5 -124z" />
    <glyph glyph-name="Ugrave" unicode="&#xd9;" horiz-adv-x="731" 
d="M177 725v-441q0 -107 42.5 -158t144.5 -51q104 0 147 56.5t43 163.5v430h102v-422q0 -80 -16 -139t-51 -98.5t-90.5 -59t-134.5 -19.5q-75 0 -130 16.5t-90 53t-52 95t-17 143.5v430h102zM172 886h129l110 -113h-91z" />
    <glyph glyph-name="Uacute" unicode="&#xda;" horiz-adv-x="731" 
d="M177 725v-441q0 -107 42.5 -158t144.5 -51q104 0 147 56.5t43 163.5v430h102v-422q0 -80 -16 -139t-51 -98.5t-90.5 -59t-134.5 -19.5q-75 0 -130 16.5t-90 53t-52 95t-17 143.5v430h102zM400 773h-90l110 113h129z" />
    <glyph glyph-name="Ucircumflex" unicode="&#xdb;" horiz-adv-x="731" 
d="M177 725v-441q0 -107 42.5 -158t144.5 -51q104 0 147 56.5t43 163.5v430h102v-422q0 -80 -16 -139t-51 -98.5t-90.5 -59t-134.5 -19.5q-75 0 -130 16.5t-90 53t-52 95t-17 143.5v430h102zM540 773h-107l-68 56l-68 -56h-107l135 113h83z" />
    <glyph glyph-name="Udieresis" unicode="&#xdc;" horiz-adv-x="731" 
d="M177 725v-441q0 -107 42.5 -158t144.5 -51q104 0 147 56.5t43 163.5v430h102v-422q0 -80 -16 -139t-51 -98.5t-90.5 -59t-134.5 -19.5q-75 0 -130 16.5t-90 53t-52 95t-17 143.5v430h102zM296 879v-99h-91v99h91zM526 879v-99h-92v99h92z" />
    <glyph glyph-name="Yacute" unicode="&#xdd;" horiz-adv-x="624" 
d="M112 725l198 -354l202 354h112l-266 -444v-281h-102v283l-256 442h112zM337 773h-90l110 113h129z" />
    <glyph glyph-name="Thorn" unicode="&#xde;" horiz-adv-x="620" 
d="M297 599q66 0 121.5 -10t95 -35t62 -69t22.5 -111t-22.5 -110.5t-62 -68.5t-95 -35t-121.5 -10h-109v-150h-102v725h102v-126h109zM188 509v-269h116q40 0 75 4.5t60.5 18.5t40 40.5t14.5 70.5q0 45 -14.5 71.5t-40 40.5t-60.5 18.5t-75 4.5h-116z" />
    <glyph glyph-name="germandbls" unicode="&#xdf;" horiz-adv-x="633" 
d="M72 0v491q0 66 14.5 108.5t40.5 68.5q35 38 87.5 53.5t113.5 15.5q48 0 89.5 -12t72 -34.5t47.5 -54t17 -71.5q0 -54 -26 -94t-83 -63q32 -8 59.5 -23t48 -38.5t32 -56t11.5 -76.5q0 -63 -22.5 -106.5t-60 -70.5t-85.5 -38.5t-99 -11.5q-26 0 -54.5 3t-54.5 8l20 86
q20 -7 45 -11t48 -4q31 0 61 7t53 23.5t37 44.5t14 69q0 40 -15 68t-41.5 45t-64 24.5t-82.5 7.5h-3v83h2q81 0 124.5 29.5t43.5 83.5q0 49 -37.5 78.5t-97.5 29.5q-42 0 -76.5 -10t-56.5 -39q-14 -17 -22.5 -45.5t-8.5 -76.5v-491h-91z" />
    <glyph glyph-name="agrave" unicode="&#xe0;" horiz-adv-x="559" 
d="M411 259q-62 -6 -112 -14.5t-85 -21.5t-54 -32t-19 -47q0 -38 27.5 -61.5t76.5 -23.5q32 0 62 8t53 27.5t37 51t14 79.5v34zM225 -13q-38 0 -71.5 10.5t-59 30t-40 48.5t-14.5 66q0 48 26 80t73.5 53t114.5 34t150 22v13q0 37 -9.5 62t-26 40.5t-39 22t-47.5 6.5
q-57 0 -88.5 -28.5t-34.5 -78.5h-94q3 43 22.5 77t49.5 57t67.5 35t76.5 12q112 0 163.5 -54t50.5 -168l-1 -124q-1 -68 2.5 -116.5t11.5 -86.5h-92q-2 15 -4 32.5t-3 41.5q-25 -42 -68.5 -64.5t-115.5 -22.5zM116 725h116l91 -116h-77z" />
    <glyph glyph-name="aacute" unicode="&#xe1;" horiz-adv-x="559" 
d="M411 259q-62 -6 -112 -14.5t-85 -21.5t-54 -32t-19 -47q0 -38 27.5 -61.5t76.5 -23.5q32 0 62 8t53 27.5t37 51t14 79.5v34zM225 -13q-38 0 -71.5 10.5t-59 30t-40 48.5t-14.5 66q0 48 26 80t73.5 53t114.5 34t150 22v13q0 37 -9.5 62t-26 40.5t-39 22t-47.5 6.5
q-57 0 -88.5 -28.5t-34.5 -78.5h-94q3 43 22.5 77t49.5 57t67.5 35t76.5 12q112 0 163.5 -54t50.5 -168l-1 -124q-1 -68 2.5 -116.5t11.5 -86.5h-92q-2 15 -4 32.5t-3 41.5q-25 -42 -68.5 -64.5t-115.5 -22.5zM312 609h-76l90 116h117z" />
    <glyph glyph-name="acircumflex" unicode="&#xe2;" horiz-adv-x="559" 
d="M411 259q-62 -6 -112 -14.5t-85 -21.5t-54 -32t-19 -47q0 -38 27.5 -61.5t76.5 -23.5q32 0 62 8t53 27.5t37 51t14 79.5v34zM225 -13q-38 0 -71.5 10.5t-59 30t-40 48.5t-14.5 66q0 48 26 80t73.5 53t114.5 34t150 22v13q0 37 -9.5 62t-26 40.5t-39 22t-47.5 6.5
q-57 0 -88.5 -28.5t-34.5 -78.5h-94q3 43 22.5 77t49.5 57t67.5 35t76.5 12q112 0 163.5 -54t50.5 -168l-1 -124q-1 -68 2.5 -116.5t11.5 -86.5h-92q-2 15 -4 32.5t-3 41.5q-25 -42 -68.5 -64.5t-115.5 -22.5zM459 609h-96l-79 54l-79 -54h-96l132 116h89z" />
    <glyph glyph-name="atilde" unicode="&#xe3;" horiz-adv-x="559" 
d="M411 259q-62 -6 -112 -14.5t-85 -21.5t-54 -32t-19 -47q0 -38 27.5 -61.5t76.5 -23.5q32 0 62 8t53 27.5t37 51t14 79.5v34zM225 -13q-38 0 -71.5 10.5t-59 30t-40 48.5t-14.5 66q0 48 26 80t73.5 53t114.5 34t150 22v13q0 37 -9.5 62t-26 40.5t-39 22t-47.5 6.5
q-57 0 -88.5 -28.5t-34.5 -78.5h-94q3 43 22.5 77t49.5 57t67.5 35t76.5 12q112 0 163.5 -54t50.5 -168l-1 -124q-1 -68 2.5 -116.5t11.5 -86.5h-92q-2 15 -4 32.5t-3 41.5q-25 -42 -68.5 -64.5t-115.5 -22.5zM340 680q19 0 31.5 11t15.5 34h71q-11 -62 -43.5 -87.5
t-72.5 -25.5q-23 0 -41 7.5t-34 16.5t-30.5 16.5t-30.5 7.5q-40 0 -45 -44h-71q10 58 41 85t74 27q23 0 40.5 -7.5t32.5 -16.5t30 -16.5t32 -7.5z" />
    <glyph glyph-name="adieresis" unicode="&#xe4;" horiz-adv-x="559" 
d="M411 259q-62 -6 -112 -14.5t-85 -21.5t-54 -32t-19 -47q0 -38 27.5 -61.5t76.5 -23.5q32 0 62 8t53 27.5t37 51t14 79.5v34zM225 -13q-38 0 -71.5 10.5t-59 30t-40 48.5t-14.5 66q0 48 26 80t73.5 53t114.5 34t150 22v13q0 37 -9.5 62t-26 40.5t-39 22t-47.5 6.5
q-57 0 -88.5 -28.5t-34.5 -78.5h-94q3 43 22.5 77t49.5 57t67.5 35t76.5 12q112 0 163.5 -54t50.5 -168l-1 -124q-1 -68 2.5 -116.5t11.5 -86.5h-92q-2 15 -4 32.5t-3 41.5q-25 -42 -68.5 -64.5t-115.5 -22.5zM114 725h91v-99h-91v99zM435 725v-99h-92v99h92z" />
    <glyph glyph-name="aring" unicode="&#xe5;" horiz-adv-x="559" 
d="M411 259q-62 -6 -112 -14.5t-85 -21.5t-54 -32t-19 -47q0 -38 27.5 -61.5t76.5 -23.5q32 0 62 8t53 27.5t37 51t14 79.5v34zM225 -13q-38 0 -71.5 10.5t-59 30t-40 48.5t-14.5 66q0 48 26 80t73.5 53t114.5 34t150 22v13q0 37 -9.5 62t-26 40.5t-39 22t-47.5 6.5
q-57 0 -88.5 -28.5t-34.5 -78.5h-94q3 43 22.5 77t49.5 57t67.5 35t76.5 12q112 0 163.5 -54t50.5 -168l-1 -124q-1 -68 2.5 -116.5t11.5 -86.5h-92q-2 15 -4 32.5t-3 41.5q-25 -42 -68.5 -64.5t-115.5 -22.5zM284 770q38 0 64.5 -23.5t26.5 -61.5q0 -37 -26.5 -61
t-64.5 -24t-64 24t-26 61q0 38 26.5 61.5t63.5 23.5zM284 728q-17 0 -30 -12t-13 -31q0 -18 13 -30t30 -12t30 12t13 30q0 19 -13 31t-30 12z" />
    <glyph glyph-name="ae" unicode="&#xe6;" horiz-adv-x="950" 
d="M225 -13q-38 0 -71.5 10.5t-59 30t-40 48.5t-14.5 66q0 48 26 80t73.5 53t114.5 34t150 22v13q0 37 -9.5 62t-26 40.5t-39 22t-47.5 6.5q-57 0 -88.5 -28.5t-34.5 -78.5h-94q3 43 22.5 77t49.5 57t67.5 35t76.5 12q143 0 189 -93q35 44 84.5 67.5t110.5 23.5t110 -24
t81.5 -66t48 -98t11.5 -120h-414q1 -44 16 -76t38.5 -53.5t52.5 -32t59 -10.5q60 0 95 24.5t52 64.5h94q-9 -35 -29.5 -65.5t-51 -53.5t-71 -36.5t-89.5 -13.5q-76 0 -129.5 30t-85.5 82q-18 -31 -42.5 -52t-54.5 -34.5t-63.5 -19.5t-67.5 -6zM411 256v3q-62 -6 -112 -14.5
t-85 -21.5t-54 -32t-19 -47q0 -38 27.5 -61.5t76.5 -23.5q32 0 62 8t53 27.5t37 51t14 79.5v31zM665 469q-30 0 -58 -8.5t-50 -27t-36.5 -47.5t-17.5 -69h317q-1 28 -11.5 55.5t-30.5 49t-48.5 34.5t-64.5 13z" />
    <glyph glyph-name="ccedilla" unicode="&#xe7;" horiz-adv-x="557" 
d="M295 547q49 0 88.5 -16.5t68.5 -43.5t46 -61t22 -68h-92q-10 48 -48 78.5t-91 30.5q-30 0 -58 -12t-49.5 -36.5t-34.5 -61.5t-13 -88t13 -89t34.5 -63t49.5 -37.5t58 -12.5q28 0 52.5 9t43 24t30.5 34.5t17 40.5h94q-7 -38 -27.5 -72t-52 -60t-72.5 -41t-88 -15
q-58 0 -104.5 21t-79 58t-50 88.5t-17.5 113.5q0 60 18.5 111t52 88.5t81.5 58.5t108 21zM187 -136q13 -6 28.5 -10t29.5 -4q22 0 41.5 7t19.5 25q0 15 -13 22.5t-31 7.5q-8 0 -19 -2t-19 -7l-30 17l51 83h53l-32 -51q15 3 30 3q36 0 56 -18.5t20 -49.5q0 -20 -9.5 -35
t-25 -25.5t-35 -16t-38.5 -5.5q-20 0 -44 3.5t-49 15.5z" />
    <glyph glyph-name="egrave" unicode="&#xe8;" horiz-adv-x="581" 
d="M133 239q1 -44 16 -76t38.5 -53.5t52.5 -32t59 -10.5q60 0 95 24.5t52 64.5h94q-9 -35 -29.5 -65.5t-51 -53.5t-71 -36.5t-89.5 -13.5q-64 0 -113 21.5t-82.5 59.5t-51 89t-17.5 111q0 64 20 115.5t55.5 88t83 56t102.5 19.5q61 0 110 -24t81.5 -66t48 -98t11.5 -120
h-414zM296 469q-30 0 -58 -8.5t-50 -27t-36.5 -47.5t-17.5 -69h317q-1 28 -11.5 55.5t-30.5 49t-48.5 34.5t-64.5 13zM120 725h116l91 -116h-77z" />
    <glyph glyph-name="eacute" unicode="&#xe9;" horiz-adv-x="581" 
d="M133 239q1 -44 16 -76t38.5 -53.5t52.5 -32t59 -10.5q60 0 95 24.5t52 64.5h94q-9 -35 -29.5 -65.5t-51 -53.5t-71 -36.5t-89.5 -13.5q-64 0 -113 21.5t-82.5 59.5t-51 89t-17.5 111q0 64 20 115.5t55.5 88t83 56t102.5 19.5q61 0 110 -24t81.5 -66t48 -98t11.5 -120
h-414zM296 469q-30 0 -58 -8.5t-50 -27t-36.5 -47.5t-17.5 -69h317q-1 28 -11.5 55.5t-30.5 49t-48.5 34.5t-64.5 13zM326 609h-76l90 116h117z" />
    <glyph glyph-name="ecircumflex" unicode="&#xea;" horiz-adv-x="581" 
d="M133 239q1 -44 16 -76t38.5 -53.5t52.5 -32t59 -10.5q60 0 95 24.5t52 64.5h94q-9 -35 -29.5 -65.5t-51 -53.5t-71 -36.5t-89.5 -13.5q-64 0 -113 21.5t-82.5 59.5t-51 89t-17.5 111q0 64 20 115.5t55.5 88t83 56t102.5 19.5q61 0 110 -24t81.5 -66t48 -98t11.5 -120
h-414zM296 469q-30 0 -58 -8.5t-50 -27t-36.5 -47.5t-17.5 -69h317q-1 28 -11.5 55.5t-30.5 49t-48.5 34.5t-64.5 13zM463 609h-96l-79 54l-79 -54h-96l132 116h89z" />
    <glyph glyph-name="edieresis" unicode="&#xeb;" horiz-adv-x="581" 
d="M133 239q1 -44 16 -76t38.5 -53.5t52.5 -32t59 -10.5q60 0 95 24.5t52 64.5h94q-9 -35 -29.5 -65.5t-51 -53.5t-71 -36.5t-89.5 -13.5q-64 0 -113 21.5t-82.5 59.5t-51 89t-17.5 111q0 64 20 115.5t55.5 88t83 56t102.5 19.5q61 0 110 -24t81.5 -66t48 -98t11.5 -120
h-414zM296 469q-30 0 -58 -8.5t-50 -27t-36.5 -47.5t-17.5 -69h317q-1 28 -11.5 55.5t-30.5 49t-48.5 34.5t-64.5 13zM128 725h91v-99h-91v99zM449 725v-99h-92v99h92z" />
    <glyph glyph-name="igrave" unicode="&#xec;" horiz-adv-x="235" 
d="M163 538v-538h-91v538h91zM-50 725h116l91 -116h-77z" />
    <glyph glyph-name="iacute" unicode="&#xed;" horiz-adv-x="235" 
d="M163 538v-538h-91v538h91zM155 609h-76l90 116h117z" />
    <glyph glyph-name="icircumflex" unicode="&#xee;" horiz-adv-x="235" 
d="M163 538v-538h-91v538h91zM293 609h-96l-79 54l-79 -54h-96l132 116h89z" />
    <glyph glyph-name="idieresis" unicode="&#xef;" horiz-adv-x="235" 
d="M163 538v-538h-91v538h91zM-42 725h91v-99h-91v99zM279 725v-99h-92v99h92z" />
    <glyph glyph-name="eth" unicode="&#xf0;" horiz-adv-x="573" 
d="M391 748l46 -26l-76 -47q36 -30 67.5 -66.5t54 -81.5t35.5 -97.5t13 -113.5q0 -83 -18.5 -144.5t-51.5 -102.5t-79.5 -61.5t-102.5 -20.5q-57 0 -102 19.5t-76.5 56t-48.5 88.5t-17 117q0 64 17.5 116t48.5 88t73.5 55.5t92.5 19.5q51 0 89.5 -21.5t64.5 -57.5l1 1
q-23 51 -57.5 90t-79.5 70l-74 -45l-45 24l78 48q-37 21 -79 40l66 60q46 -23 90 -51zM280 65q32 0 60 12.5t48.5 37.5t32 63.5t11.5 89.5t-12 89t-32.5 62.5t-48.5 37t-59 12.5q-72 0 -109 -55t-37 -146q0 -93 36.5 -148t109.5 -55z" />
    <glyph glyph-name="ntilde" unicode="&#xf1;" horiz-adv-x="578" 
d="M163 457q23 38 64.5 64t109.5 26q49 0 82.5 -15t54.5 -42.5t30.5 -65.5t9.5 -84v-340h-91v313q0 31 -4 59t-16 49.5t-35.5 34t-62.5 12.5q-66 0 -104 -44.5t-38 -131.5v-292h-91v538h91v-81zM369 680q19 0 31.5 11t15.5 34h71q-11 -62 -43.5 -87.5t-72.5 -25.5
q-23 0 -41 7.5t-34 16.5t-30.5 16.5t-30.5 7.5q-40 0 -45 -44h-71q10 58 41 85t74 27q23 0 40.5 -7.5t32.5 -16.5t30 -16.5t32 -7.5z" />
    <glyph glyph-name="ograve" unicode="&#xf2;" horiz-adv-x="590" 
d="M134 267q0 -54 13.5 -92t36 -62t51.5 -35t60 -11t60 12t51.5 36.5t36 62t13.5 89.5q0 54 -13.5 92t-36 62t-51.5 35t-60 11t-60 -10.5t-51.5 -34.5t-36 -62t-13.5 -93zM295 547q47 0 93 -16.5t83 -50.5t59.5 -87t22.5 -126t-22.5 -126t-59.5 -87t-83 -50.5t-93 -16.5
t-93 16.5t-83 50.5t-59.5 87t-22.5 126t22.5 126t59.5 87t83 50.5t93 16.5zM124 725h116l91 -116h-77z" />
    <glyph glyph-name="oacute" unicode="&#xf3;" horiz-adv-x="590" 
d="M134 267q0 -54 13.5 -92t36 -62t51.5 -35t60 -11t60 12t51.5 36.5t36 62t13.5 89.5q0 54 -13.5 92t-36 62t-51.5 35t-60 11t-60 -10.5t-51.5 -34.5t-36 -62t-13.5 -93zM295 547q47 0 93 -16.5t83 -50.5t59.5 -87t22.5 -126t-22.5 -126t-59.5 -87t-83 -50.5t-93 -16.5
t-93 16.5t-83 50.5t-59.5 87t-22.5 126t22.5 126t59.5 87t83 50.5t93 16.5zM330 609h-76l90 116h117z" />
    <glyph glyph-name="ocircumflex" unicode="&#xf4;" horiz-adv-x="590" 
d="M134 267q0 -54 13.5 -92t36 -62t51.5 -35t60 -11t60 12t51.5 36.5t36 62t13.5 89.5q0 54 -13.5 92t-36 62t-51.5 35t-60 11t-60 -10.5t-51.5 -34.5t-36 -62t-13.5 -93zM295 547q47 0 93 -16.5t83 -50.5t59.5 -87t22.5 -126t-22.5 -126t-59.5 -87t-83 -50.5t-93 -16.5
t-93 16.5t-83 50.5t-59.5 87t-22.5 126t22.5 126t59.5 87t83 50.5t93 16.5zM467 609h-96l-79 54l-79 -54h-96l132 116h89z" />
    <glyph glyph-name="otilde" unicode="&#xf5;" horiz-adv-x="590" 
d="M134 267q0 -54 13.5 -92t36 -62t51.5 -35t60 -11t60 12t51.5 36.5t36 62t13.5 89.5q0 54 -13.5 92t-36 62t-51.5 35t-60 11t-60 -10.5t-51.5 -34.5t-36 -62t-13.5 -93zM295 547q47 0 93 -16.5t83 -50.5t59.5 -87t22.5 -126t-22.5 -126t-59.5 -87t-83 -50.5t-93 -16.5
t-93 16.5t-83 50.5t-59.5 87t-22.5 126t22.5 126t59.5 87t83 50.5t93 16.5zM358 680q19 0 31.5 11t15.5 34h71q-11 -62 -43.5 -87.5t-72.5 -25.5q-23 0 -41 7.5t-34 16.5t-30.5 16.5t-30.5 7.5q-40 0 -45 -44h-71q10 58 41 85t74 27q23 0 40.5 -7.5t32.5 -16.5t30 -16.5
t32 -7.5z" />
    <glyph glyph-name="odieresis" unicode="&#xf6;" horiz-adv-x="590" 
d="M134 267q0 -54 13.5 -92t36 -62t51.5 -35t60 -11t60 12t51.5 36.5t36 62t13.5 89.5q0 54 -13.5 92t-36 62t-51.5 35t-60 11t-60 -10.5t-51.5 -34.5t-36 -62t-13.5 -93zM295 547q47 0 93 -16.5t83 -50.5t59.5 -87t22.5 -126t-22.5 -126t-59.5 -87t-83 -50.5t-93 -16.5
t-93 16.5t-83 50.5t-59.5 87t-22.5 126t22.5 126t59.5 87t83 50.5t93 16.5zM132 725h91v-99h-91v99zM453 725v-99h-92v99h92z" />
    <glyph glyph-name="divide" unicode="&#xf7;" horiz-adv-x="678" 
d="M284 147h115v-115h-115v115zM284 495h115v-115h-115v115zM78 215v86h522v-86h-522z" />
    <glyph glyph-name="oslash" unicode="&#xf8;" horiz-adv-x="590" 
d="M295 547q42 0 83 -13t76 -40l38 43l41 -35l-40 -46q27 -34 43.5 -80.5t16.5 -108.5q0 -73 -22.5 -126t-59.5 -87t-83 -50.5t-93 -16.5q-43 0 -85.5 13.5t-77.5 41.5l-48 -55l-39 36l50 57q-27 34 -42.5 80t-15.5 107q0 73 22.5 126t59.5 87t83 50.5t93 16.5zM456 267
q0 37 -7 66t-18 52l-242 -278q23 -21 50 -30.5t56 -9.5q31 0 60 12t51.5 36.5t36 62t13.5 89.5zM134 267q0 -36 6 -64.5t17 -50.5l241 276q-22 20 -48.5 29.5t-54.5 9.5q-31 0 -60 -10.5t-51.5 -34.5t-36 -62t-13.5 -93z" />
    <glyph glyph-name="ugrave" unicode="&#xf9;" horiz-adv-x="568" 
d="M405 77q-23 -38 -62.5 -64t-106.5 -26q-47 0 -79.5 15t-53 42.5t-30 65.5t-9.5 84v344h91v-317q0 -31 3.5 -59t15.5 -49.5t34.5 -34t59.5 -12.5q65 0 101 44.5t36 131.5v296h91v-538h-91v77zM135 725h116l91 -116h-77z" />
    <glyph glyph-name="uacute" unicode="&#xfa;" horiz-adv-x="568" 
d="M405 77q-23 -38 -62.5 -64t-106.5 -26q-47 0 -79.5 15t-53 42.5t-30 65.5t-9.5 84v344h91v-317q0 -31 3.5 -59t15.5 -49.5t34.5 -34t59.5 -12.5q65 0 101 44.5t36 131.5v296h91v-538h-91v77zM321 609h-76l90 116h117z" />
    <glyph glyph-name="ucircumflex" unicode="&#xfb;" horiz-adv-x="568" 
d="M405 77q-23 -38 -62.5 -64t-106.5 -26q-47 0 -79.5 15t-53 42.5t-30 65.5t-9.5 84v344h91v-317q0 -31 3.5 -59t15.5 -49.5t34.5 -34t59.5 -12.5q65 0 101 44.5t36 131.5v296h91v-538h-91v77zM458 609h-96l-79 54l-79 -54h-96l132 116h89z" />
    <glyph glyph-name="udieresis" unicode="&#xfc;" horiz-adv-x="568" 
d="M405 77q-23 -38 -62.5 -64t-106.5 -26q-47 0 -79.5 15t-53 42.5t-30 65.5t-9.5 84v344h91v-317q0 -31 3.5 -59t15.5 -49.5t34.5 -34t59.5 -12.5q65 0 101 44.5t36 131.5v296h91v-538h-91v77zM123 725h91v-99h-91v99zM444 725v-99h-92v99h92z" />
    <glyph glyph-name="yacute" unicode="&#xfd;" horiz-adv-x="466" 
d="M466 538l-192 -561q-15 -44 -29 -73t-34 -46.5t-49.5 -25t-74.5 -7.5h-47v76h37q22 0 39.5 2t30.5 10.5t23.5 26t19.5 49.5l4 11l-194 538h101l137 -415l133 415h95zM268 609h-76l90 116h117z" />
    <glyph glyph-name="thorn" unicode="&#xfe;" horiz-adv-x="601" 
d="M163 453q25 43 68 68.5t108 25.5q46 0 87.5 -19t72.5 -55t49.5 -88t18.5 -118q0 -67 -18.5 -119t-49.5 -88t-72.5 -54.5t-87.5 -18.5q-65 0 -108 25.5t-68 68.5v-256h-91v900h91v-272zM159 267q0 -53 13 -91.5t35 -63t50.5 -36t58.5 -11.5q70 0 112 52.5t42 149.5
t-42 149.5t-112 52.5q-30 0 -58.5 -11.5t-50.5 -36t-35 -63t-13 -91.5z" />
    <glyph glyph-name="ydieresis" unicode="&#xff;" horiz-adv-x="466" 
d="M466 538l-192 -561q-15 -44 -29 -73t-34 -46.5t-49.5 -25t-74.5 -7.5h-47v76h37q22 0 39.5 2t30.5 10.5t23.5 26t19.5 49.5l4 11l-194 538h101l137 -415l133 415h95zM73 725h91v-99h-91v99zM394 725v-99h-92v99h92z" />
    <glyph glyph-name="Abreve" unicode="&#x102;" horiz-adv-x="660" 
d="M269 725h118l273 -725h-110l-57 157h-333l-56 -157h-104zM191 244h270l-136 378zM488 886q-6 -52 -44 -85.5t-115 -33.5q-75 0 -112 33.5t-44 85.5h77q9 -58 80 -58q70 0 81 58h77z" />
    <glyph glyph-name="Amacron" unicode="&#x100;" horiz-adv-x="660" 
d="M269 725h118l273 -725h-110l-57 157h-333l-56 -157h-104zM191 244h270l-136 378zM180 791v75h300v-75h-300z" />
    <glyph glyph-name="Aogonek" unicode="&#x104;" horiz-adv-x="660" 
d="M269 725h118l273 -725q-38 -19 -63 -38t-25 -42q0 -24 14 -34.5t33 -10.5q21 0 41 9v-61q-25 -11 -60 -11q-20 0 -40 5t-35.5 16t-25.5 29t-10 45q0 30 16.5 51.5t44.5 41.5l-57 157h-333l-56 -157h-104zM191 244h270l-136 378z" />
    <glyph glyph-name="Cacute" unicode="&#x106;" horiz-adv-x="726" 
d="M694 231q-12 -60 -40.5 -105.5t-69.5 -76.5t-93 -46.5t-111 -15.5q-78 0 -139 28t-103.5 78t-64.5 119t-22 152q0 84 24 153t68 118t106 76t139 27q56 0 106 -16.5t89.5 -47.5t67 -76.5t39.5 -103.5h-99q-8 34 -25.5 63t-43.5 50t-61 33t-78 12q-48 0 -89.5 -18.5
t-72.5 -55t-48.5 -90.5t-17.5 -124q0 -69 17 -123t48 -91.5t73 -57t93 -19.5q87 0 139.5 44t69.5 114h99zM417 773h-90l110 113h129z" />
    <glyph glyph-name="Ccaron" unicode="&#x10c;" horiz-adv-x="726" 
d="M694 231q-12 -60 -40.5 -105.5t-69.5 -76.5t-93 -46.5t-111 -15.5q-78 0 -139 28t-103.5 78t-64.5 119t-22 152q0 84 24 153t68 118t106 76t139 27q56 0 106 -16.5t89.5 -47.5t67 -76.5t39.5 -103.5h-99q-8 34 -25.5 63t-43.5 50t-61 33t-78 12q-48 0 -89.5 -18.5
t-72.5 -55t-48.5 -90.5t-17.5 -124q0 -69 17 -123t48 -91.5t73 -57t93 -19.5q87 0 139.5 44t69.5 114h99zM213 886h107l67 -56l69 56h107l-135 -113h-84z" />
    <glyph glyph-name="Ccircumflex" unicode="&#x108;" horiz-adv-x="726" 
d="M694 231q-12 -60 -40.5 -105.5t-69.5 -76.5t-93 -46.5t-111 -15.5q-78 0 -139 28t-103.5 78t-64.5 119t-22 152q0 84 24 153t68 118t106 76t139 27q56 0 106 -16.5t89.5 -47.5t67 -76.5t39.5 -103.5h-99q-8 34 -25.5 63t-43.5 50t-61 33t-78 12q-48 0 -89.5 -18.5
t-72.5 -55t-48.5 -90.5t-17.5 -124q0 -69 17 -123t48 -91.5t73 -57t93 -19.5q87 0 139.5 44t69.5 114h99zM562 773h-107l-68 56l-68 -56h-107l135 113h83z" />
    <glyph glyph-name="Cdotaccent" unicode="&#x10a;" horiz-adv-x="726" 
d="M694 231q-12 -60 -40.5 -105.5t-69.5 -76.5t-93 -46.5t-111 -15.5q-78 0 -139 28t-103.5 78t-64.5 119t-22 152q0 84 24 153t68 118t106 76t139 27q56 0 106 -16.5t89.5 -47.5t67 -76.5t39.5 -103.5h-99q-8 34 -25.5 63t-43.5 50t-61 33t-78 12q-48 0 -89.5 -18.5
t-72.5 -55t-48.5 -90.5t-17.5 -124q0 -69 17 -123t48 -91.5t73 -57t93 -19.5q87 0 139.5 44t69.5 114h99zM434 880v-99h-91v99h91z" />
    <glyph glyph-name="Dcaron" unicode="&#x10e;" horiz-adv-x="730" 
d="M575 363q0 92 -25 147t-66 83.5t-94 37t-109 8.5h-93v-553h93q56 0 109 8.5t94 37.5t66 83.5t25 147.5zM284 725q86 0 158.5 -18t125 -60t82 -111.5t29.5 -172.5q0 -104 -29.5 -173.5t-82 -111.5t-125 -60t-158.5 -18h-198v725h198zM187 886h107l67 -56l69 56h107
l-135 -113h-84z" />
    <glyph glyph-name="Dcroat" unicode="&#x110;" horiz-adv-x="729" 
d="M284 725q86 0 158.5 -18t125 -60t82 -111.5t29.5 -172.5q0 -104 -29.5 -173.5t-82 -111.5t-125 -60t-158.5 -18h-198v323h-64v90h64v312h198zM575 363q0 92 -25 147t-66 83.5t-94 37t-109 8.5h-93v-226h159v-90h-159v-237h93q56 0 109 8.5t94 37.5t66 83.5t25 147.5z" />
    <glyph glyph-name="Ebreve" unicode="&#x114;" horiz-adv-x="613" 
d="M86 725h492v-88h-390v-220h367v-88h-367v-241h390v-88h-492v725zM490 886q-6 -52 -44 -85.5t-115 -33.5q-75 0 -112 33.5t-44 85.5h77q9 -58 80 -58q70 0 81 58h77z" />
    <glyph glyph-name="Ecaron" unicode="&#x11a;" horiz-adv-x="613" 
d="M86 725h492v-88h-390v-220h367v-88h-367v-241h390v-88h-492v725zM167 886h107l67 -56l69 56h107l-135 -113h-84z" />
    <glyph glyph-name="Emacron" unicode="&#x112;" horiz-adv-x="613" 
d="M86 725h492v-88h-390v-220h367v-88h-367v-241h390v-88h-492v725zM185 791v75h300v-75h-300z" />
    <glyph glyph-name="Eogonek" unicode="&#x118;" horiz-adv-x="613" 
d="M86 725h492v-88h-390v-220h367v-88h-367v-241h390v-88h-492v725zM578 0q-38 -19 -63 -39.5t-25 -40.5q0 -24 14 -34.5t33 -10.5q21 0 41 9v-61q-25 -11 -60 -11q-20 0 -40 5t-35.5 16t-25.5 29t-10 45q0 26 16 49.5t53 43.5h102z" />
    <glyph glyph-name="Edotaccent" unicode="&#x116;" horiz-adv-x="613" 
d="M86 725h492v-88h-390v-220h367v-88h-367v-241h390v-88h-492v725zM378 880v-99h-91v99h91z" />
    <glyph glyph-name="Gbreve" unicode="&#x11e;" horiz-adv-x="770" 
d="M388 738q56 0 106 -15.5t89 -44t66.5 -70.5t38.5 -94h-99q-18 61 -68.5 99.5t-137.5 38.5q-48 0 -89.5 -18.5t-72.5 -55t-48.5 -90.5t-17.5 -124q0 -69 17 -123t47 -91.5t72 -57t92 -19.5q36 0 74 8.5t69 30t51 58.5t20 93v19h-192v88h288v-370h-80l-5 91
q-35 -56 -95.5 -80t-133.5 -24q-78 0 -139 28t-103 78t-64 119t-22 152q0 84 24 153t68 118t106 76t139 27zM543 886q-6 -52 -44 -85.5t-115 -33.5q-75 0 -112 33.5t-44 85.5h77q9 -58 80 -58q70 0 81 58h77z" />
    <glyph glyph-name="Gcircumflex" unicode="&#x11c;" horiz-adv-x="770" 
d="M388 738q56 0 106 -15.5t89 -44t66.5 -70.5t38.5 -94h-99q-18 61 -68.5 99.5t-137.5 38.5q-48 0 -89.5 -18.5t-72.5 -55t-48.5 -90.5t-17.5 -124q0 -69 17 -123t47 -91.5t72 -57t92 -19.5q36 0 74 8.5t69 30t51 58.5t20 93v19h-192v88h288v-370h-80l-5 91
q-35 -56 -95.5 -80t-133.5 -24q-78 0 -139 28t-103 78t-64 119t-22 152q0 84 24 153t68 118t106 76t139 27zM562 773h-107l-68 56l-68 -56h-107l135 113h83z" />
    <glyph glyph-name="uni0122" unicode="&#x122;" horiz-adv-x="770" 
d="M388 738q56 0 106 -15.5t89 -44t66.5 -70.5t38.5 -94h-99q-18 61 -68.5 99.5t-137.5 38.5q-48 0 -89.5 -18.5t-72.5 -55t-48.5 -90.5t-17.5 -124q0 -69 17 -123t47 -91.5t72 -57t92 -19.5q36 0 74 8.5t69 30t51 58.5t20 93v19h-192v88h288v-370h-80l-5 91
q-35 -56 -95.5 -80t-133.5 -24q-78 0 -139 28t-103 78t-64 119t-22 152q0 84 24 153t68 118t106 76t139 27zM326 -36h95v-95l-44 -90h-54l39 96h-36v89z" />
    <glyph glyph-name="Gdotaccent" unicode="&#x120;" horiz-adv-x="770" 
d="M388 738q56 0 106 -15.5t89 -44t66.5 -70.5t38.5 -94h-99q-18 61 -68.5 99.5t-137.5 38.5q-48 0 -89.5 -18.5t-72.5 -55t-48.5 -90.5t-17.5 -124q0 -69 17 -123t47 -91.5t72 -57t92 -19.5q36 0 74 8.5t69 30t51 58.5t20 93v19h-192v88h288v-370h-80l-5 91
q-35 -56 -95.5 -80t-133.5 -24q-78 0 -139 28t-103 78t-64 119t-22 152q0 84 24 153t68 118t106 76t139 27zM433 880v-99h-91v99h91z" />
    <glyph glyph-name="Hbar" unicode="&#x126;" horiz-adv-x="758" 
d="M671 725v-128h67v-80h-67v-517h-102v329h-381v-329h-102v517h-66v80h66v128h102v-128h381v128h102zM569 417v100h-381v-100h381z" />
    <glyph glyph-name="Hcircumflex" unicode="&#x124;" horiz-adv-x="757" 
d="M671 725v-725h-102v329h-381v-329h-102v725h102v-308h381v308h102zM553 773h-107l-68 56l-68 -56h-107l135 113h83z" />
    <glyph glyph-name="Ibreve" unicode="&#x12c;" horiz-adv-x="274" 
d="M188 0h-102v725h102v-725zM296 886q-6 -52 -44 -85.5t-115 -33.5q-75 0 -112 33.5t-44 85.5h77q9 -58 80 -58q70 0 81 58h77z" />
    <glyph glyph-name="Idotaccent" unicode="&#x130;" horiz-adv-x="274" 
d="M188 0h-102v725h102v-725zM183 880v-99h-91v99h91z" />
    <glyph glyph-name="Imacron" unicode="&#x12a;" horiz-adv-x="274" 
d="M188 0h-102v725h102v-725zM-12 791v75h300v-75h-300z" />
    <glyph glyph-name="Iogonek" unicode="&#x12e;" horiz-adv-x="274" 
d="M188 0h-102v725h102v-725zM189 0q-38 -19 -63 -39.5t-25 -40.5q0 -24 14 -34.5t33 -10.5q21 0 41 9v-61q-25 -11 -60 -11q-20 0 -40 5t-35.5 16t-25.5 29t-10 45q0 26 16 49.5t53 43.5h102z" />
    <glyph glyph-name="Itilde" unicode="&#x128;" horiz-adv-x="274" 
d="M188 0h-102v725h102v-725zM204 840q19 0 31.5 11t15.5 34h71q-11 -62 -43.5 -87.5t-72.5 -25.5q-23 0 -41 7.5t-34 16t-30.5 16t-30.5 7.5q-40 0 -45 -44h-71q10 58 41 85t74 27q23 0 40.5 -7.5t32.5 -16t30 -16t32 -7.5z" />
    <glyph glyph-name="uni1ECA" unicode="&#x1eca;" horiz-adv-x="274" 
d="M188 0h-102v725h102v-725zM183 -76v-99h-91v99h91z" />
    <glyph glyph-name="Jcircumflex" unicode="&#x134;" horiz-adv-x="552" 
d="M364 725h102v-495q0 -119 -60.5 -181t-167.5 -62q-106 0 -166.5 59.5t-60.5 177.5h95q0 -38 10.5 -66.5t28.5 -48t42 -29.5t51 -10q22 0 44.5 6.5t40.5 24.5t29.5 49.5t11.5 80.5v494zM590 773h-107l-68 56l-68 -56h-107l135 113h83z" />
    <glyph glyph-name="uni0136" unicode="&#x136;" horiz-adv-x="666" 
d="M188 360l327 365h127l-271 -296l302 -429h-122l-249 354l-114 -126v-228h-102v725h102v-365zM313 -36h95v-95l-44 -90h-54l39 96h-36v89z" />
    <glyph glyph-name="Lacute" unicode="&#x139;" horiz-adv-x="571" 
d="M188 88h383v-88h-485v725h102v-637zM178 773h-90l110 113h129z" />
    <glyph glyph-name="Lcaron" unicode="&#x13d;" horiz-adv-x="571" 
d="M188 88h383v-88h-485v725h102v-637zM338 555h-58l30 170h98z" />
    <glyph glyph-name="uni013B" unicode="&#x13b;" horiz-adv-x="571" 
d="M188 88h383v-88h-485v725h102v-637zM282 -36h95v-95l-44 -90h-54l39 96h-36v89z" />
    <glyph glyph-name="Ldot" unicode="&#x13f;" horiz-adv-x="571" 
d="M188 88h383v-88h-485v725h102v-637zM468 467v-99h-91v99h91z" />
    <glyph glyph-name="Lslash" unicode="&#x141;" horiz-adv-x="571" 
d="M188 413l189 129v-91l-189 -129v-234h383v-88h-485v252l-86 -59v91l86 59v382h102v-312z" />
    </font>
</defs>
</svg>
