<?xml version="1.0" encoding="utf-8"?>
<!-- Generator: Adobe Illustrator 23.0.2, SVG Export Plug-In . SVG Version: 6.00 Build 0)  -->
<svg version="1.1" id="Layer_1" xmlns="http://www.w3.org/2000/svg" xmlns:xlink="http://www.w3.org/1999/xlink" x="0px" y="0px"
	 viewBox="0 0 796.8 630.3" style="enable-background:new 0 0 796.8 630.3;" xml:space="preserve">
<g>
	<path d="M122.1,416.8c2.6,84.6,36.7,113.6,91.4,113.6c53.8,0,90.5-29,90.5-113.6V0h122.1v416.8c0,130.7-77.7,213.5-212.7,213.5
		C77.7,630.3,3.4,541.5,0,416.8H122.1z"/>
	<path d="M304,408.9V0h215.5c129.5,0,277.2,18.3,277.2,208.6c0,160.8-128.6,199.9-273.8,199.9h-94.7 M428.3,312h102.6
		c77.3,0,138.2-19.1,138.2-102.6C669.1,106,590,97.3,522.2,97.3h-93.9V312z"/>
</g>
</svg>
